<svg width="190" height="144" viewBox="0 0 190 144" fill="none" xmlns="http://www.w3.org/2000/svg">
<path d="M16.0842 49.6518C11.9201 49.6518 8.54455 54.1113 8.54455 59.6087C8.54455 54.1113 5.16897 49.6518 1.00488 49.6518C5.16897 49.6518 8.54455 45.1923 8.54455 39.6948C8.54455 45.1923 11.9201 49.6518 16.0842 49.6518Z" fill="#D1C1FF"/>
<path d="M7.52722 59.6298C7.52722 57.0574 6.73866 54.7678 5.51504 53.1455C4.32868 51.5727 2.78711 50.683 1.17425 50.629L1.01802 50.6268L0.914061 50.6213C0.400754 50.5715 0.000138888 50.1567 0 49.6521C0 49.1138 0.455784 48.6775 1.01802 48.6775L1.17425 48.6747C2.78711 48.6207 4.32868 47.731 5.51504 46.1582C6.73866 44.5359 7.52722 42.2463 7.52722 39.6739C7.52722 39.1356 7.98301 38.6992 8.54525 38.6992C9.07226 38.6993 9.50551 39.0829 9.55759 39.5743L9.56327 39.6739L9.56554 39.9143C9.61295 42.3888 10.3895 44.5866 11.5749 46.1582C12.7995 47.7817 14.4026 48.6775 16.0719 48.6775C16.6341 48.6775 17.0899 49.1138 17.0899 49.6521C17.0898 50.1903 16.634 50.6268 16.0719 50.6268C14.4026 50.6268 12.7995 51.522 11.5749 53.1455C10.3895 54.7171 9.61295 56.9149 9.56554 59.3894L9.56327 59.6298L9.55759 59.7294C9.50551 60.2208 9.07226 60.6044 8.54525 60.6045C7.98301 60.6045 7.52722 60.1681 7.52722 59.6298ZM8.54468 44.8784C8.17342 45.7635 7.70978 46.5782 7.16592 47.2992C6.43974 48.262 5.55773 49.0716 4.55951 49.6516C5.55784 50.2316 6.43967 51.0416 7.16592 52.0045C7.70969 52.7254 8.17345 53.5399 8.54468 54.4248C8.91592 53.5398 9.3802 52.7255 9.92401 52.0045C10.6501 51.0418 11.5317 50.2315 12.5298 49.6516C11.5318 49.0716 10.6501 48.2619 9.92401 47.2992C9.38011 46.5781 8.91595 45.7635 8.54468 44.8784Z" fill="#2C045D"/>
<path d="M186.984 99.4366C181.987 99.4366 177.936 104.788 177.936 111.385C177.936 104.788 173.886 99.4366 168.889 99.4366C173.886 99.4366 177.936 94.0856 177.936 87.4883C177.936 94.0856 181.987 99.4366 186.984 99.4366Z" fill="#2C045D"/>
<path d="M176.896 111.385C176.896 108.272 175.943 105.494 174.453 103.519C173.009 101.604 171.116 100.501 169.116 100.434L168.922 100.432L168.816 100.426C168.292 100.375 167.883 99.9517 167.883 99.4365C167.883 98.8869 168.348 98.4414 168.922 98.4414L169.116 98.438C171.116 98.371 173.009 97.268 174.453 95.3533C175.943 93.3782 176.896 90.6002 176.896 87.4873C176.896 86.9377 177.362 86.4922 177.936 86.4922C178.474 86.4922 178.917 86.8838 178.97 87.3857L178.975 87.4873L178.978 87.7783C179.035 90.7731 179.975 93.44 181.418 95.3533C182.909 97.3297 184.878 98.4414 186.949 98.4414C187.523 98.4415 187.989 98.887 187.989 99.4365C187.988 99.9859 187.523 100.432 186.949 100.432C184.878 100.432 182.909 101.543 181.418 103.519C179.975 105.432 179.035 108.099 178.978 111.094L178.975 111.385L178.97 111.487C178.917 111.989 178.474 112.38 177.936 112.38C177.362 112.38 176.896 111.935 176.896 111.385ZM177.936 93.2414C177.472 94.4503 176.865 95.5553 176.138 96.5183C175.217 97.74 174.087 98.7485 172.807 99.4359C174.088 100.123 175.217 101.132 176.138 102.354C176.864 103.317 177.472 104.422 177.936 105.63C178.4 104.422 179.006 103.317 179.733 102.354C180.654 101.132 181.783 100.123 183.064 99.4359C181.784 98.7485 180.654 97.7399 179.733 96.5183C179.006 95.5554 178.4 94.4502 177.936 93.2414Z" fill="#2C045D"/>
<path d="M28.3595 56.9394C29.7392 54.6948 32.7429 53.902 36.406 53.9529C40.1513 54.0049 44.989 54.9386 50.6055 56.6139C61.8542 59.9693 76.4517 66.3686 92.1358 75.0251C92.6199 75.2923 92.7941 75.8978 92.5244 76.3773C92.2547 76.8568 91.6434 77.0288 91.1592 76.7617C75.5519 68.1476 61.0916 61.8181 50.0267 58.5175C44.4864 56.8649 39.853 55.9891 36.3774 55.9408C32.8196 55.8914 30.8519 56.7081 30.0741 57.9734C29.2655 59.2891 29.4862 61.5105 31.3318 64.7956C33.1318 67.9995 36.2957 71.8789 40.636 76.2117C41.0263 76.6015 41.0237 77.2306 40.6302 77.6172C40.2368 78.0038 39.6016 78.0016 39.2112 77.6121C34.8158 73.2243 31.5067 69.1959 29.5778 65.7626C27.6946 62.4107 26.93 59.2649 28.3595 56.9394Z" fill="#2C045D"/>
<path d="M64.3388 107.402L55.1586 65.583L45.2383 83.7684L64.3388 107.402Z" fill="#D1C1FF"/>
<path d="M54.3106 65.0434C54.5218 64.719 54.9068 64.5427 55.2984 64.5972C55.716 64.6553 56.0526 64.9638 56.1418 65.3704L65.3206 107.195C65.4196 107.645 65.1907 108.104 64.7683 108.302C64.3457 108.5 63.8405 108.385 63.549 108.024L44.4519 84.3869C44.2008 84.0761 44.1617 83.6478 44.3525 83.2978L54.2713 65.1099L54.3106 65.0434ZM46.4404 83.6614L62.4416 103.466L54.7511 68.4227L46.4404 83.6614Z" fill="#2C045D"/>
<path d="M64.3381 107.403L25.1318 89.0469L45.2792 83.5059L64.3381 107.403Z" fill="#F2EDFF"/>
<path d="M45.086 82.5287C45.452 82.4567 45.8306 82.5931 46.0657 82.8876L65.1246 106.769C65.4155 107.133 65.4171 107.65 65.128 108.016C64.8389 108.382 64.3355 108.501 63.9128 108.303L24.7059 89.9591C24.3248 89.7808 24.095 89.3844 24.1306 88.9657C24.1662 88.547 24.4595 88.1948 24.8652 88.0831L45.0131 82.5455L45.086 82.5287ZM28.025 89.2961L60.8758 104.665L44.9066 84.656L28.025 89.2961Z" fill="#2C045D"/>
<path d="M86.7687 111.557C87.041 111.119 87.6016 110.964 88.0596 111.183L88.1498 111.231L89.4491 112.02C102.867 120.126 115.91 126.911 127.415 131.958C137.971 136.589 147.193 139.742 154.197 141.127C157.703 141.82 160.599 142.058 162.804 141.843C165.033 141.625 166.368 140.967 167.031 140.065C167.517 139.403 167.958 138.759 168.205 137.987C168.442 137.243 168.514 136.327 168.147 135.119C167.388 132.627 164.76 128.899 157.834 123.196C157.407 122.845 157.35 122.219 157.704 121.797C158.058 121.375 158.691 121.317 159.117 121.667C166.093 127.411 169.129 131.458 170.069 134.546C170.55 136.128 170.48 137.454 170.118 138.587C169.765 139.693 169.148 140.562 168.654 141.235L168.654 141.236C167.495 142.812 165.461 143.581 163.001 143.821C160.517 144.063 157.403 143.788 153.804 143.077C146.596 141.652 137.223 138.435 126.603 133.776C115.008 128.689 101.887 121.863 88.4036 113.718L87.0977 112.925L87.0131 112.867C86.609 112.561 86.4964 111.996 86.7687 111.557Z" fill="#2C045D"/>
<path d="M79.418 23.7642H151.799V117.359H103.585L79.418 93.3606V23.7642Z" fill="#F2EDFF"/>
<path d="M151 104.738L131 111L151 93V104.738Z" fill="#D1C1FF"/>
<path d="M80 54.8667L99 40.8667L80 47.8667V54.8667Z" fill="#D1C1FF"/>
<path d="M151.795 22.7681C152.352 22.7681 152.804 23.2166 152.804 23.77V117.353C152.803 117.906 152.352 118.355 151.795 118.355H103.585C103.318 118.355 103.061 118.249 102.872 118.061L78.7077 94.0653C78.5185 93.8774 78.4121 93.6226 78.4121 93.3569V23.77C78.4121 23.2166 78.8638 22.7681 79.4211 22.7681H151.795ZM80.4301 92.942L104.004 116.351H150.786V24.7719H80.4301V92.942Z" fill="#2C045D"/>
<path d="M103.545 117.359V95.2021C103.545 94.2424 102.757 93.4624 101.788 93.4624H79.418L103.545 117.359Z" fill="#E1D7FF"/>
<path d="M102.535 95.2036C102.535 94.7952 102.199 94.4621 101.786 94.4621H81.8511L102.535 114.949V95.2036ZM104.55 117.357C104.55 117.761 104.304 118.125 103.928 118.279C103.552 118.433 103.118 118.348 102.83 118.062L78.7074 94.1698C78.4193 93.8845 78.3328 93.4553 78.4887 93.0825C78.6446 92.7098 79.0122 92.4668 79.4195 92.4668H101.786C103.311 92.4668 104.55 93.6932 104.55 95.2036V117.357Z" fill="#2C045D"/>
<path d="M134.717 53.6348L134.819 53.6398C135.322 53.6908 135.715 54.1149 135.715 54.6305C135.715 55.146 135.322 55.5702 134.819 55.6212L134.717 55.6262H96.5003C95.9494 55.6262 95.5029 55.1804 95.5029 54.6305C95.5029 54.0806 95.9494 53.6348 96.5003 53.6348H134.717Z" fill="#2C045D"/>
<path d="M127.676 63.5918L127.779 63.5968C128.283 63.6478 128.677 64.072 128.677 64.5875C128.677 65.103 128.283 65.5271 127.779 65.5782L127.676 65.5832H96.5041C95.9512 65.5832 95.5029 65.1374 95.5029 64.5875C95.5029 64.0376 95.9512 63.5918 96.5041 63.5918H127.676Z" fill="#2C045D"/>
<path d="M127.676 72.5532L127.779 72.5582C128.283 72.6093 128.677 73.0334 128.677 73.5489C128.677 74.0644 128.283 74.4886 127.779 74.5396L127.676 74.5446H96.5041C95.9512 74.5446 95.5029 74.0988 95.5029 73.5489C95.5029 72.999 95.9512 72.5532 96.5041 72.5532H127.676Z" fill="#2C045D"/>
<path d="M108.571 92.4668L113.598 116.363H108.571V92.4668Z" fill="#2C045D"/>
<path d="M103.344 90.4756H76.6031C74.2712 90.4756 72.3809 92.3479 72.3809 94.6575V121.143C72.3809 123.453 74.2712 125.325 76.6031 125.325H103.344C105.676 125.325 107.566 123.453 107.566 121.143V94.6575C107.566 92.3479 105.676 90.4756 103.344 90.4756Z" fill="#B999FF"/>
<path d="M106.568 94.6546C106.568 92.9474 105.214 91.5537 103.512 91.4681L103.346 91.4637H76.5995C74.8203 91.4638 73.3779 92.8923 73.3778 94.6546V121.146L73.3823 121.31C73.4687 122.996 74.8759 124.337 76.5995 124.337H103.346C105.126 124.337 106.568 122.908 106.568 121.146V94.6546ZM108.571 121.146C108.571 124.004 106.232 126.321 103.346 126.321H76.5995C73.8042 126.321 71.5216 124.146 71.3817 121.412L71.375 121.146V94.6546C71.375 91.7968 73.7141 89.48 76.5995 89.48H103.346L103.615 89.4866C106.376 89.6251 108.571 91.886 108.571 94.6546V121.146Z" fill="#2C045D"/>
<path d="M76.4014 101.428V96.6891C76.4014 95.4578 77.4103 94.4585 78.6535 94.4585H83.4384C79.5513 94.4585 76.4014 97.5798 76.4014 101.428Z" fill="#D1C1FF"/>
<path d="M75.3965 101.38V96.7061C75.3965 94.9154 76.8635 93.4624 78.6714 93.4624H83.3907C83.9724 93.4625 84.4441 93.9296 84.4441 94.5058C84.4441 95.082 83.9724 95.5491 83.3907 95.5491C80.1387 95.5491 77.5033 98.1606 77.5033 101.38L77.498 101.487C77.4441 102.013 76.9954 102.424 76.4499 102.424C75.9045 102.424 75.4557 102.013 75.4018 101.487L75.3965 101.38Z" fill="#D1C1FF"/>
<path d="M87.7872 119.349C85.8312 119.349 84.0442 118.339 83.1244 116.715L79.756 110.763C79.281 109.923 79.3081 108.934 79.8278 108.12C80.3475 107.304 81.2625 106.817 82.2731 106.817C83.3348 106.817 84.3024 107.367 84.7966 108.252L87.3233 112.766C87.4636 113.016 87.7123 113.043 87.8127 113.043C87.9131 113.043 88.1586 113.016 88.3005 112.767L96.1658 98.8661C96.6616 97.9899 97.626 97.4453 98.6813 97.4453C99.7366 97.4453 100.607 97.9329 101.127 98.7505C101.646 99.5682 101.67 100.557 101.192 101.395L92.4436 116.73C91.5222 118.345 89.7384 119.351 87.7888 119.351L87.7872 119.349Z" fill="#F2EDFF"/>
<path d="M98.6528 96.4497C100.081 96.4497 101.284 97.1278 101.985 98.2359C102.647 99.2816 102.717 100.54 102.188 101.636L102.074 101.853L93.3553 117.203C92.2559 119.14 90.1252 120.346 87.7971 120.346H87.3642L87.3468 120.33C85.1893 120.186 83.2545 119.007 82.2278 117.186L78.871 111.228C78.2263 110.082 78.2627 108.725 78.9688 107.613C79.6754 106.499 80.9272 105.832 82.3 105.832C83.7452 105.832 85.0649 106.584 85.7376 107.793L87.8227 111.536L95.2257 98.3941C95.9006 97.1959 97.2155 96.4498 98.6528 96.4497ZM98.6528 98.4177C97.9869 98.4178 97.3796 98.7618 97.0664 99.3176L89.2276 113.234L89.2265 113.237C88.8181 113.957 88.0817 114.032 87.8209 114.032C87.5658 114.032 86.8179 113.959 86.4107 113.229L83.8923 108.709L83.8917 108.709C83.5792 108.147 82.9706 107.8 82.3 107.8C81.6586 107.8 81.0869 108.105 80.7577 108.625L80.7571 108.625C80.4273 109.145 80.4102 109.767 80.7123 110.304H80.7117L84.0691 116.262C84.8051 117.567 86.2322 118.377 87.7953 118.377H87.9064C89.4215 118.34 90.7976 117.542 91.5175 116.274L100.236 100.923L100.29 100.822C100.537 100.311 100.505 99.7336 100.195 99.2446C99.8604 98.7158 99.3281 98.4177 98.6528 98.4177Z" fill="#2C045D"/>
<path d="M129.946 81.6562L163.805 23.623L185.888 36.2401L152.03 94.2732C151.304 95.518 150.277 96.5678 149.042 97.3242L131.329 109.757C129.294 111.187 126.512 109.598 126.746 107.138L128.77 85.7424C128.817 84.3069 129.22 82.9009 129.946 81.6562Z" fill="#B999FF"/>
<path d="M184.522 36.606L164.17 24.9786L130.812 82.1521C130.21 83.1847 129.858 84.3439 129.783 85.5334L129.771 85.7715L129.767 85.8321L127.743 107.229L127.743 107.229C127.59 108.844 129.416 109.887 130.753 108.948L148.466 96.5154L148.519 96.4807C149.612 95.8114 150.521 94.8819 151.164 93.7795L184.522 36.606ZM152.897 94.7695C152.094 96.146 150.961 97.3085 149.597 98.1505L131.906 110.569C129.171 112.49 125.434 110.355 125.748 107.051L125.748 107.05L127.771 85.6736C127.829 84.0896 128.277 82.5382 129.079 81.1621L162.94 23.1271C163.217 22.6513 163.83 22.4872 164.309 22.7606L186.394 35.378C186.872 35.6514 187.035 36.2587 186.757 36.7345L152.897 94.7695Z" fill="#2C045D"/>
<path d="M185.88 36.2629L178.548 48.8244C177.029 51.4271 170.847 50.707 164.741 47.2195C158.634 43.7319 154.913 38.7962 156.432 36.1934L163.763 23.6319C165.282 21.0292 171.464 21.7493 177.571 25.2369C183.678 28.7244 187.399 33.6601 185.88 36.2629Z" fill="#E1D7FF"/>
<path d="M185.012 35.7672C185.222 35.4081 185.297 34.8988 185.11 34.1857C184.923 33.4667 184.485 32.6127 183.781 31.6793C182.376 29.8154 180.032 27.7924 177.068 26.0992C174.103 24.4061 171.16 23.4099 168.826 23.1384C167.657 23.0024 166.69 23.054 165.967 23.2526C165.249 23.4497 164.841 23.7683 164.631 24.1274L157.299 36.689L157.262 36.7579C157.081 37.1124 157.027 37.602 157.201 38.2705C157.389 38.9896 157.827 39.8437 158.531 40.7772C159.936 42.6411 162.279 44.6638 165.244 46.357C168.209 48.0501 171.152 49.0466 173.486 49.3181C174.655 49.454 175.622 49.4022 176.345 49.2036C177.062 49.0065 177.471 48.6879 177.681 48.3288L185.012 35.7672ZM179.416 49.3198C178.866 50.2621 177.933 50.8298 176.873 51.1207C175.819 51.4101 174.574 51.4481 173.244 51.2935C170.581 50.9837 167.379 49.8761 164.237 48.0818C161.095 46.2874 158.525 44.0985 156.922 41.972C156.122 40.9104 155.533 39.8245 155.259 38.7772C155.001 37.7897 155.012 36.7755 155.467 35.8761L155.564 35.6979L162.896 23.1363C163.446 22.1941 164.38 21.6267 165.439 21.3357C166.493 21.0464 167.738 21.0081 169.068 21.1627C171.731 21.4725 174.932 22.5801 178.074 24.3744C181.216 26.1688 183.787 28.3577 185.39 30.4842C186.19 31.5459 186.779 32.6319 187.053 33.6793C187.328 34.7325 187.298 35.816 186.748 36.7583L179.416 49.3198Z" fill="#2C045D"/>
<path d="M185.889 36.2844L182.738 34.4829L146.177 97.1888L152.07 94.2873L185.889 36.2844Z" fill="#2C045D"/>
<path d="M186.394 35.4212L186.48 35.4764C186.891 35.77 187.017 36.3313 186.757 36.7771L152.932 94.7838C152.833 94.9538 152.686 95.0911 152.509 95.1783L146.615 98.08C146.219 98.2747 145.743 98.19 145.442 97.8715C145.141 97.5529 145.086 97.0754 145.307 96.696L181.875 33.9861C182.152 33.5105 182.764 33.3465 183.242 33.6198L186.394 35.4212ZM148.697 94.8414L151.354 93.5334L184.524 36.6486L183.104 35.8366L148.697 94.8414Z" fill="#2C045D"/>
<path d="M178.579 48.8038L174.911 55.0897C173.391 57.6945 167.204 56.9739 161.094 53.4835C154.983 49.993 151.259 45.0533 152.779 42.4485L156.447 36.1626C154.927 38.7675 158.651 43.7072 164.762 47.1976C170.873 50.688 177.059 51.4087 178.579 48.8038Z" fill="#F2EDFF"/>
<path d="M175.972 51.2865C175.142 51.3968 174.229 51.386 173.271 51.2747C170.606 50.9647 167.403 49.8563 164.259 48.0606C161.115 46.2649 158.543 44.0744 156.939 41.9464C156.363 41.1818 155.897 40.4045 155.578 39.6382L153.649 42.9449L153.611 43.0139C153.431 43.3686 153.376 43.8585 153.55 44.5276C153.738 45.2471 154.177 46.1019 154.881 47.0361C156.287 48.9013 158.632 50.9255 161.598 52.6199C164.565 54.3143 167.51 55.3115 169.845 55.5832C171.015 55.7192 171.982 55.6674 172.706 55.4686C173.424 55.2714 173.833 54.9525 174.043 54.5932L175.972 51.2865ZM175.779 55.585C175.229 56.5279 174.295 57.096 173.234 57.3872C172.18 57.6768 170.934 57.7148 169.603 57.56C166.938 57.2501 163.735 56.1417 160.591 54.346C157.447 52.5503 154.875 50.3598 153.271 48.2317C152.471 47.1694 151.881 46.0826 151.607 45.0346C151.349 44.0464 151.359 43.0314 151.815 42.1314L151.912 41.9531L155.58 35.6677C155.858 35.1911 156.473 35.0267 156.952 35.3006C157.432 35.5744 157.595 36.1829 157.317 36.6595C157.107 37.0188 157.032 37.5286 157.219 38.2422C157.407 38.9618 157.845 39.8165 158.549 40.7507C159.955 42.6159 162.3 44.6402 165.266 46.3345C168.233 48.029 171.178 49.0261 173.513 49.2978C174.683 49.4338 175.65 49.382 176.374 49.1832C177.092 48.986 177.501 48.6672 177.711 48.3078C177.989 47.8312 178.603 47.6669 179.083 47.9407C179.562 48.2146 179.725 48.823 179.447 49.2996L175.779 55.585Z" fill="#2C045D"/>
<path d="M172.059 34.6737C178.171 38.1651 184.358 38.8843 185.878 36.2802C187.398 33.676 183.675 28.7346 177.562 25.2432C171.45 21.7517 165.263 21.0325 163.744 23.6366C162.224 26.2408 165.947 31.1823 172.059 34.6737Z" fill="#D1C1FF"/>
<path d="M185.009 35.7834C185.218 35.4243 185.293 34.9147 185.106 34.2009C184.918 33.4813 184.48 32.6267 183.776 31.6923C182.37 29.8266 180.025 27.8017 177.058 26.1068C174.091 24.412 171.146 23.4151 168.81 23.1436C167.64 23.0076 166.673 23.0594 165.949 23.2582C165.231 23.4554 164.822 23.7742 164.612 24.1332C164.403 24.4923 164.328 25.002 164.515 25.7157C164.702 26.4353 165.141 27.29 165.845 28.2243C167.25 30.09 169.596 32.115 172.563 33.8098C175.53 35.5046 178.475 36.5015 180.811 36.773C181.981 36.909 182.948 36.8573 183.672 36.6584C184.39 36.4612 184.799 36.1424 185.009 35.7834ZM186.745 36.7753C186.195 37.7182 185.261 38.2861 184.201 38.5773C183.146 38.8669 181.9 38.9056 180.569 38.751C177.904 38.4411 174.7 37.3323 171.555 35.5361C168.411 33.74 165.839 31.5493 164.235 29.4209C163.434 28.3582 162.844 27.2707 162.571 26.2225C162.296 25.1685 162.326 24.0841 162.876 23.1413C163.426 22.1985 164.36 21.6305 165.42 21.3393C166.475 21.0497 167.721 21.0117 169.052 21.1664C171.717 21.4763 174.921 22.5844 178.066 24.3805C181.21 26.1767 183.783 28.368 185.386 30.4965C186.187 31.5591 186.777 32.646 187.05 33.6941C187.325 34.7481 187.295 35.8325 186.745 36.7753Z" fill="#2C045D"/>
<path d="M126.76 107.13C126.526 109.592 129.312 111.182 131.35 109.751L149.088 97.3053C150.322 96.5467 152.269 93.9272 152.996 92.6812L147.934 93.9767C145.953 94.3497 143.313 94.4161 142.646 92.5343L142.176 91.2078C141.513 89.325 139.562 88.2106 137.579 88.5822L136.183 88.8434C134.203 89.2165 132.942 86.9189 132.276 85.0346L130.879 80.0498C130.152 81.2958 128.829 84.2718 128.785 85.7103L126.758 107.128L126.76 107.13Z" fill="#F2EDFF"/>
<path d="M152.749 91.7183C153.141 91.6182 153.553 91.7601 153.797 92.0784C154.04 92.3968 154.066 92.8296 153.864 93.1767C153.469 93.8525 152.77 94.8607 152.014 95.7961C151.295 96.6859 150.422 97.6383 149.652 98.1253L131.927 110.562C129.212 112.469 125.512 110.385 125.755 107.125C125.755 107.097 125.756 107.068 125.759 107.04L127.785 85.6408C127.824 84.7353 128.222 83.5098 128.642 82.4484C129.084 81.3327 129.617 80.2298 130.011 79.5543C130.214 79.2073 130.606 79.0135 131.006 79.0627C131.407 79.1119 131.737 79.3946 131.845 79.7798L133.233 84.7302C133.55 85.6195 133.979 86.5222 134.506 87.1447C135.031 87.7643 135.508 87.959 136 87.8666L136.001 87.8662L137.397 87.6047C139.865 87.1424 142.296 88.5295 143.123 90.8749L143.593 92.2017L143.592 92.2014C143.758 92.6697 144.17 92.9816 144.974 93.1212C145.783 93.2616 146.789 93.178 147.725 93.0037L152.749 91.7183ZM130.51 83.1677C130.109 84.1807 129.839 85.0873 129.793 85.6324L129.787 85.7368L129.783 85.7992L127.763 107.144C127.762 107.169 127.761 107.194 127.759 107.219C127.605 108.835 129.434 109.88 130.773 108.94L130.773 108.94L148.511 96.4945L148.562 96.4604C149.017 96.1809 149.718 95.4623 150.451 94.5562C150.517 94.4741 150.582 94.3909 150.647 94.3083L148.18 94.94C148.159 94.9453 148.138 94.9497 148.117 94.9537C147.08 95.1491 145.786 95.283 144.621 95.0808C143.443 94.8765 142.2 94.2808 141.699 92.8675L141.699 92.8668L141.23 91.5407L141.229 91.5392C140.729 90.12 139.258 89.279 137.761 89.5594L137.761 89.5596L136.366 89.8199C134.877 90.1004 133.734 89.3334 132.967 88.4267C132.208 87.5291 131.678 86.353 131.33 85.3671C131.322 85.3466 131.316 85.3259 131.31 85.305L130.629 82.8743C130.588 82.9716 130.548 83.0694 130.51 83.1677Z" fill="#2C045D"/>
<path d="M139.299 104.154L131.35 109.733C129.311 111.165 126.525 109.574 126.759 107.111L127.661 97.5837C128.568 99.3215 130.28 101.06 132.551 102.357C134.821 103.653 137.303 104.276 139.299 104.154Z" fill="#2C045D"/>
<path d="M139.241 103.161C139.688 103.133 140.098 103.404 140.246 103.823C140.394 104.241 140.243 104.708 139.876 104.965L131.928 110.544C129.188 112.468 125.446 110.33 125.76 107.022L126.662 97.4952C126.704 97.0554 127.032 96.6945 127.47 96.6085C127.907 96.5226 128.347 96.7325 128.552 97.1239C129.356 98.6641 130.918 100.274 133.054 101.494C135.19 102.714 137.478 103.269 139.241 103.161ZM136.482 104.914C135.008 104.611 133.48 104.038 132.047 103.22C130.621 102.405 129.387 101.416 128.407 100.343L127.758 107.2L127.758 107.2C127.604 108.817 129.434 109.862 130.773 108.921L136.482 104.914Z" fill="#2C045D"/>
<path d="M82.0408 2.5012L32.7085 23.9426C31.1948 24.6005 30.5111 26.354 31.1812 27.8593L45.4393 59.8838C46.1095 61.3891 47.8798 62.076 49.3935 61.4181L98.7258 39.9767C100.239 39.3189 100.923 37.5653 100.253 36.06L85.9949 4.0355C85.3247 2.53025 83.5544 1.84332 82.0408 2.5012Z" fill="#D1C1FF"/>
<path d="M85.0768 4.435C84.6309 3.4336 83.4531 2.97659 82.4461 3.41426L33.1147 24.8552C32.1077 25.2929 31.6528 26.4594 32.0987 27.4608L46.3565 59.4846C46.8023 60.486 47.9801 60.943 48.9871 60.5053L98.3185 39.0644C99.3255 38.6267 99.7804 37.4602 99.3346 36.4587L85.0768 4.435ZM101.169 35.6614C102.064 37.6704 101.151 40.0108 99.1308 40.8888L49.7994 62.3297C47.7792 63.2077 45.4164 62.2909 44.5219 60.2819L30.2641 28.2582C29.3697 26.2492 30.2822 23.9088 32.3024 23.0308L81.6339 1.58986C83.6541 0.711819 86.0169 1.62864 86.9113 3.63763L101.169 35.6614Z" fill="#2C045D"/>
<path d="M88.122 8.67432L33.2383 32.5679L35.2633 37.1237L90.1471 13.2301L88.122 8.67432Z" fill="#2C045D"/>
<path d="M87.7128 7.76404C88.2201 7.54327 88.8133 7.77379 89.0379 8.27892L91.0626 12.8331C91.2872 13.3383 91.0581 13.9267 90.5509 14.1475L35.6715 38.034C35.1642 38.2548 34.571 38.0243 34.3464 37.5191L32.3217 32.9649C32.0971 32.4598 32.3262 31.8713 32.8334 31.6506L87.7128 7.76404ZM35.7766 35.805L88.8192 12.718L87.6077 9.99302L34.5651 33.0801L35.7766 35.805Z" fill="#2C045D"/>
<path d="M67.3202 35.5816L67.4161 35.5453C67.9 35.3906 68.4348 35.6229 68.6453 36.0965C68.8559 36.5702 68.6676 37.1173 68.2253 37.3658L68.1335 37.4112L49.8392 45.3751C49.3319 45.5959 48.7387 45.3654 48.5141 44.8601C48.2895 44.3549 48.5186 43.7663 49.0259 43.5455L67.3202 35.5816Z" fill="#2C045D"/>
<path d="M65.9018 41.6074C66.409 41.3866 67.0022 41.6171 67.2268 42.1223C67.4514 42.6274 67.2223 43.2159 66.715 43.4367L51.8518 49.9061C51.3446 50.1269 50.7513 49.8964 50.5268 49.3912C50.3022 48.8861 50.5313 48.2976 51.0385 48.0768L65.9018 41.6074Z" fill="#2C045D"/>
<path d="M87.7986 26.3899L80.9502 29.3662L83.9824 36.1762L90.8308 33.1999L87.7986 26.3899Z" fill="#B999FF"/>
<path d="M87.3932 25.4778C87.8996 25.2577 88.4918 25.4875 88.716 25.991L91.7482 32.8009C91.9724 33.3045 91.7436 33.8911 91.2372 34.1111L84.3889 37.0874C83.8825 37.3075 83.2902 37.0777 83.066 36.5742L80.0339 29.7643C79.8097 29.2607 80.0384 28.6741 80.5448 28.4541L87.3932 25.4778ZM84.4938 34.8655L89.5085 32.6862L87.2882 27.6997L82.2736 29.879L84.4938 34.8655Z" fill="#2C045D"/>
</svg>
