<svg xmlns="http://www.w3.org/2000/svg" width="428" height="65">
	<path style="stroke:none;fill-rule:evenodd;fill:#000;fill-opacity:1" d="M171.137 11.984v40.953h6.87V37.523h10.856c2.739 0 5.114-.57 7.117-1.718 2.004-1.145 3.536-2.68 4.598-4.606 1.067-1.965 1.598-4.113 1.598-6.445s-.531-4.461-1.598-6.387c-1.062-1.965-2.594-3.52-4.598-4.664-1.964-1.148-4.335-1.719-7.117-1.719Zm6.87 19.461h9.938c1.387 0 2.618-.265 3.68-.797 1.102-.574 1.96-1.37 2.574-2.394.613-1.024.922-2.192.922-3.5 0-1.309-.309-2.477-.922-3.5a5.936 5.936 0 0 0-2.574-2.332c-1.063-.574-2.293-.86-3.68-.86h-9.937ZM388.634 51.77c1.265 1.27 3.129 1.902 5.582 1.902 1.39 0 2.578-.184 3.555-.55.984-.329 1.78-.778 2.394-1.352l-1.473-4.668c-.285.328-.714.593-1.289.8a4.594 4.594 0 0 1-1.656.305c-.816 0-1.469-.285-1.96-.86-.493-.57-.778-1.347-.86-2.331V28.684h6.012V23.28h-6.012v-8.105h-6.196v8.105h-4.906v5.403h4.906v17.5c0 2.414.633 4.277 1.903 5.586Zm19.715-4.239c-1.88-.816-3.352-1.8-4.414-2.945l-2.887 4.48c1.515 1.477 3.355 2.621 5.52 3.442 2.21.777 4.581 1.164 7.117 1.164 2.578 0 4.765-.387 6.562-1.164 1.84-.82 3.23-1.926 4.172-3.317.98-1.433 1.473-3.07 1.473-4.914 0-2.047-.532-3.664-1.594-4.847-1.063-1.23-2.332-2.11-3.805-2.64-1.472-.575-3.37-1.15-5.703-1.72-1.594-.37-2.844-.699-3.742-.984-.902-.285-1.656-.676-2.27-1.168-.574-.531-.859-1.207-.859-2.023 0-1.067.512-1.883 1.535-2.457 1.02-.614 2.39-.922 4.106-.922 1.8 0 3.48.328 5.03.984 1.556.652 2.802 1.512 3.743 2.578l2.64-4.36c-1.433-1.269-3.109-2.273-5.03-3.007-1.926-.777-4.07-1.168-6.442-1.168-2.371 0-4.438.41-6.195 1.227-1.758.82-3.086 1.925-3.989 3.316-.898 1.39-1.347 2.969-1.347 4.73 0 1.883.488 3.395 1.469 4.543a9.516 9.516 0 0 0 3.62 2.453c1.43.536 3.294 1.067 5.583 1.598 1.636.367 2.921.715 3.867 1.043.976.328 1.797.777 2.449 1.352.656.53.984 1.25.984 2.148 0 .777-.246 1.453-.738 2.027-.45.575-1.101 1.024-1.96 1.352-.86.285-1.884.43-3.067.43-1.965 0-3.906-.41-5.828-1.23Zm-56.243 5.407V23.28h6.196v4.047a16.7 16.7 0 0 1 3.926-3.066c2-1.145 4.293-1.719 6.867-1.719 2.781 0 4.847.633 6.199 1.902 1.348 1.23 2.184 2.578 2.512 4.055.328 1.43.492 2.965.492 4.605v19.833h-6.195V35.19c0-1.308-.102-2.457-.305-3.437-.164-.984-.676-1.844-1.535-2.578-.86-.778-2.168-1.168-3.926-1.168-1.879 0-3.559.449-5.031 1.351a10.473 10.473 0 0 0-3.004 2.715v20.864Zm-27.273-1.168c2.371 1.27 5.027 1.902 7.977 1.902 2.328 0 4.535-.367 6.62-1.106 2.087-.734 3.864-1.82 5.337-3.254l-2.82-4.05c-1.063 1.062-2.376 1.902-3.926 2.515-1.516.575-3.047.86-4.602.86-2.125 0-3.926-.469-5.395-1.41a8.904 8.904 0 0 1-3.316-3.747 11.669 11.669 0 0 1-.984-3.316h23.07V38.63c0-3.07-.594-5.813-1.781-8.227-1.188-2.457-2.883-4.379-5.09-5.773-2.211-1.39-4.746-2.086-7.61-2.086-2.859 0-5.437.695-7.726 2.086-2.29 1.394-4.09 3.277-5.399 5.652-1.265 2.332-1.902 4.93-1.902 7.797 0 3.07.676 5.793 2.027 8.164 1.348 2.375 3.188 4.219 5.52 5.528Zm16.02-16.028h-17.13c.133-1.031.376-2.012.739-2.945a8.266 8.266 0 0 1 2.824-3.746c1.309-.98 2.965-1.473 4.969-1.473 2.125 0 3.824.492 5.09 1.473 1.308.984 2.226 2.172 2.761 3.562.395 1.032.641 2.075.747 3.13Zm-35.102-2.27c0-1.679-.41-3.007-1.227-3.992-.777-.98-1.96-1.472-3.558-1.472-1.473 0-2.844.39-4.11 1.168-1.27.777-2.289 1.719-3.066 2.824v20.938h-6.195V33.472c0-1.68-.41-3.008-1.227-3.993-.777-.98-1.965-1.472-3.558-1.472a7.31 7.31 0 0 0-3.989 1.168c-1.226.777-2.25 1.719-3.066 2.824l-.063.09v20.847h-6.195V23.282h6.195v4.059c.36-.543.914-1.14 1.657-1.79.98-.816 2.168-1.51 3.558-2.085 1.43-.613 2.965-.922 4.602-.922 1.758 0 3.25.367 4.476 1.105 1.227.696 2.149 1.7 2.762 3.008.23.45.426.926.578 1.43.867-1.426 2.149-2.656 3.836-3.7 1.965-1.23 4.172-1.843 6.625-1.843 1.758 0 3.235.367 4.418 1.105 1.227.696 2.149 1.72 2.762 3.07.61 1.352.918 2.946.918 4.79v21.43h-6.133Zm-64.957 25.91c-.492-.081-.879-.202-1.168-.366l-.98 5.523a14.07 14.07 0 0 0 1.78.309c.692.082 1.368.12 2.024.12 1.512 0 2.863-.202 4.047-.613 1.188-.41 2.25-1.082 3.191-2.027.938-.941 1.739-2.168 2.391-3.683v-.122c.043 0 .063-.02.063-.062l14.414-35.18h-6.625l-8.832 22.532-8.832-22.532h-6.567l12.164 29.989-1.55 3.597c-.41.942-.942 1.613-1.594 2.024-.656.41-1.473.613-2.453.613-.493 0-.985-.04-1.473-.121Zm-23.805-5.71c-2.535 0-4.804-.613-6.808-1.84-2.004-1.27-3.578-3.07-4.723-5.406-1.105-2.332-1.656-5.094-1.656-8.285 0-3.153.55-5.895 1.656-8.23 1.145-2.376 2.719-4.196 4.723-5.466 2.004-1.27 4.273-1.902 6.808-1.902 2.043 0 3.965.512 5.766 1.535a11.835 11.835 0 0 1 3.863 3.371v-4.168h6.137v29.657h-6.137v-4.16a13.014 13.014 0 0 1-3.863 3.421c-1.758.98-3.68 1.473-5.766 1.473Zm9.63-9.563V32.246c-.645-1.027-1.63-1.926-2.942-2.703-1.598-.984-3.23-1.473-4.91-1.473-1.715 0-3.23.43-4.54 1.29-1.308.859-2.308 2.046-3.003 3.558-.657 1.516-.98 3.258-.98 5.223 0 2.984.753 5.422 2.269 7.304 1.55 1.844 3.636 2.762 6.254 2.762 1.68 0 3.312-.45 4.91-1.352 1.312-.773 2.297-1.69 2.941-2.746Zm0 0"/>
	<path style="stroke:none;fill-rule:evenodd;fill:#873eff;fill-opacity:1" d="M20.828 53.648c4.766 0 8.59-2.355 11.477-7.773l6.41-12.016v10.192c0 6.004 3.887 9.597 9.887 9.597 4.707 0 8.18-2.062 11.53-7.773l14.77-24.973c3.235-5.476.942-9.597-6.18-9.597-3.824 0-6.292 1.234-8.53 5.418l-10.18 19.14v-17.02c0-5.066-2.41-7.538-6.883-7.538-3.531 0-6.356 1.53-8.531 5.77l-9.59 18.788V19.02c0-5.418-2.238-7.715-7.649-7.715H6.297C2.117 11.305 0 13.246 0 16.84c0 3.594 2.234 5.652 6.297 5.652h4.531v21.496c0 6.067 4.059 9.66 10 9.66ZM96.5 11.305c-12.063 0-21.3 9.008-21.3 21.199 0 12.191 9.296 21.144 21.3 21.144 12.004 0 21.18-9.011 21.238-21.144 0-12.191-9.234-21.2-21.238-21.2Zm0 29.328c-4.531 0-7.648-3.414-7.648-8.13 0-4.71 3.117-8.183 7.648-8.183s7.648 3.473 7.648 8.184c0 4.715-3.058 8.129-7.648 8.129Zm24.238-8.13c0-12.19 9.239-21.198 21.242-21.198 12.004 0 21.243 9.07 21.243 21.199 0 12.133-9.239 21.144-21.243 21.144-12.003 0-21.242-8.953-21.242-21.144Zm13.653 0c0 4.716 3 8.13 7.59 8.13 4.53 0 7.648-3.414 7.648-8.13 0-4.71-3.117-8.183-7.649-8.183-4.53 0-7.59 3.473-7.59 8.184Zm0 0"/>
</svg>
