<svg width="184" height="49" viewBox="0 0 184 49" fill="none" xmlns="http://www.w3.org/2000/svg">
	<path d="M23.4019 48.2656C28.7566 48.2656 33.0535 45.6213 36.2928 39.5395L43.4984 26.0536V37.4901C43.4984 44.2331 47.8615 48.2656 54.6044 48.2656C59.893 48.2656 63.7933 45.9518 67.5614 39.5395L84.1543 11.5101C87.7902 5.36211 85.212 0.734619 77.213 0.734619C72.9161 0.734619 70.1396 2.12287 67.6275 6.81647L56.191 28.3013V9.19632C56.191 3.51112 53.4806 0.734619 48.4565 0.734619C44.49 0.734619 41.3169 2.4534 38.8709 7.21311L28.0955 28.3013V9.39464C28.0955 3.31279 25.5834 0.734619 19.5016 0.734619H7.07345C2.37985 0.734619 0 2.91615 0 6.94868C0 10.9812 2.51207 13.295 7.07345 13.295H12.1637V37.424C12.1637 44.2331 16.7251 48.2656 23.4019 48.2656Z" fill="#873EFF"/>
	<path fill-rule="evenodd" clip-rule="evenodd" d="M108.419 0.734619C94.8671 0.734619 84.4883 10.849 84.4883 24.5332C84.4883 38.2173 94.9332 48.2656 108.419 48.2656C121.905 48.2656 132.218 38.1512 132.284 24.5332C132.284 10.849 121.905 0.734619 108.419 0.734619ZM108.419 33.6559C103.329 33.6559 99.8251 29.8217 99.8251 24.5332C99.8251 19.2446 103.329 15.3443 108.419 15.3443C113.509 15.3443 117.013 19.2446 117.013 24.5332C117.013 29.8217 113.575 33.6559 108.419 33.6559Z" fill="#873EFF"/>
	<path fill-rule="evenodd" clip-rule="evenodd" d="M135.65 24.5332C135.65 10.849 146.029 0.734619 159.515 0.734619C173.001 0.734619 183.38 10.9151 183.38 24.5332C183.38 38.1512 173.001 48.2656 159.515 48.2656C146.029 48.2656 135.65 38.2173 135.65 24.5332ZM150.987 24.5332C150.987 29.8217 154.359 33.6559 159.515 33.6559C164.605 33.6559 168.109 29.8217 168.109 24.5332C168.109 19.2446 164.605 15.3443 159.515 15.3443C154.425 15.3443 150.987 19.2446 150.987 24.5332Z" fill="#873EFF"/>
</svg>
