<svg width="130" height="31" fill="none" xmlns="http://www.w3.org/2000/svg">
	<path fill-rule="evenodd" clip-rule="evenodd" d="M83.343 5.729V25.26h3.346v-7.35h5.287c1.334 0 2.49-.273 3.465-.82.976-.546 1.723-1.278 2.24-2.196a6.252 6.252 0 0 0 .778-3.075c0-1.112-.26-2.128-.777-3.045-.518-.937-1.265-1.679-2.24-2.226-.957-.546-2.112-.82-3.466-.82h-8.633Zm3.346 9.282h4.839c.677 0 1.275-.127 1.792-.38a3.06 3.06 0 0 0 1.255-1.143c.299-.488.448-1.044.448-1.669 0-.624-.15-1.18-.448-1.669a2.87 2.87 0 0 0-1.255-1.113c-.517-.273-1.115-.41-1.792-.41h-4.84v6.384Zm18.984 10.6c-1.235 0-2.34-.292-3.316-.878-.976-.605-1.742-1.464-2.3-2.577-.538-1.113-.807-2.43-.807-3.953 0-1.503.27-2.811.807-3.924.558-1.132 1.324-2.001 2.3-2.606.976-.605 2.081-.908 3.316-.908a5.68 5.68 0 0 1 2.808.732 5.733 5.733 0 0 1 1.882 1.609v-1.99h2.987V25.26h-2.987v-1.984a6.297 6.297 0 0 1-1.882 1.633 5.753 5.753 0 0 1-2.808.702Zm3.256-11.508c.641.37 1.119.8 1.434 1.29v5.658c-.315.503-.793.94-1.434 1.31-.777.43-1.573.644-2.39.644-1.274 0-2.29-.439-3.047-1.317-.737-.898-1.105-2.06-1.105-3.485 0-.937.159-1.767.478-2.49a3.967 3.967 0 0 1 1.464-1.697c.637-.41 1.374-.616 2.21-.616.817 0 1.613.235 2.39.703Zm7.769 14.056c.139.078.328.137.567.176.239.039.478.058.717.058.478 0 .877-.097 1.195-.293.319-.195.578-.517.777-.966l.756-1.715-5.924-14.302h3.196l4.302 10.746 4.302-10.746h3.226l-7.02 16.779c0 .02-.01.029-.03.029v.058c-.319.723-.707 1.308-1.165 1.757a4.054 4.054 0 0 1-1.554.967c-.577.195-1.234.293-1.971.293a8.62 8.62 0 0 1-1.852-.206l.478-2.635Z" fill="#000"/>
	<path fill-rule="evenodd" clip-rule="evenodd" d="M10.144 25.6c2.32 0 4.184-1.123 5.588-3.708l3.123-5.73v4.86c0 2.865 1.891 4.578 4.814 4.578 2.292 0 3.983-.983 5.616-3.708l7.193-11.91c1.576-2.611.458-4.578-3.009-4.578-1.863 0-3.066.59-4.155 2.584l-4.957 9.13V9c0-2.416-1.175-3.596-3.353-3.596-1.72 0-3.095.73-4.155 2.753l-4.67 8.96V9.084c0-2.584-1.09-3.68-3.726-3.68H3.066C1.032 5.404 0 6.331 0 8.044c0 1.714 1.089 2.697 3.066 2.697h2.207v10.253c0 2.893 1.977 4.606 4.87 4.606ZM46.996 5.404c-5.875 0-10.374 4.298-10.374 10.112 0 5.815 4.528 10.084 10.373 10.084 5.846 0 10.316-4.298 10.345-10.084 0-5.814-4.499-10.112-10.345-10.112Zm0 13.988c-2.207 0-3.726-1.629-3.726-3.876s1.52-3.904 3.725-3.904c2.207 0 3.726 1.657 3.726 3.904s-1.49 3.876-3.725 3.876ZM58.8 15.516c0-5.814 4.499-10.112 10.344-10.112 5.846 0 10.345 4.326 10.345 10.112 0 5.786-4.499 10.084-10.345 10.084C63.3 25.6 58.8 21.33 58.8 15.516Zm6.648 0c0 2.247 1.461 3.876 3.696 3.876 2.207 0 3.726-1.629 3.726-3.876s-1.52-3.904-3.726-3.904-3.696 1.657-3.696 3.904Z" fill="#873EFF"/>
</svg>
