<svg width="32" height="20" fill="none" xmlns="http://www.w3.org/2000/svg"><rect x=".5" y=".5" width="31" height="19" rx="1.5" fill="#fff"/><g clip-path="url(#a)"><path d="M10.617 15.656a6.434 6.434 0 1 1 10.764 0h1.801a8 8 0 1 0-14.364 0h1.799Z" fill="#4A4AF4"/><path d="M16.108 8.334c-1.171 0-2.52.553-3.252 1.136l.667 1.407c.587-.537 1.537-.995 2.392-.995.814 0 1.262.27 1.262.82 0 .366-.298.576-.86.627-2.11.194-3.75.854-3.75 2.474 0 1.285.926 2.061 2.45 2.061a2.58 2.58 0 0 0 2.252-1.314v1.104h1.901v-4.63c0-1.913-1.33-2.685-3.062-2.685v-.005Zm-.555 6.045c-.61 0-.953-.264-.953-.696 0-.903 1.098-1.12 2.538-1.12 0 .944-.632 1.816-1.586 1.816Z" fill="#060809"/></g><rect x=".5" y=".5" width="31" height="19" rx="1.5" stroke="#DDD"/><defs><clipPath id="a"><path fill="#fff" d="M8 4.136h16v11.728H8z"/></clipPath></defs></svg>
