<svg viewBox="0 0.02 428.55 170.98" xmlns="http://www.w3.org/2000/svg"><defs><clipPath id="a"><path fill="#fff" d="M0 0h428.55v171H0z"/></clipPath></defs><g clip-path="url(#a)"><path fill-rule="evenodd" clip-rule="evenodd" d="M28.1 156.27c-5.3 0-8-2.61-8-6.9 0-8 8.92-10.69 25.19-12.42 0 10.66-7.21 19.32-17.24 19.32h.05Zm7-59.95c-11.63 0-25 5.47-32.26 11.26l6.63 14c5.82-5.33 15.23-9.89 23.72-9.89 8.07 0 12.53 2.7 12.53 8.14 0 3.65-2.95 5.5-8.53 6.23-20.86 2.7-37.21 8.46-37.21 24.53 0 12.74 9.07 20.45 23.24 20.45 10.12 0 19.12-5.62 23.4-13v11h18.86v-46.09c0-19-13.19-26.67-30.37-26.67l-.01.04ZM224.39 98.39v70.56h20.18v-34c0-16.15 9.78-20.9 16.59-20.9a15.473 15.473 0 0 1 8.63 2.55l3.69-18.65a22.842 22.842 0 0 0-9-1.63c-10.37 0-16.89 4.59-21.19 13.93V98.39h-18.9ZM367 96.32c-10.67 0-18.65 6.3-22.8 12.38-3.85-7.85-12-12.38-21.8-12.38-10.66 0-18.05 5.92-21.46 12.74V98.39h-19.46v70.56h20.2v-36.33c0-13 6.83-19.29 13.2-19.29 5.77 0 11.07 3.73 11.07 13.36v42.26h20.16v-36.33c0-13.19 6.66-19.29 13.33-19.29 5.34 0 11 3.88 11 13.22v42.4h20.16v-48.78c0-15.85-10.67-23.85-23.56-23.85M175.28 98.39H157v-7.17c0-9.34 5.33-12 9.92-12a20.18 20.18 0 0 1 9 2.25l6.22-14.23s-6.31-4.12-17.78-4.12c-12.89 0-27.56 7.27-27.56 30.08v5.19h-30.55v-7.17c0-9.34 5.32-12 9.92-12 3.139 0 6.23.773 9 2.25l6.22-14.23c-3.71-2.17-9.68-4.12-17.77-4.12-12.89 0-27.56 7.27-27.56 30.08v5.19H74.38v15.56h11.71v55h20.16v-55h30.59v55H157v-55h18.28V98.39Z"/><path d="M207.46 98.39h-20.14v70.53h20.14V98.39Z"/><path fill-rule="evenodd" clip-rule="evenodd" d="M188.06 86.4h19.73c11.51-36.19 50.56-68 97-68 56.48 0 105.29 43 105.29 109.94a137.585 137.585 0 0 1-5.6 40.61h19.15l.19-.66a162.189 162.189 0 0 0 4.74-39.89C428.56 53.75 374.16.02 304.83.02c-54.46 0-103 37.8-116.76 86.4l-.01-.02Z" fill="#4A4AF4"/></g></svg>
