<svg viewBox="0 0 646 159" fill="none" xmlns="http://www.w3.org/2000/svg"><defs><style>.cls-1{fill:#fff}</style></defs><g id="Layer_1"><path d="M0 42.943c.09-.013.221.045.244-.1.041-.266.09-.533.096-.8.053-2.07.124-4.137.275-6.2.286-3.898.843-7.749 1.906-11.517.93-3.297 2.45-6.316 4.395-9.12 3.919-5.649 9.096-9.729 15.488-12.265 1.708-.677 3.496-1.092 5.288-1.467 2.693-.563 5.42-.896 8.166-1.089C40.399.067 44.947.003 49.497.003c20.643 0 41.287.005 61.93-.003 3.329-.001 6.655.071 9.978.24 4.208.215 8.378.713 12.477 1.756 3.224.82 6.218 2.14 9.01 3.919 6.268 3.995 10.755 9.466 13.468 16.38.67 1.709 1.089 3.494 1.466 5.284.568 2.69.898 5.414 1.102 8.157.382 5.147.386 10.302.386 15.458 0 20.148-.01 40.297-.006 60.445 0 3.156-.078 6.31-.241 9.46-.217 4.168-.707 8.3-1.736 12.364-.936 3.699-2.53 7.08-4.695 10.196-3.965 5.705-9.201 9.816-15.687 12.322-1.84.711-3.76 1.155-5.689 1.543-2.798.563-5.629.864-8.476 1.073-2.475.18-4.95.211-7.429.211-23.936-.002-47.873-.008-71.81.006a98.473 98.473 0 0 1-9.354-.431c-2.537-.24-5.038-.672-7.531-1.2-9.706-2.06-19.236-9.568-23.428-20.314-.73-1.872-1.184-3.819-1.582-5.777-.587-2.895-.88-5.827-1.09-8.773-.16-2.235-.109-4.476-.297-6.708-.023-.27-.038-.542-.083-.808-.014-.081-.118-.147-.18-.22v-71.64Zm69.114 87.9h6.417c.203 0 .407.004.61-.002 1.175-.037 1.806-.552 2.056-1.717.362-1.69.704-3.383 1.056-5.075.208-.995.42-1.989.624-2.985.047-.225.16-.367.396-.389.17-.016.339-.023.508-.038 2.775-.25 5.523-.657 8.218-1.382 3.863-1.038 7.5-2.58 10.794-4.873 3.136-2.182 5.734-4.868 7.649-8.188 1.648-2.858 2.643-5.928 3.018-9.207.302-2.65.246-5.283-.328-7.89-.927-4.21-3.181-7.585-6.552-10.241-1.958-1.543-4.12-2.74-6.397-3.736-3.37-1.474-6.886-2.481-10.47-3.268-3.213-.706-6.418-1.443-9.551-2.459-1.517-.492-3.008-1.055-4.417-1.814-.81-.436-1.576-.934-2.247-1.567-.972-.917-1.582-2.017-1.713-3.366-.209-2.14.4-4.02 1.778-5.656.979-1.163 2.206-2 3.57-2.647 1.923-.914 3.968-1.393 6.072-1.593 3.128-.298 6.24-.152 9.306.584 5.269 1.264 9.756 3.83 13.292 7.979.175.205.35.42.557.589a1.802 1.802 0 0 0 2.092.143c.173-.104.332-.234.49-.363 2.86-2.344 5.721-4.688 8.58-7.034.158-.129.32-.256.459-.403.608-.645.699-1.488.239-2.243-.123-.202-.276-.387-.422-.573-1.558-1.99-3.376-3.712-5.399-5.221-3.126-2.333-6.566-4.066-10.253-5.321-.32-.11-.64-.224-.957-.342-.14-.052-.214-.16-.197-.313.015-.134.03-.27.059-.401.49-2.251.986-4.501 1.475-6.752.202-.927.428-1.851.577-2.787.168-1.058-.56-1.946-1.623-2.053-.27-.027-.542-.018-.814-.018H84.732c-.17 0-.34-.005-.51.002-1.1.043-1.68.506-1.927 1.583-.22.958-.407 1.922-.611 2.884-.387 1.822-.77 3.646-1.165 5.467-.103.474-.121.476-.599.52-2.402.223-4.777.604-7.112 1.216-3.872 1.015-7.518 2.542-10.793 4.866-5.801 4.119-9.394 9.593-10.161 16.759-.291 2.72-.116 5.418.605 8.067 1.015 3.734 3.154 6.717 6.141 9.128 1.86 1.5 3.911 2.688 6.072 3.692 3.52 1.635 7.207 2.785 10.974 3.689 2.34.561 4.695 1.064 7.036 1.626 1.947.467 3.862 1.046 5.703 1.846.936.407 1.83.889 2.64 1.516 1.14.883 1.938 1.999 2.214 3.427a8.453 8.453 0 0 1-.041 3.436c-.335 1.529-1.078 2.842-2.133 3.988-1.264 1.372-2.8 2.348-4.501 3.081-2.334 1.007-4.789 1.49-7.314 1.617-2.552.129-5.085-.06-7.593-.576-5.324-1.095-9.942-3.519-13.842-7.306a29.744 29.744 0 0 1-3.014-3.443c-.061-.081-.119-.165-.18-.246-.885-1.152-1.825-1.3-2.972-.414a2141.433 2141.433 0 0 0-9.644 7.495c-1.056.825-1.192 1.741-.448 2.833a26.184 26.184 0 0 0 2.494 3.083c3.234 3.474 7.074 6.106 11.342 8.14 1.993.95 4.05 1.742 6.163 2.379.981.295.922.268.69 1.27-.208.89-.429 1.778-.64 2.668-.468 1.978-.947 3.954-1.399 5.936-.297 1.301.461 2.301 1.779 2.387.236.016.475.005.713.005h6.416Z" style="fill:#00d64f"/><path class="cls-1" d="M289.76 95.633c0-7.121 0-14.243-.002-21.365 0-1.239.122-1.097-1.071-1.102-1.494-.006-2.987 0-4.48-.003-.306-.001-.614.002-.914-.042-.863-.128-1.463-.773-1.545-1.64-.019-.201-.011-.406-.011-.61-.001-2.543.05-5.088-.02-7.63-.04-1.424.755-2.353 2.286-2.313 1.73.045 3.462.009 5.193.01.461.001.572-.019.566-.587-.01-.984-.015-1.968 0-2.95.034-2.14.208-4.265.74-6.348.872-3.412 2.517-6.348 5.292-8.586 1.905-1.536 4.082-2.526 6.425-3.177 2.301-.641 4.66-.91 7.038-.974 1.525-.041 3.054.02 4.581.038.203.003.406.025.61.038.879.057 1.596.767 1.68 1.746.018.202.009.407.009.61v7.53c0 .135.004.27-.002.406-.055 1.23-.77 1.947-1.993 1.97-.882.016-1.765-.001-2.648 0-.782.001-1.562.047-2.325.227-.46.109-.92.23-1.364.393-1.349.497-2.271 1.444-2.82 2.761-.343.82-.562 1.68-.604 2.561-.062 1.32-.053 2.644-.075 3.966-.004.246.103.377.36.374.237-.003.475.002.712.002h20.979c.136 0 .271.002.407 0 .663-.01.673-.011.673-.676.003-4.544.002-9.089.002-13.633 0-.305-.017-.613.017-.915.114-1.004.806-1.655 1.817-1.726.203-.014.407-.005.61-.005h9.472c.17 0 .34-.006.509.003 1.08.061 1.77.713 1.865 1.775.026.303.013.61.013.915l.001 13.022c0 .305.003.61.013.915.006.198.12.306.317.312.27.01.542.013.814.013 2.783 0 5.567-.001 8.35.002.34 0 .682-.006 1.016.042.92.135 1.521.787 1.598 1.705.015.168.007.339.007.508v7.732c0 .204.008.41-.016.61-.101.817-.689 1.445-1.5 1.574-.332.052-.675.05-1.014.051-2.885.004-5.77.003-8.656.001-.97 0-.93-.033-.93.954.001 9.157 0 18.313.004 27.47 0 .88.036 1.76.27 2.622.393 1.457 1.287 2.419 2.722 2.904 1.075.364 2.19.452 3.307.5 1.39.06 2.783.056 4.171-.087.236-.024.475-.044.712-.04.996.015 1.8.854 1.798 1.723 0 .237.006.475.006.712v7.325c0 .17.005.34 0 .509-.043 1.129-.588 1.765-1.698 1.921-1.007.142-2.017.29-3.03.358-1.863.127-3.727.261-5.596.208-2.309-.066-4.61-.214-6.865-.761a18.264 18.264 0 0 1-2.515-.8c-3.289-1.323-5.467-3.686-6.589-7.03-.476-1.418-.745-2.883-.867-4.375a48.129 48.129 0 0 1-.136-3.964c.006-9.665.005-19.33.002-28.996 0-1.301.141-1.149-1.121-1.15-6.96-.004-13.918-.004-20.877 0-1.28.002-1.135-.162-1.135 1.134-.003 14.176-.002 28.351-.002 42.527 0 .305.013.611-.007.915-.07 1.046-.801 1.788-1.833 1.81-.237.004-.475.005-.712.005l-9.471-.001c-.305 0-.614.006-.915-.032-.801-.102-1.37-.616-1.53-1.414-.072-.361-.073-.74-.073-1.111-.004-7.122-.003-14.244-.003-21.366ZM272.513 119.557h-4.889c-.203 0-.407.003-.61 0-1.225-.025-1.716-.355-2.145-1.49-.826-2.185-1.64-4.375-2.458-6.564l-3.276-8.755c-.071-.19-.15-.378-.213-.57-.086-.267-.267-.371-.537-.363-.238.008-.476 0-.713 0h-31.677c-1.134.026-.953-.175-1.362.921-1.867 5.015-3.733 10.03-5.601 15.044-.574 1.541-.908 1.775-2.546 1.776-3.36.003-6.722.002-10.083 0-.305-.001-.614.003-.914-.042a1.79 1.79 0 0 1-1.468-2.256c.089-.326.22-.64.339-.958 9.404-24.975 18.813-49.948 28.2-74.93.547-1.452 1.027-1.922 2.784-1.903 4.48.047 8.963.015 13.445.015.237 0 .475-.004.713.003.792.024 1.342.416 1.67 1.124.1.215.17.443.254.665l23.99 63.596c1.458 3.866 2.91 7.734 4.367 11.601.083.222.185.438.252.665.357 1.21-.363 2.286-1.615 2.406-.303.03-.61.014-.916.014h-4.99Zm-42.488-31.032c.098.024.195.068.292.068 7.74 0 15.481-.003 23.221-.008.03 0 .063-.026.09-.046.024-.017.042-.043.118-.126-3.923-10.456-7.859-20.946-11.799-31.435-.033-.088-.122-.154-.246-.305-3.907 10.553-7.791 21.047-11.672 31.543-.032.087-.004.197-.004.31ZM484.183 66.802c.173-.182.338-.351.5-.524 3.107-3.305 6.938-5.254 11.381-6.045 4.08-.727 8.12-.521 12.08.695 5.076 1.56 9.09 4.609 12.174 8.907 2.344 3.266 3.873 6.902 4.841 10.783 1.078 4.32 1.33 8.712.993 13.131-.345 4.532-1.414 8.894-3.427 12.994-1.76 3.581-4.12 6.693-7.287 9.156-3.258 2.532-6.943 4.056-11.03 4.616-3.26.446-6.497.364-9.705-.412-3.93-.95-7.301-2.857-10.05-5.836-.137-.15-.28-.295-.422-.44-.018-.018-.053-.021-.087-.034-.276.153-.147.42-.148.63-.008 2.884-.006 5.767-.006 8.65v13.84c0 .27.015.544-.008.813-.088 1.029-.727 1.68-1.748 1.792-.168.019-.339.016-.508.016-3.328 0-6.655.002-9.982-.002-.27 0-.546-.009-.81-.062-.776-.157-1.251-.64-1.42-1.412a3.571 3.571 0 0 1-.061-.605c-.01-.237-.003-.475-.003-.712V63.78c0-.373-.018-.75.023-1.118.11-.986.73-1.59 1.72-1.703.202-.023.407-.02.61-.02h9.779c.237 0 .477-.002.71.028.97.125 1.59.765 1.687 1.743.03.302.01.61.01.915.002.916 0 1.832.005 2.748 0 .125-.038.27.189.429Zm-.545 24.01c.006 1.09-.026 2.681.185 4.268.293 2.201.858 4.316 1.912 6.278 1.535 2.856 3.784 4.937 6.848 6.053 2.2.8 4.476 1.002 6.81.707 4.023-.508 7.122-2.443 9.306-5.846 1.072-1.671 1.78-3.497 2.228-5.422.96-4.12.987-8.262.164-12.403-.432-2.17-1.194-4.231-2.393-6.112-1.464-2.297-3.428-4.004-5.97-5.012-2.023-.8-4.136-1.036-6.292-.892-4.768.32-8.344 2.554-10.661 6.74-1.097 1.98-1.656 4.135-1.949 6.37-.208 1.585-.19 3.177-.188 5.272ZM569.826 114.182c-.088.07-.199.145-.29.239-2.484 2.54-5.51 4.126-8.9 5.085-3.236.916-6.536 1.168-9.878.995-2.945-.151-5.768-.82-8.438-2.08-2.33-1.1-4.368-2.596-6.02-4.59-2.118-2.555-3.288-5.494-3.615-8.793a18.368 18.368 0 0 1 .51-6.555c.843-3.184 2.617-5.78 5.17-7.85 2.158-1.75 4.608-2.967 7.2-3.92 2.488-.914 5.054-1.535 7.65-2.048 4.29-.848 8.577-1.708 12.864-2.567.76-.153 1.538-.233 2.303-.513.122-1.682-.003-3.324-.642-4.893-.76-1.864-2.129-3.118-4-3.816-1.941-.723-3.964-.88-6.014-.737-1.016.07-2.021.216-3.002.515-2.173.662-3.849 1.955-5.022 3.896-.387.64-.732 1.304-.964 2.014-.386 1.18-1.366 1.6-2.479 1.357-2.682-.586-5.372-1.133-8.06-1.694-.464-.097-.932-.18-1.395-.28-.231-.05-.467-.101-.684-.192-.866-.364-1.317-1.273-1.045-2.168.158-.516.372-1.019.6-1.51 3.07-6.59 8.141-10.878 15.063-13.014 2.642-.815 5.359-1.184 8.122-1.226 3.204-.049 6.372.232 9.482 1.031 2.112.543 4.124 1.34 5.983 2.49 3.88 2.402 6.325 5.863 7.493 10.245.571 2.141.806 4.327.806 6.541-.002 6.614-.001 13.227 0 19.84v4.884c0 .58.048 1.15.213 1.71.319 1.08 1.022 1.728 2.134 1.923.3.053.604.09.906.134 1.102.164 1.676.79 1.684 1.923.017 2.408.005 4.816.005 7.224 0 .068-.005.136-.003.204.029.889-.795 1.691-1.549 1.741-.371.025-.74.102-1.112.122-1.628.09-3.259.135-4.886.015-1.765-.13-3.492-.457-5.138-1.146-2.041-.854-3.649-2.19-4.72-4.144-.075-.137-.113-.317-.332-.393Zm-1.405-21.925c-.519.102-.917.177-1.314.26l-9.25 1.921c-1.691.352-3.39.672-5.03 1.228-1.223.415-2.4.928-3.436 1.72-1.237.944-2.016 2.172-2.319 3.701-.12.603-.13 1.213-.105 1.822.112 2.663 1.392 4.537 3.837 5.607 1.132.496 2.328.716 3.555.769a17.489 17.489 0 0 0 3.55-.198c2.128-.344 4.152-.983 5.968-2.171 2.967-1.94 4.572-4.638 4.547-8.236-.014-1.897-.003-3.795-.002-5.693v-.73ZM374.874 93.557c.088 1.114.311 2.205.587 3.287.455 1.782 1.117 3.484 2.087 5.052 2.33 3.77 5.66 6.04 10.086 6.633 3.17.423 6.225.041 9.112-1.384 2.326-1.148 4.075-2.892 5.264-5.196.14-.27.254-.556.41-.817.426-.718 1.178-1.032 2.004-.84.263.062.518.157.772.25 2.576.942 5.15 1.887 7.726 2.832.222.082.454.148.664.254.876.44 1.262 1.413.91 2.325-.134.346-.325.67-.502.998-3.363 6.247-8.461 10.395-15.218 12.518-3.502 1.1-7.097 1.44-10.755 1.267-3.454-.163-6.794-.841-9.981-2.18-6.74-2.828-11.474-7.69-14.384-14.351-1.366-3.128-2.143-6.413-2.5-9.806-.22-2.099-.272-4.2-.143-6.298.397-6.478 2.326-12.432 6.313-17.624 4.226-5.502 9.787-8.886 16.602-10.177 2.85-.54 5.727-.598 8.617-.291 3.167.336 6.194 1.139 9.04 2.574 4.275 2.157 7.533 5.38 9.905 9.515 1.755 3.058 2.843 6.355 3.492 9.81.597 3.186.632 6.402.624 9.625-.003 1.012-.857 2.003-1.928 1.916-.27-.022-.543-.003-.814-.003-12.287 0-24.574 0-36.862.005-.364 0-.743-.088-1.128.106Zm13.314-10.412h11.604c.203 0 .407.004.61 0 .678-.014.734-.051.657-.678-.094-.772-.17-1.555-.36-2.306-1.03-4.083-3.53-6.78-7.622-7.928-1.883-.528-3.8-.635-5.746-.416-2.966.334-5.54 1.484-7.674 3.586-1.803 1.776-2.967 3.935-3.774 6.306-.11.32-.198.647-.287.973-.105.385-.052.449.378.461.237.007.475.002.712.002h11.502ZM597.519 60.938h4.786c.238 0 .476-.004.713.004.95.035 1.587.474 1.902 1.397.633 1.86 1.297 3.708 1.942 5.563 3.67 10.554 7.337 21.109 11.006 31.663.089.255.186.508.274.764.03.086.075.12.15.079.053-.03.122-.065.14-.114.098-.252.182-.51.269-.766 1.35-3.976 2.703-7.95 4.052-11.927 2.795-8.24 5.588-16.482 8.382-24.724l.197-.576c.295-.876.92-1.307 1.828-1.356.17-.01.34-.006.51-.006 3.225 0 6.45-.003 9.675.003.337 0 .682.012 1.01.08.795.164 1.22.681 1.278 1.483.047.656-.098 1.27-.33 1.882-1.748 4.625-3.482 9.255-5.22 13.883-5.765 15.342-11.53 30.684-17.293 46.026-.74 1.97-1.585 3.888-2.638 5.713-1.023 1.772-2.221 3.406-3.696 4.832-2.457 2.377-5.4 3.829-8.714 4.562a26.476 26.476 0 0 1-5.859.623c-1.425-.006-2.851.04-4.271-.143-1.284-.165-1.884-.786-1.892-2.066-.017-2.61-.02-5.223 0-7.834.011-1.362.767-2.048 2.117-2.018 1.12.025 2.24.046 3.36.046.783 0 1.548-.151 2.307-.348 1.405-.363 2.511-1.153 3.373-2.306.613-.82 1.07-1.725 1.458-2.668.643-1.566 1.268-3.14 1.937-4.695.204-.475.185-.88.006-1.352-1.519-3.987-3.02-7.981-4.522-11.974l-15.313-40.693c-.072-.19-.154-.377-.21-.571-.367-1.259.405-2.328 1.584-2.44.27-.026.542-.024.813-.025 1.63-.002 3.26 0 4.889 0ZM440.408 68.975c.197-.057.242-.19.308-.305 2.017-3.478 5.037-5.705 8.792-6.995a18.962 18.962 0 0 1 5.989-1.038c.882-.01 1.766-.014 2.646.04 1.118.066 1.784.787 1.837 1.912.011.237.004.475.004.712v9.461c-.019 1.56-.707 2.22-2.27 2.157-1.39-.055-2.782-.115-4.172-.02-2.156.146-4.22.668-6.13 1.687-3.747 1.998-5.934 5.151-6.765 9.278-.262 1.301-.337 2.62-.337 3.945v27.06c0 .338-.007.677-.014 1.016-.018.808-.728 1.598-1.638 1.652-.237.014-.475.019-.712.019h-9.776c-.237 0-.476.005-.711-.023-.91-.106-1.545-.745-1.648-1.66-.026-.234-.014-.474-.014-.711V63.349c0-.204-.01-.408.006-.61.079-.973.696-1.636 1.656-1.767.268-.037.542-.032.813-.032a5872.8 5872.8 0 0 1 9.572 0c.304 0 .613 0 .912.049.89.144 1.452.748 1.537 1.638.025.27.016.542.016.813.002 1.594-.002 3.188.004 4.782 0 .228-.061.465.095.753Z"/></g></svg>
