<svg width="32" height="20" fill="none" xmlns="http://www.w3.org/2000/svg"><rect x=".5" y=".5" width="31" height="19" rx="1.5" fill="#B2FCE4"/><path d="m21.804 6.42-1.88-1.075-1.906-1.091c-1.26-.723-2.835.184-2.835 1.64v.244c0 .136.07.26.19.326l.886.505a.367.367 0 0 0 .548-.32v-.581c0-.288.31-.467.56-.326l1.738 1 1.732.993c.25.141.25.505 0 .646l-1.732.994-1.739 1a.374.374 0 0 1-.559-.326V9.76c0-1.456-1.575-2.368-2.835-1.64L12.07 9.218l-1.88 1.075c-1.265.728-1.265 2.559 0 3.286l1.88 1.076 1.906 1.091c1.26.723 2.835-.184 2.835-1.64v-.244c0-.136-.07-.26-.19-.326l-.885-.505a.367.367 0 0 0-.549.32v.581c0 .288-.31.467-.559.326l-1.738-1-1.733-.993a.372.372 0 0 1 0-.646l1.733-.994 1.738-1c.25-.141.56.038.56.326v.288c0 1.456 1.575 2.368 2.835 1.64l1.906-1.091 1.88-1.076c1.26-.733 1.26-2.564-.006-3.291Z" fill="#000"/><rect x=".5" y=".5" width="31" height="19" rx="1.5" stroke="#DDD"/></svg>
