<svg viewBox="0 0 646 159" xmlns="http://www.w3.org/2000/svg"><path d="M.18 42.987c.09-.013.22.045.243-.1.042-.266.09-.533.096-.8.053-2.07.124-4.136.275-6.2.287-3.898.843-7.749 1.906-11.517.93-3.297 2.45-6.315 4.396-9.12 3.918-5.649 9.095-9.729 15.487-12.264 1.708-.678 3.496-1.093 5.288-1.468C30.564.955 33.291.622 36.037.43c4.541-.318 9.09-.382 13.64-.382 20.643 0 41.286.005 61.93-.003 3.328-.001 6.655.072 9.977.24 4.208.215 8.378.713 12.477 1.756 3.224.82 6.219 2.14 9.01 3.919 6.268 3.995 10.755 9.466 13.468 16.38.67 1.709 1.09 3.494 1.467 5.285.567 2.69.898 5.414 1.1 8.156.383 5.147.387 10.302.387 15.458 0 20.148-.009 40.297-.006 60.445 0 3.156-.077 6.31-.241 9.46-.217 4.169-.707 8.3-1.736 12.365-.936 3.698-2.53 7.079-4.695 10.195-3.964 5.705-9.201 9.816-15.687 12.323-1.84.71-3.76 1.154-5.688 1.542-2.799.563-5.63.865-8.476 1.073-2.476.18-4.95.211-7.43.211-23.936-.002-47.873-.008-71.81.006a98.473 98.473 0 0 1-9.354-.431c-2.537-.24-5.038-.672-7.53-1.2-9.707-2.06-19.236-9.568-23.428-20.314-.73-1.872-1.185-3.818-1.582-5.777-.587-2.895-.882-5.827-1.091-8.773-.16-2.235-.108-4.476-.296-6.708-.023-.27-.038-.542-.084-.808-.014-.081-.117-.147-.18-.22v-71.64Zm69.114 87.9h6.416c.204 0 .407.004.61-.002 1.175-.037 1.806-.552 2.056-1.717.362-1.69.704-3.383 1.057-5.075.207-.995.419-1.989.623-2.985.047-.225.16-.367.396-.389.17-.016.339-.023.508-.038 2.775-.25 5.523-.657 8.218-1.382 3.863-1.038 7.5-2.58 10.794-4.873 3.136-2.182 5.734-4.868 7.65-8.188 1.647-2.858 2.642-5.928 3.017-9.207.303-2.65.246-5.283-.328-7.89-.927-4.21-3.18-7.585-6.552-10.241-1.958-1.543-4.12-2.74-6.397-3.736-3.37-1.474-6.886-2.481-10.47-3.268-3.213-.706-6.418-1.443-9.55-2.459-1.518-.492-3.009-1.055-4.418-1.814-.81-.436-1.576-.934-2.247-1.567-.972-.917-1.582-2.017-1.713-3.366-.209-2.14.401-4.02 1.778-5.656.979-1.163 2.206-2 3.57-2.647 1.923-.914 3.969-1.393 6.072-1.593 3.128-.298 6.24-.152 9.307.584 5.268 1.264 9.755 3.83 13.291 7.979.176.205.35.42.558.589a1.802 1.802 0 0 0 2.091.143c.174-.104.333-.234.49-.363 2.861-2.344 5.721-4.688 8.581-7.034.157-.129.32-.256.458-.403.608-.645.699-1.488.24-2.243-.124-.202-.277-.387-.423-.573-1.558-1.99-3.376-3.712-5.398-5.221-3.127-2.333-6.566-4.066-10.254-5.321-.32-.11-.64-.224-.957-.342-.14-.052-.214-.16-.197-.313.015-.134.03-.27.059-.401.49-2.251.986-4.501 1.475-6.752.202-.927.428-1.851.577-2.787.168-1.058-.56-1.946-1.623-2.053-.269-.027-.542-.018-.814-.018H84.911c-.17 0-.34-.005-.509.002-1.101.043-1.68.506-1.927 1.583-.22.958-.408 1.922-.612 2.884-.386 1.822-.77 3.646-1.165 5.467-.103.474-.121.476-.598.52-2.403.223-4.777.604-7.113 1.216-3.872 1.015-7.518 2.542-10.793 4.866-5.801 4.119-9.394 9.593-10.161 16.759-.291 2.72-.116 5.418.605 8.067 1.015 3.734 3.155 6.717 6.142 9.128 1.859 1.5 3.91 2.688 6.072 3.692 3.52 1.635 7.207 2.785 10.973 3.689 2.34.561 4.696 1.064 7.036 1.625 1.947.468 3.862 1.047 5.703 1.847.936.407 1.83.889 2.64 1.516 1.14.883 1.939 1.999 2.214 3.427a8.453 8.453 0 0 1-.04 3.436c-.336 1.529-1.079 2.842-2.134 3.988-1.264 1.372-2.8 2.348-4.501 3.081-2.334 1.007-4.789 1.49-7.313 1.617-2.553.129-5.086-.06-7.594-.576-5.324-1.095-9.942-3.519-13.842-7.306a29.744 29.744 0 0 1-3.013-3.443c-.062-.081-.12-.165-.181-.246-.885-1.152-1.825-1.3-2.971-.414a2141.433 2141.433 0 0 0-9.645 7.495c-1.056.825-1.192 1.741-.448 2.833a26.184 26.184 0 0 0 2.494 3.083c3.234 3.474 7.074 6.106 11.342 8.14 1.993.95 4.05 1.742 6.163 2.379.982.295.922.268.69 1.27-.207.89-.428 1.778-.64 2.668-.468 1.978-.946 3.954-1.399 5.936-.297 1.301.461 2.301 1.779 2.387.237.016.475.005.713.005h6.416Z" style="fill:#00d64f"/><path d="M289.938 95.677c0-7.121.002-14.243 0-21.365-.001-1.239.121-1.097-1.072-1.102-1.493-.006-2.987 0-4.48-.003-.306-.001-.614.002-.914-.042-.863-.128-1.462-.773-1.545-1.64-.019-.201-.011-.406-.011-.61 0-2.543.05-5.088-.02-7.63-.04-1.424.755-2.353 2.286-2.313 1.73.045 3.462.009 5.193.01.461.001.572-.019.566-.587-.01-.984-.015-1.968 0-2.95.034-2.14.208-4.265.74-6.348.873-3.412 2.517-6.348 5.292-8.586 1.905-1.536 4.082-2.526 6.425-3.177 2.301-.641 4.66-.91 7.038-.974 1.526-.041 3.054.02 4.581.038.203.003.407.025.61.038.879.057 1.596.767 1.68 1.746.018.202.009.407.009.61v7.53c0 .135.004.27-.002.406-.055 1.23-.77 1.947-1.993 1.97-.882.016-1.765-.001-2.647 0-.783.001-1.563.047-2.326.227-.46.109-.92.23-1.364.393-1.349.497-2.271 1.444-2.82 2.761-.343.82-.562 1.68-.603 2.561-.063 1.32-.054 2.644-.076 3.966-.004.245.103.377.36.374.237-.003.475.002.712.002h20.979c.136 0 .272.002.407 0 .663-.01.673-.011.673-.676.003-4.544.002-9.089.003-13.633 0-.305-.018-.613.016-.915.114-1.004.806-1.655 1.817-1.726.203-.014.407-.005.611-.005h9.471c.17 0 .34-.006.51.003 1.08.061 1.77.713 1.864 1.775.027.303.013.61.013.915l.001 13.022c0 .305.003.61.013.915.007.198.121.306.317.312.271.01.543.013.814.013 2.784 0 5.567-.001 8.35.002.34 0 .682-.006 1.016.042.92.135 1.522.787 1.599 1.705.014.168.006.339.006.508v7.732c0 .204.008.41-.016.61-.1.817-.689 1.445-1.499 1.574-.333.052-.676.05-1.014.051-2.886.004-5.771.003-8.657.001-.97 0-.93-.033-.93.954.001 9.157 0 18.313.004 27.47 0 .88.036 1.76.27 2.622.393 1.457 1.288 2.419 2.722 2.904 1.076.364 2.191.452 3.308.5 1.39.06 2.783.056 4.17-.087.237-.024.475-.044.712-.04.996.015 1.8.854 1.799 1.723 0 .237.006.475.006.712v7.325c0 .17.005.34-.002.509-.041 1.129-.587 1.765-1.696 1.921-1.008.142-2.018.29-3.032.358-1.862.127-3.726.261-5.595.208-2.309-.066-4.609-.214-6.865-.761a18.264 18.264 0 0 1-2.515-.8c-3.289-1.323-5.467-3.686-6.589-7.03-.476-1.418-.745-2.883-.867-4.375a48.129 48.129 0 0 1-.136-3.964c.006-9.665.005-19.33.002-28.996 0-1.301.142-1.149-1.121-1.15-6.959-.004-13.918-.004-20.877 0-1.28.002-1.134-.162-1.135 1.134-.003 14.176-.001 28.351-.002 42.527 0 .305.013.611-.007.915-.07 1.046-.8 1.788-1.832 1.81-.238.004-.476.005-.713.005l-9.471-.001c-.305 0-.613.006-.915-.032-.801-.102-1.37-.616-1.53-1.414-.072-.361-.072-.74-.073-1.111-.003-7.122-.002-14.244-.002-21.366ZM272.693 119.601h-4.89c-.203 0-.407.003-.61 0-1.225-.025-1.715-.355-2.144-1.49-.827-2.185-1.64-4.375-2.46-6.564l-3.275-8.755c-.071-.19-.15-.378-.213-.57-.086-.267-.266-.371-.537-.363-.237.008-.475 0-.713 0h-31.677c-1.134.026-.953-.175-1.362.922-1.866 5.014-3.733 10.029-5.601 15.043-.574 1.541-.908 1.775-2.545 1.776-3.362.003-6.723.002-10.084 0-.305 0-.614.003-.914-.042a1.79 1.79 0 0 1-1.468-2.256c.089-.326.22-.64.339-.958 9.404-24.975 18.813-49.948 28.2-74.93.547-1.452 1.027-1.922 2.784-1.903 4.481.047 8.963.015 13.445.016.237 0 .475-.005.713.002.792.024 1.342.416 1.671 1.124.1.215.17.443.253.665l23.99 63.596c1.458 3.866 2.911 7.734 4.367 11.601.083.222.185.438.252.665.357 1.21-.363 2.287-1.614 2.407-.303.029-.611.013-.916.014h-4.991ZM230.204 88.57c.098.023.195.067.292.067 7.74 0 15.481-.003 23.222-.008.03 0 .062-.026.09-.046.023-.017.041-.043.117-.126-3.923-10.456-7.859-20.946-11.799-31.435-.033-.088-.122-.154-.246-.305-3.906 10.553-7.791 21.047-11.672 31.543-.032.087-.004.197-.004.31ZM484.362 66.846c.173-.181.338-.351.5-.524 3.107-3.305 6.938-5.254 11.381-6.045 4.08-.727 8.12-.521 12.08.695 5.076 1.56 9.09 4.609 12.174 8.907 2.345 3.267 3.873 6.902 4.841 10.783 1.078 4.32 1.33 8.712.993 13.131-.345 4.532-1.413 8.894-3.427 12.994-1.76 3.581-4.119 6.693-7.287 9.156-3.257 2.532-6.943 4.056-11.03 4.616-3.26.446-6.497.364-9.705-.412-3.93-.95-7.301-2.857-10.05-5.836-.137-.15-.28-.295-.422-.44-.018-.018-.053-.021-.087-.034-.276.154-.147.42-.148.63-.008 2.884-.005 5.767-.005 8.65v13.84c0 .27.014.544-.009.813-.088 1.029-.727 1.68-1.748 1.793-.168.018-.339.015-.508.015-3.328.001-6.655.002-9.982-.002-.27 0-.546-.009-.81-.062-.776-.157-1.25-.64-1.42-1.412a3.571 3.571 0 0 1-.061-.605c-.01-.237-.003-.475-.003-.712V63.824c0-.373-.018-.75.023-1.118.11-.985.73-1.59 1.72-1.703.202-.023.407-.02.61-.02h9.779c.237.001.477-.002.711.028.969.125 1.59.765 1.686 1.743.03.302.01.61.011.915.001.916-.001 1.832.004 2.748 0 .125-.037.27.189.429Zm-.545 24.01c.006 1.09-.026 2.681.185 4.268.293 2.201.858 4.316 1.913 6.278 1.534 2.857 3.783 4.937 6.848 6.053 2.2.8 4.475 1.002 6.81.707 4.022-.507 7.12-2.443 9.305-5.846 1.072-1.671 1.78-3.497 2.228-5.422.96-4.12.987-8.262.164-12.402-.431-2.172-1.194-4.232-2.393-6.113-1.464-2.297-3.427-4.004-5.97-5.012-2.022-.8-4.136-1.036-6.291-.892-4.77.32-8.345 2.554-10.662 6.74-1.097 1.98-1.655 4.135-1.949 6.37-.208 1.585-.19 3.177-.188 5.272ZM570.005 114.226c-.087.07-.199.145-.29.239-2.484 2.54-5.51 4.126-8.9 5.085-3.236.916-6.536 1.168-9.878.996-2.945-.152-5.768-.822-8.437-2.082-2.33-1.1-4.37-2.595-6.02-4.588-2.119-2.556-3.29-5.495-3.616-8.794a18.368 18.368 0 0 1 .51-6.555c.843-3.184 2.618-5.78 5.17-7.85 2.158-1.75 4.609-2.967 7.2-3.92 2.488-.914 5.054-1.535 7.65-2.048 4.29-.848 8.577-1.708 12.864-2.567.76-.152 1.539-.233 2.304-.513.122-1.682-.004-3.324-.643-4.893-.76-1.864-2.128-3.118-4-3.816-1.941-.723-3.964-.88-6.014-.737-1.015.07-2.021.216-3.002.515-2.173.662-3.848 1.956-5.022 3.897-.387.639-.731 1.303-.964 2.013-.385 1.18-1.366 1.6-2.479 1.357-2.682-.586-5.372-1.133-8.06-1.694-.464-.097-.931-.18-1.395-.28-.231-.05-.467-.101-.684-.192-.866-.364-1.317-1.272-1.045-2.168.158-.516.372-1.019.6-1.51 3.07-6.59 8.141-10.878 15.063-13.014 2.642-.815 5.359-1.184 8.122-1.226 3.204-.048 6.372.232 9.482 1.031 2.112.543 4.125 1.34 5.983 2.49 3.881 2.402 6.325 5.863 7.493 10.245.571 2.141.806 4.327.806 6.541-.002 6.614 0 13.227 0 19.84v4.885c0 .578.049 1.149.214 1.709.318 1.08 1.02 1.728 2.133 1.924.3.052.604.088.906.133 1.103.164 1.676.79 1.684 1.923.017 2.408.005 4.816.005 7.224 0 .068-.005.136-.003.204.03.889-.794 1.691-1.548 1.741-.372.025-.741.102-1.113.122-1.628.09-3.258.135-4.885.015-1.766-.13-3.492-.457-5.139-1.146-2.04-.854-3.648-2.19-4.72-4.144-.075-.137-.112-.316-.332-.392ZM568.6 92.3c-.52.102-.918.177-1.315.26l-9.25 1.921c-1.69.352-3.39.673-5.029 1.228-1.223.415-2.4.928-3.437 1.72-1.237.944-2.015 2.173-2.318 3.701-.12.604-.131 1.213-.106 1.822.113 2.663 1.392 4.537 3.837 5.607 1.133.496 2.328.716 3.556.769a17.489 17.489 0 0 0 3.549-.198c2.128-.344 4.152-.983 5.968-2.171 2.967-1.94 4.573-4.638 4.547-8.236-.014-1.897-.002-3.795-.002-5.693v-.73ZM375.054 93.6c.087 1.115.31 2.207.586 3.288.455 1.782 1.117 3.484 2.087 5.052 2.33 3.77 5.66 6.04 10.086 6.633 3.17.423 6.225.041 9.112-1.384 2.326-1.148 4.075-2.892 5.265-5.196.14-.27.253-.556.409-.817.426-.718 1.178-1.032 2.004-.84.263.062.518.157.772.25 2.576.942 5.151 1.887 7.726 2.832.223.082.454.147.664.254.876.44 1.262 1.413.91 2.325-.134.346-.325.67-.501.998-3.364 6.246-8.462 10.395-15.22 12.518-3.5 1.1-7.095 1.44-10.754 1.267-3.454-.163-6.794-.841-9.981-2.18-6.74-2.828-11.474-7.69-14.383-14.351-1.366-3.128-2.143-6.413-2.5-9.806-.221-2.099-.272-4.2-.144-6.298.397-6.478 2.326-12.432 6.313-17.624 4.226-5.502 9.787-8.886 16.602-10.177 2.85-.54 5.727-.598 8.617-.291 3.167.336 6.195 1.139 9.04 2.574 4.275 2.157 7.533 5.38 9.905 9.515 1.755 3.058 2.844 6.355 3.492 9.81.597 3.186.633 6.402.624 9.625-.003 1.012-.857 2.003-1.928 1.916-.27-.022-.543-.003-.814-.003-12.287 0-24.574 0-36.861.005-.365 0-.744-.088-1.128.106Zm13.313-10.41h11.604c.204 0 .407.003.61-.001.678-.014.734-.05.658-.678-.094-.772-.171-1.555-.36-2.306-1.03-4.083-3.531-6.78-7.622-7.928-1.883-.528-3.801-.635-5.747-.416-2.966.334-5.54 1.484-7.673 3.586-1.804 1.776-2.967 3.935-3.775 6.306-.109.32-.198.647-.287.974-.105.384-.052.448.378.46.237.007.475.002.712.002h11.502ZM597.698 60.983h4.787c.237 0 .475-.005.712.004.95.034 1.588.473 1.902 1.396.634 1.86 1.297 3.708 1.942 5.563 3.67 10.554 7.337 21.109 11.006 31.663.089.256.186.508.274.764.03.086.075.12.15.079.053-.03.122-.065.141-.114.097-.252.181-.51.268-.766 1.351-3.975 2.703-7.95 4.052-11.927 2.795-8.24 5.588-16.482 8.382-24.723.065-.193.133-.384.198-.577.294-.876.92-1.307 1.828-1.356.169-.01.339-.006.509-.006 3.225 0 6.45-.003 9.675.003.337 0 .682.012 1.01.08.795.164 1.22.682 1.278 1.483.047.656-.098 1.27-.33 1.882-1.747 4.625-3.482 9.255-5.22 13.883-5.765 15.342-11.53 30.684-17.293 46.026-.74 1.97-1.585 3.889-2.638 5.713-1.022 1.772-2.221 3.406-3.696 4.832-2.457 2.377-5.4 3.829-8.714 4.562a26.476 26.476 0 0 1-5.858.623c-1.425-.006-2.852.04-4.272-.143-1.283-.165-1.884-.786-1.892-2.065-.017-2.612-.02-5.223.001-7.835.01-1.362.766-2.047 2.117-2.018 1.12.025 2.24.047 3.359.046.783 0 1.549-.151 2.307-.348 1.405-.363 2.511-1.153 3.373-2.305.613-.821 1.071-1.726 1.458-2.67.643-1.565 1.268-3.14 1.937-4.694.205-.475.185-.88.006-1.352-1.519-3.987-3.02-7.98-4.522-11.974L590.622 64.02c-.071-.19-.154-.377-.21-.572-.367-1.259.405-2.328 1.584-2.44.27-.026.542-.024.813-.024 1.63-.002 3.26-.001 4.889-.001ZM440.587 69.019c.197-.057.242-.19.308-.305 2.017-3.478 5.037-5.705 8.793-6.995a18.962 18.962 0 0 1 5.988-1.038c.882-.01 1.766-.014 2.646.04 1.119.067 1.784.787 1.837 1.912.012.237.004.475.004.712v9.461c-.019 1.561-.707 2.22-2.27 2.158-1.39-.055-2.781-.116-4.172-.021-2.156.146-4.22.668-6.13 1.687-3.746 1.998-5.934 5.151-6.765 9.278-.262 1.301-.337 2.62-.337 3.945v27.06c0 .339-.007.678-.014 1.016-.018.808-.727 1.598-1.638 1.652-.237.014-.475.019-.712.02h-9.775c-.238 0-.477.004-.712-.024-.91-.106-1.544-.745-1.648-1.66-.026-.234-.014-.474-.014-.71V63.392c0-.204-.01-.408.006-.61.08-.973.696-1.635 1.657-1.767.267-.037.541-.032.812-.032a5872.8 5872.8 0 0 1 9.572 0c.304 0 .613 0 .913.05.89.143 1.451.747 1.536 1.638.025.269.016.541.017.813 0 1.593-.003 3.187.003 4.78 0 .229-.061.466.095.754Z"/></svg>
