<svg xmlns="http://www.w3.org/2000/svg" viewBox="0 0 32 20"><defs><style>.cls-1{fill:#fff}</style></defs><g id="Layer_1"><path class="cls-1" d="M0 0h32v20H0z"/><path d="M8.688 6.653c.008-.001.02.004.022-.01.004-.024.008-.048.009-.073.005-.19.011-.38.025-.57.026-.357.078-.71.175-1.056a2.8 2.8 0 0 1 .404-.837c.36-.519.834-.893 1.421-1.126.157-.062.321-.1.486-.135.247-.052.497-.082.75-.1.416-.03.834-.035 1.251-.035h5.685c.306 0 .611.006.916.022.387.02.77.065 1.146.16a3.07 3.07 0 0 1 2.063 1.863c.062.158.1.322.135.486.052.247.082.497.1.749.036.472.036.946.036 1.419v5.549c0 .29-.007.579-.022.868-.02.383-.065.762-.16 1.135a3.06 3.06 0 0 1-1.871 2.067 3.173 3.173 0 0 1-.522.142c-.257.052-.517.08-.778.098a9.35 9.35 0 0 1-.682.02h-6.592c-.287 0-.573-.012-.859-.04a6.12 6.12 0 0 1-.691-.11c-.891-.189-1.766-.878-2.15-1.864a3.192 3.192 0 0 1-.146-.53 6.294 6.294 0 0 1-.1-.806c-.015-.205-.01-.41-.027-.616-.002-.024-.004-.05-.008-.074-.001-.007-.01-.013-.017-.02V6.653Zm6.344 8.069h.645c.108-.004.166-.051.189-.158l.097-.466.057-.274c.004-.02.015-.034.036-.036l.047-.003a4.42 4.42 0 0 0 .754-.127 3.14 3.14 0 0 0 .991-.447c.288-.2.527-.447.703-.752.15-.262.242-.544.277-.845a2.188 2.188 0 0 0-.03-.724 1.612 1.612 0 0 0-.602-.94 2.665 2.665 0 0 0-.587-.344 5.139 5.139 0 0 0-.961-.3 9.285 9.285 0 0 1-.877-.225 2.437 2.437 0 0 1-.406-.167.955.955 0 0 1-.206-.144.478.478 0 0 1-.157-.309.675.675 0 0 1 .163-.519.95.95 0 0 1 .328-.243 1.65 1.65 0 0 1 .557-.146 2.59 2.59 0 0 1 .854.054c.484.116.896.351 1.22.732.017.019.033.039.052.054.055.045.13.05.192.013.016-.01.03-.021.045-.033l.787-.646c.015-.012.03-.023.042-.037a.164.164 0 0 0 .022-.206c-.011-.018-.025-.035-.038-.052a2.596 2.596 0 0 0-.496-.48 3.382 3.382 0 0 0-.941-.488l-.088-.031c-.013-.005-.02-.015-.018-.029l.005-.037.136-.62c.018-.085.039-.17.053-.256a.162.162 0 0 0-.15-.188c-.024-.003-.05-.002-.074-.002h-1.234c-.101.004-.154.047-.177.146-.02.088-.037.176-.056.265-.036.167-.07.334-.107.502-.01.043-.011.043-.055.047-.22.02-.438.056-.653.112-.355.093-.69.233-.99.446-.533.378-.863.881-.933 1.539-.027.25-.011.497.055.74a1.6 1.6 0 0 0 .564.838c.17.138.359.247.557.34.324.15.662.255 1.008.338.215.051.43.097.646.149.178.043.354.096.523.17.086.037.168.081.242.139a.516.516 0 0 1 .204.314.776.776 0 0 1-.2.682 1.19 1.19 0 0 1-.413.283c-.214.092-.44.136-.671.148a2.756 2.756 0 0 1-.697-.053 2.514 2.514 0 0 1-1.271-.67 2.724 2.724 0 0 1-.277-.316l-.016-.023c-.082-.106-.168-.12-.273-.038-.296.228-.591.458-.885.688-.097.076-.11.16-.042.26.069.1.146.194.23.283.296.319.649.56 1.04.747.184.087.372.16.566.218.09.028.085.025.064.117l-.06.245c-.042.182-.086.363-.127.545-.028.12.042.211.163.22h.655Z" style="fill:#00d64f"/><path id="_x24_" class="cls-1" d="M15.032 14.722H14.378c-.121-.009-.19-.1-.164-.22.042-.182.086-.363.129-.545.02-.082.04-.163.058-.245.022-.092.027-.09-.063-.117a3.977 3.977 0 0 1-.566-.218 3.398 3.398 0 0 1-1.04-.747 2.4 2.4 0 0 1-.23-.283c-.068-.1-.055-.184.041-.26.295-.23.59-.46.886-.688.105-.081.191-.068.273.038l.016.022c.085.113.176.219.277.317.358.347.782.57 1.27.67.23.048.463.065.698.053.231-.012.457-.056.67-.148.157-.068.298-.157.414-.283a.781.781 0 0 0 .2-.682.516.516 0 0 0-.204-.314 1.122 1.122 0 0 0-.242-.14 3.147 3.147 0 0 0-.523-.17c-.215-.05-.431-.097-.646-.148a5.32 5.32 0 0 1-1.008-.339 2.673 2.673 0 0 1-.557-.339 1.6 1.6 0 0 1-.564-.838 1.991 1.991 0 0 1-.055-.74c.07-.658.4-1.16.932-1.539.301-.213.636-.353.991-.446.214-.056.432-.091.653-.112.044-.004.045-.004.055-.048l.107-.501c.019-.089.036-.177.056-.265.023-.1.076-.142.177-.146h1.234c.025 0 .05 0 .075.002.097.01.164.091.149.188-.014.086-.035.171-.053.256l-.136.62-.005.037c-.002.014.005.024.018.029l.088.031c.338.115.654.274.94.488.187.139.353.297.497.48.013.017.027.034.038.052a.164.164 0 0 1-.022.206c-.012.014-.027.025-.042.037l-.787.646c-.015.012-.03.024-.045.033a.165.165 0 0 1-.192-.013c-.02-.016-.035-.035-.051-.054a2.244 2.244 0 0 0-1.22-.733 2.587 2.587 0 0 0-.855-.053c-.193.018-.38.062-.557.146a.951.951 0 0 0-.328.243.675.675 0 0 0-.163.52.478.478 0 0 0 .157.308.955.955 0 0 0 .206.144c.13.07.267.122.406.167.288.093.582.16.877.225.329.073.652.165.96.3.21.092.408.202.588.343.31.244.516.554.601.94.053.24.058.482.03.725a2.164 2.164 0 0 1-.277.845 2.33 2.33 0 0 1-.702.752c-.302.21-.636.352-.99.447a4.42 4.42 0 0 1-.755.127l-.047.003c-.021.002-.032.015-.036.036l-.057.274-.097.466c-.023.107-.08.154-.189.157h-.645Z"/></g></svg>
