<svg xmlns="http://www.w3.org/2000/svg" viewBox="0 0 43 27" width="64" height="40" fill="none"><rect width="43" height="27" x="0" y="0" fill="#00A1E9" rx="2"/><path fill="#fff" d="M14.772 4.167c-1.717 0-3.106 1.338-3.106 2.99v12.686c0 1.65 1.39 2.99 3.106 2.99h13.175c1.715 0 3.104-1.339 3.104-2.99v-.13c-.058-.023-5.038-2.024-7.57-3.196-1.707 2.024-3.91 3.252-6.197 3.252-3.867 0-5.18-3.26-3.349-5.405.4-.468 1.079-.914 2.133-1.164 1.649-.39 4.273.243 6.733 1.025.442-.785.814-1.65 1.092-2.57h-7.58v-.74h3.908V9.59h-4.734v-.74h4.734V6.96s0-.319.335-.319h1.911v2.21h4.68v.74h-4.68v1.325h3.82a14.728 14.728 0 0 1-1.617 3.935c1.16.403 2.2.786 2.975 1.037 2.588.833 3.313.935 3.406.946V7.157c0-1.652-1.39-2.99-3.104-2.99H14.772Zm2.125 10.113c-.166.002-.332.01-.5.027-.485.047-1.394.252-1.89.676-1.49 1.251-.599 3.538 2.417 3.538 1.752 0 3.504-1.079 4.88-2.807-1.774-.833-3.302-1.452-4.907-1.434Z"/></svg>
