<svg width="64" height="40" viewBox="0 0 64 40" fill="none" xmlns="http://www.w3.org/2000/svg">
<rect width="64" height="40" rx="3" fill="black"/>
<path d="M4.33168 11.7646V28.2527C4.33168 29.0418 4.98051 29.6876 5.77354 29.6876H15.672C23.1553 29.6876 26.3995 25.5189 26.3995 19.9871C26.3995 14.4839 23.1553 10.3296 15.672 10.3296H5.77354C4.98051 10.3296 4.33168 10.9753 4.33168 11.7646Z" fill="white"/>
<path d="M10.957 14.3762V26.5592H16.2847C21.1222 26.5592 23.2202 23.8399 23.2202 19.9941C23.2202 16.3134 21.1222 13.4578 16.2847 13.4578H11.8798C11.368 13.4578 10.957 13.8739 10.957 14.3762Z" fill="#CC0066"/>
<path fill-rule="evenodd" clip-rule="evenodd" d="M7.06387 28.3747H15.6719C21.7205 28.3747 25.0583 25.3971 25.0583 19.9943C25.0583 16.8804 23.8399 11.6499 15.6719 11.6499H7.06387C6.29969 11.6499 5.67969 12.2669 5.67969 13.0275V26.9972C5.67969 27.7578 6.29969 28.3747 7.06387 28.3747ZM6.14074 13.0275C6.14074 12.5181 6.55168 12.1091 7.06354 12.1091H15.6715C19.0021 12.1091 24.5966 13.1351 24.5966 19.9943C24.5966 25.103 21.4246 27.9155 15.6715 27.9155H7.06354C6.55168 27.9155 6.14074 27.5065 6.14074 26.9972V13.0275Z" fill="#232323"/>
<path fill-rule="evenodd" clip-rule="evenodd" d="M13.5787 18.2239C13.4166 18.1659 13.2473 18.1369 13.0639 18.1369V18.1296H11.844V21.0724H13.0781C13.2967 21.0724 13.4871 21.0289 13.6493 20.9564C13.8115 20.8767 13.9455 20.7752 14.0513 20.6447C14.1571 20.5143 14.2346 20.3548 14.291 20.1736C14.3404 19.9924 14.3686 19.7967 14.3686 19.5793C14.3686 19.3328 14.3333 19.1226 14.2699 18.9414C14.1994 18.7674 14.1077 18.6153 13.9949 18.4921C13.8749 18.3761 13.741 18.2819 13.5787 18.2239ZM13.2893 20.4926C13.1976 20.5216 13.1129 20.5361 13.0213 20.5361V20.5434H12.4642V18.6878H12.9156C13.0707 18.6878 13.1976 18.7096 13.3034 18.7531C13.4091 18.7966 13.4938 18.869 13.5572 18.9488C13.6207 19.0285 13.6701 19.1373 13.6983 19.2532C13.7266 19.3692 13.7406 19.5069 13.7406 19.6519C13.7406 19.8186 13.7194 19.949 13.6772 20.065C13.6349 20.181 13.5785 20.268 13.5149 20.3404C13.4515 20.4129 13.3739 20.4636 13.2893 20.4926Z" fill="white"/>
<path d="M16.9144 18.1369V18.6805H15.4052V19.3111H16.7945V19.8112H15.4052V20.5288H16.9497V21.0724H14.7776V18.1296H16.9144V18.1369Z" fill="white"/>
<path fill-rule="evenodd" clip-rule="evenodd" d="M20.1441 21.0794L19.0721 18.1367H18.4164L17.3374 21.0794H17.972L18.1978 20.4271H19.2697L19.4882 21.0794H20.1441ZM18.7478 18.8616L19.1074 19.9415H18.367L18.7408 18.8616H18.7478Z" fill="white"/>
<path d="M21.1668 18.1367V20.5358H22.5631V21.0794H20.5392V18.1367H21.1668Z" fill="white"/>
<path d="M8.48156 21.1227C9.24553 21.1227 9.86484 20.5032 9.86484 19.739C9.86484 18.9747 9.24553 18.3552 8.48156 18.3552C7.71759 18.3552 7.09827 18.9747 7.09827 19.739C7.09827 20.5032 7.71759 21.1227 8.48156 21.1227Z" fill="#232323"/>
<path d="M9.30471 26.6578C8.23412 26.6578 7.37492 25.733 7.37492 24.5968V22.9874C7.37492 22.4192 7.80452 21.9531 8.34322 21.9531C8.87511 21.9531 9.31153 22.412 9.31153 22.9874V26.6578H9.30471Z" fill="#232323"/>
<path d="M29.0628 13.7144V26.286" stroke="white" stroke-width="0.483525" stroke-linecap="round"/>
<path d="M52.2634 19.954C52.2634 18.3373 53.4276 16.863 55.4381 16.863C57.457 16.863 58.6212 18.3373 58.6212 19.954C58.6212 21.5707 57.457 23.045 55.4381 23.045C53.4279 23.0454 52.2634 21.5707 52.2634 19.954ZM56.8541 19.954C56.8541 19.1748 56.3346 18.4546 55.4384 18.4546C54.5503 18.4546 54.0228 19.1752 54.0228 19.954C54.0228 20.7332 54.5507 21.4535 55.4384 21.4535C56.3346 21.4535 56.8541 20.7332 56.8541 19.954Z" fill="white"/>
<path d="M51.0272 21.1018C51.6974 20.7248 52.0993 20.0046 52.0993 19.2087C52.0993 18.0276 51.2362 17.0222 49.896 17.0222H47.0815V22.8862H48.8239V21.3868H49.1507L50.1474 22.8862H52.1998L51.0272 21.1018ZM49.5445 20.0378H48.8239V18.3792H49.5528C50.0221 18.3792 50.3237 18.7562 50.3237 19.2087C50.3237 19.6608 50.0137 20.0378 49.5445 20.0378Z" fill="white"/>
<path d="M39.1275 17.0161L38.0823 20.511L37.0622 17.0161H35.6744L34.646 20.511L33.6092 17.0161H31.7697L33.8766 22.8689H35.39L36.3682 19.6833L37.3384 22.8689H38.86L40.967 17.0161H39.1275Z" fill="white"/>
<path d="M43.6034 21.4393C43.6021 21.4393 43.6006 21.4393 43.5993 21.4393C42.9475 21.4393 42.4905 21.0504 42.2943 20.5355H46.7004H46.7224C46.7579 20.3418 46.7764 20.1435 46.7764 19.9427C46.7764 18.3302 45.6157 16.8598 43.6034 16.8577V18.4465C44.2591 18.4482 44.7115 18.8364 44.9057 19.3503H40.4838C40.4485 19.544 40.4304 19.7423 40.4304 19.9431C40.4304 21.5567 41.5926 23.0284 43.5993 23.0284C43.6006 23.0284 43.6021 23.0284 43.6034 23.0284V21.4393Z" fill="white"/>
<path d="M43.5993 23.0276C43.6674 23.0276 43.7343 23.0255 43.8007 23.0223C44.2084 23.0018 44.5784 22.9197 44.9085 22.7874C45.2383 22.6551 45.5281 22.4731 45.7746 22.2533C46.021 22.0334 46.2245 21.7757 46.3824 21.4918C46.5258 21.2339 46.6305 20.9546 46.6962 20.6631H44.8512C44.8134 20.7409 44.7694 20.8153 44.7192 20.8848C44.6504 20.9797 44.5697 21.066 44.4784 21.1403C44.3869 21.2147 44.2842 21.2775 44.1711 21.326C44.0579 21.3746 43.9348 21.4088 43.8014 21.4258C43.7365 21.4343 43.6694 21.4391 43.5999 21.4391C43.1849 21.4391 42.8486 21.281 42.6088 21.0335L41.4093 22.233C41.9424 22.7204 42.6825 23.0276 43.5993 23.0276Z" fill="url(#paint0_linear_13268_1594)"/>
<path d="M43.5992 16.8569C41.8973 16.8569 40.8028 17.9154 40.5096 19.2218H42.3494C42.5694 18.7718 43.0026 18.4457 43.5992 18.4457C44.0747 18.4457 44.4437 18.6489 44.6849 18.9561L45.8953 17.7458C45.3549 17.2039 44.5774 16.8569 43.5992 16.8569Z" fill="url(#paint1_linear_13268_1594)"/>
<defs>
<linearGradient id="paint0_linear_13268_1594" x1="45.7676" y1="19.5777" x2="43.0527" y2="22.941" gradientUnits="userSpaceOnUse">
<stop offset="0.0243" stop-color="white" stop-opacity="0"/>
<stop offset="0.676" stop-color="white"/>
</linearGradient>
<linearGradient id="paint1_linear_13268_1594" x1="41.0173" y1="20.3311" x2="43.807" y2="17.5414" gradientUnits="userSpaceOnUse">
<stop offset="0.0243" stop-color="white" stop-opacity="0"/>
<stop offset="0.676" stop-color="white"/>
</linearGradient>
</defs>
</svg>
