<svg width="64" height="40" viewBox="0 0 64 40" fill="none" xmlns="http://www.w3.org/2000/svg">
<rect width="64" height="40" rx="3" fill="#FFF48D"/>
<g clip-path="url(#clip0_13222_1481)">
<path d="M59.4292 9H4.57083C3.70329 9 3 9.70355 3 10.5714V29.4286C3 30.2964 3.70329 31 4.57083 31H59.4292C60.2967 31 61 30.2964 61 29.4286V10.5714C61 9.70355 60.2967 9 59.4292 9Z" fill="#FFF48D"/>
<path d="M4.33158 11.7644V28.2523C4.33158 29.0417 4.98045 29.6872 5.77312 29.6872H15.6682C23.149 29.6872 26.3909 25.5181 26.3909 19.9866C26.3909 14.4552 23.1477 10.3296 15.667 10.3296H5.77191C4.97924 10.3296 4.33037 10.9751 4.33037 11.7644H4.33158Z" fill="white"/>
<path d="M10.9545 14.3767V26.5601H16.2796C21.1153 26.5601 23.2118 23.8403 23.2118 19.9952C23.2118 16.15 21.1141 13.4592 16.2796 13.4592H11.8764C11.3653 13.4592 10.9545 13.8751 10.9545 14.3779V14.3767Z" fill="#CC0066"/>
<path fill-rule="evenodd" clip-rule="evenodd" d="M7.0624 28.3745H15.6669C21.7134 28.3745 25.0497 25.3972 25.0497 19.9939C25.0497 16.8801 23.8317 11.6497 15.6669 11.6497H7.0624C6.29874 11.6497 5.67886 12.2661 5.67886 13.0277V26.9977C5.67886 27.758 6.29874 28.3757 7.0624 28.3757V28.3745ZM6.13924 13.0277C6.13924 12.5188 6.55007 12.109 7.0612 12.109H15.6657C18.9947 12.109 24.5869 13.1353 24.5869 19.9939C24.5869 25.1023 21.4162 27.9152 15.6657 27.9152H7.0624C6.55128 27.9152 6.14045 27.5066 6.14045 26.9965V13.0277H6.13924Z" fill="#232323"/>
<path fill-rule="evenodd" clip-rule="evenodd" d="M13.5741 18.2229C13.4122 18.1649 13.243 18.1359 13.0594 18.1359V18.1287H11.8402V21.0709H13.0739C13.2926 21.0709 13.4823 21.0273 13.6454 20.9548C13.8073 20.875 13.9415 20.7735 14.0478 20.6429C14.1541 20.5124 14.2315 20.3528 14.287 20.1715C14.3366 19.9902 14.3644 19.7944 14.3644 19.5768C14.3644 19.3302 14.3293 19.1199 14.2653 18.9386C14.1952 18.7645 14.1034 18.6122 13.991 18.4889C13.8714 18.3728 13.7372 18.2786 13.5753 18.2205L13.5741 18.2229ZM13.2853 20.4918C13.1935 20.5209 13.1089 20.5354 13.0171 20.5354V20.5426H12.46V18.6871H12.9107C13.0654 18.6871 13.1923 18.7089 13.2986 18.7524C13.405 18.7959 13.4895 18.8684 13.5524 18.9482C13.6152 19.028 13.6647 19.1368 13.6937 19.2528C13.7215 19.3689 13.736 19.5067 13.736 19.6517C13.736 19.8186 13.7143 19.9491 13.6732 20.0651C13.6309 20.1812 13.5741 20.2682 13.5113 20.3408C13.4485 20.4133 13.3699 20.464 13.2853 20.4931V20.4918Z" fill="white"/>
<path d="M16.9091 18.1372V18.6811H15.3999V19.3121H16.7883V19.8125H15.3999V20.5306H16.9442V21.0745H14.7728V18.1323H16.9091V18.1396V18.1372Z" fill="white"/>
<path fill-rule="evenodd" clip-rule="evenodd" d="M20.1378 21.0794L19.066 18.1372H18.4111L17.332 21.0794H17.9664L18.1924 20.4267H19.2642L19.4829 21.0794H20.139H20.1378ZM18.7409 18.8613L19.101 19.9407H18.3615L18.7349 18.8613H18.7422H18.7409Z" fill="white"/>
<path d="M21.16 18.136V20.5354H22.5557V21.0794H20.5329V18.1372H21.16V18.136Z" fill="white"/>
<path d="M8.47979 21.1229C9.24346 21.1229 9.86212 20.504 9.86212 19.7388C9.86212 18.9736 9.24346 18.3547 8.47979 18.3547C7.71612 18.3547 7.09746 18.9736 7.09746 19.7388C7.09746 20.504 7.71612 21.1229 8.47979 21.1229Z" fill="#232323"/>
<path d="M9.30266 26.658C8.23208 26.658 7.37416 25.7333 7.37416 24.597V22.9881C7.37416 22.42 7.80312 21.9534 8.34204 21.9534C8.88095 21.9534 9.30991 22.4127 9.30991 22.9881V26.658H9.30266Z" fill="#232323"/>
<path d="M52.01 20.075C52.01 18.4576 53.1603 16.9841 55.1468 16.9841C57.1333 16.9841 58.2921 18.4589 58.2921 20.075C58.2921 21.6912 57.1418 23.1659 55.1468 23.1659C53.1603 23.1659 52.01 21.6912 52.01 20.075ZM56.5461 20.075C56.5461 19.2953 56.0325 18.5761 55.1468 18.5761C54.2611 18.5761 53.7476 19.2965 53.7476 20.075C53.7476 20.8535 54.2696 21.5751 55.1468 21.5751C56.0241 21.5751 56.5461 20.8547 56.5461 20.075Z" fill="#1D1C1C"/>
<path d="M50.7884 21.2232C51.4505 20.8461 51.8481 20.1256 51.8481 19.3303C51.8481 18.1493 50.995 17.1436 49.6707 17.1436H46.8903V23.0074H48.6122V21.5085H48.9348L49.9196 23.0074H51.9472L50.7884 21.2232ZM49.3239 20.1583H48.6122V18.4998H49.3323C49.7963 18.4998 50.0936 18.877 50.0936 19.329C50.0936 19.7811 49.7867 20.1583 49.3239 20.1583Z" fill="#1D1C1C"/>
<path d="M39.0301 17.1365L37.997 20.6311L36.9892 17.1365H35.6177L34.6015 20.6311L33.5769 17.1365H31.7595L33.8415 22.9894H35.3362L36.3029 19.8031L37.2611 22.9894H38.7642L40.8462 17.1365H39.0289H39.0301Z" fill="#1D1C1C"/>
<path d="M43.4526 21.5606H43.449C42.8049 21.5606 42.353 21.1713 42.1597 20.6564H46.535C46.5701 20.463 46.5882 20.2647 46.5882 20.0641C46.5882 18.4516 45.4415 16.9805 43.4526 16.9792V18.5676C44.1002 18.5688 44.5473 18.958 44.7395 19.4718H40.3701C40.3351 19.6652 40.317 19.8634 40.317 20.0641C40.317 21.6778 41.4649 23.1501 43.4477 23.1501H43.4514V21.5606H43.4526Z" fill="#1D1C1C"/>
<path d="M43.4489 23.1488C43.5166 23.1488 43.5831 23.1464 43.6483 23.144C44.0507 23.1234 44.4168 23.0412 44.7431 22.9095C45.0693 22.7777 45.3557 22.5952 45.5986 22.3752C45.8427 22.1552 46.0432 21.8977 46.1991 21.6137C46.3405 21.355 46.4444 21.0757 46.5097 20.7844H44.6863C44.6488 20.8618 44.6053 20.9367 44.5558 21.0056C44.4881 21.1011 44.4084 21.187 44.3177 21.2607C44.2271 21.3356 44.1256 21.3985 44.0144 21.4468C43.9033 21.4952 43.7812 21.529 43.6495 21.5472C43.5855 21.5556 43.519 21.5605 43.4502 21.5605C43.0405 21.5605 42.7082 21.4021 42.4702 21.1543L41.2848 22.3534C41.8117 22.8406 42.5427 23.1476 43.4489 23.1476V23.1488Z" fill="url(#paint0_linear_13222_1481)"/>
<path d="M43.4489 16.978C41.7669 16.978 40.6855 18.0369 40.3967 19.3424H42.214C42.4315 18.8928 42.8593 18.5664 43.4489 18.5664C43.919 18.5664 44.2839 18.7695 44.5219 19.0765L45.7182 17.8665C45.1841 17.325 44.4156 16.978 43.4502 16.978H43.4489Z" fill="url(#paint1_linear_13222_1481)"/>
<path d="M29.0529 26.5274C28.92 26.5274 28.8112 26.4186 28.8112 26.2856V13.7142C28.8112 13.5812 28.92 13.4724 29.0529 13.4724C29.1858 13.4724 29.2945 13.5812 29.2945 13.7142V26.2856C29.2945 26.4186 29.1858 26.5274 29.0529 26.5274Z" fill="#1D1C1C"/>
</g>
<defs>
<linearGradient id="paint0_linear_13222_1481" x1="45.6203" y1="19.7219" x2="42.8979" y2="23.0535" gradientUnits="userSpaceOnUse">
<stop offset="0.02" stop-color="#1D1C1C" stop-opacity="0"/>
<stop offset="0.68" stop-color="#1D1C1C"/>
</linearGradient>
<linearGradient id="paint1_linear_13222_1481" x1="40.874" y1="20.4291" x2="43.6639" y2="17.6729" gradientUnits="userSpaceOnUse">
<stop offset="0.02" stop-color="#1D1C1C" stop-opacity="0"/>
<stop offset="0.68" stop-color="#1D1C1C"/>
</linearGradient>
<clipPath id="clip0_13222_1481">
<rect width="58" height="22" fill="white" transform="translate(3 9)"/>
</clipPath>
</defs>
</svg>
