<svg width="32" height="20" viewBox="0 0 32 20" fill="none" xmlns="http://www.w3.org/2000/svg">
	<path d="M30.3158 0H1.68421C0.754047 0 0 0.746192 0 1.66667V18.3333C0 19.2538 0.754047 20 1.68421 20H30.3158C31.246 20 32 19.2538 32 18.3333V1.66667C32 0.746192 31.246 0 30.3158 0Z" fill="white"/>
	<mask id="mask0_5_11" style="mask-type:luminance" maskUnits="userSpaceOnUse" x="9" y="3" width="14" height="14">
		<path d="M22.9443 3.3501H9.05579V16.6501H22.9443V3.3501Z" fill="white"/>
	</mask>
	<g mask="url(#mask0_5_11)">
		<path fill-rule="evenodd" clip-rule="evenodd" d="M15.9593 16.6289H21.6724C22.9761 16.6289 22.9896 15.2428 22.8565 14.5588C22.784 14.0985 22.0021 14.1058 21.9161 14.5588V15.0924C21.9158 15.21 21.869 15.3228 21.7858 15.406C21.7026 15.4892 21.5898 15.5361 21.4721 15.5363H10.5207C10.403 15.5361 10.2903 15.4892 10.2071 15.406C10.1239 15.3228 10.077 15.21 10.0768 15.0924V14.5588C9.99068 14.1058 9.20888 14.0985 9.13638 14.5588C9.00318 15.2428 9.01678 16.6289 10.3205 16.6289H15.9593ZM11.9213 3.34912H20.7292C21.348 3.34912 21.8545 3.88546 21.8545 4.54048V5.10943C21.8545 5.91394 20.7673 5.91031 20.7673 5.11487V4.80502C20.7673 4.70891 20.7291 4.61674 20.6611 4.54877C20.5932 4.48081 20.501 4.44263 20.4049 4.44263H11.5789C11.4828 4.44263 11.3906 4.48081 11.3226 4.54877C11.2547 4.61674 11.2165 4.70891 11.2165 4.80502V5.10943C11.2165 5.90941 10.1783 5.90397 10.1783 5.12664V4.54138C10.181 3.88636 10.6865 3.34912 11.3053 3.34912H11.9213Z" fill="#3D73B9"/>
		<path fill-rule="evenodd" clip-rule="evenodd" d="M21.6325 9.8911C21.9349 10.0262 22.1926 10.2447 22.3752 10.521C22.5578 10.7974 22.6578 11.1201 22.6635 11.4512C22.6635 12.4097 21.8264 13.1943 20.8035 13.1943H17.9343C17.8098 13.198 17.6889 13.1526 17.5977 13.0678C17.5065 12.983 17.4523 12.8657 17.4469 12.7413V7.28012C17.4474 7.15324 17.4981 7.03171 17.5879 6.94208C17.6777 6.85245 17.7993 6.802 17.9262 6.80176H20.3152C20.6734 6.80093 21.0239 6.9056 21.323 7.10272C21.6221 7.29984 21.8565 7.58067 21.997 7.91017C22.1375 8.2397 22.1779 8.6033 22.1131 8.9555C22.0482 9.3078 21.8811 9.6332 21.6325 9.8911ZM19.4917 9.4472H20.4022V9.4372C20.6065 9.4052 20.7928 9.3014 20.9276 9.1445C21.0624 8.9877 21.1369 8.7879 21.1378 8.5811C21.1371 8.3516 21.0456 8.1317 20.8834 7.96946C20.7211 7.80718 20.5012 7.7157 20.2717 7.71499H18.4371V12.2449H20.7628C20.8827 12.2487 21.0021 12.2284 21.114 12.1851C21.2258 12.1419 21.3279 12.0766 21.414 11.9931C21.5002 11.9097 21.5687 11.8098 21.6155 11.6993C21.6622 11.5889 21.6863 11.4702 21.6863 11.3502C21.6863 11.2303 21.6622 11.1115 21.6155 11.0011C21.5687 10.8907 21.5002 10.7907 21.414 10.7073C21.3279 10.6238 21.2258 10.5585 21.114 10.5153C21.0021 10.4721 20.8827 10.4517 20.7628 10.4556H20.4004H19.4917C19.4257 10.4556 19.3603 10.4426 19.2993 10.4173C19.2383 10.392 19.1828 10.355 19.1361 10.3083C19.0895 10.2616 19.0524 10.2062 19.0271 10.1452C19.0019 10.0842 18.9889 10.0188 18.9889 9.9527C18.9889 9.8867 19.0019 9.8213 19.0271 9.7603C19.0524 9.6993 19.0895 9.6439 19.1361 9.5972C19.1828 9.5505 19.2383 9.5135 19.2993 9.4882C19.3603 9.4629 19.4257 9.4499 19.4917 9.4499" fill="#1D1D1B"/>
		<path d="M16.9912 12.6499C17.0023 12.7266 16.9978 12.8048 16.978 12.8797C16.9581 12.9546 16.9234 13.0248 16.8758 13.086C16.8283 13.1472 16.7688 13.1982 16.7011 13.2359C16.6334 13.2735 16.5587 13.2972 16.4817 13.3054C16.4046 13.3135 16.3267 13.3061 16.2525 13.2834C16.1784 13.2608 16.1096 13.2234 16.0503 13.1735C15.9909 13.1237 15.9422 13.0623 15.9072 12.9932C15.8721 12.9241 15.8513 12.8486 15.846 12.7713L15.3722 8.4308L13.7043 12.6753V12.6861V12.6952V12.7043V12.7097V12.7179V12.7269C13.6677 12.7909 13.6188 12.847 13.5603 12.8918L13.5512 12.8991C13.5209 12.9264 13.4874 12.9502 13.4515 12.9697L13.4407 12.9752L13.4307 12.9806H13.4244H13.4171H13.4108H13.4035H13.3981H13.3917H13.3863H13.3809H13.3736C13.3195 12.9999 13.2626 13.0106 13.2051 13.0123H13.1634C13.0988 13.0105 13.035 12.9973 12.975 12.9733H12.9668H12.9587H12.9514H12.946H12.9388H12.9324H12.9279L12.9179 12.9679L12.9089 12.9625H12.9034C12.8713 12.9453 12.8409 12.925 12.8128 12.9018L12.7938 12.8846L12.7793 12.871L12.7449 12.8619L12.7277 12.8429C12.7045 12.8148 12.6841 12.7844 12.667 12.7523V12.7468L12.6615 12.7378L12.6561 12.7278V12.7215V12.7142V12.7088V12.7006V12.6934V12.6852L10.9574 8.4308L10.4854 12.7713C10.4693 12.923 10.3936 13.0622 10.2749 13.1581C10.1562 13.254 10.0043 13.2988 9.85257 13.2827C9.70077 13.2666 9.56167 13.1909 9.46577 13.0722C9.36987 12.9536 9.32497 12.8016 9.34107 12.6499L9.89737 7.53296C9.91077 7.41245 9.94707 7.29561 10.0043 7.18869C10.0757 7.05511 10.1778 6.94042 10.3023 6.85409C10.4267 6.76776 10.5699 6.71228 10.72 6.69222H10.7508C10.7994 6.68861 10.8481 6.68861 10.8967 6.69222C10.9553 6.69455 11.0135 6.70243 11.0706 6.71577C11.2209 6.75019 11.3605 6.82085 11.4772 6.9216C11.5939 7.02236 11.6842 7.15013 11.7402 7.29378L13.1662 10.8978L14.5894 7.28201C14.6564 7.11062 14.7718 6.96245 14.9216 6.85561C15.0714 6.74878 15.2491 6.6879 15.4329 6.68044C15.4815 6.67683 15.5302 6.67683 15.5788 6.68044H15.6096C15.7597 6.70064 15.9028 6.75619 16.0272 6.8425C16.1516 6.92881 16.2538 7.04342 16.3253 7.17691C16.3531 7.23048 16.3764 7.28623 16.3951 7.34361C16.4134 7.40264 16.4258 7.46333 16.4322 7.52481L16.9912 12.6499Z" fill="#1D1D1B"/>
	</g>
</svg>
