<svg width="64" height="40" viewBox="0 0 64 40" fill="none" xmlns="http://www.w3.org/2000/svg">
	<rect width="64" height="40" rx="3" fill="white"/>
	<path fill-rule="evenodd" clip-rule="evenodd" d="M14.0709 27.5H20.5676C22.0501 27.5 22.0656 25.9343 21.9141 25.1617C21.8317 24.6418 20.9426 24.65 20.8447 25.1617V25.7644C20.8445 25.8973 20.7912 26.0247 20.6966 26.1187C20.602 26.2127 20.4737 26.2656 20.3399 26.2659H7.88644C7.75264 26.2656 7.6244 26.2127 7.52979 26.1187C7.43518 26.0247 7.3819 25.8973 7.38163 25.7644V25.1617C7.28376 24.65 6.39467 24.6418 6.31225 25.1617C6.1608 25.9343 6.17626 27.5 7.65876 27.5H14.0709ZM9.47919 12.5H19.4951C20.1988 12.5 20.7747 13.1058 20.7747 13.8457V14.4883C20.7747 15.3971 19.5384 15.393 19.5384 14.4945V14.1445C19.5384 14.0359 19.495 13.9318 19.4177 13.8551C19.3404 13.7783 19.2356 13.7352 19.1263 13.7352H9.08976C8.98046 13.7352 8.87565 13.7783 8.79836 13.8551C8.72108 13.9318 8.67766 14.0359 8.67766 14.1445V14.4883C8.67766 15.3919 7.49702 15.3858 7.49702 14.5078V13.8467C7.50011 13.1068 8.07498 12.5 8.77863 12.5H9.47919Z" fill="#3D73B9"/>
	<path fill-rule="evenodd" clip-rule="evenodd" d="M20.5223 19.8895C20.8662 20.042 21.1592 20.2888 21.3668 20.601C21.5745 20.9131 21.6882 21.2776 21.6947 21.6516C21.6947 22.7343 20.7427 23.6205 19.5796 23.6205H16.3169C16.1753 23.6247 16.0378 23.5734 15.9341 23.4776C15.8304 23.3819 15.7688 23.2494 15.7626 23.1089V16.9402C15.7631 16.7969 15.8208 16.6596 15.9229 16.5584C16.025 16.4572 16.1633 16.4002 16.3076 16.3999H19.0243C19.4316 16.399 19.8302 16.5172 20.1704 16.7399C20.5105 16.9625 20.777 17.2797 20.9368 17.6519C21.0966 18.0241 21.1425 18.4348 21.0687 18.8327C20.995 19.2306 20.805 19.5982 20.5223 19.8895ZM18.0878 19.388H19.1232V19.3768C19.3556 19.3406 19.5674 19.2234 19.7206 19.0462C19.8739 18.869 19.9587 18.6434 19.9598 18.4097C19.9589 18.1505 19.8549 17.9022 19.6704 17.7189C19.4859 17.5356 19.2358 17.4322 18.9749 17.4314H16.8886V22.5481H19.5332C19.6696 22.5524 19.8054 22.5294 19.9326 22.4806C20.0598 22.4318 20.1759 22.358 20.2738 22.2637C20.3718 22.1695 20.4497 22.0566 20.5029 21.9319C20.5561 21.8071 20.5835 21.673 20.5835 21.5375C20.5835 21.4021 20.5561 21.268 20.5029 21.1432C20.4497 21.0185 20.3718 20.9056 20.2738 20.8113C20.1759 20.7171 20.0598 20.6433 19.9326 20.5945C19.8054 20.5456 19.6696 20.5227 19.5332 20.527H19.1212H18.0878C18.0127 20.527 17.9384 20.5123 17.869 20.4838C17.7996 20.4552 17.7366 20.4134 17.6835 20.3607C17.6304 20.3079 17.5883 20.2453 17.5596 20.1764C17.5308 20.1075 17.516 20.0336 17.516 19.9591C17.516 19.8845 17.5308 19.8106 17.5596 19.7417C17.5883 19.6728 17.6304 19.6102 17.6835 19.5575C17.7366 19.5047 17.7996 19.4629 17.869 19.4343C17.9384 19.4058 18.0127 19.3911 18.0878 19.3911" fill="#1D1D1B"/>
	<path d="M15.2444 23.0056C15.257 23.0922 15.2519 23.1805 15.2293 23.2651C15.2068 23.3498 15.1673 23.429 15.1132 23.4981C15.0591 23.5673 14.9915 23.6248 14.9145 23.6674C14.8375 23.71 14.7526 23.7367 14.665 23.7459C14.5773 23.7551 14.4887 23.7467 14.4044 23.7211C14.3201 23.6955 14.2419 23.6533 14.1744 23.597C14.1069 23.5407 14.0516 23.4714 14.0117 23.3934C13.9718 23.3153 13.9481 23.23 13.9422 23.1427L13.4034 18.2399L11.5067 23.0342V23.0465V23.0567V23.067V23.0731V23.0823V23.0925C11.4651 23.1648 11.4094 23.2281 11.3429 23.2788L11.3326 23.287C11.2981 23.3179 11.2601 23.3447 11.2193 23.3668L11.2069 23.3729L11.1956 23.3791H11.1883H11.1801H11.1729H11.1647H11.1585H11.1513H11.1451H11.1389H11.1307C11.0691 23.4009 11.0044 23.413 10.939 23.4149H10.8916C10.8182 23.4128 10.7456 23.3979 10.6774 23.3709H10.6681H10.6588H10.6506H10.6444H10.6361H10.6289H10.6238L10.6124 23.3647L10.6021 23.3586H10.596C10.5594 23.3392 10.5249 23.3163 10.4929 23.29L10.4713 23.2706L10.4548 23.2552L10.4157 23.245L10.3961 23.2235C10.3697 23.1918 10.3466 23.1575 10.3271 23.1212V23.1151L10.3209 23.1048L10.3147 23.0936V23.0864V23.0782V23.0721V23.0629V23.0547V23.0455L8.38302 18.2399L7.84627 23.1427C7.82796 23.3141 7.74186 23.4712 7.6069 23.5796C7.47195 23.6879 7.2992 23.7385 7.12665 23.7204C6.9541 23.7022 6.79589 23.6166 6.68683 23.4826C6.57776 23.3485 6.52677 23.1769 6.54508 23.0056L7.17764 17.2258C7.19292 17.0897 7.23418 16.9577 7.29921 16.8369C7.38038 16.686 7.49651 16.5565 7.63803 16.459C7.77955 16.3615 7.94238 16.2988 8.1131 16.2761H8.14813C8.20334 16.2721 8.25878 16.2721 8.31399 16.2761C8.38063 16.2788 8.44686 16.2877 8.5118 16.3027C8.68269 16.3416 8.84142 16.4214 8.97412 16.5352C9.10683 16.649 9.20949 16.7934 9.27314 16.9556L10.8947 21.0264L12.5132 16.9423C12.5893 16.7487 12.7206 16.5814 12.8909 16.4607C13.0613 16.34 13.2633 16.2713 13.4724 16.2628C13.5276 16.2587 13.583 16.2587 13.6382 16.2628H13.6733C13.8439 16.2856 14.0067 16.3484 14.1482 16.4459C14.2897 16.5434 14.4059 16.6728 14.4872 16.8236C14.5187 16.8841 14.5453 16.9471 14.5665 17.0119C14.5873 17.0786 14.6015 17.1471 14.6087 17.2166L15.2444 23.0056Z" fill="#1D1D1B"/>
	<path d="M30.8722 18.3021C30.8722 18.2003 30.9129 18.1028 30.9853 18.0308C31.0577 17.9589 31.1559 17.9185 31.2583 17.9185C31.3607 17.9185 31.459 17.9589 31.5314 18.0308C31.6038 18.1028 31.6445 18.2003 31.6445 18.3021V20.3733C31.6439 20.8286 31.4616 21.2653 31.1377 21.5875C30.8137 21.9097 30.3744 22.0913 29.9159 22.0925C29.4575 22.0919 29.0179 21.9109 28.6935 21.5891C28.3691 21.2673 28.1863 20.8309 28.1851 20.3755V18.3043C28.181 18.2516 28.1879 18.1987 28.2054 18.1488C28.2229 18.0988 28.2506 18.0531 28.2868 18.0143C28.3229 17.9755 28.3668 17.9446 28.4155 17.9234C28.4643 17.9023 28.5169 17.8914 28.5701 17.8914C28.6233 17.8914 28.6759 17.9023 28.7247 17.9234C28.7734 17.9446 28.8173 17.9755 28.8534 18.0143C28.8896 18.0531 28.9173 18.0988 28.9348 18.1488C28.9523 18.1987 28.9592 18.2516 28.9551 18.3043V20.3755C28.9575 20.6283 29.0598 20.87 29.24 21.0485C29.4201 21.2271 29.6637 21.3281 29.9182 21.3299C30.173 21.3287 30.4171 21.2275 30.5971 21.0482C30.7771 20.869 30.8784 20.6264 30.879 20.3733L30.8722 18.3021Z" fill="#1D1D1B"/>
	<path d="M34.5247 21.3278C34.6271 21.3278 34.7253 21.3682 34.7977 21.4401C34.8701 21.512 34.9108 21.6096 34.9108 21.7113C34.9108 21.8131 34.8701 21.9106 34.7977 21.9825C34.7253 22.0545 34.6271 22.0949 34.5247 22.0949H33.4525C33.0688 22.0949 32.7008 21.9435 32.4294 21.6739C32.1581 21.4044 32.0056 21.0389 32.0056 20.6577V18.3022C32.0056 18.2011 32.0461 18.1041 32.1181 18.0326C32.1901 17.9611 32.2877 17.9209 32.3895 17.9209C32.4913 17.9209 32.589 17.9611 32.661 18.0326C32.7329 18.1041 32.7734 18.2011 32.7734 18.3022V20.6532C32.7734 20.8327 32.8452 21.0048 32.973 21.1318C33.1008 21.2587 33.2741 21.33 33.4548 21.33H34.5247V21.3278Z" fill="#1D1D1B"/>
	<path d="M28.0352 21.6684C28.0446 21.7199 28.0433 21.7728 28.0313 21.8237C28.0194 21.8747 27.997 21.9227 27.9657 21.9648C27.9344 22.0069 27.8947 22.0422 27.8491 22.0685C27.8036 22.0947 27.7531 22.1115 27.7007 22.1176C27.6484 22.1238 27.5954 22.1193 27.5449 22.1043C27.4944 22.0894 27.4475 22.0643 27.4071 22.0307C27.3667 21.997 27.3337 21.9556 27.3101 21.9088C27.2865 21.862 27.2727 21.8109 27.2697 21.7586L26.9404 18.9993L25.7615 21.7067C25.721 21.8 25.645 21.8735 25.55 21.9112C25.4551 21.9488 25.349 21.9475 25.255 21.9075C25.1646 21.8689 25.093 21.7969 25.0551 21.7067L23.8762 18.9993L23.5446 21.7586C23.5416 21.8109 23.5278 21.862 23.5042 21.9088C23.4806 21.9556 23.4476 21.997 23.4072 22.0307C23.3668 22.0643 23.3199 22.0894 23.2694 22.1043C23.2189 22.1193 23.1659 22.1238 23.1135 22.1176C23.0612 22.1115 23.0107 22.0947 22.9651 22.0685C22.9196 22.0422 22.8799 22.0069 22.8486 21.9648C22.8173 21.9227 22.7949 21.8747 22.783 21.8237C22.771 21.7728 22.7697 21.7199 22.7791 21.6684L23.1675 18.4646C23.18 18.3636 23.2174 18.2673 23.2765 18.1843C23.3355 18.1012 23.4144 18.0339 23.506 17.9885C23.5301 17.9755 23.5551 17.9641 23.5809 17.9547H23.6104C23.6472 17.942 23.6853 17.9337 23.724 17.9298C23.8208 17.9165 23.9193 17.9247 24.0124 17.954C24.1056 17.9833 24.1909 18.0328 24.2623 18.0991C24.291 18.1257 24.3169 18.1552 24.3396 18.1871C24.3563 18.2101 24.3715 18.2342 24.385 18.2593C24.3935 18.2731 24.401 18.2874 24.4077 18.3021L25.4071 20.6035L26.4066 18.2841C26.4476 18.1919 26.5103 18.1109 26.5893 18.0477C26.6684 17.9845 26.7615 17.941 26.8609 17.9208C26.8983 17.9132 26.9363 17.9079 26.9744 17.905H27.0925C27.1909 17.916 27.2854 17.9492 27.3688 18.002C27.4523 18.0548 27.5225 18.1258 27.5741 18.2096C27.5956 18.2444 27.6131 18.2815 27.6263 18.3202C27.6358 18.3442 27.6427 18.3692 27.6468 18.3946C27.6479 18.4112 27.6479 18.4277 27.6468 18.4443L28.0352 21.6684Z" fill="#1D1D1B"/>
	<path d="M36.2055 21.7111C36.2055 21.8129 36.1648 21.9104 36.0924 21.9824C36.02 22.0543 35.9218 22.0947 35.8194 22.0947C35.717 22.0947 35.6187 22.0543 35.5463 21.9824C35.4739 21.9104 35.4332 21.8129 35.4332 21.7111V18.6856H34.3361C34.2337 18.6856 34.1355 18.6452 34.0631 18.5732C33.9907 18.5013 33.95 18.4037 33.95 18.302C33.95 18.2003 33.9907 18.1027 34.0631 18.0308C34.1355 17.9589 34.2337 17.9185 34.3361 17.9185H37.3026C37.405 17.9185 37.5032 17.9589 37.5757 18.0308C37.6481 18.1027 37.6888 18.2003 37.6888 18.302C37.6888 18.4037 37.6481 18.5013 37.5757 18.5732C37.5032 18.6452 37.405 18.6856 37.3026 18.6856H36.2055V21.7111Z" fill="#1D1D1B"/>
	<path d="M38.6132 21.7111C38.6132 21.8129 38.5725 21.9104 38.5001 21.9824C38.4277 22.0543 38.3295 22.0947 38.2271 22.0947C38.1247 22.0947 38.0265 22.0543 37.954 21.9824C37.8816 21.9104 37.8409 21.8129 37.8409 21.7111V18.302C37.8409 18.2003 37.8816 18.1027 37.954 18.0308C38.0265 17.9589 38.1247 17.9185 38.2271 17.9185C38.3295 17.9185 38.4277 17.9589 38.5001 18.0308C38.5725 18.1027 38.6132 18.2003 38.6132 18.302V21.7111Z" fill="#1D1D1B"/>
	<path d="M46.5201 21.6683C46.5266 21.7661 46.4951 21.8628 46.4321 21.9383C46.3691 22.0138 46.2794 22.0625 46.1814 22.0743C46.0834 22.0862 45.9845 22.0603 45.9052 22.002C45.8258 21.9437 45.7719 21.8573 45.7546 21.7608L45.6183 20.6778H44.2918C44.2388 20.6819 44.1854 20.675 44.1352 20.6576C44.085 20.6402 44.0389 20.6127 43.9998 20.5768C43.9608 20.5409 43.9297 20.4974 43.9084 20.4489C43.8871 20.4005 43.8761 20.3482 43.8761 20.2954C43.8761 20.2425 43.8871 20.1903 43.9084 20.1418C43.9297 20.0934 43.9608 20.0499 43.9998 20.014C44.0389 19.9781 44.085 19.9506 44.1352 19.9332C44.1854 19.9158 44.2388 19.9089 44.2918 19.913H45.532L45.4957 19.6309C45.4957 19.6309 45.4957 19.6129 45.4957 19.6039C45.4856 19.5376 45.4712 19.472 45.4525 19.4076C45.4317 19.3385 45.4051 19.2714 45.373 19.2068C45.3054 19.0559 45.1961 18.9273 45.0578 18.8358C44.9194 18.7443 44.7578 18.6938 44.5916 18.6901C44.5259 18.6906 44.4604 18.6981 44.3963 18.7127C44.3363 18.7275 44.2783 18.7494 44.2237 18.7781C44.0709 18.8659 43.9421 18.9895 43.8487 19.1382C43.7552 19.2869 43.6999 19.4561 43.6876 19.6309L43.4468 21.7608C43.4413 21.8106 43.426 21.8588 43.4017 21.9027C43.3774 21.9466 43.3447 21.9853 43.3053 22.0166C43.266 22.0479 43.2208 22.0712 43.1724 22.0852C43.124 22.0992 43.0733 22.1036 43.0232 22.0981C42.9731 22.0926 42.9246 22.0774 42.8804 22.0533C42.8362 22.0292 42.7972 21.9966 42.7657 21.9576C42.7341 21.9185 42.7107 21.8736 42.6966 21.8255C42.6825 21.7775 42.6781 21.7271 42.6836 21.6773L42.9244 19.5475C42.95 19.246 43.0502 18.9556 43.2163 18.7021C43.3824 18.4485 43.6091 18.2398 43.8761 18.0945C43.9846 18.0403 44.0989 17.9987 44.2168 17.9704C44.3397 17.942 44.4655 17.9276 44.5916 17.9275C44.901 17.9292 45.2035 18.0186 45.4635 18.1853C45.7234 18.352 45.93 18.589 46.059 18.8683C46.1116 18.9729 46.1557 19.0816 46.1907 19.1932C46.2203 19.296 46.2423 19.4008 46.2566 19.5068C46.2587 19.518 46.2587 19.5295 46.2566 19.5407L46.5201 21.6683Z" fill="#1D1D1B"/>
	<path d="M47.6989 21.7111C47.703 21.7638 47.6961 21.8168 47.6786 21.8667C47.6611 21.9166 47.6334 21.9624 47.5973 22.0012C47.5611 22.0399 47.5173 22.0709 47.4685 22.092C47.4198 22.1132 47.3671 22.1241 47.3139 22.1241C47.2607 22.1241 47.2081 22.1132 47.1594 22.092C47.1106 22.0709 47.0668 22.0399 47.0306 22.0012C46.9945 21.9624 46.9668 21.9166 46.9493 21.8667C46.9318 21.8168 46.9249 21.7638 46.9289 21.7111V18.5525C46.9266 18.5307 46.9266 18.5088 46.9289 18.487C46.9339 18.4447 46.9438 18.403 46.9585 18.3629L46.9903 18.2952C47.0567 18.1779 47.1642 18.0888 47.2924 18.0448L47.3446 18.0313H47.3855H47.4763H47.4877C47.5666 18.0346 47.6438 18.0548 47.714 18.0907C47.7842 18.1265 47.8457 18.1771 47.8943 18.2388L49.9386 20.8402V18.302C49.9386 18.2003 49.9793 18.1027 50.0517 18.0308C50.1241 17.9589 50.2223 17.9185 50.3247 17.9185C50.4271 17.9185 50.5253 17.9589 50.5978 18.0308C50.6702 18.1027 50.7109 18.2003 50.7109 18.302V21.4607C50.7105 21.5408 50.6922 21.6199 50.6572 21.6921C50.6222 21.7643 50.5715 21.8278 50.5087 21.8781C50.4841 21.8987 50.4574 21.9168 50.4292 21.9323C50.414 21.9411 50.398 21.9487 50.3815 21.9548L50.3497 21.9684C50.2143 22.0154 50.0657 22.0073 49.9363 21.9458L49.8863 21.921C49.8593 21.9041 49.8342 21.8844 49.8114 21.8623C49.7936 21.8469 49.7769 21.8303 49.7614 21.8127L49.7478 21.7969L47.6989 19.1864V21.7111Z" fill="#1D1D1B"/>
	<path d="M53.7228 21.3277C53.8252 21.3277 53.9234 21.3681 53.9958 21.4401C54.0682 21.512 54.1089 21.6095 54.1089 21.7113C54.1089 21.813 54.0682 21.9106 53.9958 21.9825C53.9234 22.0544 53.8252 22.0948 53.7228 22.0948H52.587C52.184 22.0948 51.7975 21.9358 51.5125 21.6527C51.2276 21.3697 51.0675 20.9857 51.0675 20.5854V19.4325C51.0687 19.0325 51.2291 18.6493 51.5139 18.3665C51.7986 18.0837 52.1844 17.9243 52.587 17.9231H53.7228C53.8252 17.9231 53.9234 17.9635 53.9958 18.0354C54.0682 18.1074 54.1089 18.2049 54.1089 18.3067C54.1089 18.4084 54.0682 18.5059 53.9958 18.5779C53.9234 18.6498 53.8252 18.6902 53.7228 18.6902H52.587C52.3868 18.6926 52.1956 18.7737 52.0555 18.9158C51.9844 18.9841 51.9277 19.0657 51.8888 19.156C51.8498 19.2463 51.8292 19.3433 51.8284 19.4415V20.5945C51.8296 20.7922 51.9092 20.9814 52.0499 21.1212C52.1907 21.261 52.3812 21.3401 52.5802 21.3413H53.7159L53.7228 21.3277Z" fill="#1D1D1B"/>
	<path d="M55.9556 18.6833C55.6841 18.6823 55.4227 18.7858 55.2264 18.9721C55.1333 19.0591 55.059 19.1639 55.0078 19.2803C54.9567 19.3966 54.9298 19.522 54.9289 19.649V20.3642C54.9294 20.491 54.9558 20.6164 55.0066 20.7327C55.0574 20.8491 55.1314 20.954 55.2242 21.0411C55.4205 21.2274 55.6818 21.3309 55.9533 21.3299C56.2248 21.3309 56.4862 21.2274 56.6824 21.0411C56.7755 20.9541 56.8499 20.8493 56.9011 20.7329C56.9522 20.6166 56.9791 20.4911 56.98 20.3642V19.649C56.979 19.5223 56.9523 19.397 56.9016 19.2808C56.8508 19.1645 56.7771 19.0595 56.6847 18.9721C56.4872 18.7862 56.2254 18.6829 55.9533 18.6833M55.9533 17.9185C56.4237 17.9168 56.8764 18.0963 57.2162 18.4193C57.3841 18.5774 57.518 18.7677 57.6098 18.9787C57.7015 19.1897 57.7492 19.4169 57.75 19.6467V20.3619C57.7492 20.5918 57.7015 20.819 57.6098 21.03C57.518 21.2409 57.3841 21.4312 57.2162 21.5893C56.8764 21.9123 56.4237 22.0919 55.9533 22.0902C55.4829 22.0919 55.0302 21.9123 54.6904 21.5893C54.5232 21.4308 54.3899 21.2404 54.2986 21.0295C54.2073 20.8186 54.1597 20.5915 54.1589 20.3619V19.6467C54.1597 19.4171 54.2073 19.1901 54.2986 18.9792C54.3899 18.7683 54.5232 18.5779 54.6904 18.4193C55.0302 18.0963 55.4829 17.9168 55.9533 17.9185Z" fill="#1D1D1B"/>
	<path d="M39.7058 18.6856V21.3277H41.1958C41.2596 21.3277 41.3227 21.3152 41.3815 21.2909C41.4404 21.2666 41.4938 21.231 41.5387 21.1861C41.5837 21.1412 41.6193 21.088 41.6435 21.0294C41.6677 20.9709 41.6799 20.9081 41.6796 20.8448C41.6799 20.7245 41.6345 20.6085 41.5524 20.5199L41.5365 20.5064C41.4924 20.4609 41.4395 20.4246 41.381 20.3998C41.3224 20.375 41.2595 20.3622 41.1958 20.362H40.6825C40.5801 20.362 40.4819 20.3216 40.4094 20.2497C40.337 20.1777 40.2963 20.0802 40.2963 19.9784C40.2963 19.8767 40.337 19.7792 40.4094 19.7072C40.4819 19.6353 40.5801 19.5949 40.6825 19.5949H40.8574C40.9669 19.5853 41.0697 19.5382 41.1481 19.4618C41.1913 19.4197 41.2256 19.3695 41.249 19.3141C41.2724 19.2587 41.2845 19.1992 41.2844 19.1391C41.2844 19.0195 41.2366 18.9047 41.1514 18.8201C41.0662 18.7354 40.9506 18.6879 40.8301 18.6879H39.7058V18.6856ZM38.9335 19.983V18.3179C38.9333 18.2658 38.9441 18.2143 38.9653 18.1667C38.9866 18.1175 39.0166 18.0724 39.0539 18.0336C39.1228 17.9682 39.2131 17.9298 39.3083 17.9253H40.8188C41.1447 17.9253 41.4572 18.0539 41.6877 18.2828C41.9181 18.5117 42.0476 18.8222 42.0476 19.1459C42.0469 19.3757 41.9816 19.6008 41.8591 19.7957C41.9412 19.8439 42.0174 19.9015 42.0862 19.9672L42.1112 19.9942C42.3317 20.2251 42.4545 20.5312 42.4542 20.8493C42.4536 21.1795 42.3213 21.4959 42.0863 21.7293C41.8513 21.9628 41.5327 22.0942 41.2004 22.0948H39.3196C39.2172 22.0948 39.119 22.0544 39.0466 21.9824C38.9742 21.9105 38.9335 21.8129 38.9335 21.7112V19.983Z" fill="#1D1D1B"/>
</svg>
