<svg width="84" height="26" viewBox="0 0 84 26" fill="none" xmlns="http://www.w3.org/2000/svg">
	<g clip-path="url(#clip0_4_2)">
		<path fill-rule="evenodd" clip-rule="evenodd" d="M13.0377 25.1875H23.5323C25.9271 25.1875 25.9521 22.6432 25.7074 21.3878C25.5743 20.5429 24.138 20.5563 23.9799 21.3878V22.3671C23.9796 22.5831 23.8935 22.7901 23.7407 22.9429C23.5878 23.0956 23.3806 23.1816 23.1644 23.1821H3.04732C2.83118 23.1816 2.62402 23.0956 2.47119 22.9429C2.31836 22.7901 2.23229 22.5831 2.23186 22.3671V21.3878C2.07376 20.5563 0.637528 20.5429 0.504392 21.3878C0.25975 22.6432 0.284714 25.1875 2.67953 25.1875H13.0377ZM5.62022 0.8125H21.7998C22.9365 0.8125 23.8668 1.79694 23.8668 2.99923V4.04354C23.8668 5.52021 21.8697 5.51356 21.8697 4.05351V3.4848C21.8697 3.30839 21.7996 3.13921 21.6747 3.01446C21.5499 2.88972 21.3806 2.81963 21.204 2.81963H4.99114C4.81458 2.81963 4.64527 2.88972 4.52042 3.01446C4.39558 3.13921 4.32544 3.30839 4.32544 3.4848V4.04354C4.32544 5.5119 2.41826 5.50193 2.41826 4.07514V3.00089C2.42325 1.79861 3.35188 0.8125 4.48855 0.8125H5.62022Z" fill="#3D73B9"/>
		<path fill-rule="evenodd" clip-rule="evenodd" d="M23.4591 12.8204C24.0146 13.0683 24.4879 13.4694 24.8233 13.9766C25.1588 14.4838 25.3425 15.0761 25.353 15.6839C25.353 17.4432 23.8151 18.8833 21.9363 18.8833H16.6658C16.437 18.8901 16.2149 18.8068 16.0474 18.6511C15.8798 18.4956 15.7803 18.2803 15.7703 18.052V8.02787C15.7712 7.79498 15.8643 7.57191 16.0293 7.4074C16.1942 7.24288 16.4176 7.15029 16.6507 7.14985H21.0393C21.6972 7.14832 22.3411 7.34045 22.8906 7.70225C23.44 8.06406 23.8705 8.57953 24.1287 9.18433C24.3868 9.78913 24.461 10.4565 24.3417 11.1031C24.2227 11.7497 23.9158 12.347 23.4591 12.8204ZM19.5264 12.0056H21.199V11.9873C21.5744 11.9284 21.9166 11.738 22.164 11.45C22.4117 11.1621 22.5487 10.7954 22.5504 10.4158C22.549 9.99459 22.381 9.59099 22.083 9.29314C21.7849 8.9953 21.3809 8.82739 20.9595 8.82607H17.5893V17.1407H21.8613C22.0817 17.1476 22.301 17.1103 22.5065 17.031C22.712 16.9517 22.8995 16.8317 23.0577 16.6785C23.216 16.5254 23.3418 16.342 23.4278 16.1393C23.5137 15.9366 23.558 15.7187 23.558 15.4985C23.558 15.2784 23.5137 15.0604 23.4278 14.8577C23.3418 14.655 23.216 14.4716 23.0577 14.3184C22.8995 14.1653 22.712 14.0454 22.5065 13.966C22.301 13.8867 22.0817 13.8494 21.8613 13.8564H21.1958H19.5264C19.4051 13.8564 19.2851 13.8325 19.173 13.7861C19.0609 13.7397 18.9591 13.6718 18.8733 13.5861C18.7876 13.5004 18.7196 13.3986 18.6732 13.2866C18.6267 13.1747 18.6028 13.0547 18.6028 12.9335C18.6028 12.8123 18.6267 12.6923 18.6732 12.5803C18.7196 12.4683 18.7876 12.3666 18.8733 12.2809C18.9591 12.1952 19.0609 12.1272 19.173 12.0808C19.2851 12.0344 19.4051 12.0106 19.5264 12.0106" fill="#1D1D1B"/>
		<path d="M14.9332 17.8841C14.9536 18.0248 14.9453 18.1683 14.9089 18.3058C14.8725 18.4434 14.8087 18.5721 14.7213 18.6844C14.6339 18.7969 14.5248 18.8903 14.4004 18.9595C14.2759 19.0287 14.1389 19.0721 13.9973 19.0871C13.8557 19.102 13.7125 19.0884 13.5764 19.0468C13.4402 19.0052 13.3138 18.9366 13.2048 18.8451C13.0958 18.7536 13.0064 18.641 12.9419 18.5143C12.8775 18.3874 12.8393 18.2487 12.8296 18.1069L11.9593 10.1398L8.89543 17.9306V17.9506V17.9671V17.9839V17.9938V18.0087V18.0253C8.82823 18.1428 8.73827 18.2457 8.63081 18.328L8.61417 18.3414C8.55846 18.3916 8.49701 18.4351 8.4311 18.471L8.41114 18.481L8.39283 18.491H8.38119H8.36788H8.35621H8.3429H8.33292H8.32127H8.31129H8.3013H8.28798C8.1885 18.5265 8.08404 18.5461 7.97844 18.5492H7.90189C7.7832 18.5458 7.66602 18.5216 7.55572 18.4777H7.54075H7.52578H7.51245H7.50247H7.48915H7.47751H7.46919L7.45089 18.4676L7.43423 18.4577H7.42425C7.36517 18.4262 7.30943 18.389 7.25783 18.3462L7.22287 18.3147L7.19625 18.2897L7.13301 18.2731L7.1014 18.2382C7.05874 18.1867 7.02139 18.1309 6.98989 18.0719V18.062L6.9799 18.0453L6.96992 18.0271V18.0154V18.0021V17.9922V17.9772V17.9639V17.9489L3.8495 10.1398L2.98244 18.1069C2.95286 18.3854 2.81378 18.6407 2.59577 18.8168C2.37777 18.9928 2.09871 19.0751 1.81998 19.0456C1.54125 19.0161 1.28568 18.877 1.10949 18.6592C0.933313 18.4413 0.850948 18.1625 0.880521 17.8841L1.90235 8.49189C1.92703 8.27069 1.99368 8.05623 2.09873 7.85998C2.22985 7.61478 2.41744 7.40426 2.64605 7.24582C2.87466 7.08737 3.1377 6.98553 3.41347 6.94869H3.47006C3.55925 6.94208 3.6488 6.94208 3.73799 6.94869C3.84564 6.95298 3.95263 6.96746 4.05753 6.99193C4.33358 7.0551 4.58999 7.18481 4.80435 7.36975C5.01873 7.55467 5.18457 7.78919 5.28738 8.05288L7.90688 14.6679L10.5214 8.03125C10.6443 7.71668 10.8563 7.44471 11.1315 7.24862C11.4067 7.05251 11.7331 6.94078 12.0708 6.92708C12.16 6.92047 12.2495 6.92047 12.3387 6.92708H12.3953C12.671 6.96416 12.9339 7.06611 13.1625 7.22454C13.391 7.38296 13.5787 7.59333 13.71 7.83836C13.7611 7.93668 13.8039 8.039 13.8382 8.14433C13.8718 8.25267 13.8947 8.36408 13.9064 8.47692L14.9332 17.8841Z" fill="#1D1D1B"/>
		<path d="M40.1782 10.2408C40.1782 10.0755 40.2439 9.917 40.3609 9.80011C40.4778 9.68322 40.6365 9.61756 40.8019 9.61756C40.9673 9.61756 41.1261 9.68322 41.243 9.80011C41.36 9.917 41.4257 10.0755 41.4257 10.2408V13.6065C41.4248 14.3466 41.1303 15.056 40.6071 15.5797C40.0837 16.1033 39.374 16.3984 38.6334 16.4003C37.8929 16.3993 37.1828 16.1052 36.6587 15.5823C36.1347 15.0593 35.8394 14.3502 35.8375 13.6102V10.2445C35.8308 10.1589 35.842 10.0728 35.8703 9.99171C35.8985 9.91063 35.9433 9.83623 36.0018 9.77323C36.0601 9.71023 36.131 9.65995 36.2097 9.62559C36.2885 9.5912 36.3735 9.57346 36.4594 9.57346C36.5453 9.57346 36.6303 9.5912 36.7091 9.62559C36.7878 9.65995 36.8587 9.71023 36.917 9.77323C36.9755 9.83623 37.0203 9.91063 37.0485 9.99171C37.0768 10.0728 37.0879 10.1589 37.0813 10.2445V13.6102C37.0852 14.021 37.2504 14.4137 37.5415 14.7039C37.8325 14.994 38.226 15.1582 38.6371 15.1611C39.0487 15.1591 39.443 14.9946 39.7338 14.7034C40.0245 14.4122 40.1882 14.0179 40.1892 13.6065L40.1782 10.2408Z" fill="#1D1D1B"/>
		<path d="M46.0784 15.1576C46.2438 15.1576 46.4024 15.2233 46.5194 15.3402C46.6363 15.4571 46.7021 15.6156 46.7021 15.7809C46.7021 15.9462 46.6363 16.1047 46.5194 16.2216C46.4024 16.3386 46.2438 16.4042 46.0784 16.4042H44.3463C43.7265 16.4042 43.1321 16.1581 42.6936 15.7201C42.2554 15.2822 42.009 14.6881 42.009 14.0687V10.2411C42.009 10.0767 42.0745 9.91914 42.1908 9.80294C42.3071 9.68674 42.4647 9.62146 42.6292 9.62146C42.7936 9.62146 42.9515 9.68674 43.0678 9.80294C43.1839 9.91914 43.2493 10.0767 43.2493 10.2411V14.0614C43.2493 14.3531 43.3653 14.6329 43.5718 14.8391C43.7782 15.0454 44.0582 15.1613 44.3501 15.1613H46.0784V15.1576Z" fill="#1D1D1B"/>
		<path d="M35.5953 15.7111C35.6105 15.7948 35.6084 15.8807 35.589 15.9636C35.5698 16.0464 35.5336 16.1244 35.4831 16.1928C35.4325 16.2612 35.3684 16.3186 35.2947 16.3613C35.2212 16.4039 35.1396 16.4312 35.055 16.4411C34.9705 16.4512 34.8849 16.4439 34.8033 16.4195C34.7217 16.3953 34.646 16.3545 34.5807 16.2999C34.5154 16.2452 34.4621 16.1778 34.424 16.1017C34.3859 16.0257 34.3636 15.9427 34.3587 15.8578L33.8268 11.3738L31.9224 15.7735C31.857 15.925 31.7342 16.0445 31.5808 16.1056C31.4275 16.1668 31.2561 16.1647 31.1042 16.0998C30.9582 16.0369 30.8425 15.9199 30.7813 15.7735L28.8769 11.3738L28.3413 15.8578C28.3364 15.9427 28.3141 16.0257 28.276 16.1017C28.2379 16.1778 28.1846 16.2452 28.1193 16.2999C28.0541 16.3545 27.9783 16.3953 27.8967 16.4195C27.8151 16.4439 27.7295 16.4512 27.6449 16.4411C27.5604 16.4312 27.4788 16.4039 27.4052 16.3613C27.3317 16.3186 27.2675 16.2612 27.217 16.1928C27.1664 16.1244 27.1302 16.0464 27.111 15.9636C27.0916 15.8807 27.0895 15.7948 27.1047 15.7111L27.7321 10.5049C27.7523 10.3409 27.8127 10.1844 27.9082 10.0494C28.0035 9.91443 28.131 9.80515 28.2789 9.73133C28.3179 9.71011 28.3582 9.69173 28.3999 9.67632H28.4476C28.507 9.65573 28.5686 9.6422 28.6311 9.63599C28.7874 9.6143 28.9466 9.62772 29.097 9.67528C29.2475 9.72286 29.3853 9.80338 29.5006 9.91097C29.547 9.95433 29.5888 10.0022 29.6255 10.054C29.6525 10.0914 29.677 10.1306 29.6988 10.1713C29.7126 10.1937 29.7247 10.217 29.7355 10.2409L31.3499 13.9806L32.9645 10.2116C33.0307 10.0619 33.132 9.93016 33.2596 9.82748C33.3874 9.7248 33.5378 9.65411 33.6984 9.62133C33.7588 9.60893 33.8202 9.60035 33.8817 9.59567H34.0725C34.2315 9.61353 34.3841 9.66742 34.5188 9.7532C34.6537 9.83897 34.7671 9.95438 34.8505 10.0906C34.8852 10.1472 34.9135 10.2074 34.9348 10.2703C34.9501 10.3093 34.9613 10.3499 34.9679 10.3913C34.9697 10.4181 34.9697 10.4451 34.9679 10.4719L35.5953 15.7111Z" fill="#1D1D1B"/>
		<path d="M48.7935 15.7806C48.7935 15.9459 48.7278 16.1044 48.6108 16.2213C48.4938 16.3382 48.3352 16.4039 48.1698 16.4039C48.0044 16.4039 47.8456 16.3382 47.7286 16.2213C47.6117 16.1044 47.5459 15.9459 47.5459 15.7806V10.864H45.7737C45.6083 10.864 45.4497 10.7984 45.3327 10.6815C45.2157 10.5646 45.15 10.4061 45.15 10.2408C45.15 10.0755 45.2157 9.91693 45.3327 9.80005C45.4497 9.68316 45.6083 9.61749 45.7737 9.61749H50.5657C50.7312 9.61749 50.8898 9.68316 51.0069 9.80005C51.1239 9.91693 51.1896 10.0755 51.1896 10.2408C51.1896 10.4061 51.1239 10.5646 51.0069 10.6815C50.8898 10.7984 50.7312 10.864 50.5657 10.864H48.7935V15.7806Z" fill="#1D1D1B"/>
		<path d="M52.6829 15.7806C52.6829 15.9459 52.6171 16.1044 52.5002 16.2213C52.3832 16.3382 52.2246 16.4039 52.0592 16.4039C51.8937 16.4039 51.7351 16.3382 51.618 16.2213C51.501 16.1044 51.4353 15.9459 51.4353 15.7806V10.2408C51.4353 10.0755 51.501 9.91693 51.618 9.80005C51.7351 9.68316 51.8937 9.61749 52.0592 9.61749C52.2246 9.61749 52.3832 9.68316 52.5002 9.80005C52.6171 9.91693 52.6829 10.0755 52.6829 10.2408V15.7806Z" fill="#1D1D1B"/>
		<path d="M65.4555 15.711C65.466 15.87 65.4152 16.027 65.3134 16.1497C65.2116 16.2724 65.0667 16.3516 64.9084 16.3707C64.7501 16.3901 64.5903 16.348 64.4622 16.2532C64.334 16.1584 64.2469 16.0182 64.219 15.8613L63.9988 14.1014H61.856C61.7704 14.108 61.6841 14.0968 61.603 14.0686C61.5219 14.0403 61.4475 13.9957 61.3843 13.9373C61.3213 13.8789 61.2711 13.8082 61.2366 13.7295C61.2022 13.6508 61.1845 13.5659 61.1845 13.48C61.1845 13.3941 61.2022 13.3092 61.2366 13.2305C61.2711 13.1518 61.3213 13.0811 61.3843 13.0227C61.4475 12.9643 61.5219 12.9196 61.603 12.8914C61.6841 12.8632 61.7704 12.852 61.856 12.8586H63.8594L63.8007 12.4003C63.8007 12.4003 63.8007 12.3709 63.8007 12.3563C63.7844 12.2485 63.7612 12.142 63.731 12.0373C63.6974 11.9251 63.6544 11.816 63.6025 11.711C63.4933 11.4659 63.3168 11.2568 63.0934 11.1082C62.8698 10.9596 62.6088 10.8774 62.3403 10.8714C62.2341 10.8722 62.1283 10.8845 62.0248 10.9081C61.9279 10.9322 61.8342 10.9679 61.746 11.0144C61.4991 11.157 61.2911 11.3579 61.1402 11.5996C60.9892 11.8412 60.8998 12.1161 60.88 12.4003L60.491 15.8613C60.4821 15.9422 60.4574 16.0205 60.4181 16.0918C60.3789 16.1632 60.3261 16.2261 60.2624 16.277C60.1989 16.3278 60.1259 16.3657 60.0477 16.3885C59.9695 16.4112 59.8876 16.4183 59.8067 16.4094C59.7258 16.4005 59.6474 16.3758 59.576 16.3366C59.5046 16.2974 59.4416 16.2445 59.3907 16.181C59.3397 16.1175 59.3019 16.0446 59.2791 15.9665C59.2564 15.8884 59.2492 15.8065 59.2581 15.7256L59.6471 12.2646C59.6885 11.7748 59.8503 11.3029 60.1186 10.8909C60.387 10.4789 60.7532 10.1396 61.1845 9.90348C61.3597 9.8155 61.5444 9.74784 61.7348 9.70183C61.9334 9.6557 62.1366 9.63233 62.3403 9.63217C62.8401 9.63493 63.3287 9.78029 63.7487 10.0511C64.1686 10.322 64.5023 10.7071 64.7107 11.161C64.7957 11.331 64.8669 11.5076 64.9234 11.689C64.9713 11.856 65.0068 12.0264 65.0299 12.1986C65.0333 12.2168 65.0333 12.2354 65.0299 12.2536L65.4555 15.711Z" fill="#1D1D1B"/>
		<path d="M67.3598 15.7806C67.3664 15.8662 67.3552 15.9523 67.327 16.0334C67.2987 16.1145 67.254 16.1889 67.1956 16.2519C67.1372 16.3148 67.0664 16.3652 66.9876 16.3995C66.9089 16.4339 66.8238 16.4517 66.7378 16.4517C66.6519 16.4517 66.5669 16.4339 66.4883 16.3995C66.4094 16.3652 66.3387 16.3148 66.2802 16.2519C66.2219 16.1889 66.1771 16.1145 66.1489 16.0334C66.1206 15.9523 66.1095 15.8662 66.1159 15.7806V10.6477C66.1122 10.6124 66.1122 10.5767 66.1159 10.5414C66.124 10.4726 66.14 10.4049 66.1637 10.3398L66.2151 10.2298C66.3224 10.039 66.496 9.89425 66.7031 9.8228L66.7874 9.80081H66.8535H67.0002H67.0186C67.1461 9.80617 67.2708 9.83911 67.3842 9.89733C67.4976 9.95557 67.5969 10.0377 67.6754 10.1381L70.9777 14.3654V10.2408C70.9777 10.0755 71.0435 9.91693 71.1604 9.80005C71.2774 9.68316 71.436 9.61749 71.6014 9.61749C71.7669 9.61749 71.9255 9.68316 72.0426 9.80005C72.1596 9.91693 72.2253 10.0755 72.2253 10.2408V15.3736C72.2247 15.5038 72.1951 15.6323 72.1386 15.7496C72.082 15.8669 72.0001 15.9702 71.8987 16.0519C71.8589 16.0854 71.8158 16.1149 71.7702 16.1399C71.7457 16.1543 71.7199 16.1666 71.6932 16.1766L71.6418 16.1986C71.4231 16.275 71.1831 16.2619 70.974 16.1619L70.8933 16.1216C70.8496 16.0941 70.8091 16.0622 70.7723 16.0262C70.7435 16.0012 70.7165 15.9743 70.6915 15.9456L70.6695 15.9199L67.3598 11.678V15.7806Z" fill="#1D1D1B"/>
		<path d="M77.0907 15.1575C77.2561 15.1575 77.4147 15.2232 77.5317 15.3401C77.6486 15.457 77.7144 15.6155 77.7144 15.7808C77.7144 15.9461 77.6486 16.1047 77.5317 16.2215C77.4147 16.3384 77.2561 16.404 77.0907 16.404H75.2559C74.6049 16.404 73.9806 16.1457 73.5202 15.6857C73.06 15.2257 72.8013 14.6018 72.8013 13.9513V12.0778C72.8033 11.4279 73.0624 10.8051 73.5225 10.3456C73.9824 9.88599 74.6056 9.62696 75.2559 9.62503H77.0907C77.2561 9.62503 77.4147 9.6907 77.5317 9.80758C77.6486 9.92447 77.7144 10.083 77.7144 10.2483C77.7144 10.4136 77.6486 10.5721 77.5317 10.689C77.4147 10.8059 77.2561 10.8716 77.0907 10.8716H75.2559C74.9325 10.8754 74.6237 11.0073 74.3973 11.2382C74.2825 11.3492 74.1909 11.4818 74.1281 11.6285C74.0651 11.7751 74.0318 11.9329 74.0305 12.0925V13.966C74.0324 14.2872 74.161 14.5948 74.3883 14.822C74.6157 15.0491 74.9235 15.1776 75.2449 15.1795H77.0795L77.0907 15.1575Z" fill="#1D1D1B"/>
		<path d="M80.6975 10.8604C80.2589 10.8587 79.8367 11.0269 79.5196 11.3297C79.3692 11.471 79.2492 11.6414 79.1665 11.8304C79.0839 12.0195 79.0405 12.2233 79.039 12.4296V13.5918C79.0398 13.7979 79.0824 14.0016 79.1645 14.1907C79.2466 14.3798 79.3661 14.5502 79.516 14.6917C79.8331 14.9945 80.2552 15.1627 80.6938 15.161C81.1324 15.1627 81.5546 14.9945 81.8716 14.6917C82.022 14.5504 82.1421 14.3801 82.2249 14.191C82.3074 14.002 82.3509 13.7981 82.3523 13.5918V12.4296C82.3507 12.2237 82.3076 12.0202 82.2257 11.8312C82.1436 11.6423 82.0245 11.4717 81.8753 11.3297C81.5562 11.0277 81.1333 10.8596 80.6938 10.8604M80.6938 9.61751C81.4537 9.61477 82.185 9.90652 82.7339 10.4314C83.0051 10.6883 83.2214 10.9975 83.3697 11.3404C83.5178 11.6832 83.5949 12.0525 83.5962 12.4259V13.5882C83.5949 13.9616 83.5178 14.3309 83.3697 14.6737C83.2214 15.0165 83.0051 15.3257 82.7339 15.5826C82.185 16.1076 81.4537 16.3993 80.6938 16.3966C79.9339 16.3993 79.2026 16.1076 78.6537 15.5826C78.3836 15.325 78.1683 15.0156 78.0208 14.6729C77.8733 14.3302 77.7964 13.9612 77.7952 13.5882V12.4259C77.7964 12.0529 77.8733 11.6839 78.0208 11.3412C78.1683 10.9985 78.3836 10.689 78.6537 10.4314C79.2026 9.90652 79.9339 9.61477 80.6938 9.61751Z" fill="#1D1D1B"/>
		<path d="M54.4478 10.8642V15.1575H56.8547C56.9578 15.1575 57.0597 15.1371 57.1547 15.0977C57.2499 15.0582 57.3361 15.0003 57.4087 14.9274C57.4814 14.8545 57.5389 14.768 57.578 14.6728C57.6171 14.5777 57.6368 14.4757 57.6363 14.3729C57.6368 14.1773 57.5634 13.9888 57.4308 13.8449L57.4051 13.8229C57.3339 13.7489 57.2484 13.69 57.1539 13.6497C57.0593 13.6094 56.9576 13.5885 56.8547 13.5883H56.0256C55.8602 13.5883 55.7015 13.5226 55.5844 13.4057C55.4675 13.2888 55.4017 13.1303 55.4017 12.965C55.4017 12.7997 55.4675 12.6411 55.5844 12.5243C55.7015 12.4074 55.8602 12.3417 56.0256 12.3417H56.3081C56.485 12.3261 56.6511 12.2496 56.7777 12.1254C56.8475 12.057 56.9029 11.9755 56.9407 11.8854C56.9785 11.7954 56.998 11.6987 56.9979 11.6011C56.9979 11.4066 56.9207 11.2201 56.783 11.0826C56.6454 10.9451 56.4587 10.8678 56.264 10.8678H54.4478V10.8642ZM53.2003 12.9723V10.2665C53.1999 10.182 53.2174 10.0983 53.2516 10.0209C53.286 9.94088 53.3345 9.86762 53.3948 9.80459C53.5061 9.69835 53.6519 9.63585 53.8057 9.6286H56.2458C56.7722 9.6286 57.277 9.83758 57.6494 10.2096C58.0215 10.5815 58.2307 11.086 58.2307 11.6121C58.2296 11.9855 58.1241 12.3512 57.9262 12.668C58.0589 12.7464 58.1819 12.8399 58.2931 12.9466L58.3335 12.9906C58.6897 13.3657 58.888 13.8632 58.8875 14.3802C58.8866 14.9166 58.6729 15.4308 58.2932 15.8102C57.9136 16.1895 57.399 16.4031 56.8622 16.4041H53.824C53.6585 16.4041 53.4999 16.3384 53.383 16.2215C53.266 16.1046 53.2003 15.946 53.2003 15.7807V12.9723Z" fill="#1D1D1B"/>
	</g>
	<defs>
		<clipPath id="clip0_4_2">
			<rect width="84" height="26" fill="white"/>
		</clipPath>
	</defs>
</svg>
