<svg width="30" height="35" viewBox="0 0 30 35" fill="none" xmlns="http://www.w3.org/2000/svg">
<g clip-path="url(#clip0_104_2355)">
<path fill-rule="evenodd" clip-rule="evenodd" d="M14.5793 27.9603H26.4368C29.1427 27.9603 29.1709 25.0833 28.8945 23.6637C28.7441 22.7084 27.1213 22.7235 26.9427 23.6637V24.7712C26.9422 25.0154 26.8449 25.2495 26.6723 25.4221C26.4996 25.5948 26.2655 25.6921 26.0213 25.6926H3.29149C3.04728 25.6921 2.81321 25.5948 2.64053 25.4221C2.46784 25.2495 2.37061 25.0154 2.37011 24.7712V23.6637C2.19148 22.7235 0.568727 22.7084 0.418299 23.6637C0.141886 25.0833 0.170091 27.9603 2.87593 27.9603H14.5793ZM6.19853 0.397949H24.4794C25.7637 0.397949 26.8148 1.51112 26.8148 2.87062V4.05149C26.8148 5.72125 24.5584 5.71373 24.5584 4.06277V3.41969C24.5584 3.22021 24.4791 3.0289 24.3381 2.88784C24.197 2.74679 24.0057 2.66754 23.8062 2.66754H5.48775C5.28827 2.66754 5.09696 2.74679 4.9559 2.88784C4.81485 3.0289 4.73561 3.22021 4.73561 3.41969V4.05149C4.73561 5.71185 2.58071 5.70057 2.58071 4.08722V2.8725C2.58635 1.513 3.6356 0.397949 4.91988 0.397949H6.19853Z" fill="#3D73B9"/>
<path fill-rule="evenodd" clip-rule="evenodd" d="M26.3533 13.976C26.981 14.2563 27.5157 14.7098 27.8947 15.2834C28.2738 15.8569 28.4813 16.5266 28.4931 17.214C28.4931 19.2034 26.7557 20.8318 24.6328 20.8318H18.6776C18.4193 20.8395 18.1683 20.7451 17.979 20.5692C17.7897 20.3932 17.6773 20.1498 17.666 19.8916V8.55681C17.667 8.29347 17.7722 8.04123 17.9586 7.8552C18.145 7.66917 18.3974 7.56447 18.6607 7.56398H23.6192C24.3627 7.56225 25.0902 7.7795 25.711 8.18862C26.3317 8.59774 26.8183 9.18061 27.1099 9.86449C27.4015 10.5484 27.4852 11.303 27.3507 12.0342C27.2161 12.7654 26.8692 13.4407 26.3533 13.976ZM21.91 13.0546H23.7998V13.0339C24.2238 12.9674 24.6104 12.752 24.8902 12.4264C25.1699 12.1008 25.3246 11.6863 25.3266 11.257C25.3251 10.7807 25.1352 10.3243 24.7985 9.98753C24.4617 9.65074 24.0053 9.46087 23.529 9.45938H19.7213V18.8612H24.5481C24.797 18.8691 25.0448 18.8269 25.277 18.7372C25.5092 18.6474 25.721 18.5119 25.8998 18.3387C26.0786 18.1655 26.2208 17.9581 26.3179 17.7289C26.415 17.4997 26.465 17.2533 26.465 17.0043C26.465 16.7554 26.415 16.509 26.3179 16.2797C26.2208 16.0505 26.0786 15.8431 25.8998 15.6699C25.721 15.4967 25.5092 15.3612 25.277 15.2715C25.0448 15.1817 24.797 15.1395 24.5481 15.1475H23.796H21.91C21.7729 15.1475 21.6372 15.1205 21.5106 15.068C21.384 15.0156 21.269 14.9387 21.1721 14.8418C21.0751 14.7449 20.9983 14.6299 20.9458 14.5032C20.8934 14.3766 20.8664 14.2409 20.8664 14.1039C20.8664 13.9668 20.8934 13.8311 20.9458 13.7045C20.9983 13.5779 21.0751 13.4628 21.1721 13.3659C21.269 13.269 21.384 13.1922 21.5106 13.1397C21.6372 13.0873 21.7729 13.0603 21.91 13.0603" fill="#1D1D1B"/>
<path d="M6.95197 31.439C6.95197 31.3542 6.98565 31.2729 7.0456 31.2129C7.10554 31.153 7.18685 31.1193 7.27163 31.1193C7.35641 31.1193 7.43772 31.153 7.49767 31.2129C7.55761 31.2729 7.59129 31.3542 7.59129 31.439V33.1651C7.5908 33.5447 7.43994 33.9085 7.17174 34.1771C6.90355 34.4456 6.53987 34.597 6.16034 34.598C5.7808 34.5975 5.41693 34.4466 5.14838 34.1784C4.87984 33.9102 4.7285 33.5465 4.7275 33.167V31.4408C4.72413 31.3969 4.72986 31.3528 4.74435 31.3112C4.75884 31.2696 4.78176 31.2315 4.81169 31.1991C4.84161 31.1668 4.87789 31.141 4.91825 31.1234C4.95861 31.1058 5.00218 31.0967 5.04622 31.0967C5.09027 31.0967 5.13383 31.1058 5.17419 31.1234C5.21455 31.141 5.25083 31.1668 5.28076 31.1991C5.31069 31.2315 5.33361 31.2696 5.3481 31.3112C5.36259 31.3528 5.36832 31.3969 5.36494 31.4408V33.167C5.36691 33.3777 5.4516 33.5791 5.60075 33.7279C5.7499 33.8767 5.95155 33.9609 6.16222 33.9624C6.37319 33.9614 6.57521 33.877 6.72421 33.7277C6.87322 33.5783 6.95712 33.3761 6.95761 33.1651L6.95197 31.439Z" fill="#1D1D1B"/>
<path d="M9.97595 33.9607C10.0607 33.9607 10.142 33.9944 10.202 34.0543C10.2619 34.1143 10.2956 34.1956 10.2956 34.2803C10.2956 34.3651 10.2619 34.4464 10.202 34.5064C10.142 34.5663 10.0607 34.6 9.97595 34.6H9.08841C8.77074 34.6 8.46608 34.4738 8.24145 34.2492C8.01682 34.0246 7.89062 33.7199 7.89062 33.4022V31.4391C7.89062 31.3548 7.92411 31.274 7.9837 31.2144C8.0433 31.1548 8.12412 31.1213 8.20841 31.1213C8.29269 31.1213 8.37352 31.1548 8.43311 31.2144C8.49271 31.274 8.52619 31.3548 8.52619 31.4391V33.3985C8.52619 33.5481 8.58562 33.6915 8.69141 33.7973C8.7972 33.9031 8.94068 33.9626 9.0903 33.9626H9.97595V33.9607Z" fill="#1D1D1B"/>
<path d="M16.7204 19.7017C16.7434 19.8609 16.734 20.0231 16.6929 20.1787C16.6518 20.3342 16.5797 20.4798 16.4809 20.6068C16.3822 20.7338 16.2589 20.8396 16.1183 20.9178C15.9777 20.9961 15.8228 21.0451 15.6628 21.0621C15.5029 21.079 15.3411 21.0636 15.1873 21.0165C15.0334 20.9695 14.8906 20.892 14.7675 20.7885C14.6443 20.685 14.5433 20.5577 14.4704 20.4143C14.3976 20.2708 14.3545 20.1142 14.3436 19.9537L13.3602 10.9449L9.89842 19.7544V19.7769V19.7957V19.8145V19.8258V19.8427V19.8615C9.8225 19.9944 9.72086 20.1107 9.59944 20.2038L9.58064 20.2188C9.51768 20.2756 9.44826 20.3249 9.3738 20.3655L9.35124 20.3768L9.33055 20.388H9.31739H9.30235H9.28918H9.27414H9.26286H9.2497H9.23841H9.22713H9.21209C9.09968 20.4282 8.98166 20.4504 8.86234 20.4539H8.77585C8.64174 20.45 8.50936 20.4227 8.38473 20.373H8.36781H8.35088H8.33584H8.32456H8.30952H8.29635H8.28695L8.26627 20.3617L8.24747 20.3504H8.23618C8.16944 20.3148 8.10644 20.2726 8.04815 20.2244L8.00866 20.1887L7.97857 20.1605L7.90712 20.1417L7.87139 20.1022C7.8232 20.0439 7.78099 19.9809 7.74541 19.9142V19.9029L7.73413 19.8841L7.72284 19.8634V19.8503V19.8352V19.8239V19.807V19.792V19.775L4.19717 10.9449L3.2175 19.9537C3.18409 20.2686 3.02694 20.5574 2.78062 20.7564C2.53431 20.9555 2.219 21.0486 1.90407 21.0151C1.58914 20.9817 1.30038 20.8246 1.10132 20.5783C0.902254 20.3319 0.809193 20.0166 0.842606 19.7017L1.99715 9.08143C2.02503 8.83131 2.10033 8.58881 2.21903 8.36689C2.36717 8.08964 2.57914 7.85159 2.83743 7.67242C3.09573 7.49325 3.39293 7.3781 3.70451 7.33645H3.76845C3.86922 7.32897 3.97041 7.32897 4.07118 7.33645C4.1928 7.34129 4.31369 7.35766 4.43221 7.38534C4.74413 7.45677 5.03383 7.60344 5.27604 7.81255C5.51825 8.02166 5.70562 8.28686 5.8218 8.58501L8.78149 16.0651L11.7355 8.56057C11.8744 8.20486 12.114 7.89733 12.4249 7.67559C12.7358 7.45385 13.1046 7.32751 13.4861 7.31201C13.5869 7.30453 13.6881 7.30453 13.7889 7.31201H13.8528C14.1643 7.35395 14.4614 7.46922 14.7196 7.64836C14.9779 7.8275 15.1899 8.06538 15.3383 8.34245C15.396 8.45362 15.4444 8.56933 15.4831 8.68843C15.5211 8.81095 15.5469 8.93692 15.5602 9.06451L16.7204 19.7017Z" fill="#1D1D1B"/>
<path d="M4.60237 34.2446C4.61015 34.2875 4.60906 34.3316 4.59917 34.3741C4.58927 34.4165 4.57079 34.4566 4.54486 34.4916C4.51892 34.5267 4.48608 34.5561 4.44836 34.578C4.41063 34.5999 4.36883 34.6139 4.32551 34.619C4.28219 34.6242 4.23828 34.6204 4.19647 34.6079C4.15467 34.5954 4.11586 34.5746 4.08244 34.5465C4.04901 34.5185 4.02167 34.4839 4.00211 34.4449C3.98255 34.4059 3.97118 34.3634 3.96869 34.3198L3.69604 32.0201L2.72013 34.2766C2.68663 34.3543 2.62367 34.4155 2.54506 34.4469C2.46646 34.4783 2.37862 34.4772 2.30081 34.4439C2.22604 34.4117 2.16671 34.3517 2.13534 34.2766L1.15943 32.0201L0.884897 34.3198C0.88241 34.3634 0.871035 34.4059 0.851473 34.4449C0.831911 34.4839 0.804576 34.5185 0.77115 34.5465C0.737724 34.5746 0.698915 34.5954 0.657112 34.6079C0.615309 34.6204 0.571396 34.6242 0.528078 34.619C0.484759 34.6139 0.442952 34.5999 0.405228 34.578C0.367505 34.5561 0.334665 34.5267 0.308729 34.4916C0.282793 34.4566 0.264311 34.4165 0.25442 34.3741C0.244528 34.3316 0.243438 34.2875 0.251215 34.2446L0.572757 31.5745C0.583076 31.4904 0.614062 31.4101 0.66295 31.3409C0.711838 31.2716 0.777107 31.2156 0.85293 31.1777C0.87291 31.1668 0.893648 31.1574 0.914982 31.1495H0.939427C0.969845 31.139 1.0014 31.132 1.03345 31.1288C1.11354 31.1177 1.19511 31.1246 1.27221 31.149C1.3493 31.1734 1.41998 31.2147 1.47909 31.2699C1.50281 31.2921 1.52423 31.3167 1.54302 31.3432C1.5569 31.3624 1.56946 31.3825 1.58063 31.4034C1.58763 31.4149 1.59391 31.4268 1.59943 31.4391L2.42679 33.3571L3.25415 31.4241C3.28815 31.3473 3.34002 31.2797 3.40544 31.227C3.47087 31.1744 3.54794 31.1381 3.63022 31.1213C3.66125 31.115 3.69266 31.1106 3.72424 31.1082H3.82202C3.90341 31.1173 3.98163 31.1449 4.05072 31.1889C4.1198 31.2329 4.17793 31.2921 4.22066 31.362C4.23847 31.391 4.25298 31.4219 4.26391 31.4541C4.27176 31.4742 4.27744 31.495 4.28083 31.5162C4.28172 31.53 4.28172 31.5438 4.28083 31.5576L4.60237 34.2446Z" fill="#1D1D1B"/>
<path d="M11.3672 34.2803C11.3672 34.3651 11.3335 34.4464 11.2736 34.5063C11.2136 34.5663 11.1323 34.5999 11.0475 34.5999C10.9628 34.5999 10.8814 34.5663 10.8215 34.5063C10.7616 34.4464 10.7279 34.3651 10.7279 34.2803V31.7587H9.81966C9.73488 31.7587 9.65357 31.725 9.59363 31.6651C9.53368 31.6051 9.5 31.5238 9.5 31.439C9.5 31.3543 9.53368 31.273 9.59363 31.213C9.65357 31.1531 9.73488 31.1194 9.81966 31.1194H12.2754C12.3602 31.1194 12.4415 31.1531 12.5014 31.213C12.5614 31.273 12.5951 31.3543 12.5951 31.439C12.5951 31.5238 12.5614 31.6051 12.5014 31.6651C12.4415 31.725 12.3602 31.7587 12.2754 31.7587H11.3672V34.2803Z" fill="#1D1D1B"/>
<path d="M13.36 34.2803C13.36 34.3651 13.3263 34.4464 13.2664 34.5063C13.2065 34.5663 13.1251 34.5999 13.0404 34.5999C12.9556 34.5999 12.8743 34.5663 12.8143 34.5063C12.7544 34.4464 12.7207 34.3651 12.7207 34.2803V31.439C12.7207 31.3543 12.7544 31.273 12.8143 31.213C12.8743 31.1531 12.9556 31.1194 13.0404 31.1194C13.1251 31.1194 13.2065 31.1531 13.2664 31.213C13.3263 31.273 13.36 31.3543 13.36 31.439V34.2803Z" fill="#1D1D1B"/>
<path d="M19.9064 34.2446C19.9117 34.3261 19.8857 34.4067 19.8335 34.4696C19.7814 34.5326 19.7071 34.5731 19.626 34.583C19.5449 34.5929 19.463 34.5713 19.3973 34.5227C19.3316 34.4741 19.287 34.4022 19.2727 34.3217L19.1599 33.4191H18.0617C18.0178 33.4225 17.9737 33.4168 17.9321 33.4023C17.8905 33.3878 17.8523 33.3649 17.82 33.3349C17.7877 33.305 17.7619 33.2687 17.7443 33.2284C17.7267 33.188 17.7176 33.1444 17.7176 33.1004C17.7176 33.0563 17.7267 33.0128 17.7443 32.9724C17.7619 32.9321 17.7877 32.8958 17.82 32.8659C17.8523 32.8359 17.8905 32.813 17.9321 32.7985C17.9737 32.784 18.0178 32.7783 18.0617 32.7817H19.0884L19.0583 32.5466C19.0583 32.5466 19.0583 32.5316 19.0583 32.5241C19.05 32.4688 19.0381 32.4142 19.0226 32.3605C19.0054 32.3029 18.9834 32.247 18.9568 32.1931C18.9008 32.0674 18.8104 31.9602 18.6958 31.884C18.5813 31.8077 18.4475 31.7656 18.3099 31.7625C18.2555 31.7629 18.2013 31.7692 18.1482 31.7813C18.0986 31.7937 18.0506 31.812 18.0053 31.8358C17.8789 31.909 17.7723 32.012 17.6949 32.136C17.6175 32.2599 17.5717 32.4009 17.5615 32.5466L17.3622 34.3217C17.3577 34.3632 17.345 34.4033 17.3249 34.4399C17.3048 34.4765 17.2777 34.5088 17.2451 34.5349C17.2125 34.561 17.1752 34.5804 17.1351 34.5921C17.095 34.6037 17.053 34.6074 17.0115 34.6028C16.9701 34.5982 16.9299 34.5855 16.8933 34.5654C16.8567 34.5453 16.8245 34.5182 16.7984 34.4857C16.7722 34.4531 16.7528 34.4157 16.7412 34.3756C16.7295 34.3356 16.7259 34.2936 16.7304 34.2521L16.9297 32.4771C16.9509 32.2259 17.0339 31.9838 17.1714 31.7725C17.3089 31.5612 17.4965 31.3872 17.7176 31.2661C17.8074 31.221 17.902 31.1863 17.9997 31.1627C18.1014 31.139 18.2055 31.127 18.3099 31.127C18.5661 31.1284 18.8165 31.2029 19.0317 31.3418C19.2469 31.4807 19.4179 31.6782 19.5246 31.9111C19.5682 31.9982 19.6047 32.0888 19.6337 32.1818C19.6582 32.2675 19.6764 32.3549 19.6882 32.4432C19.69 32.4525 19.69 32.4621 19.6882 32.4714L19.9064 34.2446Z" fill="#1D1D1B"/>
<path d="M20.8811 34.2803C20.8845 34.3242 20.8787 34.3683 20.8642 34.4099C20.8497 34.4515 20.8268 34.4897 20.7969 34.522C20.767 34.5543 20.7307 34.5801 20.6903 34.5977C20.65 34.6153 20.6064 34.6244 20.5624 34.6244C20.5183 34.6244 20.4747 34.6153 20.4344 34.5977C20.394 34.5801 20.3577 34.5543 20.3278 34.522C20.2979 34.4897 20.275 34.4515 20.2605 34.4099C20.246 34.3683 20.2403 34.3242 20.2436 34.2803V31.6478C20.2417 31.6296 20.2417 31.6114 20.2436 31.5932C20.2478 31.5579 20.256 31.5232 20.2681 31.4898L20.2944 31.4334C20.3494 31.3356 20.4384 31.2613 20.5445 31.2247L20.5877 31.2134H20.6216H20.6968H20.7062C20.7715 31.2162 20.8354 31.233 20.8935 31.2629C20.9516 31.2928 21.0026 31.3349 21.0428 31.3864L22.7351 33.5545V31.439C22.7351 31.3543 22.7688 31.273 22.8287 31.213C22.8887 31.1531 22.97 31.1194 23.0548 31.1194C23.1396 31.1194 23.2209 31.1531 23.2808 31.213C23.3408 31.273 23.3744 31.3543 23.3744 31.439V34.0715C23.3741 34.1383 23.359 34.2042 23.33 34.2644C23.3011 34.3245 23.2591 34.3775 23.2071 34.4194C23.1867 34.4366 23.1646 34.4517 23.1413 34.4645C23.1287 34.4719 23.1155 34.4782 23.1018 34.4833L23.0755 34.4946C22.9634 34.5338 22.8403 34.5271 22.7332 34.4758L22.6919 34.4551C22.6695 34.4411 22.6487 34.4247 22.6298 34.4063C22.6151 34.3934 22.6013 34.3796 22.5884 34.3649L22.5772 34.3517L20.8811 32.1761V34.2803Z" fill="#1D1D1B"/>
<path d="M25.8681 33.9605C25.9528 33.9605 26.0341 33.9942 26.0941 34.0541C26.154 34.1141 26.1877 34.1954 26.1877 34.2802C26.1877 34.365 26.154 34.4463 26.0941 34.5062C26.0341 34.5662 25.9528 34.5998 25.8681 34.5998H24.9279C24.5943 34.5998 24.2743 34.4673 24.0384 34.2314C23.8025 33.9955 23.6699 33.6755 23.6699 33.3419V32.381C23.6709 32.0477 23.8038 31.7283 24.0395 31.4926C24.2752 31.2569 24.5946 31.124 24.9279 31.123H25.8681C25.9528 31.123 26.0341 31.1567 26.0941 31.2167C26.154 31.2766 26.1877 31.3579 26.1877 31.4427C26.1877 31.5275 26.154 31.6088 26.0941 31.6687C26.0341 31.7287 25.9528 31.7624 25.8681 31.7624H24.9279C24.7621 31.7643 24.6039 31.8319 24.4879 31.9504C24.429 32.0073 24.3821 32.0753 24.3498 32.1506C24.3175 32.2258 24.3005 32.3067 24.2998 32.3885V33.3494C24.3008 33.5142 24.3667 33.6719 24.4832 33.7884C24.5997 33.9049 24.7575 33.9708 24.9222 33.9718H25.8624L25.8681 33.9605Z" fill="#1D1D1B"/>
<path d="M27.7159 31.7568C27.4911 31.756 27.2748 31.8422 27.1123 31.9975C27.0352 32.07 26.9736 32.1574 26.9313 32.2543C26.889 32.3513 26.8667 32.4558 26.866 32.5616V33.1577C26.8664 33.2634 26.8883 33.3679 26.9303 33.4648C26.9723 33.5618 27.0336 33.6492 27.1104 33.7218C27.2729 33.8771 27.4892 33.9634 27.714 33.9625C27.9388 33.9634 28.1551 33.8771 28.3176 33.7218C28.3947 33.6493 28.4562 33.562 28.4986 33.465C28.5409 33.368 28.5631 33.2635 28.5639 33.1577V32.5616C28.5631 32.456 28.541 32.3517 28.499 32.2548C28.457 32.1578 28.396 32.0704 28.3195 31.9975C28.156 31.8426 27.9392 31.7565 27.714 31.7568M27.714 31.1194C28.1034 31.118 28.4781 31.2676 28.7595 31.5368C28.8985 31.6686 29.0093 31.8272 29.0853 32.003C29.1612 32.1788 29.2007 32.3682 29.2014 32.5597V33.1558C29.2007 33.3474 29.1612 33.5368 29.0853 33.7126C29.0093 33.8884 28.8985 34.047 28.7595 34.1787C28.4781 34.448 28.1034 34.5976 27.714 34.5962C27.3246 34.5976 26.9499 34.448 26.6685 34.1787C26.5301 34.0466 26.4198 33.8879 26.3442 33.7122C26.2686 33.5364 26.2292 33.3472 26.2285 33.1558V32.5597C26.2292 32.3684 26.2686 32.1792 26.3442 32.0034C26.4198 31.8276 26.5301 31.669 26.6685 31.5368C26.9499 31.2676 27.3246 31.118 27.714 31.1194Z" fill="#1D1D1B"/>
<path d="M14.2643 31.7587V33.9606H15.4978C15.5506 33.9606 15.6028 33.9502 15.6515 33.9299C15.7003 33.9097 15.7445 33.88 15.7817 33.8426C15.8189 33.8052 15.8484 33.7608 15.8684 33.712C15.8884 33.6632 15.8986 33.6109 15.8984 33.5582C15.8986 33.4579 15.861 33.3612 15.7931 33.2874L15.7799 33.2761C15.7433 33.2382 15.6995 33.208 15.6511 33.1873C15.6026 33.1666 15.5505 33.1559 15.4978 33.1558H15.0729C14.9881 33.1558 14.9068 33.1221 14.8468 33.0622C14.7869 33.0022 14.7532 32.9209 14.7532 32.8361C14.7532 32.7513 14.7869 32.67 14.8468 32.6101C14.9068 32.5501 14.9881 32.5165 15.0729 32.5165H15.2177C15.3083 32.5085 15.3934 32.4693 15.4584 32.4055C15.4941 32.3705 15.5225 32.3286 15.5419 32.2825C15.5613 32.2363 15.5712 32.1867 15.5712 32.1366C15.5712 32.0369 15.5316 31.9412 15.461 31.8707C15.3905 31.8002 15.2948 31.7606 15.1951 31.7606H14.2643V31.7587ZM13.625 32.8399V31.4522C13.6248 31.4088 13.6338 31.3659 13.6513 31.3262C13.669 31.2852 13.6938 31.2476 13.7247 31.2153C13.7817 31.1608 13.8565 31.1287 13.9353 31.125H15.1857C15.4555 31.125 15.7142 31.2322 15.905 31.423C16.0958 31.6137 16.203 31.8725 16.203 32.1423C16.2024 32.3338 16.1483 32.5214 16.0469 32.6838C16.1149 32.724 16.178 32.772 16.2349 32.8267L16.2556 32.8493C16.4381 33.0417 16.5398 33.2968 16.5396 33.5619C16.5391 33.8371 16.4295 34.1008 16.235 34.2953C16.0405 34.4899 15.7767 34.5994 15.5016 34.5999H13.9447C13.8599 34.5999 13.7786 34.5662 13.7186 34.5063C13.6587 34.4463 13.625 34.365 13.625 34.2802V32.8399Z" fill="#1D1D1B"/>
</g>
<defs>
<clipPath id="clip0_104_2355">
<rect width="28.9538" height="34.2" fill="white" transform="translate(0.25 0.399902)"/>
</clipPath>
</defs>
</svg>
