<svg xmlns="http://www.w3.org/2000/svg" width="39" height="24" fill="none" xmlns:v="https://vecta.io/nano"><rect x="1.15" y=".308" width="37.4" height="23.4" rx="1.7" fill="#873eff"/><rect x="1.15" y=".308" width="37.4" height="23.4" rx="1.7" stroke="#f0f0f0" stroke-width=".6"/><path d="M29.382 16.063c.044.025.104.044.179.057a1.33 1.33 0 0 0 .227.019.7.7 0 0 0 .378-.094.6.6 0 0 0 .245-.302l.321-.746.076.633-2.04-5.033h1.048l1.341 3.437 1.341-3.437h1.048l-2.21 5.411c-.009.016-.009.022-.009.028-.101.233-.227.422-.378.567-.145.145-.312.249-.501.312-.183.063-.39.094-.623.094a2.66 2.66 0 0 1-.321-.019l-.274-.047.151-.878zm-3.505-.793c-.39 0-.74-.094-1.048-.283-.308-.195-.551-.472-.727-.831-.17-.359-.255-.784-.255-1.275 0-.485.085-.906.255-1.265.176-.365.419-.645.727-.84a1.92 1.92 0 0 1 1.048-.293 1.77 1.77 0 0 1 .888.236 1.84 1.84 0 0 1 .68.642l-.028.727c-.095-.195-.264-.365-.51-.51s-.494-.217-.746-.217c-.258 0-.488.066-.689.198-.195.126-.346.305-.453.538a1.91 1.91 0 0 0-.151.784c0 .453.117.822.349 1.105.233.277.548.415.944.415a1.47 1.47 0 0 0 .746-.208c.246-.138.415-.308.51-.51l.019.727c-.176.264-.4.475-.67.633a1.79 1.79 0 0 1-.888.227zm1.473-.113v-4.561h.973v4.561h-.973zm-8.55 0V8.859h2.757c.428 0 .796.088 1.105.264s.544.415.708.718.245.633.245.991a2.06 2.06 0 0 1-.245.992c-.164.296-.403.532-.718.708-.308.176-.674.264-1.095.264h-1.813v-.954h1.662a1.25 1.25 0 0 0 .567-.123c.164-.088.29-.208.378-.359.094-.157.142-.334.142-.529 0-.201-.047-.378-.142-.529a.87.87 0 0 0-.378-.359 1.25 1.25 0 0 0-.567-.123h-1.511v5.335H18.8zm-9.834.109c.734 0 1.322-.362 1.766-1.196l.987-1.848v1.567c0 .924.598 1.476 1.522 1.476.725 0 1.259-.317 1.775-1.196l2.274-3.841c.498-.842.145-1.476-.951-1.476-.589 0-.969.19-1.313.833l-1.567 2.944V9.913c0-.779-.371-1.159-1.06-1.159-.543 0-.978.236-1.313.888L9.61 12.531V9.94c0-.833-.344-1.187-1.178-1.187H6.728c-.643 0-.969.299-.969.851s.344.87.969.87h.697v3.306c0 .933.625 1.486 1.54 1.486z" fill="#fff"/></svg>