<svg width="64" height="40" fill="none" xmlns="http://www.w3.org/2000/svg">
	<rect width="64" height="40" rx="3" fill="#873EFF"/>
	<path d="M53.232 25.294a.7.7 0 0 0 .23.073c.097.016.194.024.29.024.195 0 .356-.04.485-.12a.852.852 0 0 0 .315-.4l.424-.981.097.799-2.616-6.443h1.296l1.744 4.445 1.744-4.445h1.308l-2.846 6.94c0 .008-.004.012-.012.012v.024c-.13.298-.287.54-.473.726a1.64 1.64 0 0 1-.63.4c-.234.08-.5.121-.799.121a3.432 3.432 0 0 1-.75-.085l.193-1.09ZM48.51 24.238c-.5 0-.949-.121-1.344-.364a2.563 2.563 0 0 1-.933-1.065c-.218-.46-.327-1.006-.327-1.635 0-.622.11-1.163.327-1.623.226-.468.537-.828.933-1.078.395-.25.844-.375 1.344-.375.404 0 .783.1 1.138.302.356.194.646.469.872.824l-.036.92c-.121-.258-.339-.48-.654-.666a1.827 1.827 0 0 0-.969-.29c-.339 0-.638.084-.896.254-.258.17-.456.404-.593.702-.13.3-.194.642-.194 1.03 0 .59.15 1.07.448 1.44.307.364.718.546 1.235.546.331 0 .654-.089.97-.267.314-.185.532-.411.653-.678l.024.92c-.226.34-.512.61-.86.812-.347.194-.726.29-1.138.29Zm1.901-.146v-5.849h1.211v5.85h-1.21ZM39.412 24.096V16.02h3.5c.55 0 1.017.113 1.405.339.395.226.698.532.908.92.21.38.315.8.315 1.26 0 .46-.105.884-.315 1.271-.21.38-.513.682-.908.909-.396.226-.864.339-1.405.339h-2.337v-1.2h2.155c.275 0 .517-.052.727-.157.218-.113.388-.27.509-.472.12-.202.181-.432.181-.69 0-.259-.06-.489-.181-.69a1.172 1.172 0 0 0-.509-.461 1.51 1.51 0 0 0-.727-.17H40.77v6.88h-1.357ZM9.735 24.238c.941 0 1.696-.465 2.266-1.533l1.266-2.37v2.01c0 1.185.767 1.893 1.952 1.893.929 0 1.614-.406 2.276-1.533l2.916-4.926c.64-1.08.186-1.893-1.22-1.893-.755 0-1.243.244-1.684 1.069l-2.01 3.775v-3.357c0-1-.476-1.487-1.359-1.487-.697 0-1.255.302-1.684 1.138L10.56 20.73v-3.323c0-1.068-.441-1.521-1.51-1.521H6.866c-.825 0-1.243.383-1.243 1.092 0 .708.441 1.115 1.243 1.115h.895v4.24c0 1.197.801 1.905 1.974 1.905ZM24.674 15.886c-2.381 0-4.205 1.777-4.205 4.182 0 2.404 1.835 4.17 4.205 4.17s4.182-1.777 4.194-4.17c0-2.405-1.824-4.182-4.194-4.182Zm0 5.785c-.895 0-1.51-.674-1.51-1.603 0-.93.615-1.615 1.51-1.615s1.51.685 1.51 1.615c0 .93-.604 1.603-1.51 1.603ZM33.653 15.886c-2.37 0-4.194 1.777-4.194 4.182 0 2.404 1.824 4.17 4.194 4.17s4.193-1.777 4.193-4.17-1.823-4.182-4.193-4.182Zm0 5.785c-.907 0-1.499-.674-1.499-1.603 0-.93.604-1.615 1.499-1.615.894 0 1.51.685 1.51 1.615 0 .93-.616 1.603-1.51 1.603Z" fill="#fff"/>
</svg>
