<?xml version="1.0" standalone="no"?><svg xmlns="http://www.w3.org/2000/svg" viewBox="0 0 250 14.78"><path d="M0,.23H7.35V2.48H4.8V14.55H2.55V2.48H0Zm18.27,0h2.24V14.55H18.27v-6h-3.1v6.12H12.93V.23h2.24v6h3.1Zm8.05,0h6.11V2.48H28.56V6.27h2.63V8.51H28.56v3.87h3.87v2.25H26.32Zm26.23,0H54.8V14.55H52.55v-6H49.46v6.12H47.21V.23h2.33v6h3.09v-6Zm16.1,14.4H66.41l-.47-2.4H63.31l-.62,2.4H60.37L63.31.31h2.25ZM65.4,9.91,64.55,5.8,63.7,9.91ZM81.58,3.79V5.26A3.6,3.6,0,0,1,78,8.82H76.47v5.73H74.23V.23H78A3.61,3.61,0,0,1,81.58,3.79Zm-2.25,0A1.35,1.35,0,0,0,78,2.48H76.47v4.1H78a1.35,1.35,0,0,0,1.31-1.32Zm15.41,0V5.26a3.6,3.6,0,0,1-3.56,3.56H89.63v5.73H87.38V.23h3.8A3.61,3.61,0,0,1,94.74,3.79Zm-2.25,0a1.36,1.36,0,0,0-1.31-1.31H89.63v4.1h1.55a1.36,1.36,0,0,0,1.31-1.32ZM109.91.23,106.35,9v5.65H104.1V9L100.62.23H103l2.24,5.57L107.51.23Zm22.37,3.56v1H130v-1a1.55,1.55,0,0,0-3.1,0v7.28a1.55,1.55,0,0,0,3.1,0V9.44h-1.55V7.12h3.8V11a3.8,3.8,0,0,1-7.59,0V3.79a3.8,3.8,0,0,1,7.59,0Zm12.77,8.59v2.25h-6.66V.23h2.24V12.38Zm14.08,2.25h-2.24l-.47-2.4h-2.63l-.46,2.4H151L154,.31h2.24Zm-3.25-4.72L155,5.8l-.85,4.11ZM172.45.23h2.7V14.55h-2.24V6l-1.86,8.43v.08h-1.93L167.26,6v8.51H165V.23h2.7l2.4,10.14Zm16,3.56V5.26a3.6,3.6,0,0,1-3.56,3.56h-1.55v5.73h-2.24V.23h3.79A3.55,3.55,0,0,1,188.47,3.79Zm-2.17,0A1.36,1.36,0,0,0,185,2.48h-1.55v4.1H185a1.36,1.36,0,0,0,1.31-1.32Zm8-3.56h6.11V2.48h-3.87V6.27h2.64V8.51h-2.64v3.87h3.87v2.25h-6.11Zm18.19,7.82,1.55,6.58h-2.33l-1.31-5.81h-1.63v5.73h-2.24V.23h3.79a3.55,3.55,0,0,1,3.56,3.56V5.26A4.09,4.09,0,0,1,212.54,8.05Zm-3.79-1.47h1.54a1.36,1.36,0,0,0,1.32-1.32V3.79a1.36,1.36,0,0,0-1.32-1.31h-1.54Zm27.71-2.71V5.19h-2.25V3.87a1.55,1.55,0,1,0-3.09,0v7a1.55,1.55,0,1,0,3.09,0V9.83h2.25v1.08a3.8,3.8,0,1,1-7.59,0v-7a3.8,3.8,0,0,1,7.59,0Zm13.23,8.59h-7v2.25h7ZM250,4V6.73a3.8,3.8,0,1,1-7.59,0V4A3.8,3.8,0,1,1,250,4Zm-2.24,0a1.55,1.55,0,1,0-3.1,0V6.73a1.55,1.55,0,1,0,3.1,0Z" fill="#333"/></svg>