<?xml version="1.0" encoding="utf-8"?><svg xmlns="http://www.w3.org/2000/svg" viewBox="0 0 170 169"><title>Cahill's Creative</title><path d="M7.19,57.81a82.43,82.43,0,0,1,160.4,24.54v.41l2,0v-.41A84.41,84.41,0,0,0,5.32,57.17l-.13.39,1.87.64Z" fill="#231f20"/><path d="M151.66,133.25A82.43,82.43,0,0,1,4,98.4L3.88,98l-1.95.33.07.4a84.41,84.41,0,0,0,151.25,35.69l.24-.33-1.59-1.17Z" fill="#231f20"/><path d="M17.13,96.36c-1.21,6.8-2,13.86,2.06,19.31A11.18,11.18,0,0,0,27.07,120c.77.07,1.89,0,2.64.05h.05l2.59-1,.05.11c.1,0,2.47-1.2,3-1.5a24.81,24.81,0,0,0,4-2.77,27.44,27.44,0,0,0,6.16-7.82,19.81,19.81,0,0,0,2.59-9.67c-.06-2.76-1.54-5.53-2.76-6.07l-.54-.23.17.56a21.63,21.63,0,0,1-.49,10.71,26.41,26.41,0,0,1-4.17,7.29,23.32,23.32,0,0,1-6.19,5.45,12.2,12.2,0,0,1-1.49.79l-3.77,1a8.33,8.33,0,0,1-4.79-.43,8.74,8.74,0,0,1-3.32-3.24c-2.27-3.33-2.09-8-2-10v-.31a52,52,0,0,1,1.63-7l.46-.09a48.61,48.61,0,0,0,4.85-1.19,27.36,27.36,0,0,0,9.12-4.68C35.84,89.14,37,88,38,87l1.15-1.1A10.76,10.76,0,0,0,42,85.77a22,22,0,0,0,8.85-4.5c3.89-3.09,6.31-7.38,6.47-11.47a12.26,12.26,0,0,0-.85-4.71A7,7,0,0,0,54.11,62c-4.64-3.24-10.43,0-12.33,1a38.36,38.36,0,0,0-6.22,4.24c-1.08.91-6.6,5.64-9.09,9.17A59.66,59.66,0,0,0,19,90.53c-.4,1.17-.9,2.44-1.08,2.89a21.91,21.91,0,0,1-5-.38,13,13,0,0,1-7-4.89c-3.9-5.23-4.35-13.71-1-19.31,2.28-3.84,7-7.77,13-6.2,2.77.73,3.79,2.71,4.86,4.81.31.61.64,1.24,1,1.84a.38.38,0,0,0,.47.21c.55-.2.39-2.16.39-2.18a8.18,8.18,0,0,0-2-4.56,9.66,9.66,0,0,0-8.14-2.4c-6.51.91-11.3,6.46-13.15,11.56A19.46,19.46,0,0,0,3.3,89.61C6.31,93.83,11,96.1,17.13,96.36ZM38.47,82.62a3,3,0,0,1-1.4-2.11c-.19-.93.08-2.66.91-3.15a.65.65,0,0,1,.34-.1.75.75,0,0,1,.34.09,2.72,2.72,0,0,1,1.16,1.85C39.93,80.32,39,81.87,38.47,82.62ZM23.39,87.7c1.18-2.4,2.58-4.7,3.66-6.44a53.12,53.12,0,0,1,8.31-10.33c2.88-2.75,6.82-6.51,11.14-7.79a9.28,9.28,0,0,1,2.58-.39,5.72,5.72,0,0,1,3.45,1c1.57,1.16,1.92,3.43,2,4.17.68,4.94-3.57,9.3-5.43,10.94-2.78,2.45-6.11,4.14-7.86,4a7,7,0,0,0,1.12-4.58,3.54,3.54,0,0,0-5.84-2.45,5.14,5.14,0,0,0-2.28,3.66,5.87,5.87,0,0,0,.45,2.95,8.76,8.76,0,0,0,1.9,2.35c-1.24,1.19-3.4,3.22-3.89,3.56a25,25,0,0,1-11.38,4.49A33.64,33.64,0,0,1,23.39,87.7Z" fill="#231f20"/><path d="M146.42,53.27h0l-.06,0c-.52-1.29-1.47-2.47-3.41-2-2.14.48-3.5,2.43-4.6,4A73.77,73.77,0,0,0,131.72,68l-.49,1.11c-.85,1.93-1.55,4-2.23,5.94-.45,1.31-.91,2.66-1.41,4a45.86,45.86,0,0,1-4.42,9.08c-1.67,2.52-3.75,5.66-6.37,7.79-1.36,1.11-2.45,1.49-3.22,1.13-1.18-.55-1-2.7-1-3.85a25.27,25.27,0,0,1,.65-3.53c.49-.6,1.13-1.29,1.75-2s1.39-1.48,1.91-2.16l.24-.3A57.2,57.2,0,0,0,122.86,77c.54-1,1.15-2,1.73-3a42,42,0,0,0,3-5.73c.26-.67.55-1.34.83-2a27.76,27.76,0,0,0,2.38-7.54,3.73,3.73,0,0,0-1.2-3.45,3,3,0,0,0-3-.28c-2.63,1-4.11,3.62-5.41,5.92l-.32.57a91.73,91.73,0,0,0-8.19,19.12c-.61,2-1.31,4.5-1.88,7.17l-.17.29-.17.3a52.46,52.46,0,0,1-3,4.53c-.64.89-1.3,1.81-1.91,2.73-.91,1.37-3,3.94-4.52,3.84a1.43,1.43,0,0,1-1.16-.94c-.48-1,.19-2.92.59-4.1l.17-.5c.33-1,.75-2,1.16-3,.22-.53.44-1.06.65-1.6s.58-1.3.9-1.93a21.15,21.15,0,0,0,1-2.15c.21-.56-.33-1.13-.8-1.64a4.7,4.7,0,0,1-.43-.51.51.51,0,0,0-.5-.27c-.51.06-.88,1-1.34,2.29-.07.2-.13.37-.18.5-.42,1.08-.86,2.16-1.29,3.23l-.41,1L98.88,91c-.27.64-.55,1.3-.8,2-.57.85-3.87,5.26-4.79,6.43a16.21,16.21,0,0,1-4.43,4,2.78,2.78,0,0,1-1.64.36c-.57-.08-.43-1.29-.38-1.66a14.13,14.13,0,0,1,1.63-4.25l.45-.89c.19-.38.39-.77.59-1.16a17.82,17.82,0,0,0,1.85-4.53c.49-2.49.11-4.25-1.13-5.23s-2.74-.76-4.33.33a24.32,24.32,0,0,0-4.27,4c-.55.62-1,1.29-1.52,1.94s-.8,1.09-1.24,1.61c.94-2.7,1.92-5.46,3-8.21.19-.48.41-1.09.64-1.73.46-1.26,1-2.68,1.41-3.63a24.33,24.33,0,0,0,2.78-1.13,36.4,36.4,0,0,0,13.75-12.45,20.51,20.51,0,0,0,3.49-8c.36-2.13.36-4.92-1.68-6.16-2.9-1.76-6.35,1.53-7.49,2.61a30.83,30.83,0,0,0-5.16,7.15c-1.41,2.47-2.76,5.19-4.38,8.82l-.57,1.26c-.46,1-.93,2-1.34,3.06l-1.09,2.7c-1.7.31-5.52.76-7.58-.93-7.32-6,.26-20.38,2.76-24.63A28.46,28.46,0,0,1,89.91,41.55c4.8-2.23,10.25-4.75,17-1.57,5.84,2.75,7.17,9.07,7.44,12.59.48,6.18-2,12.62-4.19,17.54-.66,1.47-1.32,2.79-2,4-.1,0-.47-.11-.6-.17l-.21-.09a2.62,2.62,0,0,0-2.16.45A3,3,0,0,0,104,77.49a3,3,0,0,0,2.52,2.33c2.57.37,3.87-2.87,4.65-4.81.18-.44.33-.83.47-1.08A52,52,0,0,0,115.19,65c2.26-7.39,2.41-13.42.48-18.43a16.3,16.3,0,0,0-11.48-9.86c-5.52-1.25-11.85-.07-17.81,3.33a36.61,36.61,0,0,0-16.51,21c-1.7,5.74-1.33,11.45,1,15.28,2.41,4,6.66,4.63,10,4.43-1.66,4.72-3.51,9.44-5.3,14l-.48,1.22a41.08,41.08,0,0,1-3.21,4.36l-.45.56c-.29.36-.58.74-.88,1.13a15.26,15.26,0,0,1-3.45,3.64,3.43,3.43,0,0,1-2.56.72c-.57-.12-1.37-.8-1.33-1.47.27-.36,1.58-2.11,2.15-3.05l.22-.37a12.87,12.87,0,0,0,1.59-3.26,4.52,4.52,0,0,0-.76-4,2.23,2.23,0,0,0-2.27-.53c-2.85.72-3.65,5.29-3.91,6.79s-.49,3.89-.54,4.38a25.53,25.53,0,0,1-2.87,3c-.45.3-2,1.25-3,.93A1.23,1.23,0,0,1,53,108c-1-2.8,1.16-7.38,2.46-9.41,1.09-1.7,3.44-4.7,6.89-5.65a9.81,9.81,0,0,1,5.38-.15,3.93,3.93,0,0,1,1.53,1.08l.65.83-.16-1C69.31,90.71,65,90.25,63,90.49A13.57,13.57,0,0,0,54.68,95a18.24,18.24,0,0,0-4.26,8.24c-.78,3.58-.26,5.93,1.53,7a4.29,4.29,0,0,0,2.22.57,6.86,6.86,0,0,0,2.72-.61,16.37,16.37,0,0,0,3.33-2.24l.51-.41a3.48,3.48,0,0,0,2.7,1.47,7.46,7.46,0,0,0,4.67-1.08,16.08,16.08,0,0,0,3.77-3.35l0,.14c-.45,1.21-1.05,2.86-.5,3.94.18.35.39.67.69.67h0c.31,0,.46-.33.61-.67a4.23,4.23,0,0,1,.2-.41,21,21,0,0,0,1.07-2.17c.28-.63.57-1.28.91-1.89a77.53,77.53,0,0,1,5.56-8C81.3,94.95,83,93,83.84,92a15.78,15.78,0,0,1,3.28-2.75,1.84,1.84,0,0,1,1.5-.37.63.63,0,0,1,.32.55A5.91,5.91,0,0,1,88.35,92l-.06.16c-.42,1.1-1,2.19-1.47,3.24a27.15,27.15,0,0,0-2,4.86c-.6,2.24-.42,3.77.55,4.67,1.31,1.23,3.45.58,4.62.08,2.62-1.12,4.36-3.36,6.05-5.52.36-.46.72-.91,1.09-1.37a7,7,0,0,0,.19,1.16,3.6,3.6,0,0,0,3.59,2.92,4.89,4.89,0,0,0,2.31-.62c2.33-1.26,3.83-3.49,5.28-5.64.31-.46.61-.91.92-1.35l.42-.59.06-.08a7.24,7.24,0,0,0,1,4.62,3.5,3.5,0,0,0,2.41,1.49,6.88,6.88,0,0,0,4.91-1.65,28,28,0,0,0,5.32-6.12l.36-.51c-.43,2.74-.8,5.77.87,8.23a3.25,3.25,0,0,0,3,1.56h.1a3.68,3.68,0,0,0,2.48-1.1l.08-.21-.12-.14c-.16-.18-.43-.1-.58,0a2.71,2.71,0,0,1-2.66-.93c-1-1.1-.83-3.08-.69-4.53v-.15c.12-1.38.65-6.11,2.13-9.17a18.61,18.61,0,0,1,3.26-4.12c.62-.66,1.26-1.33,1.88-2.06a60.35,60.35,0,0,0,6-7.92,96.23,96.23,0,0,0,5-9.21c.93-2,2.15-4.65,2-7.3l.14,0ZM114.89,81.9l.16-.57a18.59,18.59,0,0,1,.82-2.41c.18-.45.36-.92.56-1.48a97.8,97.8,0,0,1,3.79-9.16,62.62,62.62,0,0,1,5-8.64c1.37-2,2.32-2.6,2.87-2.71h.06a.11.11,0,0,1,.09,0c.14.15.23.73,0,1.89a1.68,1.68,0,0,0-.06.22c-.06.27-.1.45-.11.58h0c0,.19-.1.39-.15.58l-.05.2c-.16.6-.36,1.23-.59,1.92-.37,1.09-.81,2.19-1.33,3.38-1,2.28-2.2,4.52-3.35,6.69l-.11.2a55.93,55.93,0,0,1-4.18,6.89c-.37.5-.73,1-1.1,1.53a43,43,0,0,1-3.13,4.06C114.25,84.16,114.69,82.6,114.89,81.9ZM89.29,68.84l.21-.41c1.17-2.27,2.38-4.62,3.75-6.84a19.05,19.05,0,0,1,4.36-5.22c1.16-.92,2.24-1.35,2.9-1.16a1.22,1.22,0,0,1,.78.87c.5,1.44,0,3.7-.73,5.33a26.82,26.82,0,0,1-3.77,6.32c-2.51,3.2-6.45,7.38-11.15,9.44C86.32,75.49,88.29,70.8,89.29,68.84ZM62.75,101.16v-.09h0c.31-2.81,1.25-5.09,2-5.61l.12-.07c.86,1,0,2.81-.44,3.69l-.11.24a14.32,14.32,0,0,1-1.62,2.41Zm80-41.06a19.66,19.66,0,0,1-1,2.06l-.36.67c-1.11,2.15-2.3,4.18-3.62,6.42a48.76,48.76,0,0,1-7.57,10c.66-1.79,2-5.25,2.65-6.76l.31-.77c1.34-3.4,2.77-6.65,4.26-9.67a25.35,25.35,0,0,1,5.05-7.51,1.75,1.75,0,0,1,1.07-.51.55.55,0,0,1,.23,0c.26.11.31.45.31.72A17.9,17.9,0,0,1,142.73,60.1Z" fill="#231f20"/><path d="M150.11,60.78l-.84.91-.34.37.5.08a2.53,2.53,0,0,0,.38,0c2.47,0,4.75-3.57,5.46-5,.85-1.76,1.55-3.5.79-5.39-.27-.67-1.08-2-2.17-2a2.81,2.81,0,0,0-2.28.69,1.88,1.88,0,0,0-.45,2.17,2.5,2.5,0,0,0,1.9,1.22v.08h.24c.29,0,.37.12.39.17.42.73-.91,3.31-1.39,4A18.62,18.62,0,0,1,150.11,60.78Z" fill="#231f20"/><path d="M169.23,97l-.46-1.58c-.72-2.51-1.4-4.88-3.29-6.86a12.9,12.9,0,0,0-7-3.74,17.18,17.18,0,0,0-1.86-.16c-.1-.41-.19-.84-.29-1.29a24.78,24.78,0,0,0-.77-3c-.12-.34-.25-.67-.38-1a12,12,0,0,1-.83-2.79,5.16,5.16,0,0,1,.8-3.07c.69-1.38.67-2.53,0-3.42a1.71,1.71,0,0,0-2.9.07,5.87,5.87,0,0,0-1,3.58,4.82,4.82,0,0,1-.76,2.69s-3,4.58-2.27,5.64a.67.67,0,0,0,.8.2c.65-.17,1.45-1.25,2.43-2.64.22-.32.44-.62.62-.86l.42,1.11a33.92,33.92,0,0,1,1.6,5,18.61,18.61,0,0,0-2.82.82A19.17,19.17,0,0,0,148,87.3c-2.23,1.41-3.2,2.82-3,4.29.35,2.15,2.37,2.83,4.24,2.55a9.64,9.64,0,0,0,6-3.33,9.43,9.43,0,0,0,1.54-3.4c.54.09,1.78.31,2.31.45a9.15,9.15,0,0,1,5.12,3.81c3,4.26,2.45,10.57,1.83,13.95A28.08,28.08,0,0,1,163,114.3a26.38,26.38,0,0,1-6.07,7.07c-4.59,4-12,7.05-18.1,4.84-4.89-1.76-8.32-7.36-7.81-12.75a10.81,10.81,0,0,1,9.83-9.94c3.83-.22,6.23.84,7.14,3.15a7,7,0,0,1-1.14,7.45c-.45.52-1.38,1.59-3.82,1l-.38-.09,0,.39a1.62,1.62,0,0,0,.67,1.15,2.92,2.92,0,0,0,2.17.37c2.76-.53,4.74-3.81,5.05-6.66a8.14,8.14,0,0,0-2.61-7.09,10.45,10.45,0,0,0-9-2.29,13.27,13.27,0,0,0-10.6,10.73c-1,6.07,1.37,11.86,6.08,14.74a19.14,19.14,0,0,0,10,2.7,21.2,21.2,0,0,0,9.58-2.28A28.9,28.9,0,0,0,169,97Zm-17.44-6.07c-1.07.84-2.67,1.48-3.86,1-.48-.19-.5-.46-.51-.55,0-.71,1.05-1.9,2.45-2.65a8,8,0,0,1,3.29-1.07l.69-.1A9.2,9.2,0,0,1,151.79,90.91Z" fill="#231f20"/><path d="M107.52,108.61a.55.55,0,0,0-.25-.39,1,1,0,0,0-.82,0l-.33.09-10.64,2-5.28,6.1c0-.93.23-3,.48-4.84l0-.37-22.25,4.18c-.57.11-1.21,1.4-1.12,1.86a.38.38,0,0,0,.46.32l20.65-4c-.24,4.1-.16,6.32.23,6.6a.34.34,0,0,0,.2.06l.14,0c.6-.26,5.9-6.22,7.62-8.17l9.48-1.47A2.32,2.32,0,0,0,107.52,108.61Z" fill="#231f20"/><path d="M46.69,136.21a.64.64,0,0,0,.89.5l.09-.09a18,18,0,0,1,1.22-1.75l.16-.2-.19-.17a4.88,4.88,0,0,1-.34-.4,11.55,11.55,0,0,0-1.66-1.72A6.4,6.4,0,0,0,43,130.82h0a4.9,4.9,0,0,0-3.85,1.88,4.62,4.62,0,0,0-1,4.18,6.57,6.57,0,0,0,2.31,3.34,10,10,0,0,0,2.41,1.37l.26.11.1,0a6.41,6.41,0,0,0,1.9-1.42l.05-.05,0-.08a.59.59,0,0,0-.16-.52.61.61,0,0,0-.48-.22l-.11,0a2.7,2.7,0,0,1-3.26-.11c-1.11-.92-1.52-2.87.22-5a4.26,4.26,0,0,1,2.58-1.63,2.68,2.68,0,0,1,2.11.55,2.25,2.25,0,0,1,.68,2.88Z" fill="#231f20"/><path d="M57.4,142.57a2.55,2.55,0,0,0-.09-2.66,6,6,0,0,0-2.25-1.85c-1.2-.66-2.2-1.14-3.1-1.56l-.08,0a.58.58,0,0,0-.51.84l.37.29c.29.22.31.23-.32,1.37L49,143.3c-.55,1-.56,1-1,.84l-.42-.14h-.06a.52.52,0,0,0-.39.29.61.61,0,0,0-.07.52l0,.09.09,0c.65.32,1.18.6,1.79.94s1.13.64,1.76,1l.09.05.1,0a.64.64,0,0,0,.39-.36.53.53,0,0,0,0-.46l-.37-.33c-.37-.3-.38-.31.16-1.3L52,143v0l.22.11a.44.44,0,0,1,.27.52,17.89,17.89,0,0,0-.09,2.45,3.11,3.11,0,0,0,1.8,2.8,3.39,3.39,0,0,0,1.13.45h.06l.06,0a.54.54,0,0,0,.3-.33.47.47,0,0,0,0-.41l-.08-.08a1.43,1.43,0,0,1-.52-.66,11,11,0,0,1-.2-4A2.51,2.51,0,0,0,57.4,142.57Zm-3.4-.21a1.05,1.05,0,0,1-.9-.14,5.25,5.25,0,0,1-.49-.29,1.18,1.18,0,0,1,.1-.22l1.3-2.38.2-.36a1.43,1.43,0,0,1,.29.14,1.45,1.45,0,0,1,.75.95,1.94,1.94,0,0,1-.25,1.37A1.82,1.82,0,0,1,54,142.36Z" fill="#231f20"/><path d="M67.55,146.24a.68.68,0,0,0,.53.31.51.51,0,0,0,.42-.17l.05-.1c.13-.5.25-1,.35-1.43s.14-.58.16-.67l.08-.29-.29-.05c-.14,0-.78-.22-1.74-.54l-2.8-.94c-.57-.19-1.2-.41-1.87-.67l-.08,0-.08,0a.57.57,0,0,0-.39.38.53.53,0,0,0,.05.5l.39.25c.42.24.43.25.08,1.3L60.77,149c-.35,1.06-.36,1.06-.83,1l-.7-.13h-.05a.51.51,0,0,0-.34.34.62.62,0,0,0,0,.54l.05.08.09,0c1,.3,1.64.51,2.28.72l1.71.57c1,.33,2.3.78,3,1.06l.16.06.12-.12a8.08,8.08,0,0,0,1.32-2l0-.05v-.06a.55.55,0,0,0-.33-.46.55.55,0,0,0-.61,0c-1.14,1.16-1.5,1-2.56.68s-1-.46-1.1-.63a2.77,2.77,0,0,1,.2-1.16L63.8,148l.05-.15.11,0,.91.3c.59.2.6.25.54.77l-.05.42,0,.06a.6.6,0,0,0,.44.35.53.53,0,0,0,.49-.09l.06-.05,0-.08c.11-.41.25-.88.43-1.4s.33-.95.5-1.37l0-.07v-.08a.5.5,0,0,0-.3-.34.68.68,0,0,0-.58,0l-.07,0-.21.37c-.26.45-.3.48-.9.28l-.91-.3-.11,0,0-.13.77-2.31c0-.09.06-.19.09-.25l.17.05,1.05.35a1.63,1.63,0,0,1,1,.7,3,3,0,0,1,.13,1.09v.08Z" fill="#231f20"/><path d="M75.75,154.14l-.13,0a.59.59,0,0,0-.08.94l.06,0h.08c.63.07,1.17.13,1.85.23s1.47.23,2.1.36l.09,0,.08,0a.51.51,0,0,0,.27-.38.66.66,0,0,0-.09-.53l-.05-.06-.58-.18c-.33-.1-.39-.28-.55-1.15l-1.07-5.67c-.19-1-.28-1.53-.33-2a.56.56,0,0,0-.51-.56.36.36,0,0,0-.28.11,2.25,2.25,0,0,1-1.1.54l-.24,0v.24a3.07,3.07,0,0,1-.47,1.08l-.26.48-1.75,3.17c-.5.9-.87,1.54-1.19,2.06s-.45.44-.7.44l-.48,0-.08.06a.66.66,0,0,0-.21.51.51.51,0,0,0,.19.41l.13.05.82.1.6.07.48.08c.38.06.72.12,1.06.19l.07,0,.07,0a.46.46,0,0,0,.28-.29.74.74,0,0,0,0-.59l-.05-.08-.49-.16a2,2,0,0,1-.32-.13,2.32,2.32,0,0,1,.12-.28l.78-1.52,0-.08.17,0,1.64.25c.09,0,.34.05.39.12l.2,1.24c.08.5.11.72.12.82h-.59Zm0-3.47-1.29-.19H74.4l0-.06.5-1c.15-.31.33-.64.49-.93,0,.27.1.59.17,1l.19,1.17v.05Z" fill="#231f20"/><path d="M91.56,146l-.07-.1a.57.57,0,0,0-.43-.21,1.16,1.16,0,0,0-.3.07l-.1,0,0,.1c0,.11-.09.14-1,.16l-5.17.09a2.55,2.55,0,0,1-.91-.08l0-.09-.07-.05a.59.59,0,0,0-.37-.11h0a.61.61,0,0,0-.35.13l-.08.07,0,.11c0,.14,0,.31-.07.5a11.8,11.8,0,0,1-.34,1.84l0,.1,0,.09a.56.56,0,0,0,.33.28.74.74,0,0,0,.56,0l.09,0,0-.09c.4-1,.63-1.41,1.45-1.43h.92s0,.09,0,.13l.11,6.14c0,1.16,0,1.17-.45,1.22l-.7.09-.06,0a.56.56,0,0,0-.18.46.59.59,0,0,0,.2.46l.08.06h.1c1,0,1.69-.07,2.35-.09s1.32,0,2.22,0h.1l.08-.07a.59.59,0,0,0,.16-.45.61.61,0,0,0-.18-.46l-.06-.05-.64-.07c-.45-.05-.48-.05-.5-1.21l-.11-6.14c0-.06,0-.1,0-.13h.1l.83,0h0c.78,0,.94.43,1.19,1.32l0,.07a.5.5,0,0,0,.46.19.63.63,0,0,0,.52-.26l0-.07v-.08a9.57,9.57,0,0,1,.16-2.31Z" fill="#231f20"/><path d="M96.15,154l-.37.14-.11.07a.65.65,0,0,0,.16.9l.09,0,.1,0c.73-.15,1.41-.28,2.07-.39s1.31-.21,2.05-.31h.09l.07-.07a.59.59,0,0,0,.12-.5.54.54,0,0,0-.26-.41l-.52,0c-.48,0-.5,0-.7-1.15l-.87-5c-.2-1.14-.18-1.15.28-1.31l.37-.13.11-.07a.6.6,0,0,0,.1-.5.55.55,0,0,0-.27-.41l-.09,0-.09,0c-.73.16-1.41.29-2,.4s-1.34.21-2.08.32h-.09l-.07.07a.55.55,0,0,0-.12.47.59.59,0,0,0,.27.43l.52,0c.49,0,.51,0,.7,1.15l.87,5C96.63,153.84,96.61,153.85,96.15,154Z" fill="#231f20"/><path d="M101.29,145.31l.67,0c.36,0,.39,0,1.23,1l3.94,4.65c.17.2.38.46.57.71s.36.46.49.61l.1.07a.69.69,0,0,0,.26,0,1,1,0,0,0,.32-.06,1.19,1.19,0,0,0,.55-.35l.06-.07v-.09c0-.32,0-.69,0-1.12,0-.7.05-1.57.14-2.69l.2-2.61a15.85,15.85,0,0,1,.31-2.56c.05-.22.16-.34.49-.52l.38-.22,0-.06a.62.62,0,0,0,0-.55.48.48,0,0,0-.35-.3h-.08l-.07,0c-.35.15-.73.29-1.2.45s-1,.32-1.63.5l-.1.06a.49.49,0,0,0-.16.44.62.62,0,0,0,.32.47l.07,0,.52-.06h.23c0,.06,0,.17,0,.34,0,.51-.08,2.18-.13,3.1l-.08,1.41c0,.19,0,.4,0,.59L108,148l-2.16-2.58c-.62-.73-.86-1-.94-1.15l.1-.07.47-.27,0-.11a.67.67,0,0,0-.34-.78l-.09,0-.09,0c-.79.3-1.35.5-2,.7l-1.12.35-.69.21-.12.07a.51.51,0,0,0-.13.41.65.65,0,0,0,.26.47Z" fill="#231f20"/><path d="M117.15,147.54l-.52.4-.07.08a.51.51,0,0,0,0,.48.61.61,0,0,0,.41.35h.09l.08,0c.9-.53,1.49-.86,2.07-1.18l1.59-.87c1.12-.62,2.23-1.21,2.83-1.5l.16-.08V145a8.06,8.06,0,0,0-.58-2.34l-.06-.08a.53.53,0,0,0-.55-.08.56.56,0,0,0-.39.48c.08,1.62-.25,1.8-1.23,2.34s-1.05.45-1.21.38-.6-.74-.71-.94l-.8-1.45-.07-.14.1-.06.84-.46c.55-.3.6-.27.94.13l.23.27.09.07A.6.6,0,0,0,121,143a.53.53,0,0,0,.27-.42v-.08l0-.07c-.23-.38-.49-.8-.74-1.26s-.48-.9-.66-1.29l0-.07-.07,0a.5.5,0,0,0-.47,0,.65.65,0,0,0-.4.42v.07l.13.4c.15.49.15.54-.4.85l-.84.46-.1.05-.07-.13-1.17-2.14-.12-.23.16-.09,1-.53a1.59,1.59,0,0,1,1.19-.26,2.89,2.89,0,0,1,.89.65l.05.05.07,0a.67.67,0,0,0,.59-.17.49.49,0,0,0,.17-.43l0-.11c-.32-.5-.67-1-.91-1.37l-.29-.43-.16-.25-.23.18c-.09.07-.55.34-1.57.91l-2.59,1.42c-.58.32-1.18.63-1.76.92l-.07,0,0,.07a.56.56,0,0,0,0,.54.53.53,0,0,0,.41.31h.05l.39-.12c.46-.14.47-.15,1,.82l2.49,4.55C117.54,147.25,117.53,147.25,117.15,147.54Z" fill="#231f20"/><path d="M60.43,17.64a1,1,0,0,1,.73-.07,1.9,1.9,0,0,1,.5.48l0,.06.07,0a.54.54,0,0,0,.49-.08.4.4,0,0,0,.18-.35l0-.11L62,16.66l-.18-.36L61.67,16l-.26.15c-.07,0-.48.22-1.11.47l-1.83.73c-.41.16-.83.32-1.24.46l-.08,0-.05.07a.47.47,0,0,0,0,.45.43.43,0,0,0,.31.29h.05l.29-.05a.74.74,0,0,1,.21,0,2.36,2.36,0,0,1,.29.59l1.28,3.21a2.58,2.58,0,0,1,.2.63.89.89,0,0,1-.16.11l-.38.22-.08.07a.42.42,0,0,0,0,.41.48.48,0,0,0,.31.32l.09,0,.09,0L61,23.56l1.12-.45c.7-.28,1.53-.6,2-.76l.16-.06,0-.17a5.45,5.45,0,0,0-.2-1.63L64,20.39a.45.45,0,0,0-.45-.13.47.47,0,0,0-.37.37c-.08,1-.26,1.1-.95,1.37s-.7.19-.74.16a1.53,1.53,0,0,1-.36-.64l-.41-1v0l.58-.23c.34-.13.33-.13.5.12l.13.2.1.09a.49.49,0,0,0,.46,0,.44.44,0,0,0,.26-.32v-.08l0-.07c-.13-.26-.25-.56-.38-.89s-.24-.63-.33-.91l0-.08-.06-.05a.42.42,0,0,0-.38-.06.54.54,0,0,0-.37.3l0,.07.06.3c.05.29.05.29-.28.43l-.58.23h0L59.75,18l0-.08h0Z" fill="#231f20"/><path d="M67.22,15.26c.46-.12.93.28,1.18.67l.08.08a.53.53,0,0,0,.5,0,.43.43,0,0,0,.26-.33v-.11a4.88,4.88,0,0,0-.55-1.32l-.09-.13-.16,0h-.29a3.82,3.82,0,0,0-1.14.15,2.58,2.58,0,0,0-1.64,1.15,1.88,1.88,0,0,0-.15,1.47,2.34,2.34,0,0,0,2,1.56c.83.16,1.28.44,1.4.89a.66.66,0,0,1,0,.48.73.73,0,0,1-.48.35c-.6.17-1.33-.4-1.62-.86l-.06-.07a.47.47,0,0,0-.45-.06.47.47,0,0,0-.31.34v.07l0,.06a3.23,3.23,0,0,0,.8,1.52l.08,0a2.69,2.69,0,0,0,.66.08,4.06,4.06,0,0,0,1.09-.16,2.84,2.84,0,0,0,1.77-1.24,2,2,0,0,0,.17-1.53,2.4,2.4,0,0,0-2-1.64l-.68-.15a1.13,1.13,0,0,1-.89-.6A.6.6,0,0,1,67.22,15.26Z" fill="#231f20"/><path d="M77.75,12.39l-.08-.09a.48.48,0,0,0-.39-.13.51.51,0,0,0-.23.09l-.08.07,0,.1a2.57,2.57,0,0,1-.58.12L73,13.09a5,5,0,0,1-.52.06l0-.06-.08,0A.47.47,0,0,0,72,13a.52.52,0,0,0-.26.14l-.08.08v.11c0,.1,0,.23,0,.36a7.81,7.81,0,0,1-.05,1.22V15l.06.09a.46.46,0,0,0,.3.2.58.58,0,0,0,.43-.09l.09-.06,0-.1c.17-.74.28-.94.75-1l.52-.08.64,4a2.58,2.58,0,0,1,.05.69.49.49,0,0,1-.17.06l-.48.13-.05.06a.47.47,0,0,0-.1.41.46.46,0,0,0,.22.34l.08,0,.09,0,1.55-.27,1.46-.2h.11l.07-.08a.5.5,0,0,0,.08-.4.47.47,0,0,0-.2-.33l-.07,0-.45,0a.55.55,0,0,1-.19,0,2.46,2.46,0,0,1-.16-.67l-.64-4,.53-.08c.47-.07.59.13.84.71l0,.06a.41.41,0,0,0,.41.12.5.5,0,0,0,.39-.28l0-.07V14a6.54,6.54,0,0,1-.11-1.51Z" fill="#231f20"/><path d="M80.47,19h.08a1,1,0,0,0,.94-1.1,1,1,0,0,0-1.1-1A1,1,0,0,0,79.46,18a1,1,0,0,0,.36.7A1,1,0,0,0,80.47,19Z" fill="#231f20"/><path d="M88,18,87.9,18l0,.08a.43.43,0,0,0,.25.55l0,0h0c.15,0,.55,0,1,0l1.47.1c.59,0,.91.08,1.28.12l.15,0,.09-.12a4.38,4.38,0,0,0,.61-1.52v-.06l0-.06a.41.41,0,0,0-.29-.29.51.51,0,0,0-.47.08L92,17c-.23.35-.23.35-.84.31l-.85-.06.25-.21.48-.38c1.21-1,1.6-1.55,1.65-2.38A1.79,1.79,0,0,0,92.29,13a2.1,2.1,0,0,0-1.47-.68,2.57,2.57,0,0,0-2.49,1.45l0,.06v.07a.45.45,0,0,0,.23.37.49.49,0,0,0,.47,0l.09-.09c.32-.48.62-.68,1-.65a.76.76,0,0,1,.68.91,3.52,3.52,0,0,1-1.3,2.21C89,17.1,88.53,17.53,88,18Z" fill="#231f20"/><path d="M96.95,19.74a2.27,2.27,0,0,0,.4,0A2.13,2.13,0,0,0,99,19a4.33,4.33,0,0,0,.92-2.09,4.31,4.31,0,0,0-.16-2.26,2.11,2.11,0,0,0-1.65-1.42,2,2,0,0,0-1.57.34,3.86,3.86,0,0,0-1.39,2.5,4.32,4.32,0,0,0,.15,2.28A2.12,2.12,0,0,0,96.95,19.74ZM97,16.39a4.11,4.11,0,0,1,.8-2.18.15.15,0,0,1,.09,0h0a.14.14,0,0,1,.1.07,4.13,4.13,0,0,1,0,2.32c-.3,1.68-.74,2.24-.92,2.21h0c-.11,0-.24-.25-.25-.83A8.84,8.84,0,0,1,97,16.39Z" fill="#231f20"/><path d="M103.08,19.48a2.06,2.06,0,0,1-.2.53.54.54,0,0,1-.21,0l-.44-.09-.07,0a.48.48,0,0,0-.29.41.4.4,0,0,0,.16.4l.09,0c.34.08.88.22,1.44.38s1.07.31,1.39.42l0,0H105a.4.4,0,0,0,.34-.25.48.48,0,0,0,0-.5l0-.06-.42-.15a.58.58,0,0,1-.19-.09,2,2,0,0,1,.11-.56l1-3.39c.13-.43.25-.83.33-1l0-.09a.42.42,0,0,0-.3-.41,1,1,0,0,0-.34,0c-.16,0-.38,0-.61,0a10.27,10.27,0,0,1-1.18-.07h-.07l-.06,0a.51.51,0,0,0-.17.76l.48.23c.2.09.2.09.06.58Z" fill="#231f20"/><path d="M114,17.58a.41.41,0,0,0-.29-.35l-.25-.1a.65.65,0,0,0-.61.11l-4.41,2.86-.07.06a.5.5,0,0,0,0,.68l2,.84-.09.24a2.3,2.3,0,0,1-.25.5.58.58,0,0,1-.21,0l-.43-.13h-.07a.47.47,0,0,0-.34.37.39.39,0,0,0,.12.42l.08,0c.3.1.81.3,1.37.53.39.16.84.35,1.14.49l.09,0h0a.4.4,0,0,0,.34-.22.48.48,0,0,0,0-.5l0-.06-.24-.12-.14-.09a2.2,2.2,0,0,1,.18-.56l.1-.24.58.23h.07a.57.57,0,0,0,.41-.39.52.52,0,0,0-.05-.53l-.62-.29.66-1.62a.4.4,0,0,0-.2-.55,3.41,3.41,0,0,0-.91-.09l1.75-1.1A.44.44,0,0,0,114,17.58Zm-3.21,3.11-.83-.33,1.29-.81Z" fill="#231f20"/><circle cx="52.98" cy="23.41" r="1.57" fill="#231f20"/><circle cx="118.41" cy="23.41" r="1.57" fill="#231f20"/></svg>
