<svg width="212" height="212" viewBox="0 0 212 212" fill="none" xmlns="http://www.w3.org/2000/svg">
<path d="M157.423 106.008C157.423 77.6084 134.424 54.5854 106.053 54.5854C77.6827 54.5854 54.6841 77.6084 54.6841 106.008C54.6841 134.408 77.6827 157.431 106.053 157.431C134.424 157.431 157.423 134.408 157.423 106.008Z" fill="#F7F7F7"/>
<path d="M157.467 106.299V105.695H138.37V106.299H157.467Z" fill="#E3E3E3"/>
<path d="M106.4 157.42V138.303H105.796V157.42H106.4Z" fill="#E3E3E3"/>
<path d="M106.4 73.6912V54.5743H105.796V73.6912H106.4Z" fill="#E3E3E3"/>
<path d="M73.8254 106.299V105.695H54.7285V106.299H73.8254Z" fill="#E3E3E3"/>
<path d="M135.949 76.7791L135.522 76.3516L128.821 83.0596L129.248 83.4871L135.949 76.7791Z" fill="#E3E3E3"/>
<path d="M83.4631 129.026L83.2496 128.812L83.0363 128.599L76.4444 135.197L76.8715 135.624L83.4631 129.026Z" fill="#E3E3E3"/>
<path d="M136.914 134.76L129.943 127.782L129.516 128.209L136.487 135.187L136.914 134.76Z" fill="#E3E3E3"/>
<path d="M125.848 153.434L120.821 144.814L120.3 145.119L125.327 153.738L125.848 153.434Z" fill="#E3E3E3"/>
<path d="M155.265 91.1163L155.12 90.5295L146.435 92.6705L146.579 93.257L155.265 91.1163Z" fill="#E3E3E3"/>
<path d="M66.1974 95.2881L56.379 92.9943L56.242 93.5828L66.0602 95.8764L66.1974 95.2881Z" fill="#E3E3E3"/>
<path d="M87.3072 142.638L86.8214 142.28L80.6648 150.64L81.1508 150.999L87.3072 142.638Z" fill="#E3E3E3"/>
<path d="M56.7432 120.599C61.6033 120.599 65.4246 116.476 65.097 111.654L65.0783 111.424L64.5773 106.155L63.9766 106.212L64.4774 111.481L64.4948 111.695C64.799 116.169 61.253 119.995 56.7432 119.995V120.599Z" fill="#E3E3E3"/>
<path d="M147.617 108.239C147.617 111.265 149.824 113.838 152.812 114.296L156.703 114.893L156.794 114.295L152.903 113.699C150.21 113.286 148.221 110.966 148.221 108.239V106.308H147.617V108.239Z" fill="#E3E3E3"/>
<path d="M130.905 150.96L129.416 149.141C128.181 147.633 126.049 147.232 124.355 148.175L124.275 148.221L122.921 149.015L123.227 149.537L124.58 148.742L124.648 148.703C126.087 147.902 127.9 148.243 128.949 149.524L130.438 151.343L130.905 150.96Z" fill="#E3E3E3"/>
<path d="M65.2815 99.9246C66.022 100.064 66.7359 99.5954 66.9102 98.8704L66.9256 98.7995L66.9773 98.5281C69.2095 87.0611 76.2373 77.3051 85.8903 71.4418L86.1797 71.2675C92.1825 67.6892 99.1805 65.6093 106.663 65.5442L107.025 65.5424L107.098 65.5407C107.842 65.5029 108.434 64.887 108.434 64.1326C108.434 63.3783 107.842 62.7624 107.098 62.7246L107.025 62.7228L106.638 62.7246C98.5145 62.7955 90.9174 65.0904 84.4292 69.0314H84.429C74.1153 75.296 66.6007 85.722 64.2129 97.9888L64.1573 98.2788L64.1456 98.3503C64.0452 99.0894 64.5409 99.7855 65.2815 99.9246Z" fill="#DFE1E5"/>
<path d="M147.256 99.5353C147.386 100.303 148.112 100.821 148.879 100.691C149.646 100.561 150.163 99.8339 150.034 99.066C146.554 78.4362 128.624 62.7228 107.025 62.7228C98.7558 62.7228 91.0201 65.0275 84.4289 69.0312C83.764 69.4353 83.5518 70.3023 83.9555 70.9679C84.359 71.6335 85.2251 71.8455 85.89 71.4418C92.0532 67.698 99.2855 65.5424 107.025 65.5424C127.226 65.5424 144.001 80.2398 147.256 99.5353Z" fill="#4688F1"/>
<path d="M106.4 65.7739V62.4092H105.796V65.7739H106.4Z" fill="#010B4E"/>
<path d="M148.726 92.7171L148.562 92.1356L145.362 93.0391L145.526 93.6203L148.726 92.7171Z" fill="#010B4E"/>
<path d="M67.9013 95.7458L64.6576 94.9236L64.5093 95.5093L67.7531 96.3317L67.9013 95.7458Z" fill="#010B4E"/>
<path d="M138.605 134.974C138.605 136.027 137.752 136.88 136.7 136.88C135.648 136.88 134.796 136.027 134.796 134.974C134.796 133.921 135.648 133.067 136.7 133.067C137.752 133.067 138.605 133.921 138.605 134.974Z" fill="#3E80F2"/>
<path d="M122.465 144.966C122.465 146.019 121.613 146.873 120.561 146.873C119.509 146.873 118.656 146.019 118.656 144.966C118.656 143.913 119.509 143.06 120.561 143.06C121.613 143.06 122.465 143.913 122.465 144.966Z" fill="#18A558"/>
<path d="M88.9687 142.459C88.9687 143.512 88.1161 144.366 87.0643 144.366C86.0124 144.366 85.1598 143.512 85.1598 142.459C85.1598 141.406 86.0124 140.553 87.0643 140.553C88.1161 140.553 88.9687 141.406 88.9687 142.459Z" fill="#F8B82C"/>
<path d="M78.1007 135.873C78.1007 136.926 77.2481 137.78 76.1962 137.78C75.1444 137.78 74.2917 136.926 74.2917 135.873C74.2917 134.82 75.1444 133.967 76.1962 133.967C77.2481 133.967 78.1007 134.82 78.1007 135.873Z" fill="#3E80F2"/>
<path d="M73.5419 105.927C73.5419 88.0326 88.0334 73.5262 105.909 73.5262C123.785 73.5262 138.276 88.0326 138.276 105.927C138.276 123.821 123.785 138.328 105.909 138.328C88.0334 138.328 73.5419 123.821 73.5419 105.927Z" fill="#3E80F2"/>
<path d="M124.56 96.3434L111.408 96.2913L116.42 101.346L107.78 109.93L100.3 102.616L85.8781 116.8L88.9438 119.923L100.309 108.747L107.805 116.076L119.502 104.454L124.513 109.508L124.56 96.3434Z" fill="white"/>
<path d="M83.6418 98.0526L84.1898 96.3714C84.2324 96.2409 84.4168 96.2409 84.4594 96.3714L85.0056 98.0478C85.1971 98.6352 85.667 99.0892 86.2602 99.2599L88.2701 99.8385C88.4069 99.8781 88.4069 100.072 88.2701 100.111L86.2805 100.685C85.6762 100.859 85.2006 101.326 85.0162 101.928L84.4601 103.742C84.4192 103.876 84.23 103.876 84.1892 103.742L83.6315 101.923C83.4479 101.324 82.9758 100.858 82.3749 100.681L80.4263 100.111C80.2904 100.072 80.2904 99.8785 80.4263 99.8388L82.3952 99.2626C82.9847 99.0901 83.4512 98.6372 83.6418 98.0526Z" fill="white"/>
<path d="M90.6806 101.246L90.9389 100.454C90.959 100.393 91.0457 100.393 91.066 100.454L91.3234 101.244C91.4135 101.521 91.6349 101.734 91.9142 101.815L92.8611 102.088C92.9255 102.106 92.9255 102.197 92.8611 102.216L91.9237 102.486C91.6393 102.568 91.4152 102.788 91.3281 103.072L91.0662 103.927C91.0468 103.99 90.9577 103.99 90.9387 103.927L90.676 103.069C90.5893 102.787 90.3669 102.568 90.0839 102.485L89.1659 102.216C89.1017 102.197 89.1017 102.107 89.1659 102.088L90.0936 101.816C90.3713 101.735 90.591 101.522 90.6806 101.246Z" fill="white"/>
<path d="M128.665 102.527L128.923 101.735C128.943 101.673 129.03 101.673 129.05 101.735L129.307 102.525C129.397 102.801 129.619 103.015 129.898 103.095L130.845 103.368C130.909 103.387 130.909 103.478 130.845 103.497L129.908 103.767C129.623 103.849 129.399 104.069 129.312 104.352L129.05 105.207C129.031 105.27 128.942 105.27 128.923 105.207L128.66 104.35C128.573 104.068 128.351 103.848 128.068 103.765L127.15 103.497C127.086 103.478 127.086 103.387 127.15 103.368L128.078 103.097C128.355 103.016 128.575 102.802 128.665 102.527Z" fill="white"/>
<path d="M92.1146 93.9834L92.4583 92.9289C92.485 92.8472 92.6006 92.8472 92.6273 92.9289L92.9701 93.9801C93.0901 94.3484 93.3848 94.6333 93.7565 94.7404L95.0173 95.1034C95.1029 95.128 95.1029 95.2499 95.0173 95.2746L93.7695 95.6337C93.3903 95.7428 93.0921 96.0362 92.9765 96.4134L92.6279 97.5512C92.6021 97.6351 92.4834 97.6351 92.4578 97.5512L92.1082 96.4101C91.9932 96.0347 91.697 95.7423 91.3202 95.6319L90.0983 95.2741C90.0127 95.2494 90.0127 95.1284 90.0983 95.1034L91.3328 94.7422C91.7025 94.6337 91.9952 94.35 92.1146 93.9834Z" fill="white"/>
<path d="M130.819 97.783L131.163 96.7285C131.189 96.6468 131.305 96.6468 131.332 96.7285L131.675 97.7801C131.795 98.148 132.089 98.4329 132.461 98.54L133.722 98.9031C133.807 98.9278 133.807 99.0495 133.722 99.0742L132.474 99.4333C132.095 99.5426 131.797 99.8359 131.681 100.213L131.332 101.351C131.307 101.435 131.188 101.435 131.162 101.351L130.813 100.21C130.698 99.8343 130.401 99.5419 130.025 99.4315L128.803 99.0738C128.718 99.049 128.718 98.928 128.803 98.9031L130.038 98.5418C130.407 98.4334 130.7 98.1496 130.819 97.783Z" fill="white"/>
<path d="M39.0834 65.7737C39.0834 58.37 33.0878 52.368 25.6917 52.368C18.2956 52.368 12.2996 58.37 12.2996 65.7737C12.2996 73.1775 18.2956 79.1796 25.6917 79.1796C33.0878 79.1796 39.0834 73.1775 39.0834 65.7737Z" fill="#F7F7F7"/>
<path d="M33.408 62.0177C33.2284 61.3488 32.7011 60.8215 32.0332 60.6413C30.8126 60.3069 25.9295 60.3069 25.9295 60.3069C25.9295 60.3069 21.0466 60.3069 19.8259 60.6285C19.1706 60.8087 18.6309 61.3491 18.4511 62.0177C18.1296 63.2396 18.1296 65.7737 18.1296 65.7737C18.1296 65.7737 18.1296 68.3205 18.4511 69.5296C18.6309 70.1985 19.1577 70.7259 19.8259 70.9061C21.0596 71.2406 25.9295 71.2406 25.9295 71.2406C25.9295 71.2406 30.8126 71.2406 32.0332 70.9189C32.7016 70.7389 33.2284 70.2115 33.408 69.5426C33.7292 68.3205 33.7292 65.7867 33.7292 65.7867C33.7292 65.7867 33.7422 63.2396 33.408 62.0177Z" fill="#F81728"/>
<path d="M24.3748 68.1149L28.4354 65.7737L24.3748 63.4326V68.1149Z" fill="white"/>
<path d="M187.046 164.557C187.046 157.154 181.05 151.152 173.654 151.152C166.258 151.152 160.262 157.154 160.262 164.557C160.262 171.961 166.258 177.963 173.654 177.963C181.05 177.963 187.046 171.961 187.046 164.557Z" fill="#F7F7F7"/>
<path d="M179.862 169.218H176.758V162.227H179.862V169.218ZM175.982 165.334H167.446V162.227H175.982V165.334ZM175.982 169.218H167.446V166.111H175.982V169.218ZM179.862 158.343H167.446C166.588 158.343 165.902 159.038 165.902 159.897L165.894 169.218C165.894 170.076 166.588 170.771 167.446 170.771H179.862C180.719 170.771 181.414 170.076 181.414 169.218V159.897C181.414 159.038 180.719 158.343 179.862 158.343Z" fill="#126B26"/>
<path d="M53.0122 164.557C53.0122 157.154 47.0164 151.152 39.6202 151.152C32.2243 151.152 26.2283 157.154 26.2283 164.557C26.2283 171.961 32.2243 177.963 39.6202 177.963C47.0164 177.963 53.0122 171.961 53.0122 164.557Z" fill="#F7F7F7"/>
<path d="M31.7709 165.688L39.5692 165.697C39.8884 165.722 40.216 165.613 40.4604 165.369C40.6835 165.146 40.7947 164.854 40.7944 164.562C40.7944 164.562 40.7944 164.561 40.7944 164.561C40.7947 164.536 40.7927 164.513 40.7911 164.49C40.7902 164.478 40.7905 164.466 40.7894 164.455C40.7627 164.161 40.6241 163.9 40.417 163.714L34.8933 158.171L33.2829 159.779L36.9087 163.418L31.7735 163.411L31.7709 165.688Z" fill="#F9BD00"/>
<path d="M38.4154 156.685L38.4675 164.491C38.4454 164.811 38.5566 165.138 38.8021 165.381C39.0263 165.602 39.319 165.712 39.6106 165.709C39.6113 165.709 39.612 165.709 39.6128 165.709C39.6367 165.709 39.6598 165.707 39.6834 165.705C39.6951 165.704 39.7068 165.704 39.7187 165.703C40.0117 165.674 40.2707 165.533 40.4555 165.325L45.9488 159.752L44.3298 158.153L40.724 161.811L40.6898 156.67L38.4154 156.685Z" fill="#EE4231"/>
<path d="M40.7293 172.442L40.7194 164.635C40.7432 164.316 40.6334 163.988 40.389 163.744C40.1664 163.521 39.8743 163.41 39.5824 163.411C39.5815 163.411 39.5811 163.411 39.5804 163.411C39.5566 163.411 39.533 163.413 39.5098 163.415C39.4982 163.416 39.4862 163.416 39.4746 163.417C39.1814 163.444 38.9213 163.584 38.7358 163.791L33.2123 169.334L34.8227 170.942L38.4483 167.304L38.4547 172.445L40.7293 172.442Z" fill="#35A858"/>
<path d="M47.4695 163.413H39.6709C39.3519 163.389 39.0246 163.498 38.7804 163.742C38.558 163.965 38.4468 164.257 38.447 164.55C38.447 164.55 38.447 164.551 38.447 164.551C38.447 164.575 38.4492 164.599 38.4505 164.622C38.4514 164.634 38.4512 164.646 38.4523 164.658C38.4797 164.951 38.6186 165.211 38.8256 165.398L44.3557 170.934L45.9641 169.324L42.3341 165.69H47.4695V163.413Z" fill="#4186F3"/>
<path d="M119.211 13.4738C119.211 6.07002 113.216 0.0680542 105.82 0.0680542C98.4234 0.0680542 92.4274 6.07002 92.4274 13.4738C92.4274 20.8776 98.4234 26.8796 105.82 26.8796C113.216 26.8796 119.211 20.8776 119.211 13.4738Z" fill="#F7F7F7"/>
<mask id="mask0_16483_3391" style="mask-type:luminance" maskUnits="userSpaceOnUse" x="98" y="6" width="16" height="15">
<path d="M98.8516 13.4738C98.8516 17.5983 102.161 20.9111 106.281 20.9111C109.996 20.9111 113.373 18.2067 113.373 13.4738C113.373 13.0344 113.306 12.561 113.204 12.1214H106.281V14.9952H110.266C109.895 16.8207 108.341 17.8686 106.281 17.8686C103.85 17.8686 101.891 15.9079 101.891 13.4738C101.891 11.0399 103.85 9.0789 106.281 9.0789C107.328 9.0789 108.274 9.45077 109.017 10.0594L111.178 7.89581C109.861 6.7466 108.172 6.03668 106.281 6.03668C102.161 6.03668 98.8516 9.34916 98.8516 13.4738Z" fill="white"/>
</mask>
<g mask="url(#mask0_16483_3391)">
<path d="M98.1761 17.8686V9.0788L103.917 13.4737L98.1761 17.8686Z" fill="#F8BA2D"/>
</g>
<mask id="mask1_16483_3391" style="mask-type:luminance" maskUnits="userSpaceOnUse" x="98" y="6" width="16" height="15">
<path d="M98.8516 13.4738C98.8516 17.5983 102.161 20.9111 106.281 20.9111C109.996 20.9111 113.373 18.2067 113.373 13.4738C113.373 13.0344 113.306 12.561 113.204 12.1214H106.281V14.9952H110.266C109.895 16.8207 108.341 17.8686 106.281 17.8686C103.85 17.8686 101.891 15.9079 101.891 13.4738C101.891 11.0399 103.85 9.0789 106.281 9.0789C107.328 9.0789 108.274 9.45077 109.017 10.0594L111.178 7.89581C109.861 6.7466 108.172 6.03668 106.281 6.03668C102.161 6.03668 98.8516 9.34916 98.8516 13.4738Z" fill="white"/>
</mask>
<g mask="url(#mask1_16483_3391)">
<path d="M98.1761 9.07894L103.917 13.4738L106.281 11.4115L114.386 10.093V5.36011H98.1761V9.07894Z" fill="#E6453C"/>
</g>
<mask id="mask2_16483_3391" style="mask-type:luminance" maskUnits="userSpaceOnUse" x="98" y="6" width="16" height="15">
<path d="M98.8516 13.4738C98.8516 17.5983 102.161 20.9111 106.281 20.9111C109.996 20.9111 113.373 18.2067 113.373 13.4738C113.373 13.0344 113.306 12.561 113.204 12.1214H106.281V14.9952H110.266C109.895 16.8207 108.341 17.8686 106.281 17.8686C103.85 17.8686 101.891 15.9079 101.891 13.4738C101.891 11.0399 103.85 9.0789 106.281 9.0789C107.328 9.0789 108.274 9.45077 109.017 10.0594L111.178 7.89581C109.861 6.7466 108.172 6.03668 106.281 6.03668C102.161 6.03668 98.8516 9.34916 98.8516 13.4738Z" fill="white"/>
</mask>
<g mask="url(#mask2_16483_3391)">
<path d="M98.1761 17.8686L108.308 10.0932L110.975 10.4312L114.386 5.36029V21.5874H98.1761V17.8686Z" fill="#3AA657"/>
</g>
<mask id="mask3_16483_3391" style="mask-type:luminance" maskUnits="userSpaceOnUse" x="98" y="6" width="16" height="15">
<path d="M98.8516 13.4738C98.8516 17.5983 102.161 20.9111 106.281 20.9111C109.996 20.9111 113.373 18.2067 113.373 13.4738C113.373 13.0344 113.306 12.561 113.204 12.1214H106.281V14.9952H110.266C109.895 16.8207 108.341 17.8686 106.281 17.8686C103.85 17.8686 101.891 15.9079 101.891 13.4738C101.891 11.0399 103.85 9.0789 106.281 9.0789C107.328 9.0789 108.274 9.45077 109.017 10.0594L111.178 7.89581C109.861 6.7466 108.172 6.03668 106.281 6.03668C102.161 6.03668 98.8516 9.34916 98.8516 13.4738Z" fill="white"/>
</mask>
<g mask="url(#mask3_16483_3391)">
<path d="M114.386 21.5873L103.917 13.4739L102.566 12.4596L114.386 9.07904V21.5873Z" fill="#4687F0"/>
</g>
<path d="M202.257 65.7737C202.257 58.37 196.261 52.368 188.865 52.368C181.469 52.368 175.473 58.37 175.473 65.7737C175.473 73.1775 181.469 79.1796 188.865 79.1796C196.261 79.1796 202.257 73.1775 202.257 65.7737Z" fill="#F7F7F7"/>
<path d="M190.912 57.9261C190.373 57.7545 189.785 57.6565 189.184 57.6565C187.457 57.6565 185.901 58.4411 184.86 59.6796L187.531 61.9234L190.912 57.9261Z" fill="#2376E4"/>
<path d="M184.86 59.6796C184.04 60.6607 183.537 61.9358 183.537 63.3092C183.537 64.376 183.746 65.2342 184.101 66.0069L187.531 61.9234L184.86 59.6796Z" fill="#E6453C"/>
<path d="M189.197 61.151C190.397 61.151 191.365 62.1198 191.365 63.3213C191.365 63.8487 191.169 64.3393 190.85 64.7194C190.85 64.7194 192.553 62.684 194.219 60.7097C193.533 59.3852 192.345 58.3797 190.911 57.9259L187.531 61.9236C187.935 61.4575 188.523 61.151 189.197 61.151Z" fill="#4687F0"/>
<path d="M189.197 65.4795C187.996 65.4795 187.029 64.5108 187.029 63.3092C187.029 62.7818 187.212 62.2911 187.531 61.9235L184.101 66.0069C184.689 67.3065 185.669 68.361 186.673 69.6732L190.85 64.7068C190.446 65.1854 189.858 65.4795 189.197 65.4795Z" fill="#F8BA2D"/>
<path d="M190.777 71.0465C192.663 68.0915 194.856 66.7546 194.856 63.3215C194.856 62.3772 194.623 61.4943 194.219 60.7097L186.673 69.6731C186.992 70.0901 187.322 70.5684 187.641 71.0589C188.793 72.8368 188.474 73.8915 189.209 73.8915C189.944 73.8915 189.625 72.8244 190.777 71.0465Z" fill="#3AA657"/>
</svg>
