<svg width="92" height="90" viewBox="0 0 92 90" fill="none" xmlns="http://www.w3.org/2000/svg">
<g clip-path="url(#clip0_16324_407657)">
<path d="M91.4895 45.0074C91.4895 19.9485 71.1442 -0.365845 46.0472 -0.365845C20.9501 -0.365845 0.605164 19.9485 0.605164 45.0074C0.605164 70.0663 20.9501 90.3805 46.0472 90.3805C71.1442 90.3805 91.4895 70.0663 91.4895 45.0074Z" fill="#F7F7F7"/>
<path d="M91.5287 45.264V44.7309H74.6353V45.264H91.5287Z" fill="#E3E3E3"/>
<path d="M46.3536 90.3708V73.5029H45.8197V90.3708H46.3536Z" fill="#E3E3E3"/>
<path d="M46.3536 16.4922V-0.37561H45.8197V16.4922H46.3536Z" fill="#E3E3E3"/>
<path d="M17.5378 45.264V44.7309H0.644348V45.264H17.5378Z" fill="#E3E3E3"/>
<path d="M72.4937 19.2168L72.1161 18.8396L66.1882 24.7584L66.5658 25.1357L72.4937 19.2168Z" fill="#E3E3E3"/>
<path d="M26.0635 65.3169L25.8746 65.1285L25.6859 64.9399L19.8547 70.7621L20.2325 71.1391L26.0635 65.3169Z" fill="#E3E3E3"/>
<path d="M73.3466 70.3765L67.1803 64.2193L66.8025 64.5965L72.969 70.7535L73.3466 70.3765Z" fill="#E3E3E3"/>
<path d="M63.5579 86.8532L59.1112 79.2477L58.6499 79.5164L63.0968 87.1219L63.5579 86.8532Z" fill="#E3E3E3"/>
<path d="M89.5803 31.8673L89.4527 31.3495L81.769 33.2386L81.8967 33.7562L89.5803 31.8673Z" fill="#E3E3E3"/>
<path d="M10.79 35.5482L2.10453 33.5243L1.98334 34.0436L10.6687 36.0673L10.79 35.5482Z" fill="#E3E3E3"/>
<path d="M29.464 77.328L29.0343 77.0118L23.5881 84.3885L24.018 84.7048L29.464 77.328Z" fill="#E3E3E3"/>
<path d="M2.4267 57.8815C6.72603 57.8815 10.1064 54.2436 9.81661 49.989L9.80003 49.7858L9.35684 45.1368L8.82545 45.1874L9.26844 49.8362L9.28385 50.0247C9.55296 53.9728 6.41613 57.3484 2.4267 57.3484V57.8815Z" fill="#E3E3E3"/>
<path d="M82.8151 46.9752C82.8151 49.6453 84.7673 51.9161 87.4106 52.3203L90.8525 52.8468L90.9333 52.3195L87.4914 51.7932C85.1087 51.4288 83.349 49.3821 83.349 46.9752V45.272H82.8151V46.9752Z" fill="#E3E3E3"/>
<path d="M68.0315 84.6705L66.7139 83.0655C65.6216 81.7354 63.7353 81.3812 62.2369 82.2134L62.1659 82.2539L60.9689 82.9548L61.2392 83.4149L62.436 82.7138L62.4963 82.6793C63.7696 81.9722 65.3726 82.2732 66.3007 83.4034L67.6184 85.0084L68.0315 84.6705Z" fill="#E3E3E3"/>
<path d="M9.97973 39.6394C10.6348 39.7623 11.2663 39.3489 11.4205 38.7092L11.4342 38.6466L11.4798 38.4071C13.4546 28.2892 19.6714 19.681 28.2106 14.5075L28.4666 14.3537C33.7768 11.1963 39.9673 9.36119 46.5864 9.30371L46.9068 9.30215L46.9709 9.30059C47.6293 9.26727 48.1527 8.72382 48.1527 8.05821C48.1527 7.39259 47.6293 6.84915 46.9709 6.81583L46.9068 6.81427L46.5642 6.81583C39.3782 6.87838 32.6576 8.90329 26.9181 12.3806H26.9179C17.7943 17.9082 11.1467 27.1076 9.03443 37.9313L8.98525 38.1872L8.97491 38.2503C8.88611 38.9025 9.32461 39.5166 9.97973 39.6394Z" fill="#DFE1E5"/>
<path d="M82.4958 39.2959C82.6104 39.9734 83.2532 40.4299 83.9316 40.3155C84.6101 40.2012 85.0671 39.5593 84.9528 38.8818C81.8745 20.679 66.0133 6.81427 46.9069 6.81427C39.5917 6.81427 32.7486 8.84775 26.9179 12.3804C26.3297 12.737 26.142 13.502 26.4991 14.0893C26.856 14.6766 27.6222 14.8636 28.2104 14.5075C33.6625 11.2041 40.0602 9.30215 46.9069 9.30215C64.7771 9.30215 79.6166 22.2704 82.4958 39.2959Z" fill="#4688F1"/>
<path d="M46.3536 9.50638V6.5376H45.8197V9.50638H46.3536Z" fill="#010B4E"/>
<path d="M83.7961 33.2798L83.6513 32.7667L80.8203 33.5639L80.9651 34.0767L83.7961 33.2798Z" fill="#010B4E"/>
<path d="M12.2974 35.9522L9.42789 35.2267L9.29675 35.7435L12.1662 36.4691L12.2974 35.9522Z" fill="#010B4E"/>
<path d="M74.8427 70.5651C74.8427 71.4942 74.0885 72.2473 73.158 72.2473C72.2275 72.2473 71.4733 71.4942 71.4733 70.5651C71.4733 69.6361 72.2275 68.8828 73.158 68.8828C74.0885 68.8828 74.8427 69.6361 74.8427 70.5651Z" fill="#3E80F2"/>
<path d="M60.5654 79.382C60.5654 80.3111 59.8111 81.0642 58.8807 81.0642C57.9502 81.0642 57.1959 80.3111 57.1959 79.382C57.1959 78.4529 57.9502 77.6996 58.8807 77.6996C59.8111 77.6996 60.5654 78.4529 60.5654 79.382Z" fill="#18A558"/>
<path d="M30.9339 77.1698C30.9339 78.0989 30.1796 78.852 29.2492 78.852C28.3187 78.852 27.5645 78.0989 27.5645 77.1698C27.5645 76.2408 28.3187 75.4877 29.2492 75.4877C30.1796 75.4877 30.9339 76.2408 30.9339 77.1698Z" fill="#F8B82C"/>
<path d="M21.3199 71.3586C21.3199 72.2876 20.5656 73.0409 19.6352 73.0409C18.7047 73.0409 17.9504 72.2876 17.9504 71.3586C17.9504 70.4295 18.7047 69.6764 19.6352 69.6764C20.5656 69.6764 21.3199 70.4295 21.3199 71.3586Z" fill="#3E80F2"/>
<path d="M17.2871 44.9355C17.2871 29.1464 30.1065 16.3467 45.9194 16.3467C61.7326 16.3467 74.5517 29.1464 74.5517 44.9355C74.5517 60.7244 61.7326 73.5243 45.9194 73.5243C30.1065 73.5243 17.2871 60.7244 17.2871 44.9355Z" fill="#3E80F2"/>
<path d="M62.4189 36.4795L50.7843 36.4335L55.2179 40.8933L47.5746 48.4678L40.9579 42.0143L28.1998 54.5291L30.9118 57.2853L40.9653 47.4238L47.5965 53.8907L57.9439 43.6358L62.3769 48.095L62.4189 36.4795Z" fill="white"/>
<path d="M26.2216 37.9876L26.7064 36.5042C26.7441 36.3891 26.9072 36.3891 26.9449 36.5042L27.4281 37.9833C27.5974 38.5017 28.0131 38.9023 28.5379 39.0529L30.3159 39.5634C30.4369 39.5983 30.4369 39.7694 30.3159 39.8042L28.5558 40.3099C28.0213 40.4634 27.6006 40.8759 27.4374 41.4069L26.9455 43.0076C26.9093 43.1255 26.7419 43.1255 26.7058 43.0076L26.2125 41.4026C26.0501 40.8742 25.6325 40.4627 25.1009 40.3072L23.3771 39.8041C23.2569 39.769 23.2569 39.5987 23.3771 39.5636L25.1189 39.0552C25.6403 38.9031 26.053 38.5034 26.2216 37.9876Z" fill="white"/>
<path d="M32.4482 40.8054L32.6767 40.1066C32.6945 40.0523 32.7712 40.0523 32.7891 40.1066L33.0169 40.8034C33.0965 41.0476 33.2924 41.2362 33.5395 41.3071L34.3771 41.548C34.4341 41.5643 34.4341 41.6448 34.3771 41.6612L33.5479 41.8995C33.2963 41.9718 33.0981 42.1662 33.021 42.4162L32.7893 43.1705C32.7722 43.226 32.6933 43.226 32.6765 43.1705L32.4441 42.4141C32.3674 42.1653 32.1707 41.9714 31.9203 41.8981L31.1083 41.6612C31.0515 41.6446 31.0515 41.5645 31.1083 41.548L31.9289 41.3085C32.1746 41.2368 32.369 41.0484 32.4482 40.8054Z" fill="white"/>
<path d="M66.0495 41.9353L66.278 41.2366C66.2958 41.1822 66.3725 41.1822 66.3904 41.2366L66.6181 41.9334C66.6978 42.1775 66.8937 42.3661 67.1408 42.4371L67.9783 42.6779C68.0353 42.6943 68.0353 42.7747 67.9783 42.7911L67.1492 43.0294C66.8976 43.1017 66.6993 43.2962 66.6222 43.5462L66.3906 44.3004C66.3734 44.356 66.2946 44.356 66.2778 44.3004L66.0454 43.544C65.9687 43.2952 65.772 43.1013 65.5216 43.0281L64.7096 42.7911C64.6528 42.7745 64.6528 42.6945 64.7096 42.6779L65.5302 42.4384C65.7759 42.3667 65.9703 42.1783 66.0495 41.9353Z" fill="white"/>
<path d="M33.7167 34.3971L34.0208 33.4667C34.0444 33.3946 34.1467 33.3946 34.1703 33.4667L34.4735 34.3942C34.5797 34.7192 34.8404 34.9705 35.1692 35.065L36.2845 35.3854C36.3602 35.407 36.3602 35.5146 36.2845 35.5364L35.1807 35.8532C34.8453 35.9495 34.5814 36.2084 34.4792 36.5413L34.1708 37.5451C34.148 37.6192 34.043 37.6192 34.0204 37.5451L33.7111 36.5383C33.6094 36.2071 33.3473 35.9491 33.014 35.8517L31.9331 35.536C31.8574 35.5142 31.8574 35.4074 31.9331 35.3854L33.0251 35.0666C33.3522 34.9709 33.6112 34.7205 33.7167 34.3971Z" fill="white"/>
<path d="M67.9553 37.7497L68.2593 36.8193C68.2829 36.7472 68.3852 36.7472 68.4088 36.8193L68.7121 37.7472C68.8182 38.0718 69.0789 38.3231 69.4078 38.4176L70.5231 38.738C70.5988 38.7598 70.5988 38.8672 70.5231 38.889L69.4193 39.2058C69.0838 39.3023 68.8202 39.561 68.7177 39.8939L68.4094 40.8977C68.3865 40.9718 68.2816 40.9718 68.2589 40.8977L67.9496 39.8913C67.8479 39.5597 67.5859 39.3017 67.2525 39.2043L66.1716 38.8886C66.0963 38.8668 66.0963 38.76 66.1716 38.738L67.2641 38.4192C67.5907 38.3235 67.8497 38.0731 67.9553 37.7497Z" fill="white"/>
</g>
<defs>
<clipPath id="clip0_16324_407657">
<rect width="92" height="90" fill="white"/>
</clipPath>
</defs>
</svg>
