<svg xmlns="http://www.w3.org/2000/svg" viewBox="0 0 385.88 299.19"><path d="M104.85,110.12H59.27v33h45.58Zm-8,25H67.27v-17H96.85Z"/><path d="M180.56,250.09a11.44,11.44,0,0,0-11.41,11c0,.15,0,.3,0,.46a11.17,11.17,0,0,0,.57,3.54,11.29,11.29,0,0,0,2.29,4,11.44,11.44,0,0,0,20-7.54c0-.16,0-.31,0-.46A11.44,11.44,0,0,0,180.56,250.09ZM184,261.53a3.6,3.6,0,1,1-.05-.46A3.44,3.44,0,0,1,184,261.53Z"/><path d="M202.27,94.7H168.12a14,14,0,0,0-14,14v34.15a14,14,0,0,0,14,14h34.15a14,14,0,0,0,14-14V108.7A14,14,0,0,0,202.27,94.7Zm6,48.15a6,6,0,0,1-6,6H168.12a6,6,0,0,1-6-6V108.7a6,6,0,0,1,6-6h34.15a6,6,0,0,1,6,6Z"/><path d="M250.58,156.85h34.14a14,14,0,0,0,14-14V108.7a14,14,0,0,0-14-14H250.58a14,14,0,0,0-14,14v34.15A14,14,0,0,0,250.58,156.85Zm-6-48.15a6,6,0,0,1,6-6h34.14a6,6,0,0,1,6,6v34.15a6,6,0,0,1-6,6H250.58a6,6,0,0,1-6-6Z"/><polygon points="102.85 176.55 106.85 176.55 110.85 176.55 110.85 159.79 102.85 159.79 102.85 176.55"/><path d="M381.88,231.65h-4v25.88H330V130.61A103.32,103.32,0,0,0,240.38,28.36a39.05,39.05,0,0,0-8.39-.91h-5.06A39.53,39.53,0,0,0,189.21,0H93.45V27.45H39.66A39.7,39.7,0,0,0,0,67.11v162.3a39.71,39.71,0,0,0,33.18,39.12v.54H143.66a37.66,37.66,0,0,0,73.8,0H330v-3.54h55.85V231.65ZM209.25,269.07a29.66,29.66,0,0,1-57.37,0,29.13,29.13,0,0,1-.76-4,29.51,29.51,0,0,1-.22-3.54c0-.16,0-.31,0-.46a29.65,29.65,0,0,1,59.3,0c0,.15,0,.3,0,.46a29.51,29.51,0,0,1-.22,3.54A29.12,29.12,0,0,1,209.25,269.07Zm-28.69-45.2a37.7,37.7,0,0,0-37.65,37.2h-12V210.6H322v50.47H218.21A37.69,37.69,0,0,0,180.56,223.87ZM8,210.6H33.18v49.8A31.71,31.71,0,0,1,8,229.41ZM8,67.11A31.69,31.69,0,0,1,39.66,35.45H232a31.24,31.24,0,0,1,6.84.76l.35.06A95.31,95.31,0,0,1,322,130.61v72H130.94V84H33.18V202.6H8ZM101.45,8h87.76a32,32,0,0,1,29.17,19.45H101.45ZM41.18,261.07V92h81.76v169Z"/><polygon points="228.44 60.47 228.44 56.47 37.18 56.47 37.18 64.47 228.44 64.47 228.44 60.47"/></svg>