<?xml version="1.0" encoding="UTF-8" standalone="no"?>
<svg
   width="140"
   height="85"
   viewBox="0 0 140 85"
   fill="none"
   version="1.1"
   id="svg8"
   xmlns="http://www.w3.org/2000/svg"
   xmlns:svg="http://www.w3.org/2000/svg">
  <path
     fill="url(#a)"
     d="M 134,0 H 5.24 A 5.23,5.23 0 0 0 0,5.23 v 74.19 a 5.23,5.23 0 0 0 5.23,5.22 H 134 a 5.22,5.22 0 0 0 5.22,-5.22 V 5.22 A 5.22,5.22 0 0 0 134.01,0 Z"
     id="path1"
     style="fill:url(#a)" />
  <path
     fill="#ffffff"
     d="M 131.93,0.86 H 6.75 A 5.23,5.23 0 0 0 1.53,6.1 v 71.12 a 5.23,5.23 0 0 0 5.22,5.22 h 125.18 a 5.23,5.23 0 0 0 5.23,-5.22 V 6.09 a 5.23,5.23 0 0 0 -5.23,-5.23 z"
     id="path2" />
  <path
     style="fill:#873eff;fill-opacity:1;fill-rule:evenodd;stroke:none;stroke-width:0.327219"
     d="m 21.489556,28.492117 c 1.559525,0 2.810809,-0.7706 3.75549,-2.543473 l 2.097472,-3.931861 v 3.335015 c 0,1.964622 1.2719,3.140319 3.235212,3.140319 1.540219,0 2.676651,-0.674726 3.772834,-2.543473 l 4.833021,-8.171634 c 1.058553,-1.791849 0.308241,-3.140318 -2.022212,-3.140318 -1.251285,0 -2.058861,0.403788 -2.791176,1.772871 l -3.331089,6.262968 v -5.569265 c 0,-1.65769 -0.788596,-2.466574 -2.252246,-2.466574 -1.15541,0 -2.079803,0.500644 -2.791504,1.888052 l -3.138027,6.147787 v -5.511348 c 0,-1.77287 -0.732316,-2.524491 -2.502897,-2.524491 h -3.619695 c -1.367773,0 -2.060496,0.635131 -2.060496,1.811156 0,1.176024 0.731007,1.84944 2.060496,1.84944 h 1.482628 v 7.033894 c 0,1.985238 1.328182,3.160935 3.272189,3.160935 z m 24.7613,-13.855425 c -3.947239,0 -6.969761,2.947586 -6.969761,6.93671 0,3.989126 3.041827,6.918715 6.969761,6.918715 3.927935,0 6.930495,-2.948568 6.949474,-6.918715 0,-3.989124 -3.021539,-6.937038 -6.949474,-6.937038 z m 0,9.596673 c -1.482627,0 -2.502569,-1.117126 -2.502569,-2.660289 0,-1.541201 1.019942,-2.677632 2.502569,-2.677632 1.482629,0 2.50257,1.136431 2.50257,2.677958 0,1.542837 -1.000635,2.659963 -2.50257,2.659963 z m 7.931131,-2.660289 c 0,-3.988798 3.023173,-6.936384 6.95078,-6.936384 3.927935,0 6.95111,2.967873 6.95111,6.93671 0,3.970147 -3.023175,6.918715 -6.95111,6.918715 -3.927607,0 -6.95078,-2.929589 -6.95078,-6.918715 z m 4.467517,0 c 0,1.543163 0.981656,2.660289 2.48359,2.660289 1.482301,0 2.50257,-1.117126 2.50257,-2.660289 0,-1.541201 -1.019941,-2.677632 -2.502897,-2.677632 -1.4823,0 -2.483591,1.136431 -2.483591,2.677958 z m 0,0"
     id="path2-9" />
  <path
     fill="#c3c4c7"
     d="m 19.58,46.59 h -4.56 v 7.4 h 4.56 z m 6.84,11.2 H 14.64 v 7.42 H 26.42 V 57.8 Z M 25.1,46.6 H 20.73 V 54 h 4.37 z m 29.83,11.2 h -24.5 v 7.42 h 24.5 z M 30.8,46.6 H 26.43 V 54 h 4.37 z m 10.07,0 H 36.5 V 54 h 4.37 z m 5.51,0 H 42 V 54 h 4.37 v -7.4 z m 5.9,0 H 47.7 V 54 h 4.56 v -7.4 z m 9.88,0 H 57.79 V 54 h 4.37 z m 5.7,0 H 63.3 V 54 h 4.56 z m 5.7,0 H 69.19 V 54 h 4.37 z m 9.88,0 H 79.07 V 54 h 4.37 z m 5.89,0 H 84.77 V 54 h 4.56 z m 5.7,0 H 90.47 V 54 h 4.56 z"
     id="path4" />
  <path
     fill="#271b3d"
     d="M 123.33,65.2 H 108.9 v 10.84 h 14.44 V 65.2 Z"
     opacity="0.1"
     id="path5" />
  <path
     fill="#271b3d"
     d="m 130.55,65.2 h -14.44 v 10.84 h 14.44 z"
     opacity="0.1"
     id="path6" />
  <defs
     id="defs8">
    <linearGradient
       id="a"
       x1="76484.5"
       x2="76484.5"
       y1="57496"
       y2="19792.6"
       gradientUnits="userSpaceOnUse">
      <stop
         stop-color="gray"
         stop-opacity=".25"
         id="stop6" />
      <stop
         offset=".54"
         stop-color="gray"
         stop-opacity=".12"
         id="stop7" />
      <stop
         offset="1"
         stop-color="gray"
         stop-opacity=".1"
         id="stop8" />
    </linearGradient>
  </defs>
</svg>
