<?xml version="1.0" encoding="utf-8"?>
<!-- Generator: Adobe Illustrator 25.0.1, SVG Export Plug-In . SVG Version: 6.00 Build 0)  -->
<svg version="1.1" id="Layer_1" xmlns="http://www.w3.org/2000/svg" xmlns:xlink="http://www.w3.org/1999/xlink" x="0px" y="0px"
	 viewBox="0 0 375 812" style="enable-background:new 0 0 375 812;" xml:space="preserve">
<path d="M58.9,0h257.1c0.4,0.3,0.8,0.5,1.3,0.7c35.6,6.1,58.1,36.6,57.6,70.6c-0.7,50-0.2,77.8-0.2,127.7c0,217,0,327,0.1,544
	c0,36.6-30.2,69-68.2,69c-106.7,0-132.1,0-238.8-0.1c-17.5,0-33.2-6-46-18C6.5,779.5,0,761.4,0,740.3c0.1-206.5,0.1-306.1,0.1-512.6
	c0-60.1,0-98,0-158.1c0-26.9,11.6-47.5,34.8-60.9C42.2,4.6,50.9,2.9,58.9,0z M269.6,22.1c-0.2,0.6-0.3,1.2-0.4,1.8
	c1,15.8-10.7,28.7-29.9,28.5c-55-0.6-50.1-0.2-105.1-0.2c-16.5,0-26.4-9.4-26.9-25.8c-0.1-3.4-1.2-4.8-4.8-4.8
	c-17.6,0.2-24.5,0-42,0.4c-16.4,0.4-27.6,9.4-35.5,23c-4.7,8-5.1,16.9-5.1,25.9c0,267.1,0,405.1,0,672.2c0,3,0.2,6.1,0.3,9.1
	c0.2,19.2,20.8,40.9,43.3,40.9c109.8-0.1,138.2-0.1,248,0c9.9,0,18.5-3.5,26.1-9.5c12.8-10.1,18-23.4,18-39.8
	c-0.2-215.3-0.3-323.6-0.2-538.9c0-52.9,0-83.5,0-136.3c0-8.5-0.7-16.8-5.4-24.3c-8.2-13-19-21.9-35-22.3
	c-17.4-0.4-24.1-0.3-41.5-0.3C272.1,21.8,270.8,21.9,269.6,22.1z"/>
</svg>
