<svg xmlns="http://www.w3.org/2000/svg" viewBox="0 0 1006.71 451.65"><path d="M46.64,50.14c0,17.92,10,27.43,21.73,27.43,5.16,0,8.42-.82,11.95-3.8h.54c-5.16,16-17.11,22.81-32.32,22.81-20.1,0-35.3-14.12-35.3-36.39,0-29.87,26.07-49.43,63-49.43,41.82,0,76.86,15.48,76.86,55.68,0,41-37.48,64.63-105.37,98.58H101c30.68,0,41.82-2.72,55.4-23.36h.54l-7.33,61.92H7V203c79.3-78.49,97.5-105.64,97.5-147.2,0-21.72-7.06-40.19-28.25-40.19C57,15.65,46.64,30.32,46.64,50.14Z" fill="#ffcbdc"/><path d="M252.5,206.3c-49.43,0-86.37-38.57-86.37-97.77s36.94-97.77,86.37-97.77,86.63,38.57,86.63,97.77S301.92,206.3,252.5,206.3Zm0-190.38c-22.55,0-31,27.43-31,92.61,0,64.91,8.41,92.61,31,92.61,22.81,0,30.95-27.7,30.95-92.61C283.45,43.35,275.31,15.92,252.5,15.92Z" fill="#ffcbdc"/><path d="M379.59,50.14c0,17.92,10.05,27.43,21.73,27.43,5.16,0,8.42-.82,11.95-3.8h.54c-5.16,16-17.11,22.81-32.32,22.81-20.09,0-35.3-14.12-35.3-36.39,0-29.87,26.07-49.43,63-49.43,41.82,0,76.85,15.48,76.85,55.68,0,41-37.48,64.63-105.37,98.58h53.23c30.69,0,41.82-2.72,55.4-23.36h.54l-7.33,61.92H339.94V203c79.3-78.49,97.5-105.64,97.5-147.2,0-21.72-7.06-40.19-28.24-40.19C389.91,15.65,379.59,30.32,379.59,50.14Z" fill="#ffcbdc"/><path d="M585.45,206.3c-49.43,0-86.36-38.57-86.36-97.77S536,10.76,585.45,10.76s86.63,38.57,86.63,97.77S634.88,206.3,585.45,206.3Zm0-190.38c-22.54,0-31,27.43-31,92.61,0,64.91,8.42,92.61,31,92.61,22.81,0,31-27.7,31-92.61C616.41,43.35,608.26,15.92,585.45,15.92Z" fill="#ffcbdc"/><path d="M122.68,243c40.74,0,70.88,14.39,70.88,51.06,0,32-30.14,48.34-62.46,48.61,29.06,1.63,44.27,12.49,51.87,35.3L190,399.19c6,18.46,11.95,25.53,27.43,33.4v.54H150.38c-6.24-7.33-10.32-17.11-13.85-29.33l-9.23-33.13c-4.62-14.93-11.41-25.53-31.23-25.53H80.32V400c0,17.93,3,24.72,14.93,32.59v.54H14.32v-.54c12-7.87,14.94-14.66,14.94-32.59V275.89c0-17.92-3-24.44-14.94-32.32V243ZM80.32,337.81h20.09c25,0,39.38-16,39.38-43.45,0-26.89-13.31-44-39.38-44H80.32Z" fill="#ffcbdc"/><path d="M346.19,359.81H259.83c0,33.67,17.65,53.77,43.72,53.77,16.57,0,31-7.33,39.38-24.17l1.9.82c-7.87,29-32.32,45.62-63.28,45.62-38.83,0-70.88-25.53-70.88-69.79,0-42.64,32.32-70.07,71.16-70.07C325.55,296,346.19,324,346.19,359.81Zm-46.71-5.7c0-30.42-2.17-53.5-17.65-53.5-14.13,0-21.19,21.45-21.73,53.5Z" fill="#ffcbdc"/><path d="M462.16,329.66a29.79,29.79,0,0,0,3.25-13c0-7.88-4.07-14.12-13.3-17.38v-.55H492.3v.55c-9,7.33-12.49,12.49-21.18,29.33L416.53,435.85H416L360,328c-8.69-16.56-11.13-20.91-20.09-28.78v-.55h74.14v.55c-6,3.53-7.61,6.79-7.61,12.22,0,4.34,1.63,9.78,4.08,14.66l26.61,54.59Z" fill="#ffcbdc"/><path d="M551,403.53c0,17.93.81,21.46,12.76,29.06v.54H489.59v-.54c12-7.6,12.76-11.13,12.76-29.06V328.85c0-18.47-1.63-22.27-14.39-29.6v-.55h63Zm-25-173c15.75,0,27.7,11.13,27.7,25.8s-11.95,26.07-27.7,26.07c-15.48,0-27.16-11.41-27.16-26.07S510.5,230.54,526,230.54Z" fill="#ffcbdc"/><path d="M600.12,317.44c0,12.22,8.42,16,33.4,23.63,35.31,11.13,50,23.36,50,49.7,0,27.7-22.54,45.08-55.13,45.08-18.74,0-31.5-5.7-41.28-5.7-6.79,0-10.05,3-13.85,6l-3-49.7h.54c15.48,29.06,33.67,44.81,57.57,44.81,13.31,0,23.09-6.51,23.09-19.55,0-13.85-12-17.38-32.32-23.63-33.41-10.32-48.07-23.9-48.07-50,0-25.25,21.45-42.09,49.16-42.09,17.1,0,27.42,6.52,37.2,6.52,6.25,0,10.32-2.72,15.21-6.79v44h-.54c-12-23.35-32.59-39.1-51.87-39.1C608,300.61,600.12,307.39,600.12,317.44Z" fill="#ffcbdc"/><path d="M826.88,359.81H740.52c0,33.67,17.65,53.77,43.72,53.77,16.57,0,31-7.33,39.38-24.17l1.9.82c-7.87,29-32.31,45.62-63.27,45.62-38.84,0-70.89-25.53-70.89-69.79,0-42.64,32.32-70.07,71.16-70.07C806.24,296,826.88,324,826.88,359.81Zm-46.71-5.7c0-30.42-2.17-53.5-17.65-53.5-14.13,0-21.19,21.45-21.73,53.5Z" fill="#ffcbdc"/><path d="M936.32,259.87c0-18.2-3.53-23.36-16.29-29.6v-.55h64.91V403.53c0,17.11,1.35,21.46,13,29.06v.54H936.32V399.46c-5.7,20.37-21.72,36.39-45.62,36.39-31.5,0-57.3-26.61-57.3-68.44C833.4,324,860.55,296,894.23,296c22.27,0,36.39,12.49,42.09,30.41Zm0,120.58v-31c0-24.44-12.22-40.19-26.07-40.19-17.38,0-25.53,20.09-25.53,58.11,0,31.51,9.24,49.16,26.08,49.16C924.65,416.57,936.32,401.9,936.32,380.45Z" fill="#ffcbdc"/><path d="M523.72,195.37l-2.2-8.08-1.1-16.52.36-16.16,2.94-20.93,6.61-12.86,11.39-27.54,7-12.12,9.55-11L559,61l5.5-5.14L568.89,50l3.67-7,2.57-7.72,6.25-4,8.81-11.76-7.71-2.93h-7.35l-7,1.83-11,5.14-7.71,10.65-8.08,2.94-3.67-7.34,4.4-2.94,2.57-5.51,5.51-4.77,4.41-7,8.08-5.88L570,1.47,585.42,0l7.71,1.1,7.71,2.57L625.45,19.1,638.67,32l4,6.61,4,8.45,4.4,7.34.74,3.31,3.67,7L657.4,72l1.1,8.08-.74,24.6-4,20.2-4,4.41-2.94,5.51-.74,7.34-3.67,4.78-1.84,6.61-6.61,4-2.57,7.71-7,1.84-9.55,8.81-6.61,2.94-4,4.4-24.61,15.8-4.77,5.14-20.2,6.61-7,.73-7.34-2.2-12.86-6.24Zm23.5-1.47,7.35-1.83,29-15.79,14-8.82,27.91-22.4,2.2-7,8.45-10.65,4.77-27.54.37-19.83-.37-9.18-4-15.79-7-12.49-5.14-4-8.81-3.31-7.71-.36-6.25,4.4-6.24,2.58-7,6.24-2.2,6.24-4.41,4.78L579.91,65,574,70.14l-7.34,14-5.51,5.14-2.57,10.65-5.14,5.51-6.25,15.42L537.31,141l-1.47,27.91.73,15.06,2.57,7.34Z" fill="#f22e38"/><path d="M662.1,196.71l-3.26-4.9-1-6.53.65-4.9,1.31-5.88,5.22-4.9,2-8.49,10.78-31,1-6.86,4.9-12.08L690.19,84l3.6-12.74-1.31-2.94.33-3.27-1-2.93V54.63l1.3-6.53,1.64-4.25,3.92-2,9.14,2.29,4.57,6.21,1.31,6.2L715,59.86l-2.94,4.24-3.92,3.6-19.27,71.2-1.64,6.86,4.25-4.57,5.88-13.39L707.5,119l35-38.54L749,76.52l10.46-10.46,5.88-4.24,5.55-7.19,6.53,2.62,5.23,4.57-2.29,14-5.88,24.5-18.29,59.77-2.94,12.74-2,13.72-.65,14.69,2,.66,5.55-1,2.94,1-2.29,5.88-3.59,5.55-4.57,2.94-8.49-1.64-4.58-4.9L734.29,199l5.55-27.44L749.31,134l15-50-7.19,3.59-3.59,3.92-4.58,2,.33,1.63L747,99.38,742.45,104l-18.94,18-4.9,4.89-2.29,5.88-8.82,8.5L699.67,151l-6.86,10.46-17.64,34.62-3.92,3.26-4.57,2Z" fill="#f22e38"/><path d="M794.34,218.27l-5.23-3.92-4.57-4.58-3.92-5.22-5.55-11.43-2.61-12.74V166l2-13.72,10.12-37.89L790.09,103,803.16,82.4,809,71.62l4.9-3.92,2.61-5.55-1.31-2.94L816.88,55l4.24-5.23,5.55-4.24,5.88-2.29,19.27,4.25,4.58,1.63,7.18,6.21,6.21,8.49,2-.66V75.54l-3.27,12.73-11.76,26.79-15,19.27-8.82,7.84-5.55,2.94L824.71,149l-4.57,3.59-5.55,2.94-6.53,2.28-12.09,2-5.88-.65,2.94-5.23,4.9-3.59,10.78-5.88,7.51-8.49,10.13-8.16,4.24-4.9,2.94-5.88,3.92-2.29,7.84-11.43,6.86-12.41,2.61-16L853.13,68l-6.21-3.92-12.41,9.48-9.14,7.84-4.9,2.93-9.8,11.76-2.94,5.56-1.31,6.53L800.55,117l-8.17,19.27-5.23,22.21v20.9l.66,7.19,2.61,6.2,3.92,4.9,8.16,2h12.74l6.86-2.29,6.53-3.26,5.56-4.25,3.92-5.22,19.27-17,3.91-4.24,6.54-12.09,5.88-.65v7.84l-3.27,12.73-3.27,5.56-10.12,10.12-4.9,6.53-26.46,18.95-5.88,2.94-6.53,2-7.18.65-6.54-1.31-3.26,1.64Z" fill="#f22e38"/><path d="M912.49,423H939l23.28,1.41,18,2.48,14.82,3.88,11.65,4.95-14.82,10.95-21.18-1.06-20.11-2.83H811.93l-36-2.12-31.76,1.06L723,440l-23.29.7-29.64-.7-29.64,1.76H475.3l-26.46-1.06-62.46,2.12-36-1.06-46.58,3.18-38.11-2.12-24.34,2.12H198l-15.87.71-24.35,2.12-46.58,1.41H69.87l-29.64,2.47-20.12-2.47-15.88-5.3L0,437.52l11.64-6.35,18,.7,10.59,3.18h43.4l44.46,1.06,41.28-1.06,60.34-3.18,44.46,1.06h38.11l39.17-2.12H519.76l41.29,1.06h117.5l36-2.12,77.27,2.47H886l12.7-4.24Z" fill="#f22e38"/></svg>