<?xml version="1.0" encoding="utf-8"?>
<svg xmlns="http://www.w3.org/2000/svg" viewBox="0 0 88.86 88.86"><title>favicon</title><circle cx="44.43" cy="44.43" r="44.43" fill="#62685a"/><path d="M44.43,78.1A33.67,33.67,0,1,1,78.1,44.43,33.7,33.7,0,0,1,44.43,78.1Zm0-66A32.32,32.32,0,1,0,76.75,44.43,32.34,32.34,0,0,0,44.43,12.12Z" fill="#edeae5"/><path d="M49.94,30.36a3.59,3.59,0,0,0,3.3-2.08,2.84,2.84,0,0,1-1.19.23,2.9,2.9,0,0,1-2.9-2.91A3,3,0,0,1,50.71,23a6.51,6.51,0,0,0-.77,0,3.7,3.7,0,1,0,0,7.4Z" fill="#edeae5"/><polygon points="66.84 58.5 54.34 36.55 43.74 54.87 42.42 57.14 24.38 57.14 38.27 33.08 45.97 46.47 46.76 45.11 38.27 30.36 22.02 58.5 43.2 58.5 54.33 39.28 64.5 57.14 53.68 57.14 50.16 51.04 49.38 52.4 52.89 58.5 66.84 58.5" fill="#edeae5"/></svg>