<svg viewBox="0 0 88.86 88.86" xmlns="http://www.w3.org/2000/svg"><circle cx="44.43" cy="44.43" fill="#62685a" r="44.43"/><g fill="#edeae5"><path d="m44.43 78.1a33.67 33.67 0 1 1 33.67-33.67 33.7 33.7 0 0 1 -33.67 33.67zm0-66a32.32 32.32 0 1 0 32.32 32.33 32.34 32.34 0 0 0 -32.32-32.31z"/><path d="m49.94 30.36a3.59 3.59 0 0 0 3.3-2.08 2.84 2.84 0 0 1 -1.19.23 2.9 2.9 0 0 1 -2.9-2.91 3 3 0 0 1 1.56-2.6 6.51 6.51 0 0 0 -.77 0 3.7 3.7 0 1 0 0 7.4z"/><path d="m66.84 58.5-12.5-21.95-10.6 18.32-1.32 2.27h-18.04l13.89-24.06 7.7 13.39.79-1.36-8.49-14.75-16.25 28.14h21.18l11.13-19.22 10.17 17.86h-10.82l-3.52-6.1-.78 1.36 3.51 6.1z"/></g></svg>