<?xml version="1.0" encoding="utf-8"?>
<svg xmlns="http://www.w3.org/2000/svg" viewBox="0 0 370.1 370.1"><title>HG-Logo-Ground-Green</title><circle cx="185.05" cy="185.05" r="185.05" fill="#62675e"/><path d="M201.25,139.27a10.57,10.57,0,0,0,9.71-6.12,8.41,8.41,0,0,1-3.5.69,8.55,8.55,0,0,1-8.54-8.55,8.83,8.83,0,0,1,4.6-7.64,15.63,15.63,0,0,0-2.27-.13,10.88,10.88,0,1,0,0,21.75Z" fill="#fff"/><polygon points="251.15 221.99 214.41 157.47 183.26 211.3 179.38 218 126.33 218 167.17 147.27 189.81 186.62 192.11 182.63 167.18 139.28 119.42 221.99 181.68 221.99 214.38 165.49 244.28 218 212.46 218 202.13 200.05 199.83 204.04 210.15 221.99 251.15 221.99" fill="#fff"/><path d="M38,173.4l-.45,4.6a.6.6,0,0,1-.23.42.58.58,0,0,1-.45.13l-3.51-.35A.55.55,0,0,1,33,178a.61.61,0,0,1-.14-.45l1.42-14.3a.6.6,0,0,1,.22-.41.56.56,0,0,1,.45-.13l3.51.34a.62.62,0,0,1,.42.22.57.57,0,0,1,.13.46l-.45,4.6L55.73,170a.67.67,0,0,1,.42.22.61.61,0,0,1,.13.46l-.38,3.86a.62.62,0,0,1-.22.42.6.6,0,0,1-.45.13Z" fill="#fff"/><path d="M37.08,150.91a.61.61,0,0,1-.41-.77l1.11-3.68a.61.61,0,0,1,.77-.41l7.8,2.35L49,139.55l-7.81-2.36a.57.57,0,0,1-.36-.3.59.59,0,0,1,0-.47l1.12-3.68a.57.57,0,0,1,.29-.37.55.55,0,0,1,.47,0l20.5,6.19a.62.62,0,0,1,.42.77L62.49,143a.61.61,0,0,1-.29.37.59.59,0,0,1-.47,0l-8.15-2.46-2.68,8.86,8.15,2.46a.61.61,0,0,1,.37.3.59.59,0,0,1,0,.47l-1.11,3.68a.61.61,0,0,1-.77.41Z" fill="#fff"/><path d="M48.24,119.74a.58.58,0,0,1-.31-.36.6.6,0,0,1,.06-.47l6.34-11.8a.6.6,0,0,1,.83-.25l3.11,1.67a.61.61,0,0,1,.3.37.6.6,0,0,1,0,.47l-4.25,7.89,3.54,1.9,3.49-6.5a.59.59,0,0,1,.37-.3.57.57,0,0,1,.46,0l3.11,1.67a.61.61,0,0,1,.3.37.6.6,0,0,1-.05.47L62,121.41l3.84,2.07,4.25-7.89a.6.6,0,0,1,.83-.25L74,117a.6.6,0,0,1,.25.83l-6.35,11.8a.6.6,0,0,1-.83.25Z" fill="#fff"/><path d="M71.75,84.27a.62.62,0,0,1-.18-.44.56.56,0,0,1,.19-.43l2.74-2.71a.6.6,0,0,1,.87,0l5.72,5.8L87.68,80,82,74.2a.6.6,0,0,1-.18-.43.6.6,0,0,1,.18-.44l2.75-2.7a.58.58,0,0,1,.43-.18.59.59,0,0,1,.44.19l15,15.25a.6.6,0,0,1,.18.43.6.6,0,0,1-.18.44l-2.74,2.7a.62.62,0,0,1-.44.18.56.56,0,0,1-.43-.19l-6-6-6.59,6.49,6,6.06a.6.6,0,0,1,.18.44.59.59,0,0,1-.19.43l-2.74,2.7a.54.54,0,0,1-.44.18.58.58,0,0,1-.43-.18Z" fill="#fff"/><path d="M106.69,81.74a.61.61,0,0,1-.59.07.55.55,0,0,1-.33-.48l-3.22-23.8a.59.59,0,0,1,.27-.6l.28-.17a.59.59,0,0,1,.65,0L124,69.63a.57.57,0,0,1,.3.5.62.62,0,0,1-.31.51l-3,1.94a1.07,1.07,0,0,1-.67.21,1.9,1.9,0,0,1-.72-.28L117.24,71l-7.41,4.75.42,2.81a1.67,1.67,0,0,1,0,.66,1.11,1.11,0,0,1-.51.62Zm6.54-13.42-5-3.17,0,0,.83,5.81Z" fill="#fff"/><path d="M122.64,47a.59.59,0,0,1,0-.47.65.65,0,0,1,.34-.33l7.25-2.88a7.25,7.25,0,0,1,2.92-.56,6.92,6.92,0,0,1,4.94,2.14,7.35,7.35,0,0,1,1.52,2.37,7.53,7.53,0,0,1,.55,2.83,7.26,7.26,0,0,1-.53,2.7,6.51,6.51,0,0,1-1.54,2.3,7.28,7.28,0,0,1-2.49,1.61L132.45,58l2.81,7.06a.59.59,0,0,1,0,.47.61.61,0,0,1-.34.33l-3.55,1.41a.59.59,0,0,1-.47,0,.65.65,0,0,1-.33-.34Zm11.09,5.37A2.2,2.2,0,0,0,135,51.1a2.61,2.61,0,0,0-.06-1.94,2.41,2.41,0,0,0-1.25-1.35,2.28,2.28,0,0,0-1.83,0l-3,1.21,1.83,4.6Z" fill="#fff"/><path d="M148.44,38.08a.56.56,0,0,1,.09-.47.6.6,0,0,1,.39-.26l7.64-1.54a7.72,7.72,0,0,1,3,0,7.07,7.07,0,0,1,2.55,1.06A6.92,6.92,0,0,1,164,38.79a7.57,7.57,0,0,1,1.1,5.49,7.48,7.48,0,0,1-1,2.56,6.89,6.89,0,0,1-1.93,2A7.45,7.45,0,0,1,159.44,50l-3.33.67,1.5,7.45a.62.62,0,0,1-.09.46.61.61,0,0,1-.4.26l-3.74.76a.62.62,0,0,1-.46-.09.61.61,0,0,1-.26-.4Zm9.94,7.27a2.18,2.18,0,0,0,1.52-1.05,2.56,2.56,0,0,0,.29-1.92,2.31,2.31,0,0,0-1-1.55,2.22,2.22,0,0,0-1.79-.33l-3.21.64,1,4.85Z" fill="#fff"/><path d="M180.06,44.93l-7.35-10.67a.6.6,0,0,1-.05-.63.58.58,0,0,1,.55-.31l4.2-.08a.58.58,0,0,1,.33.09.91.91,0,0,1,.2.19l4.62,6.55,4.37-6.72a1.4,1.4,0,0,1,.17-.2.55.55,0,0,1,.34-.1l4.21-.08a.57.57,0,0,1,.55.3.6.6,0,0,1,0,.63l-7,10.91.19,10.32a.64.64,0,0,1-.17.44.58.58,0,0,1-.43.18l-3.85.07a.61.61,0,0,1-.45-.16.6.6,0,0,1-.18-.44Z" fill="#fff"/><path d="M213,46.83a11.43,11.43,0,0,1,2.08-4.15,11.67,11.67,0,0,1,7.6-4.33,11.32,11.32,0,0,1,4.61.33,11.5,11.5,0,0,1,3.78,1.87,11.78,11.78,0,0,1,3,3.16.56.56,0,0,1,.13.47.6.6,0,0,1-.29.39l-3.19,1.94a.64.64,0,0,1-.85-.2,5.74,5.74,0,0,0-1.6-1.68,6.91,6.91,0,0,0-2.08-.94,5.88,5.88,0,0,0-2.53-.16,6.23,6.23,0,0,0-2.33.82A6.62,6.62,0,0,0,219.52,46a6.48,6.48,0,0,0,1,9,6.21,6.21,0,0,0,2.27,1.17,9.11,9.11,0,0,0,1.4.26,6.35,6.35,0,0,0,1.51,0l.5-1.81-2-.54a.64.64,0,0,1-.38-.27.53.53,0,0,1-.06-.46l.85-3.08a.54.54,0,0,1,.75-.43l6.27,1.73a.52.52,0,0,1,.36.28.61.61,0,0,1,0,.46l-2.28,8.4a.6.6,0,0,1-.17.31.53.53,0,0,1-.22.12,12.11,12.11,0,0,1-2.46.43,20.87,20.87,0,0,1-2.64,0,14.79,14.79,0,0,1-3.19-.54A11.26,11.26,0,0,1,217,59a11.87,11.87,0,0,1-2.9-3.35A11.37,11.37,0,0,1,213,46.83Z" fill="#fff"/><path d="M246.9,46.64a.58.58,0,0,1,.35-.32.6.6,0,0,1,.47,0l3.46,1.69a.59.59,0,0,1,.31.35.64.64,0,0,1,0,.47l-7.6,15.52,6.91,3.39a.58.58,0,0,1,.32.35.6.6,0,0,1,0,.47l-1.55,3.17a.57.57,0,0,1-.35.31.64.64,0,0,1-.47,0L237.75,66.7a.63.63,0,0,1-.28-.83Z" fill="#fff"/><path d="M254.14,75a.61.61,0,0,1-.28-.53.55.55,0,0,1,.34-.48l21.09-11.48a.56.56,0,0,1,.65,0l.26.19a.61.61,0,0,1,.23.62l-4.81,23.53a.52.52,0,0,1-.36.45.58.58,0,0,1-.58-.11l-2.89-2.13a1.08,1.08,0,0,1-.44-.55,2,2,0,0,1,0-.77l.59-2.75-7.08-5.24-2.47,1.39a1.5,1.5,0,0,1-.65.19,1.07,1.07,0,0,1-.75-.26ZM269,76.37l1.2-5.76,0,0-5.13,2.85Z" fill="#fff"/><path d="M294.61,79.19a.57.57,0,0,1,.42-.08.63.63,0,0,1,.36.19l.34.39a.91.91,0,0,1,.14.28.52.52,0,0,1,0,.35l-5.68,14.81,0,.05,15.48-3.45a.41.41,0,0,1,.34,0,.6.6,0,0,1,.26.18l.34.39a.59.59,0,0,1,.14.38.6.6,0,0,1-.15.4l-14.07,17a.56.56,0,0,1-.48.24.64.64,0,0,1-.46-.24l-2.49-2.89a.62.62,0,0,1,0-.8l6.61-7.64,0,0-11.49,2.74a.53.53,0,0,1-.35,0,.67.67,0,0,1-.28-.17l-.38-.44a.59.59,0,0,1-.13-.31.5.5,0,0,1,0-.34l4.37-11,0,0-8.5,5.45a.61.61,0,0,1-.4.08.57.57,0,0,1-.4-.21l-2.49-2.89a.61.61,0,0,1-.17-.49.52.52,0,0,1,.31-.44Z" fill="#fff"/><path d="M315.4,106.94a.59.59,0,0,1,.83.24L320,114a7.43,7.43,0,0,1,.91,2.84,7,7,0,0,1-.25,2.75,6.83,6.83,0,0,1-1.29,2.4,7.5,7.5,0,0,1-4.92,2.68,7.21,7.21,0,0,1-2.74-.2,6.79,6.79,0,0,1-2.47-1.25,7.58,7.58,0,0,1-1.89-2.28l-1.63-3L299,121.62a.59.59,0,0,1-.83-.24L296.35,118a.58.58,0,0,1-.06-.46.61.61,0,0,1,.3-.37Zm-4,11.65a2.15,2.15,0,0,0,1.45,1.14,2.58,2.58,0,0,0,1.92-.29A2.37,2.37,0,0,0,316,118a2.31,2.31,0,0,0-.22-1.82l-1.56-2.87-4.35,2.37Z" fill="#fff"/><path d="M327.39,131.49a.64.64,0,0,1,.47,0,.65.65,0,0,1,.31.36l4.2,12.72a.59.59,0,0,1,0,.47.57.57,0,0,1-.35.31l-3.35,1.11a.63.63,0,0,1-.78-.4L325,137.58l-3.81,1.26,2.31,7a.55.55,0,0,1,0,.47.55.55,0,0,1-.36.3l-3.35,1.11a.64.64,0,0,1-.47,0,.6.6,0,0,1-.3-.36l-2.32-7-4.14,1.37,2.81,8.51a.63.63,0,0,1,0,.47.61.61,0,0,1-.36.31l-3.35,1.11a.59.59,0,0,1-.47,0,.57.57,0,0,1-.31-.35L306.66,139a.63.63,0,0,1,0-.47.58.58,0,0,1,.36-.31Z" fill="#fff"/><path d="M334.81,157.65a.6.6,0,0,1,.45.12.56.56,0,0,1,.23.41l1.26,9.6a7.3,7.3,0,0,1-.18,2.89,6.76,6.76,0,0,1-3.21,4.14,7,7,0,0,1-2.63.86,6.45,6.45,0,0,1-4.07-.73,7.56,7.56,0,0,1-3-3.17l-7.57,5.46a.7.7,0,0,1-.62.1.56.56,0,0,1-.38-.52l-.56-4.27a.51.51,0,0,1,.05-.33.84.84,0,0,1,.17-.22l7.95-5.38-.29-2.21-8.18,1.07a.6.6,0,0,1-.69-.53l-.5-3.82a.58.58,0,0,1,.12-.46.59.59,0,0,1,.41-.23Zm-7.71,11a2.34,2.34,0,0,0,.95,1.62,2.55,2.55,0,0,0,1.94.49,2.29,2.29,0,0,0,1.68-1,2.5,2.5,0,0,0,.44-1.8l-.62-4.75-5,.65Z" fill="#fff"/><path d="M63.32,232.66a9.86,9.86,0,0,1-.09,7.55.53.53,0,0,1-.75.31l-2.34-1a.46.46,0,0,1-.25-.68,6.89,6.89,0,0,0,0-4.8,6.76,6.76,0,0,0-12.66,4.72,7,7,0,0,0,3.11,3.6.55.55,0,0,1,.25.69l-1.12,2.34a.56.56,0,0,1-.75.24,10,10,0,0,1-5.1-5.65,10.48,10.48,0,1,1,19.65-7.29Z" fill="#fff"/><path d="M50.84,254.2,72.31,252a.53.53,0,0,1,.53.26l.15.25a.5.5,0,0,1,0,.59L60.71,270.79a.52.52,0,0,1-.91,0l-1.29-2.18a.82.82,0,0,1,.07-1l2-2.83-4.45-7.49-3.43.38a.86.86,0,0,1-.93-.43L50.44,255A.51.51,0,0,1,50.84,254.2Zm11.76,7.64,4-5.78-.05-.07-7,.82Z" fill="#fff"/><path d="M82.81,267.79a.49.49,0,0,1,.68.09l.31.35a.52.52,0,0,1,.12.56l-5.89,14,.06.07,14.49-4.48a.48.48,0,0,1,.55.17l.31.34a.5.5,0,0,1,0,.68L81.28,295.23a.51.51,0,0,1-.85.06l-1.78-2a.64.64,0,0,1-.05-.71l7-8.68-.05-.06-11.9,3.9a.48.48,0,0,1-.57-.15l-.36-.39a.53.53,0,0,1-.09-.58l5-11.5-.06-.07-9.31,6.16a.57.57,0,0,1-.68-.09l-1.76-1.94a.54.54,0,0,1,.13-.86Z" fill="#fff"/><path d="M101.63,287.28a.56.56,0,0,1,.78-.11l5.47,4.1a6.49,6.49,0,1,1-7.76,10.41l-2.91-2.18L93.11,305a.59.59,0,0,1-.78.11l-2.14-1.61a.54.54,0,0,1-.11-.77Zm.51,11.47a2.9,2.9,0,0,0,4.12-.69,2.8,2.8,0,0,0-.62-4l-2.79-2.1-3.51,4.69Z" fill="#fff"/><path d="M119.21,299.5a.56.56,0,0,1,.75-.23l10.5,5.5a.54.54,0,0,1,.23.74l-1.11,2.12a.54.54,0,0,1-.74.23l-7.64-4L119,308.1l6.37,3.33a.57.57,0,0,1,.23.75l-1.12,2.14a.55.55,0,0,1-.75.23l-6.37-3.33L115,315.73l7.64,4a.56.56,0,0,1,.23.75l-1.11,2.11a.54.54,0,0,1-.74.23l-10.5-5.49a.56.56,0,0,1-.24-.75Z" fill="#fff"/><path d="M138.13,308.62a.57.57,0,0,1,.7-.36l7.93,2.56a6.32,6.32,0,0,1,4.12,7.91A6.44,6.44,0,0,1,145,323l1.53,8.26a.55.55,0,0,1-.73.65l-2.91-.93a.5.5,0,0,1-.36-.4l-1.32-8.53-3.08-1-2.28,7.07a.58.58,0,0,1-.7.35l-2.55-.82a.56.56,0,0,1-.35-.7Zm5.47,10.95a3,3,0,0,0,3.66-1.95,2.9,2.9,0,0,0-1.88-3.57l-4.52-1.46-1.78,5.52Z" fill="#fff"/><path d="M172.38,316.68a.56.56,0,0,1,.58-.53l8.32.36a6.31,6.31,0,0,1,6.08,6.53,6.45,6.45,0,0,1-4.56,5.7l3.66,7.56a.54.54,0,0,1-.53.82l-3.05-.13a.49.49,0,0,1-.46-.28l-3.54-7.88-3.23-.14-.32,7.42a.57.57,0,0,1-.57.53l-2.68-.12a.55.55,0,0,1-.53-.57Zm8.18,9.1a3,3,0,0,0,3-2.84,2.9,2.9,0,0,0-2.76-2.95l-4.74-.21-.25,5.8Z" fill="#fff"/><path d="M195.81,316.83a.56.56,0,0,1,.48-.62l11.77-1.47a.57.57,0,0,1,.62.49l.29,2.37a.54.54,0,0,1-.48.61l-8.56,1.07.6,4.74,7.13-.89a.57.57,0,0,1,.62.48l.3,2.4a.55.55,0,0,1-.48.62l-7.14.89.63,5.06,8.56-1.07a.55.55,0,0,1,.62.48l.29,2.37a.55.55,0,0,1-.48.62l-11.76,1.47a.56.56,0,0,1-.62-.48Z" fill="#fff"/><path d="M216.38,313.38a.55.55,0,0,1,.37-.67l.42-.13a.62.62,0,0,1,.53.05l15.13,8.54.06,0-3.6-11.48a.55.55,0,0,1,.36-.69l2.56-.81a.57.57,0,0,1,.69.37l5.87,18.7a.56.56,0,0,1-.37.67L238,328a.64.64,0,0,1-.54,0l-15.33-9-.06,0L225.83,331a.56.56,0,0,1-.36.7l-2.53.79a.57.57,0,0,1-.69-.36Z" fill="#fff"/><path d="M245.47,305.88l-3.95,2.05a.55.55,0,0,1-.75-.23l-1.1-2.12a.56.56,0,0,1,.24-.75L251.2,299a.56.56,0,0,1,.75.24l1.1,2.12a.56.56,0,0,1-.24.75l-3.95,2.05,7.53,14.5a.57.57,0,0,1-.23.75l-2.41,1.25a.57.57,0,0,1-.74-.24Z" fill="#fff"/><path d="M266.65,312.71l-4.32-21.15a.53.53,0,0,1,.21-.55l.23-.17a.49.49,0,0,1,.59,0l18.84,10.47a.51.51,0,0,1,.05.9l-2,1.5a.84.84,0,0,1-1,0l-3-1.68-7,5.15.71,3.38a.88.88,0,0,1-.33,1l-2,1.5A.51.51,0,0,1,266.65,312.71Zm6.46-12.45L267,296.82l-.07.06,1.5,6.85Z" fill="#fff"/><path d="M275.84,281.11a.54.54,0,0,1,0-.78l1.87-1.92a.57.57,0,0,1,.78,0l11.68,11.43,5.19-5.31a.55.55,0,0,1,.78,0l1.71,1.67a.55.55,0,0,1,0,.78l-7.46,7.62a.55.55,0,0,1-.78,0Z" fill="#fff"/><path d="M300.54,247.34a9.86,9.86,0,0,1,5.79-4.85.54.54,0,0,1,.72.38l.75,2.44a.47.47,0,0,1-.36.64,6.89,6.89,0,0,0-3.68,3.08,6.76,6.76,0,0,0,11.83,6.54,7,7,0,0,0,.71-4.7.53.53,0,0,1,.35-.64l2.51-.67a.55.55,0,0,1,.67.41,10,10,0,0,1-1,7.55,10.48,10.48,0,1,1-18.32-10.18Z" fill="#fff"/><path d="M322.22,238.53l3.21-6.72a.52.52,0,0,1,.71-.27l.89.42a.54.54,0,0,1,.26.74l-3.21,6.73a.55.55,0,0,1-.74.26l-.89-.43A.53.53,0,0,1,322.22,238.53ZM312,237.18a6.88,6.88,0,1,1,9.26-3.19A7,7,0,0,1,312,237.18Zm1.45-3.05a3.51,3.51,0,1,0,3-6.33,3.52,3.52,0,1,0-3,6.33Z" fill="#fff"/><path d="M184.37,295.46A109.86,109.86,0,1,1,294.23,185.6,110,110,0,0,1,184.37,295.46Zm0-215.67A105.81,105.81,0,1,0,290.18,185.6,105.93,105.93,0,0,0,184.37,79.79Z" fill="#fff"/><rect x="312.79" y="177.07" width="4.05" height="44.88" transform="translate(63.67 474.89) rotate(-80)" fill="#fff"/><rect x="33.32" y="197.45" width="44.47" height="4.05" transform="translate(-33.74 12.65) rotate(-9.98)" fill="#fff"/></svg>