<svg viewBox="0 0 19.94 15.79" xmlns="http://www.w3.org/2000/svg"><path d="m2.13 5.2h4v8.62h-4z" fill="#fff"/><path d="m5.76 5.57v7.87h-3.25v-7.87zm.75-.75h-4.75v9.37h4.75z" fill="#231f20"/><path d="m11.64 1.83a1.9 1.9 0 0 0 -1.84-1.45h-4.8v1.45" fill="#fff" stroke="#231f20" stroke-linecap="round" stroke-miterlimit="10" stroke-width=".75"/><path d="m12.07 2.58a1 1 0 0 1 .24 0h.07a4.5 4.5 0 0 1 3.91 4.46v6.36h-14.4a1.14 1.14 0 0 1 -1.14-1.09v-8.59a1.14 1.14 0 0 1 1.14-1.14zm0-.75h-10.18a1.89 1.89 0 0 0 -1.89 1.89v8.59a1.89 1.89 0 0 0 1.89 1.88h15.11v-7.11a5.26 5.26 0 0 0 -4.57-5.21 1.75 1.75 0 0 0 -.4 0z" fill="#231f20"/><path d="m9.34 15.41a1.41 1.41 0 1 1 1.41-1.41 1.41 1.41 0 0 1 -1.41 1.41z" fill="#fff"/><path d="m9.34 13a1 1 0 1 1 -1 1 1 1 0 0 1 1-1m0-.75a1.79 1.79 0 1 0 1.79 1.75 1.79 1.79 0 0 0 -1.79-1.79z" fill="#231f20"/><path d="m9.34 7.88a1.06 1.06 0 1 1 1.06-1.06 1.06 1.06 0 0 1 -1.06 1.06z" fill="#fff"/><path d="m9.34 6.14a.68.68 0 1 1 -.68.68.68.68 0 0 1 .68-.68m0-.75a1.43 1.43 0 1 0 1.44 1.43 1.44 1.44 0 0 0 -1.44-1.43z" fill="#231f20"/><path d="m13.47 7.88a1.06 1.06 0 1 1 1-1.06 1.06 1.06 0 0 1 -1 1.06z" fill="#fff"/><path d="m13.47 6.14a.68.68 0 1 1 -.69.68.68.68 0 0 1 .69-.68m0-.75a1.43 1.43 0 1 0 0 2.86 1.43 1.43 0 0 0 0-2.86z" fill="#231f20"/><g fill="none" stroke="#231f20" stroke-linecap="round" stroke-miterlimit="10" stroke-width=".75"><path d="m19.57 11.62v1.58h-2.82"/><path d="m16.64 11.1h-10.13"/><path d="m1.76 11.1h-1.38"/></g></svg>