<svg viewBox="0 0 20 20" xmlns="http://www.w3.org/2000/svg"><g fill="#010101"><path d="m15.45 13.22a3.07 3.07 0 0 0 -2.45 1.18l-5.6-3.26a3.06 3.06 0 0 0 0-2.28l5.6-3.26a3.06 3.06 0 1 0 -.44-.75l-5.56 3.25a3.07 3.07 0 1 0 0 3.8l5.64 3.25a3.07 3.07 0 1 0 2.85-1.93zm0-11.71a2.2 2.2 0 1 1 -2.2 2.2 2.2 2.2 0 0 1 2.2-2.2zm-10.9 10.69a2.2 2.2 0 1 1 2.2-2.2 2.2 2.2 0 0 1 -2.2 2.2zm10.9 6.29a2.2 2.2 0 1 1 2.2-2.2 2.2 2.2 0 0 1 -2.2 2.2z"/><path d="m4.55 8.71a1.3 1.3 0 0 0 -1.29 1.29.44.44 0 1 0 .87 0 .42.42 0 0 1 .42-.42.44.44 0 1 0 0-.87z"/></g></svg>