<?xml version="1.0" encoding="utf-8"?><svg xmlns="http://www.w3.org/2000/svg" viewBox="0 0 19.94 15.79"><title>icon--camper</title><rect x="2.13" y="5.2" width="4" height="8.62" fill="#fff"/><path d="M5.76,5.57v7.87H2.51V5.57H5.76m.75-.75H1.76v9.37H6.51V4.82Z" fill="#231f20"/><path d="M11.64,1.83A1.9,1.9,0,0,0,9.8.38H5V1.83" fill="#fff" stroke="#231f20" stroke-linecap="round" stroke-miterlimit="10" stroke-width="0.75"/><path d="M12.07,2.58a1,1,0,0,1,.24,0h.07a4.5,4.5,0,0,1,3.91,4.46v6.36H1.89A1.14,1.14,0,0,1,.75,12.31V3.72A1.14,1.14,0,0,1,1.89,2.58H12.07m0-.75H1.89A1.89,1.89,0,0,0,0,3.72v8.59a1.89,1.89,0,0,0,1.89,1.88H17V7.08a5.26,5.26,0,0,0-4.57-5.21,1.75,1.75,0,0,0-.4,0Z" fill="#231f20"/><path d="M9.34,15.41A1.41,1.41,0,1,1,10.75,14,1.41,1.41,0,0,1,9.34,15.41Z" fill="#fff"/><path d="M9.34,13a1,1,0,1,1-1,1,1,1,0,0,1,1-1m0-.75A1.79,1.79,0,1,0,11.13,14a1.79,1.79,0,0,0-1.79-1.79Z" fill="#231f20"/><path d="M9.34,7.88A1.06,1.06,0,1,1,10.4,6.82,1.06,1.06,0,0,1,9.34,7.88Z" fill="#fff"/><path d="M9.34,6.14a.68.68,0,1,1-.68.68.68.68,0,0,1,.68-.68m0-.75a1.43,1.43,0,1,0,1.44,1.43A1.44,1.44,0,0,0,9.34,5.39Z" fill="#231f20"/><path d="M13.47,7.88a1.06,1.06,0,1,1,1-1.06A1.06,1.06,0,0,1,13.47,7.88Z" fill="#fff"/><path d="M13.47,6.14a.68.68,0,1,1-.69.68.68.68,0,0,1,.69-.68m0-.75h0a1.43,1.43,0,1,0,0,2.86h0a1.43,1.43,0,0,0,0-2.86Z" fill="#231f20"/><line x1="4.9" y1="9.62" x2="4.9" y2="9.62" fill="none" stroke="#231f20" stroke-linecap="round" stroke-miterlimit="10" stroke-width="0.75"/><polyline points="19.57 11.62 19.57 13.2 16.75 13.2" fill="none" stroke="#231f20" stroke-linecap="round" stroke-miterlimit="10" stroke-width="0.75"/><line x1="16.64" y1="11.1" x2="6.51" y2="11.1" fill="none" stroke="#231f20" stroke-linecap="round" stroke-miterlimit="10" stroke-width="0.75"/><line x1="1.76" y1="11.1" x2="0.38" y2="11.1" fill="none" stroke="#231f20" stroke-linecap="round" stroke-miterlimit="10" stroke-width="0.75"/></svg>