<svg xmlns="http://www.w3.org/2000/svg" viewBox="0 0 20 20"><title>icon--intermediate</title><path d="M20,10A10,10,0,1,0,10,20,10,10,0,0,0,20,10ZM.87,10A9.13,9.13,0,1,1,10,19.13,9.14,9.14,0,0,1,.87,10Z" fill="#393939"/><path d="M6,7.9a.37.37,0,0,0-.27.1.34.34,0,0,0-.11.25v3.39a.34.34,0,0,0,.1.25A.35.35,0,0,0,6,12a.37.37,0,0,0,.26-.1.33.33,0,0,0,.11-.25V8.26A.34.34,0,0,0,6.27,8,.35.35,0,0,0,6,7.9Z" fill="#393939"/><path d="M10.17,12l.16,0a.35.35,0,0,0,.36-.36V8.23A.33.33,0,0,0,10.6,8a.3.3,0,0,0-.23-.09.31.31,0,0,0-.23.09.32.32,0,0,0-.09.23v2.52L7.92,8a.28.28,0,0,0-.13-.09.45.45,0,0,0-.17,0,.35.35,0,0,0-.36.36v3.41a.33.33,0,0,0,.09.23.3.3,0,0,0,.23.09.31.31,0,0,0,.24-.09.32.32,0,0,0,.09-.23V9.17l2.15,2.73A.23.23,0,0,0,10.17,12Z" fill="#393939"/><path d="M11.66,8.57h.92v3.07a.34.34,0,0,0,.11.25A.37.37,0,0,0,13,12a.39.39,0,0,0,.28-.1.33.33,0,0,0,.11-.25V8.57h.92a.37.37,0,0,0,.26-.09.31.31,0,0,0,.1-.24.32.32,0,0,0-.1-.25.36.36,0,0,0-.26-.09h-2.6A.36.36,0,0,0,11.4,8a.31.31,0,0,0-.1.24.32.32,0,0,0,.1.25A.36.36,0,0,0,11.66,8.57Z" fill="#393939"/></svg>