<svg width="300" height="130" viewBox="0 0 300 130" fill="none" xmlns="http://www.w3.org/2000/svg">
<rect width="300" height="130" fill="#F2EDFF"/>
<path d="M171.455 50.4013L116.673 68.8874C113.954 69.8051 112.492 72.7559 113.409 75.4781L124.096 107.209C125.013 109.931 127.96 111.394 130.68 110.476L185.462 91.9899C188.182 91.0722 189.643 88.1215 188.726 85.3992L178.04 53.6686C177.123 50.9464 174.175 49.4836 171.455 50.4013Z" fill="#B999FF" stroke="#2C045D" stroke-linecap="round" stroke-linejoin="round"/>
<path d="M182.452 66.9432V82.8132C182.452 85.6871 180.127 88.0148 177.256 88.0148H119.444C118.732 88.0148 118.054 87.8718 117.438 87.6117L114.248 78.1396L113.359 75.4998C112.769 73.7469 113.164 71.9003 114.248 70.5609C114.843 69.8197 115.653 69.2371 116.623 68.9094L171.407 50.4256C174.125 49.5075 177.074 50.9718 177.991 53.6948L182.452 66.9432Z" fill="#2C045D" stroke="#2C045D" stroke-linecap="round" stroke-linejoin="round"/>
<path d="M179.204 79.5622V44.4516C179.204 41.5788 176.878 39.25 174.008 39.25L116.197 39.25C113.327 39.25 111 41.5788 111 44.4516V79.5622C111 82.435 113.327 84.7638 116.197 84.7638H174.008C176.878 84.7638 179.204 82.435 179.204 79.5622Z" fill="#E1D7FF" stroke="#2C045D" stroke-linecap="round" stroke-linejoin="round"/>
<path d="M179.204 55.5049V47.3775L111 47.3775V55.5049H179.204Z" fill="#2C045D"/>
<path d="M130.487 68.5089H159.717" stroke="#2C045D" stroke-linecap="round" stroke-linejoin="round"/>
<path d="M61.0353 33.0401C60.4635 30.9062 61.7298 28.7129 63.8637 28.1411L79.3185 24C81.4524 23.4282 83.6457 24.6946 84.2175 26.8284L88.3586 42.2833C88.9304 44.4171 87.664 46.6105 85.5302 47.1822L70.0754 51.3233C67.9415 51.8951 65.7481 50.6288 65.1764 48.4949L61.0353 33.0401Z" fill="#873EFF"/>
<g clip-path="url(#clip0_11219_5662)">
<path d="M68.7796 41.6777C69.2913 41.5406 69.6341 41.1779 69.7879 40.5138L70.1312 39.0408L70.424 40.1335C70.5966 40.7778 71.1167 41.0514 71.761 40.8788C72.2663 40.7434 72.5798 40.4225 72.7757 39.7133L73.6435 36.6103C73.8335 35.9297 73.4687 35.5536 72.7044 35.7584C72.2938 35.8684 72.064 36.0721 71.9442 36.5849L71.4015 38.9306L70.9124 37.1051C70.7668 36.5619 70.4367 36.366 69.9567 36.4946C69.5777 36.5962 69.3185 36.8416 69.2066 37.3591L68.717 39.6499L68.2329 37.8434C68.0772 37.2623 67.7712 37.0802 67.19 37.2359L66.0025 37.5541C65.5541 37.6743 65.3825 37.9437 65.4858 38.329C65.589 38.7143 65.8883 38.8711 66.3241 38.7543L66.8105 38.6239L67.4282 40.9295C67.6026 41.5801 68.1417 41.8486 68.7796 41.6777Z" fill="white"/>
<path d="M75.6847 34.9598C74.3898 35.3068 73.657 36.5389 74.0074 37.8464C74.3577 39.154 75.613 39.8467 76.9016 39.5014C78.1901 39.1561 78.9166 37.9257 78.5742 36.6228C78.2239 35.3152 76.9732 34.6145 75.6847 34.9598ZM76.5275 38.1054C76.0412 38.2358 75.6082 37.9591 75.4728 37.4538C75.3374 36.9485 75.5723 36.4861 76.0587 36.3558C76.5451 36.2254 76.9797 36.5084 77.1151 37.0137C77.2505 37.519 77.0202 37.9734 76.5275 38.1054Z" fill="white"/>
<path d="M80.5681 33.6513C79.2795 33.9966 78.5468 35.2287 78.8971 36.5362C79.2475 37.8438 80.4965 38.5382 81.785 38.1929C83.0736 37.8476 83.8063 36.6155 83.4577 35.3143C83.109 34.013 81.8567 33.306 80.5681 33.6513ZM81.411 36.7969C80.9183 36.9289 80.498 36.6489 80.3626 36.1436C80.2272 35.6383 80.4558 35.1776 80.9422 35.0472C81.4285 34.9169 81.8632 35.1999 81.9986 35.7052C82.134 36.2105 81.8974 36.6666 81.411 36.7969Z" fill="white"/>
</g>
<g clip-path="url(#clip1_11219_5662)">
<path d="M209.384 63.5302C209.692 61.3425 211.714 59.8183 213.902 60.1258L229.746 62.3526C231.934 62.66 233.458 64.6827 233.151 66.8703L230.924 82.7146C230.616 84.9022 228.594 86.4264 226.406 86.119L210.562 83.8922C208.374 83.5848 206.85 81.5621 207.157 79.3745L209.384 63.5302Z" fill="#FFA8CD"/>
<path d="M208.504 69.7937C209.181 64.9738 209.52 62.5638 211.228 61.2769C212.936 59.99 215.346 60.3287 220.166 61.0061L223.483 61.4723C228.303 62.1497 230.713 62.4884 232 64.1962C233.286 65.904 232.948 68.3139 232.27 73.1339L231.804 76.451C231.127 81.271 230.788 83.681 229.08 84.9679C227.372 86.2548 224.962 85.9161 220.143 85.2387L216.825 84.7725C212.005 84.0951 209.595 83.7564 208.309 82.0486C207.022 80.3408 207.36 77.9308 208.038 73.1109L208.504 69.7937Z" fill="#FFA8CD"/>
<path d="M226.886 66.3282L223.591 65.865C223.21 68.5759 221.21 70.7717 218.446 72.1525L217.357 72.7072L218.421 65.1385L214.996 64.6572L212.863 79.838L216.288 80.3193L217.345 72.794L221.953 81.1155L226.131 81.7028L221.694 73.7368C224.424 72.285 226.432 69.7144 226.886 66.3282Z" fill="#0B051D"/>
</g>
<path d="M132.5 98.1649C117.828 106.8 104.863 109.199 98.8459 103.119C94.3587 98.585 94.5391 90.1459 98.4641 80" stroke="#2C045D" stroke-linecap="round" stroke-linejoin="round"/>
<path d="M156.5 30.1778C171.172 21.7062 184.137 19.3523 190.154 25.3172C194.641 29.7657 194.461 38.0455 190.536 48" stroke="#2C045D" stroke-linecap="round" stroke-linejoin="round"/>
<defs>
<clipPath id="clip0_11219_5662">
<rect width="18.1402" height="4.70833" fill="white" transform="translate(65.3267 37.7352) rotate(-15)"/>
</clipPath>
<clipPath id="clip1_11219_5662">
<path d="M209.384 63.5302C209.692 61.3425 211.714 59.8183 213.902 60.1258L229.746 62.3526C231.934 62.66 233.458 64.6827 233.151 66.8703L230.924 82.7146C230.616 84.9022 228.594 86.4264 226.406 86.119L210.562 83.8922C208.374 83.5848 206.85 81.5621 207.157 79.3745L209.384 63.5302Z" fill="white"/>
</clipPath>
</defs>
</svg>
