<svg id="sf-svg-integration-acf" xmlns="http://www.w3.org/2000/svg" viewBox="0 0 36 36">
	<g
		transform="matrix(2.2437339,0,0,2.2437339,8.8552543,5.6211069)"
		stroke-width="1.68448"
	>
		<g
			transform="translate(2.2480971,2.67511)"
			stroke-width="1.68448"
		>
			<g
				transform="matrix(0.26458333,0,0,0.26458333,-5.3033857,-0.32737932)"
				stroke-width="1.68448"
			>
				<path
					d="M 43.9986,23.8816 H 38.0521 V 0.0253448 H 53.9034 V 5.58064 h -9.9048 v 4.25698 h 9.3354 v 5.41708 h -9.3354 v 8.6278 z"
					fill="#00e4bc"
					stroke-width="1.68448"
				/>
				<path
					opacity="0.05"
					d="m 36.4832,13.8697 h 5.894 c -0.8721,6.072 -5.9923,10.0877 -12.1958,10.0877 -6.7932,0 -12.3242,-5.0765 -12.3242,-11.9126 -0.0142,-1.5897 0.2949,-3.1658 0.9086,-4.63241 0.6137,-1.4666 1.5191,-2.79315 2.6613,-3.89905 2.3443,-2.2703 5.4911,-3.52168104 8.7543,-3.4813065 6.1461,0 11.4094,4.0467565 12.1578,10.0215665 H 36.4511 C 34.6807,3.2856 23.649,3.94741 23.649,12.0448 c 0,8.0984 11.1699,8.695 12.8342,1.8268 z"
					fill="#00e4bc"
					stroke-width="1.68448"
				/>
				<path
					d="m 35.2772,13.8697 c -1.0112,3.4161 -4.6102,5.4473 -8.1528,4.5967 -3.5446,-0.8536 -5.7656,-4.2794 -5.0298,-7.7617 0.7348,-3.48324 4.1626,-5.77815 7.7636,-5.19712 1.4752,0.1998 2.8355,0.90489 3.8492,1.99515 0.7006,0.72121 1.2263,1.59357 1.5368,2.54987 H 40.96 C 40.2116,4.06425 34.9337,0.0320875 28.8022,0.0320875 25.5386,-0.00942939 22.391,1.24129 20.0459,3.51144 18.903,4.61761 17.997,5.94473 17.3831,7.41208 c -0.6138,1.46734 -0.9228,3.04422 -0.908,4.63472 0,6.8361 5.4988,11.9106 12.3291,11.9106 6.1986,0 11.3042,-4.0156 12.1918,-10.0877 h -5.7197 z"
					fill="#00e4bc"
					stroke-width="1.68448"
				/>
				<path
					opacity="0.05"
					d="M 17.5146,20.4109 H 9.2391 L 7.88629,23.8776 H 1.55337 L 11.245,0 h 4.2239 l 10.077,23.8854 h -6.6862 l -1.347,-3.4745 z m -5.9232,-5.9105 -0.2073,0.5392 h 4.0176 L 15.2625,14.6347 13.3919,9.51446 Z"
					id="path4"
					stroke-width="1.68448"
				/>
			</g>
			<path
				d="m -1.0839166,5.0730046 h -2.1859531 l -0.3576743,0.917231 h -1.6758417 l 2.5644924,-6.31761492 h 1.1175815 L 1.0448944,5.9922994 h -1.76828974 z m -1.5635552,-1.5638198 -0.054599,0.1426633 h 1.0629794 l -0.037068,-0.1071298 -0.494665,-1.3547301 -0.4764088,1.3191966 z"
				fill="#00e4bc"
				stroke-width="1.68448"
			/>
		</g>
	</g>
</svg>