<svg id="sf-svg-integration-beaverbuilder" xmlns="http://www.w3.org/2000/svg" viewBox="0 0 36 36">
	<g>
		<g
			id="Page-1"
			stroke="none"
			stroke-width="4.96522"
			fill="none"
			fill-rule="evenodd"
			transform="matrix(0.20140048,0,0,0.20140048,0.38887907,-14.372572)"
		>
			<g id="Horizontal-Light" stroke-width="4.96522">
				<path
					d="m 166.887,217.5506 c 0,6.033 -29.68,10.924 -66.291,10.924 -36.612,0 -66.291,-4.891 -66.291,-10.924 0,-6.032 29.679,-10.923 66.291,-10.923 36.611,0 66.291,4.891 66.291,10.923"
					id="Fill-59"
					fill="#ece1da"
					stroke-width="4.96522"
				/>
				<path
					d="m 80.4832,215.8211 c 13.758,-0.349 31.205,6.687 42.45,-1.097 2.54,-1.757 1.174,-2.98 1,-2.797 -10.652,11.331 -25.133,1.892 -45.581,0.87 -0.139,-0.007 2.118,2.861 2.131,3.024"
					fill="#3e0000"
					stroke-width="4.96522"
				/>
				<path
					d="m 60.888,142.203 c -8.229,-9.244 -21.168,-8.24 -27.446,-4.645 -8.723,4.998 -24.996,23.307 -14.725,32.929 6.772,6.345 8.169,10.661 18.035,16.578 5.346,3.206 11.875,10.803 19.26,15.06 3.781,2.18 9.659,5.333 10.152,9.621 0.812,7.065 10.68,8.477 19.463,7.999 1.719,-0.093 -2.983,-3.626 -1.423,-3.836 2.619,-0.352 11.237,1.857 12.885,2.063 8.246,1.033 14.371,1.543 18.852,1.523 9.512,-0.041 12.644,-4.575 14.174,-6.147 4.945,-5.085 0.048,-7.784 -1.504,-10.488 -0.556,-0.967 0.852,-2.729 1.145,-3.491 2.416,-6.269 3.965,-8.483 7.774,-14.083 2.989,-4.395 2.239,1.45 4.816,-5.848 6.399,-18.12 1.218,-5.882 2.07,-14.717 0.305,-3.172 11.204,-6.606 2.536,-21.477 -2.838,-4.871 -7.771,-17.31 -13.16,-23.63 -5.573,-6.534 -2.881,-1.015 -7.873,-2.513 -39.297,-11.783 -17.957,4.411 -43.857,-2.38 -12.052,-3.159 -13.314,-3.964 -15.647,12.165 -1.112,7.688 -1.249,4.378 -5.527,15.317"
					fill="#aa7b55"
					stroke-width="4.96522"
				/>
				<path
					d="m 107.3705,197.7967 c 7.029,1.082 16.1,-6.362 26.362,-24.732 -3.932,48.906 -68.425,47.239 -80.978,8.567 -1.565,-4.824 1.342,-23.302 6.562,-33.931 14.539,-29.597 -0.795,-1.524 -4.135,-0.035 -2.285,1.019 -5.63,0.082 -6.233,1.451 -8.965,20.357 -13.363,31.576 -6.466,40.897 6.352,8.584 17.22,11.9 18.567,12.871 0.375,0.268 3.137,11.965 8.657,14.238 3.862,1.59 8.768,3.103 12.29,2.266 1.589,-0.378 1.73,-2.957 3.4,-3.224 3.926,-0.63 9.427,0.426 9.859,0.454 3.037,0.208 15.637,4.374 23.724,2.695 9.815,-2.038 15.163,-10.121 16.497,-11.485 1.763,-1.803 -11.56,-5.075 -9.682,-7.168 9.028,-10.06 17.332,-23.347 13.43,-30.606 -0.121,-0.225 10.866,-7.034 11.01,-15.506 0.149,-8.756 -3.669,16.58 -27.211,11.301 -7.353,-1.649 -6.955,15.135 -10.916,14.963 -26.431,-1.16 -5.582,13.405 -4.737,16.984"
					fill="#8c5d40"
					stroke-width="4.96522"
				/>
				<path
					d="m 112.5296,156.1063 c 0.056,1.796 -14.174,6.58 -17.767,9.355 -3.453,2.669 -5.713,1.596 -5.92,8.107 -0.032,1.028 3.421,11.006 4.216,12.645 3.463,7.142 6.769,11.404 15.551,10.794 2.515,-0.173 5.249,-2.151 7.255,-3.547 2.732,-1.902 10.962,-17.144 14.039,-21.385 5.811,-8.013 -2.23,-6.743 -8.935,-13.576 -0.983,-1.001 -7.015,-2.393 -8.439,-2.393"
					fill="#ffffff"
					stroke-width="4.96522"
				/>
				<path
					d="m 112.5296,156.1063 c 0.056,1.062 -11.934,7.521 -15.526,9.164 -3.453,1.579 -6.738,-2.415 -8.161,1.17 -2.485,6.261 7.95,21.648 8.744,22.617 -1.307,-4.235 -3.981,-10.358 -1.994,-13.966 2.003,-3.633 13.465,-8.861 13.412,-5.115 -0.054,3.801 -1.017,10.754 -2.208,20.568 2.515,-0.102 8.181,-18.542 9.671,-20.111 2.304,-2.427 7.073,0.228 7.617,2.277 0.544,2.047 -1.842,7.931 -7.826,17.371 2.26,-1.844 12.494,-11.6 13.979,-16.745 2.33,-8.075 -5.176,-12.369 -9.269,-14.837 -0.982,-0.591 -7.015,-2.393 -8.439,-2.393"
					fill="#ece1da"
					stroke-width="4.96522"
				/>
				<path
					d="m 68.3328,112.6385 c -2.431,0.156 0.034,-6.354 2.597,-8.651 9.752,-8.742 10.169,-6.343 19.666,-9.647 3.919,-1.362 15.297,1.026 18.912,2.86 1.355,0.687 4.084,8.029 7.833,9.73 4.71,2.137 7.966,8.31 -0.019,9.507 -8.423,1.263 -21.544,2.603 -28.602,-3.033 -4.768,-3.808 -1.941,3.68 -8.417,0.853 -0.012,-0.004 -11.949,-1.621 -11.97,-1.619"
					id="Fill-65"
					fill="#fa9339"
					stroke-width="4.96522"
				/>
				<path
					d="m 89.5365,113.2821 c -1.307,0.084 4.208,-1.79 5.584,-3.024 5.243,-4.7 5.896,-1.917 11.002,-3.694 2.106,-0.731 10.411,1.246 12.354,2.233 0.728,0.368 0.816,1.527 2.831,2.44 2.532,1.149 4.331,2.776 0.038,3.42 -4.528,0.68 -12.865,3.693 -16.659,0.663 -2.563,-2.047 -0.73,0.623 -4.526,0.46 -1.498,-0.064 -24.579,-3.056 -10.624,-2.498"
					fill="#8b4519"
					stroke-width="4.96522"
				/>
				<path
					d="m 44.2811,138.0819 c -2.163,-2.487 -22.978,29.757 -24.842,31.58 -3.985,3.896 1.899,5.9 8.75,11.586 12.009,9.968 9.772,9.011 18.39,13.036 0.043,-0.119 0.041,-0.161 -0.717,-0.908 -0.425,-0.419 2.689,-8.886 1.894,-9.659 -0.795,-0.774 -2.266,4.321 -4.108,7.419 -1.651,-1.587 -4.203,-4.017 -4.075,-4.332 2.666,-6.523 9.952,-22.654 8.85,-23.34 -1.466,-0.911 -9.271,17.494 -11.929,20.487 -0.945,1.066 -3.472,-0.378 -4.273,-1.255 -0.496,-0.542 -1.27,-1.341 -0.736,-2.501 4.236,-9.188 21.219,-38.589 19.857,-39.535 -1.253,-0.872 -16.212,26.686 -22.435,34.829 -2.161,2.827 -4.908,-1.887 -6.229,-2.797 1.876,-2.661 22.173,-33.954 21.603,-34.61"
					id="Fill-67"
					fill="#3e0000"
					stroke-width="4.96522"
				/>
				<path
					d="m 107.2747,149.0106 c 0.598,0.725 1.149,1.289 1.698,1.844 -0.58,-1.548 -0.615,-3.321 -0.086,-4.889 -1.83,0.65 -2.746,1.67 -1.612,3.045"
					fill="#3e0000"
					stroke-width="4.96522"
				/>
				<path
					d="m 131.805,135.1551 c 0.223,0 0.436,0.039 0.635,0.109 -0.679,-0.644 -1.596,-1.042 -2.606,-1.042 -2.089,0 -3.78,1.694 -3.78,3.781 0,2.089 1.691,3.781 3.78,3.781 2.088,0 3.781,-1.692 3.781,-3.781 0,-0.121 -0.007,-0.241 -0.017,-0.358 -0.251,0.749 -0.959,1.29 -1.793,1.29 -1.044,0 -1.891,-0.845 -1.891,-1.89 0,-1.044 0.847,-1.89 1.891,-1.89"
					fill="#3e0000"
					stroke-width="4.96522"
				/>
				<path
					d="m 82.3421,213.3592 c -0.505,-0.376 -1.494,-0.909 -1.677,-0.766 -0.266,0.21 1.456,2.586 0.656,4.369 -0.802,1.782 -11.145,-1.266 -11.752,-2.543 -0.649,-1.364 1.288,-5.753 0.892,-7.122 -0.397,-1.369 -3.529,-2.972 -5.433,-4.004 -15.553,-8.429 -46.402,-33.233 -44.891,-42.161 1.423,-8.407 15.119,-23.919 18.276,-24.662 3.157,-0.743 15.423,1.29 15.712,0.388 0.32,-0.998 -16.391,-7.554 -19.872,-6.537 -3.29,0.959 -24.682,22.851 -26.095,30.92 -3.332,19.042 46.897,43.536 53.529,47.424 1.962,1.148 -1.498,5.689 -0.004,8.194 1.961,3.282 25.581,5.652 26.047,3.563 0.38,-1.701 -3.164,-5.412 -5.388,-7.063"
					fill="#3e0000"
					stroke-width="4.96522"
				/>
				<path
					d="m 110.9422,195.1024 c -0.917,0.467 -2.54,0.645 -4.176,0.613 4.258,-10.67 8.707,-22.662 10.848,-37.096 3.138,3.763 7.91,8.545 11.609,10.611 -2.152,7.492 -14.073,23.729 -18.281,25.872 m -6.082,0.481 c -1.241,-0.148 -2.316,-0.412 -2.865,-0.749 -3.08,-1.895 -9.54,-14.463 -11.115,-22.967 5.566,-0.957 16.276,-7.608 21.39,-12.792 -1.099,11.735 -4.304,24.562 -7.41,36.508 m -0.773,-83.15 c -4.79,0.092 -9.595,0.388 -13.299,0.624 7.993,-6.316 27.088,-7.383 29.084,-0.451 -3.901,-0.017 -9.617,-0.29 -15.785,-0.173 m -21.063,-0.117 c -1.942,-2.196 -5.458,-7.14 -7.611,-7.189 -0.861,-0.02 -2.868,1.215 -5.188,2.962 1.053,-7.531 11.519,-11.768 21.281,-12.597 2.374,1.869 4.385,4.001 7.05,9.845 -4.538,0.215 -8.182,0.642 -9.42,1.313 -2.202,1.195 -4.456,3.405 -6.112,5.666 m 24.089,-13.901 c 1.236,1.081 3.508,4.071 5.012,6.843 -2.812,-0.085 -5.784,-0.108 -8.634,-0.068 -2.169,-4.587 -4.654,-7.511 -7.32,-9.832 4.68,0.141 8.761,1.155 10.942,3.057 m 29.037,20.897 c -0.037,-2.316 3.797,-4.601 3.477,-7.52 -0.215,-1.972 -8.507,-5.801 -10.381,-5.024 -1.468,0.609 -2.348,3.228 -3.594,4.656 0.493,-1.916 0.681,-3.811 0.088,-4.537 -0.499,-0.611 -3.748,-1.08 -8.13,-1.372 -1.605,-3.644 -5.207,-7.601 -7.624,-9.787 -2.499,-2.261 -8.888,-2.899 -16.077,-2.189 h -0.001 c -0.734,-0.551 -1.022,-0.656 -2.814,-0.423 -1.668,0.215 -1.791,0.628 -1.418,0.983 -10.527,1.74 -21.467,6.115 -23.87,12.335 -0.436,1.129 -0.74,3.197 -0.625,5.814 -3.246,2.894 -5.982,5.769 -6.013,6.667 -0.069,2.003 3.482,4.856 3.744,6.35 0.261,1.494 -6.391,11.681 -10.387,25.731 -4.913,17.269 -1.984,41.115 13.397,40.988 8.333,-0.07 6.275,-12.758 0.614,-12.509 -1.677,0.074 -0.717,10.366 -4.527,8.674 -6.755,-3.002 -7.681,-20.889 -2.791,-33.296 9.856,-25.004 13.659,-26.344 13.356,-28.132 -0.303,-1.788 -4.168,-4.888 -4.262,-6.098 -0.109,-1.403 5.517,-6.785 7.211,-6.194 1.485,0.518 3.919,6.21 6.012,6.581 1.853,0.329 37.193,-5.887 45.697,-2.043 8.504,3.844 21.068,32.084 20.121,35.014 -0.948,2.929 -8.852,7.989 -15.99,7.652 -4.982,-0.235 -11.497,-4.768 -14.282,-7.193 0.068,-0.04 0.131,-0.099 0.198,-0.144 -0.734,0.298 -1.562,0.483 -2.512,0.483 -0.892,0 -1.668,-0.173 -2.37,-0.437 -4.032,3.373 -11.162,7.932 -17.505,8.349 -8.296,0.542 -16.49,-5.013 -17.834,-7.422 -1.521,-2.727 4.112,-13.14 3.319,-13.79 -1.598,-1.311 -16.085,14.164 -14.482,19.59 1.216,4.114 10.275,8.278 17.603,10.041 1.856,6.779 10.065,23.253 12.844,25.063 2.964,1.931 11.661,2.652 15.319,1.147 4.176,-1.718 17.716,-15.421 21.824,-27.061 1.311,-0.088 2.873,-0.406 4.544,-0.893 -1.512,22.96 -23.093,38.886 -22.272,40.406 0.837,1.549 13.188,-2.184 14.672,-0.695 1.372,1.376 -4.618,7.966 -4.253,8.121 0.365,0.154 14.829,-9.439 13.739,-13.324 -0.638,-2.272 -9.574,-1.101 -10.094,-2.014 -0.495,-0.872 15.42,-12.027 19.119,-37.381 2.601,-1.621 4.616,-3.35 5.297,-4.858 2.094,-4.634 -18.079,-39.707 -18.087,-40.309"
					fill="#3e0000"
					stroke-width="4.96522"
				/>
				<path
					d="m 98.0184,135.1532 c 0.224,0 0.438,0.039 0.637,0.111 -0.679,-0.646 -1.596,-1.043 -2.606,-1.043 -2.088,0 -3.781,1.694 -3.781,3.782 0,2.087 1.693,3.78 3.781,3.78 2.088,0 3.78,-1.693 3.78,-3.78 0,-0.121 -0.006,-0.242 -0.017,-0.36 -0.207,0.621 -0.728,1.099 -1.376,1.244 -0.135,0.031 -0.274,0.046 -0.418,0.046 -1.043,0 -1.889,-0.844 -1.889,-1.889 0,-0.566 0.247,-1.074 0.64,-1.419 0.334,-0.294 0.771,-0.472 1.249,-0.472"
					fill="#3e0000"
					stroke-width="4.96522"
				/>
				<path
					d="m 129.8861,141.7244 c 2.057,0 3.734,-1.678 3.734,-3.734 0,-2.057 -1.677,-3.736 -3.734,-3.736 -2.057,0 -3.735,1.679 -3.735,3.736 0,2.056 1.678,3.734 3.735,3.734"
					fill="#3e0000"
					stroke-width="4.96522"
				/>
				<path
					d="m 129.8871,140.1727 c 1.203,0 2.182,-0.98 2.182,-2.183 0,-1.202 -0.979,-2.183 -2.182,-2.183 -1.203,0 -2.184,0.981 -2.184,2.183 0,1.203 0.981,2.183 2.184,2.183"
					fill="#000000"
					stroke-width="4.96522"
				/>
				<path
					d="m 131.8104,137.8416 c 0.607,0 1.101,-0.494 1.101,-1.101 0,-0.606 -0.494,-1.101 -1.101,-1.101 -0.606,0 -1.102,0.495 -1.102,1.101 0,0.607 0.496,1.101 1.102,1.101"
					fill="#ffffff"
					stroke-width="4.96522"
				/>
				<path
					d="m 96.1224,141.7381 c 2.057,0 3.734,-1.678 3.734,-3.734 0,-2.057 -1.677,-3.736 -3.734,-3.736 -2.057,0 -3.735,1.679 -3.735,3.736 0,2.056 1.678,3.734 3.735,3.734"
					fill="#3e0000"
					stroke-width="4.96522"
				/>
				<path
					d="m 96.1234,140.1864 c 1.203,0 2.182,-0.979 2.182,-2.183 0,-1.202 -0.979,-2.183 -2.182,-2.183 -1.203,0 -2.184,0.981 -2.184,2.183 0,1.204 0.981,2.183 2.184,2.183"
					fill="#000000"
					stroke-width="4.96522"
				/>
				<path
					d="m 98.0467,137.8553 c 0.606,0 1.101,-0.494 1.101,-1.101 0,-0.606 -0.495,-1.101 -1.101,-1.101 -0.606,0 -1.102,0.495 -1.102,1.101 0,0.607 0.496,1.101 1.102,1.101"
					fill="#ffffff"
					stroke-width="4.96522"
				/>
				<path
					d="m 112.431,154.3377 c -0.29,-0.189 1.032,-1.929 1.316,-3.194 0.377,-1.678 -1.034,-2.006 -2.032,-1.797 -1.86,0.39 -0.562,2.487 -0.151,3.275 0.338,0.648 0.104,1.049 -0.962,-0.055 -0.535,-0.554 -0.994,-1.07 -1.474,-1.555 -0.595,-0.6 -1.192,-1.203 -1.84,-1.989 -3.974,-4.819 17.183,-5.286 14.892,-0.711 -0.839,1.673 -1.89,2.878 -3.078,4.252 -1.773,2.05 0.215,-1.523 0.229,-2.332 0.018,-0.984 -0.559,-0.853 -0.951,-0.479 -0.961,0.913 0.979,4.965 -3.235,5.257 -0.99,0.069 -2.014,-0.138 -2.714,-0.672"
					fill="#000000"
					stroke-width="4.96522"
				/>
				<path
					d="m 40.7059,136.3045 c 7.688,0.511 12.995,2.159 20.622,4.786 -2.459,-2.832 -6.203,-4.333 -13.07,-7.263 -2.928,-1.25 -5.899,0.758 -7.552,2.477"
					fill="#3e0000"
					stroke-width="4.96522"
				/>
				<path
					d="m 52.39,183.7801 c -1.579,2.892 -32.341,-22.437 -34.552,-23.818 -4.726,-2.951 1.662,-8.839 7.133,-15.859 9.593,-12.306 4.278,-4.95 11.834,-10.726 0.055,0.086 11.279,9.973 10.956,10.365 -0.452,0.548 -12.43,-8.096 -13.141,-7.319 -1.239,1.35 -2.46,2.726 -2.209,2.992 4.554,4.826 17.692,13.823 16.569,15.055 -1.541,1.692 -14.354,-9.296 -18.088,-11.923 -3.22,-2.266 -4.646,3.528 -4.078,4.28 6.104,8.067 28.137,23.68 27.012,24.894 -1.037,1.119 -20.289,-13.202 -28.619,-19.656 -2.812,-2.178 -3.757,3.071 -4.855,4.243 2.404,2.198 32.454,26.71 32.038,27.472"
					fill="#3e0000"
					stroke-width="4.96522"
				/>
			</g>
		</g>
	</g>
</svg>
