<svg id="sf-svg-integration-generateblocks" xmlns="http://www.w3.org/2000/svg" viewBox="0 0 36 36">
	<path
		d="m 7.0335214,18.935021 v -7.607186 a 0.04610779,0.04610779 0 0 1 0.02994,-0.04311 l 3.8922156,-1.3850293 3.892216,-1.38503 5.797604,-2.0628743 5.797606,-2.0628743 a 0.04011976,0.04011976 0 0 0 0.02156,-0.016766 0.04431138,0.04431138 0 0 0 0.0084,-0.026347 V 0.04520043 A 0.04610779,0.04610779 0 0 0 26.453882,0.00807468 0.04550898,0.04550898 0 0 0 26.412563,0.00268546 L 18.628132,2.7721466 10.843701,5.5416078 6.9514855,6.9266378 3.0592698,8.3116677 a 0.04011976,0.04011976 0 0 0 -0.021557,0.016767 0.05808383,0.05808383 0 0 0 -0.00778,0.027545 V 31.177536 c 0,0.01557 0.00778,0.02874 0.019162,0.03713 0.011377,0.0084 0.026347,0.01078 0.041317,0.0054 L 5.046695,30.523644 7.0029825,29.827237 c 0.00898,-0.003 0.016767,-0.009 0.021557,-0.01677 0.00479,-0.0078 0.00838,-0.01677 0.00838,-0.02635 v -7.030539 l 5.988e-4,-3.818563 c -5.988e-4,0 0,0 0,0 z"
		stroke-width="1"
		fill="#006eb7"
		fill-opacity="1"
	/>
	<path
		d="m 17.370647,17.949392 7.784431,-2.769461 7.784432,-2.769461 c 0.009,-0.003 0.01677,-0.009 0.02156,-0.01677 0.0048,-0.0078 0.009,-0.01677 0.009,-0.02635 V 4.8236437 a 0.04610779,0.04610779 0 0 0 -0.01916,-0.037126 0.04550898,0.04550898 0 0 0 -0.04132,-0.00539 l -7.784451,2.7694622 -7.784432,2.7694611 -3.892215,1.385029 -3.892216,1.38503 a 0.04011976,0.04011976 0 0 0 -0.021557,0.01677 0.04431138,0.04431138 0 0 0 -0.00838,0.02635 v 22.821558 c 0,0.01557 0.00778,0.02874 0.019162,0.03713 a 0.04550898,0.04550898 0 0 0 0.041317,0.0054 l 3.877246,-1.379641 3.877246,-1.379641 3.907185,-1.390419 3.907186,-1.390419 3.892216,-1.38503 3.892214,-1.38503 c 0.009,-0.003 0.01677,-0.009 0.02156,-0.01677 0.0048,-0.0078 0.0084,-0.01497 0.0084,-0.02455 V 16.282925 a 0.04610779,0.04610779 0 0 0 -0.01916,-0.03713 0.04550898,0.04550898 0 0 0 -0.04132,-0.0054 l -3.862275,1.374251 -3.861677,1.373653 a 0.04011976,0.04011976 0 0 0 -0.02156,0.01677 0.04431138,0.04431138 0 0 0 -0.0084,0.02635 v 3.755689 a 0.04610779,0.04610779 0 0 1 -0.02994,0.04311 l -3.862276,1.374252 -3.862275,1.373054 a 0.04491018,0.04491018 0 0 1 -0.06048,-0.04252 v -7.543713 c 0,-0.0096 0.003,-0.01856 0.0084,-0.02635 a 0.04790419,0.04790419 0 0 1 0.02156,-0.01557 z"
		stroke-width="1"
		fill="#006eb7"
		fill-opacity="1"
	/>
</svg>
