<svg id="sf-svg-integration-polylang" xmlns="http://www.w3.org/2000/svg" viewBox="0 0 360.00004 360.00004" >
	<circle
		fill="#6cc179"
		fill-opacity="1"
		stroke-width="50"
		cx="180.00002"
		cy="180.00002"
		r="180.00002"
	/>
	<path
		d="M 174.67157,325.51883 C 138.45573,323.32231 102.56133,306.44659 77.970987,280.03474 72.024303,273.65946 71.970729,273.60589 67.256241,267.39134 53.059202,248.58696 43.630226,226.24671 39.612196,201.76352 38.594295,195.54896 38.433574,192.44169 38.38,180.06616 c 0,-16.39356 0.803606,-23.251 4.285899,-36.43014 4.607341,-17.62576 13.554154,-36.48371 23.465294,-49.5557 1.232195,-1.607212 3.16085,-4.125177 4.285898,-5.625242 C 74.167252,83.633442 81.506853,75.918825 87.560685,70.561452 110.81168,50.096287 139.7415,37.720756 170.65354,34.988496 c 10.33973,-0.910754 29.03696,-0.42859 31.92994,0.803606 2.2501,1.0179 4.23233,4.500193 4.23233,7.553895 0,4.285899 -2.94656,14.518481 -5.46452,19.072248 -0.58931,1.071475 -2.2501,3.535867 -3.69659,5.464521 -1.44649,1.982228 -2.62511,3.696587 -2.62511,3.910882 0,0.160721 0.53573,0.321442 1.17862,0.321442 0.75003,0 0.96433,0.214295 0.64288,0.482164 -0.26786,0.267869 -3.00013,0.803606 -6.1074,1.125048 -14.03632,1.500065 -25.44752,4.660915 -36.69801,10.125435 -31.3942,15.161366 -52.34153,43.823313 -57.323888,78.324793 -4.125177,28.82267 7.071728,60.75261 29.144108,82.93213 11.30406,11.35764 24.64392,19.71514 39.69814,24.85822 3.75016,1.28576 9.85756,2.78583 16.60785,4.0716 1.60721,0.32144 5.41095,0.69646 8.41108,0.91075 3.64301,0.26787 5.57167,0.58931 5.73239,1.0179 0.10714,0.37502 -0.2143,0.80361 -0.75004,0.96433 -0.96432,0.26787 -1.0179,1.17862 -1.07147,24.00103 0,15.26851 -0.2143,23.94746 -0.58931,24.32247 -0.69646,0.69646 -10.01829,0.80361 -19.23297,0.26787 z"
		fill="#ef4237"
		fill-opacity="1"
		stroke-width="18.0395"
	/>
	<path
		d="m 188.065,276.4453 c -3.69659,-0.37502 -8.08963,-0.91076 -9.75042,-1.17863 -12.4291,-2.30367 -23.30457,-6.42884 -34.34076,-13.07199 -30.80489,-18.53651 -49.662845,-51.80579 -49.662845,-87.86091 0,-34.93007 17.465035,-66.91359 46.930585,-85.932266 10.44688,-6.75029 24.59034,-12.429105 36.37656,-14.572054 7.17888,-1.339343 16.39357,-2.410818 17.46504,-1.982228 0.64289,0.214295 0.75003,4.821636 0.58931,31.072768 -0.0536,16.92929 0.0536,30.80489 0.26787,30.80489 0.26787,0 0.32144,7.17888 0.2143,15.9114 -0.10715,12.53625 -0.32145,16.17926 -0.91076,17.09002 -0.64288,0.91075 -0.75003,3.64301 -0.64288,13.92917 l 0.16072,12.75055 1.33934,0.32144 c 1.50007,0.37501 2.19652,2.14295 0.85718,2.14295 -0.75003,0 -0.85718,4.01803 -0.85718,40.39459 0,31.82279 -0.16072,40.44817 -0.64288,40.60889 -0.37502,0.10714 -3.69659,-0.0536 -7.39318,-0.42859 z M 165.29617,161.74394 c 10.98261,-3.48229 18.21507,-15.96497 15.00064,-25.92968 -0.53574,-1.60722 -1.07147,-3.05371 -1.28577,-3.268 -0.16072,-0.2143 -0.32144,1.8215 -0.32144,4.55376 0,4.44662 -0.16072,5.14308 -1.44649,7.01816 -2.08938,3.05371 -5.25023,4.98236 -8.78609,5.46452 -6.48242,0.80361 -11.57193,-1.0179 -14.41134,-5.14307 -1.39291,-2.03581 -1.60721,-2.78584 -1.76793,-7.23246 -0.21429,-4.33947 -0.0536,-5.35737 0.96433,-7.44675 2.35724,-4.87521 7.17888,-7.17888 13.98274,-6.58956 2.0358,0.16072 3.69659,0.21429 3.69659,0.0536 0,-0.16072 -1.60721,-1.0179 -3.58944,-1.98223 -3.268,-1.55364 -4.12518,-1.71436 -8.46465,-1.71436 -4.39305,0 -5.19665,0.16072 -8.3575,1.71436 -6.85744,3.37515 -11.6255,9.26826 -13.07199,16.01855 -2.2501,10.82189 6.21455,22.55454 18.16149,25.12608 3.53587,0.75003 5.57167,0.64288 9.69685,-0.64289 z"
		fill="#f0efef"
		fill-opacity="1"
		stroke-width="18.0395"
	/>
	<path
		d="m 239.22791,223.72875 c -1.17862,-0.58931 -5.14307,-3.75016 -8.83966,-7.01816 -13.8756,-12.32196 -14.78635,-12.8577 -27.5369,-17.35789 -7.23245,-2.51797 -8.08963,-2.94656 -8.08963,-4.01803 0,-1.76793 1.17862,-1.76793 7.98248,0 7.5539,1.98223 16.01855,5.0895 29.51913,10.87547 11.94694,5.0895 19.82228,7.82176 27.16188,9.48255 2.73226,0.64288 5.46452,1.28577 6.05383,1.44649 0.58931,0.16072 6.21455,0.42859 12.48268,0.64288 10.66117,0.32144 11.35763,0.37502 10.71475,1.2322 -0.53574,0.69646 -2.67869,1.23219 -8.19678,2.0358 -12.05409,1.82151 -24.10818,3.10728 -31.87637,3.48229 -6.64315,0.26787 -7.39318,0.2143 -9.37541,-0.8036 z"
		fill="#d2d3d4"
		fill-opacity="1"
		stroke-width="18.0395"
	/>
	<path
		d="m 290.60512,212.74613 c -0.21429,-0.58931 -1.92865,-5.03593 -3.80373,-9.91114 -1.87508,-4.87521 -4.60734,-11.89337 -6.05384,-15.58995 -2.89298,-7.50033 -5.25022,-12.42911 -7.66104,-16.01855 -2.19652,-3.21442 -4.39304,-5.83954 -3.96445,-4.66091 0.16072,0.48216 0.16072,0.91075 -0.10715,0.91075 -0.80361,0 -2.89298,-2.67869 -4.12518,-5.41095 -2.41082,-5.19665 -6.64314,-11.67907 -9.00039,-13.71487 -3.0537,-2.62511 -24.32247,-11.67907 -33.6443,-14.30419 -6.64314,-1.87508 -8.51822,-1.76793 -17.30431,1.0179 -4.39305,1.39292 -8.14321,2.78584 -8.19678,3.00013 -0.10715,0.26787 -0.69646,0.48217 -1.28577,0.48217 -0.91076,0 -1.07148,-0.26787 -0.75004,-1.60722 0.16073,-0.91075 0.0536,-1.60721 -0.21429,-1.60721 -0.37502,0 -0.48216,-11.19691 -0.42859,-31.71565 l 0.16072,-31.662071 4.55377,0.107148 c 5.46452,0.160721 14.73277,1.339343 20.67946,2.73226 30.16201,7.018159 55.12737,27.269033 69.05654,55.984543 4.98235,10.28616 7.87533,20.30445 9.3754,32.51926 0.96433,7.82176 0.42859,25.01893 -0.96433,31.76922 -1.12505,5.19665 -4.39304,16.01855 -5.41095,17.84005 -0.48216,0.85718 -0.53573,0.80361 -0.91075,-0.16072 z"
		fill="#d2d3d4"
		fill-opacity="1"
		stroke-width="18.0395"
	/>
	<path
		d="m 194.49385,235.56854 c 0,-39.21597 0.0536,-41.41249 0.96433,-41.03748 0.48216,0.2143 4.55376,1.66079 9.00038,3.21443 12.80412,4.50019 13.6613,5.03593 27.5369,17.35789 9.32183,8.25035 9.16111,8.19678 19.01867,7.55389 4.44662,-0.26787 10.8219,-0.85718 14.19704,-1.28577 6.16098,-0.8036 19.87586,-2.78583 22.60812,-3.268 l 1.44649,-0.21429 -0.91076,1.98223 c -0.48216,1.07147 -2.19652,4.17875 -3.80373,6.80386 -8.25035,13.76845 -16.87573,22.92956 -30.10844,31.87637 -17.03644,11.51835 -35.35866,17.46504 -56.62743,18.32222 l -3.32157,0.16072 z"
		fill="#424143"
		fill-opacity="1"
		stroke-width="18.0395"
	/>
	<path
		d="m 194.49385,152.36854 c 0,-8.3575 0.21429,-15.42924 0.42859,-15.75068 0.21429,-0.32144 4.01803,-1.76793 8.41108,-3.16085 7.82176,-2.46439 8.19678,-2.51796 12.85769,-2.19652 7.01816,0.42859 10.76832,1.66078 27.80477,8.78609 12.96484,5.41095 14.4649,6.48242 18.59008,13.33986 2.78583,4.60734 7.07173,13.60773 6.64314,13.98274 -0.10714,0.16072 -2.41081,-1.8215 -5.03593,-4.2859 -5.41094,-5.0895 -9.48255,-7.50032 -14.25061,-8.46465 -3.00013,-0.64288 -6.69672,-1.92865 -18.9651,-6.69671 -6.3217,-2.46439 -9.75042,-2.89298 -13.50058,-1.66079 -5.57167,1.82151 -10.01829,5.67882 -18.59008,16.01855 l -4.39305,5.25022 z"
		fill="#424143"
		fill-opacity="1"
		stroke-width="18.0395"
	/>
	<circle
		fill="#ffffff"
		fill-opacity="1"
		stroke-width="901.978"
		cx="150.30467"
		cy="144.53195"
		r="39.638191"
	/>
	<path
		d="m 153.99211,164.04761 c -12.69697,-2.89298 -20.84018,-15.21494 -18.26864,-27.75119 3.64301,-17.84005 25.44752,-24.91179 39.16239,-12.69697 8.08964,7.17887 10.28616,18.7508 5.41095,28.3405 -4.82163,9.3754 -15.9114,14.46491 -26.3047,12.10766 z m 14.41133,-16.33999 c 2.78584,-0.64288 5.46452,-2.57154 7.17888,-5.14307 1.2322,-1.82151 1.44649,-2.73226 1.44649,-5.89311 0,-3.268 -0.21429,-4.12518 -1.50006,-6.21456 -5.03593,-7.92891 -16.66143,-7.39317 -20.73303,0.91076 -1.60722,3.37514 -1.2322,8.41107 0.85718,11.46477 2.89298,4.17876 7.71461,6.00026 12.75054,4.87521 z"
		stroke-width="18.0395"
	/>
</svg>
