<svg id="sf-svg-integration-relevanssi" xmlns="http://www.w3.org/2000/svg" viewBox="0 0 9.5249999 9.5249999">
	<g>
		<g
			fill="#010201"
			transform="matrix(0.00374072,0,0,0.00374072,-0.17090276,-0.10608275)"
			stroke-width="7.07306"
		>
			<g
				stroke-width="7.07306"
			>
				<path
					d="m 554,2548 c -4,-7 -12,-93 -17,-192 -17,-319 14,-549 93,-711 61,-124 53,-118 145,-95 94,24 260,26 380,5 130,-23 346,-148 395,-228 25,-40 25,-39 -9,-58 l -28,-17 -74,72 c -130,124 -270,181 -449,180 -122,0 -204,-19 -300,-70 C 470,1319 341,1106 340,859 340,553 549,290 846,225 c 159,-36 342,-6 481,77 74,44 170,139 215,213 63,104 91,203 92,326 l 1,106 h 50 c 66,-1 110,23 136,76 12,23 27,45 33,49 6,4 167,62 358,130 l 348,123 v 156 156 l -356,-127 -355,-127 -29,63 c -34,76 -91,140 -171,191 -32,21 -59,41 -59,45 0,4 27,132 59,285 76,355 81,390 72,438 -4,25 -2,59 6,90 7,28 13,53 13,58 0,4 -169,7 -376,7 H 989 l -18,-42 c -10,-24 -40,-144 -65,-268 -26,-124 -50,-232 -53,-240 -14,-33 -22,86 -22,290 1,118 1,225 0,238 -1,22 -3,22 -135,22 -94,0 -137,-4 -142,-12 z m 561,-1183 c 88,-23 173,-73 240,-140 199,-198 208,-508 22,-712 C 1270,396 1144,340 990,340 841,340 729,386 621,493 521,592 470,714 470,855 c 0,155 43,259 155,370 133,133 315,185 490,140 z"
					stroke-width="7.07306"
				/>
				<path
					d="M 916,1086 C 862,1066 831,1041 795,991 771.6685,960 753.337,911.91209 754.34017,860.95605 755.64834,794.50706 775.83633,755.23935 793,731 c 28,-42 29,-43 43,-22 34,48 149,50 258,6 69,-28 74,-26 107,43 43,88 27,194 -40,265 -59,64 -168,92 -245,63 z"
					stroke-width="7.07306"
				/>
			</g>
		</g>
	</g>
</svg>
