<svg id="sf-svg-integration-woocommerce" xmlns="http://www.w3.org/2000/svg" viewBox="0 0 36 36">
	<path
		d="m 9.8223887,27.974986 c 2.2474633,0 4.0510593,-1.10983 5.4106263,-3.662555 l 3.024393,-5.660361 v 4.800186 c 0,2.830181 1.831318,4.52273 4.6615,4.52273 2.219741,0 3.856847,-0.971142 5.438347,-3.662555 l 6.964487,-11.764679 c 1.526056,-2.5804545 0.443947,-4.5227385 -2.913427,-4.5227385 -1.803516,0 -2.968871,0.582684 -4.023257,2.5527085 l -4.800187,9.017769 v -8.018882 c 0,-2.3862265 -1.137633,-3.5515955 -3.246409,-3.5515955 -1.664827,0 -2.996672,0.721422 -4.023338,2.7191905 l -4.522729,8.851287 v -7.935637 c 0,-2.5527155 -1.054388,-3.6348405 -3.6071116,-3.6348405 H 2.9689182 C 0.99888796,8.0250135 0,8.9406645 0,10.633221 c 0,1.692556 1.0543795,2.663698 2.9689182,2.663698 h 2.1365046 v 10.127617 c 0,2.857902 1.9145305,4.550451 4.7169659,4.55045 z"
		stroke-width="0.999999"
		fill="#873eff"
		fill-opacity="1"
	/>
</svg>