<svg id="sf-svg-integration-wpbakery" xmlns="http://www.w3.org/2000/svg" viewBox="0 0 36 36">
	<g
		transform="matrix(4.3194603,0,0,4.3194603,-2.5714298,-1.4285723)"
		stroke-width="0.875"
		fill="#8f42ec"
		fill-opacity="1"
	>
		<g
			transform="matrix(0.26458333,0,0,0.26458333,1.0583334,0.79375)"
			stroke-width="0.875"
			fill="#8f42ec"
			fill-opacity="1"
		>
			<g
				stroke-width="0.875"
				fill="#8f42ec"
				fill-opacity="1"
			>
				<g
					stroke-width="0.875"
					fill="#8f42ec"
					fill-opacity="1"
				>
					<path
						d="M 14,2 C 20.62,2 26,7.38 26,14 26,20.62 20.62,26 14,26 7.38,26 2,20.62 2,14 2,7.38 7.38,2 14,2 M 14,0 C 6.27,0 0,6.27 0,14 0,21.73 6.27,28 14,28 21.73,28 28,21.73 28,14 28,6.27 21.73,0 14,0 Z"
						stroke-width="0.875"
						fill="#8f42ec"
						fill-opacity="1"
					/>
					<path
						d="m 17.92,17.49 c 0.37,-0.44 0.65,-0.96 0.84,-1.55 0.19,-0.6 0.44,-2.64 -0.01,-3.98 C 18.55,11.37 18.27,10.85 17.9,10.42 17.53,9.99 17.08,9.66 16.54,9.42 16,9.18 15.36,9 14.65,9 H 11 v 10 h 3.65 c 0.72,0 1.36,-0.24 1.91,-0.49 0.54,-0.24 1,-0.59 1.36,-1.02 z m -0.7,-9.95 c 0.81,0.34 1.51,0.83 2.08,1.45 0.56,0.62 0.99,1.36 1.28,2.2 0.28,0.84 0.42,1.82 0.42,2.81 0,0.97 -0.13,1.83 -0.41,2.67 -0.28,0.84 -0.7,1.59 -1.26,2.21 -0.56,0.63 -1.25,1.13 -2.08,1.49 C 16.44,20.72 15.49,21 14.43,21 H 10 C 9.45,21 9,20.55 9,20 V 8 C 9,7.45 9.45,7 10,7 h 4.43 c 1.04,0 1.98,0.2 2.79,0.54 z"
						stroke-width="0.875"
						fill="#8f42ec"
						fill-opacity="1"
					/>
				</g>
			</g>
		</g>
	</g>
</svg>