<svg id="sf-svg-integration-wpml" xmlns="http://www.w3.org/2000/svg" viewBox="0 0 36 36">
	<path
		d="m 24.546186,30.513641 c 0.383157,0.825226 0.324204,2.09252 0.854703,2.740885 0.05895,0.02948 0.08843,0.05895 0.147383,0.08843 3.212475,-0.176822 3.389294,-3.831406 1.827272,-5.54077 -0.707359,-0.648407 -1.709405,-0.943133 -2.947223,-0.412633 -6.365994,2.740927 -12.466738,1.002086 -16.1507694,-2.79984 -2.004112,-1.974656 -3.359834,-4.5682 -3.684026,-7.368039 C 3.5914696,8.3505248 10.900584,2.7213387 15.910853,2.1024218 c 4.509245,-0.5305 8.694287,1.0315256 11.553081,3.949273 3.094608,3.0651024 4.745059,7.6922552 3.742973,12.9972502 -0.442069,2.416724 -1.886225,5.452337 -5.128134,5.452337 -1.326249,0 -2.593585,-0.559976 -3.507201,-1.532545 C 21.746347,22.172988 21.156893,21.082512 21.09794,19.815217 20.773778,15.011248 26.992388,13.684999 26.579796,8.8515503 26.520842,7.9968475 26.137685,7.2305751 25.548273,6.6116869 23.662049,4.8138673 19.889599,4.1360041 16.470829,4.8433397 12.226833,5.6980345 8.1596606,9.5589108 7.4523296,14.186022 c -0.589445,3.742974 0.736803,8.016446 3.5366434,10.904716 2.475678,2.446201 6.041832,3.801926 10.462647,2.770405 1.414679,-0.324204 2.505155,-1.650452 4.833449,-1.296772 0.825226,0.117866 1.503069,0.501022 1.974614,1.031522 1.856749,1.73884 1.562063,5.393384 -0.854661,6.21861 -1.267337,0.44211 -3.536677,0.08843 -4.538723,-1.002046 l -0.02948,-0.02948 c -0.117907,-0.05895 -0.235773,-0.176813 -0.353681,-0.29472 -0.383115,-0.324203 -0.648364,-0.943091 -0.589453,-1.650451 0.05895,-1.002046 0.707361,-1.768318 1.41468,-1.709365 0.294724,0.02948 0.559977,0.176822 0.736795,0.412592 0.235771,0.235771 0.412634,0.559977 0.501023,0.972611 z"
		fill="#524f54"
		stroke-width="0.999999"
	/>
</svg>
