<?xml version="1.0" encoding="utf-8"?><svg xmlns="http://www.w3.org/2000/svg" viewBox="0 0 20 20"><title>icon--packaging</title><path d="M19.92,9.89l-2.2-2.56,2.2-2.56a.31.31,0,0,0-.09-.48l-7.12-4a.31.31,0,0,0-.37.05L10.19,2.52,8,.38a.31.31,0,0,0-.38,0L.16,4.68a.31.31,0,0,0,0,.51L2.66,7.37.46,10.3a.31.31,0,0,0,.1.46L2.75,12a.31.31,0,0,0,0,.09V15a1.08,1.08,0,0,0,.54.93l6.36,3.67a1.11,1.11,0,0,0,.55.15h0a1.11,1.11,0,0,0,.54-.15l6.34-3.66a1.12,1.12,0,0,0,.56-1V11.72l2.22-1.36a.31.31,0,0,0,.07-.47Zm-10,.85L3.7,7.31,9.87,3.54Zm.62-7.22,6.19,3.79L10.5,10.75ZM12.62,1,19.2,4.64,17.25,6.92l-6.56-4ZM7.77,1,9.7,2.92l-6.58,4L.85,5ZM3.17,7.73l6.55,3.64L7.74,14,1.17,10.39Zm.41,7.62A.45.45,0,0,1,3.35,15V12.31l4.32,2.4a.31.31,0,0,0,.4-.09l1.8-2.42V19ZM17,14.94a.49.49,0,0,1-.24.42L10.5,19V12.2l1.82,2.43a.31.31,0,0,0,.41.08L17,12.1ZM12.65,14l-2-2.65,6.58-3.66,2,2.3Z" fill="#010101"/></svg>