<svg viewBox="0 0 20 20" xmlns="http://www.w3.org/2000/svg"><path d="m19.92 9.89-2.2-2.56 2.2-2.56a.31.31 0 0 0 -.09-.48l-7.12-4a.31.31 0 0 0 -.37.05l-2.15 2.18-2.19-2.14a.31.31 0 0 0 -.38 0l-7.46 4.3a.31.31 0 0 0 0 .51l2.5 2.18-2.2 2.93a.31.31 0 0 0 .1.46l2.19 1.24a.31.31 0 0 0 0 .09v2.91a1.08 1.08 0 0 0 .54.93l6.36 3.67a1.11 1.11 0 0 0 .55.15 1.11 1.11 0 0 0 .54-.15l6.34-3.66a1.12 1.12 0 0 0 .56-1v-3.22l2.22-1.36a.31.31 0 0 0 .07-.47zm-10 .85-6.22-3.43 6.17-3.77zm.62-7.22 6.19 3.79-6.23 3.44zm2.08-2.52 6.58 3.64-1.95 2.28-6.56-4zm-4.85 0 1.93 1.92-6.58 4-2.27-1.92zm-4.6 6.73 6.55 3.64-1.98 2.63-6.57-3.61zm.41 7.62a.45.45 0 0 1 -.23-.35v-2.69l4.32 2.4a.31.31 0 0 0 .4-.09l1.8-2.42v6.8zm13.42-.41a.49.49 0 0 1 -.24.42l-6.26 3.64v-6.8l1.82 2.43a.31.31 0 0 0 .41.08l4.27-2.61zm-4.35-.94-2-2.65 6.58-3.66 2 2.3z" fill="#010101"/></svg>