<svg viewBox="0 0 20 20" xmlns="http://www.w3.org/2000/svg"><g fill="#010101"><path d="m18.23 1.66h-16.46a1.13 1.13 0 0 0 -1.13 1.13v11.37a1.13 1.13 0 0 0 1.13 1.13h5.64v.82a1.37 1.37 0 0 1 -1.41 1.37h-1.2a.43.43 0 0 0 0 .86h10.4a.43.43 0 0 0 0-.86h-1.2a1.37 1.37 0 0 1 -1.37-1.37v-.82h5.64a1.13 1.13 0 0 0 1.13-1.13v-11.37a1.13 1.13 0 0 0 -1.17-1.13zm-10.43 15.82a2.22 2.22 0 0 0 .47-1.37v-.82h3.45v.82a2.22 2.22 0 0 0 .47 1.37zm10.7-3.32a.27.27 0 0 1 -.27.27h-16.46a.27.27 0 0 1 -.27-.27v-2.27h17zm0-3.13h-17v-8.24a.27.27 0 0 1 .27-.27h16.46a.27.27 0 0 1 .27.27z"/><circle cx="10" cy="13.16" r=".47"/><path d="m10.74 4.63a.43.43 0 0 0 -.61 0l-3.05 3.05a.43.43 0 1 0 .61.61l3.05-3.05a.43.43 0 0 0 0-.61z"/><path d="m11.94 6.4-1.22 1.22a.43.43 0 1 0 .61.61l1.22-1.23a.43.43 0 0 0 -.61-.61z"/></g></svg>