<svg viewBox="0 0 20 20" xmlns="http://www.w3.org/2000/svg"><g fill="#010101"><path d="m13.62 12.69h-7.53a.33.33 0 0 0 0 .66h7.53a.33.33 0 0 0 0-.66z"/><path d="m5.76 6.44a.33.33 0 0 0 .33.33h7.53a.33.33 0 0 0 0-.66h-7.53a.33.33 0 0 0 -.33.33z"/><path d="m13.36 1.39h-8.67a1.06 1.06 0 0 0 -1.05 1.06v15.1a1.06 1.06 0 0 0 1.06 1.06h10.61a1.06 1.06 0 0 0 1.06-1.06v-12.89zm.25 1.61 1.31 1.4h-1.31zm1.87 14.58a.17.17 0 0 1 -.17.17h-10.62a.17.17 0 0 1 -.17-.17v-15.13a.17.17 0 0 1 .17-.17h8v2.57a.44.44 0 0 0 .44.44h2.31z"/><path d="m13.62 8.34h-7.53a.33.33 0 0 0 0 .66h7.53a.33.33 0 0 0 0-.66z"/><path d="m13.62 10.5h-7.53a.33.33 0 0 0 0 .66h7.53a.33.33 0 0 0 0-.66z"/></g></svg>