<?xml version="1.0" standalone="no"?><svg xmlns="http://www.w3.org/2000/svg" viewBox="0 0 317.37 15.31"><path d="M0,7.65C0,3.13,3.24.13,8.19.13A11.26,11.26,0,0,1,12.46,1c.17,0,.28-.2.36-.69h1.12V5H12.56C12,2.66,10.57,1.5,8.43,1.5c-3,0-4.79,2.34-4.79,6.15,0,4.08,1.66,6.28,4.72,6.28,2.6,0,4.05-1.22,4.61-4h1.37L14.19,14a13.32,13.32,0,0,1-5.91,1.33C3.11,15.31,0,12.46,0,7.65ZM35.31,12c.66,1.59,1,2.06,1.8,2.1V15H30.65v-.95c1.16-.06,1.68-.32,1.68-.94a2.73,2.73,0,0,0-.26-1l-.6-1.48h-5.6l-.64,1.61a2.74,2.74,0,0,0-.26,1c0,.6.52.77,1.72.83V15H21.84v-.95c.92-.06,1.16-.36,1.8-1.86L28,2,27.25.24h3.23Zm-8.88-2.7h4.48L28.68,3.75ZM60.21,1.37c-1.78.09-2,.28-2,1.8v9.09c0,1.53.19,1.72,2,1.8V15h-7v-.95c1.78-.08,2-.27,2-1.8v-4H49.24v4c0,1.53.19,1.72,2,1.8V15h-7v-.95c1.78-.08,2-.27,2-1.8V3.17c0-1.52-.19-1.71-2-1.8V.43h7v.94c-1.78.09-2,.28-2,1.8V6.84h5.91V3.17c0-1.52-.19-1.71-2-1.8V.43h7ZM67.5,15v-.95c1.78-.08,2-.27,2-1.8V3.17c0-1.52-.19-1.71-2-1.8V.43h7v.94c-1.78.09-2,.28-2,1.8v9.09c0,1.53.19,1.72,2,1.8V15Zm14.32,0v-.95c1.78-.08,2-.27,2-1.8V3.17c0-1.52-.19-1.71-2-1.8V.43h7.33v.94c-2.06.09-2.27.28-2.27,1.8v8.66c0,1.38.49,1.91,1.75,1.91H90c1.87,0,2.9-.83,3.61-3.84h1.37L94.38,15Zm20.3,0v-.95c1.77-.08,2-.27,2-1.8V3.17c0-1.52-.2-1.71-2-1.8V.43h7.33v.94c-2.06.09-2.28.28-2.28,1.8v8.66c0,1.38.5,1.91,1.76,1.91h1.33c1.87,0,2.9-.83,3.6-3.84h1.38L114.68,15ZM124.94.32l-.36,5.15h-1.16L123.08.32Zm10,14.11c-.19,0-.32.23-.45.68h-1.11V9.9h1.37c.34,2.66,1.63,4,3.63,4,1.45,0,2.31-.62,2.31-1.77s-.64-1.83-2.34-2.68l-1.48-.75c-2.29-1.16-3.43-2.43-3.43-4.7,0-2.51,1.81-3.9,4.78-3.9a7,7,0,0,1,3.31.88c.17,0,.3-.28.4-.69h1.12V5h-1.37c-.3-2.35-1.46-3.47-3.26-3.47-1.5,0-2.34.6-2.34,1.76s.6,1.65,2.21,2.46l1.54.78c2.13,1.07,3.45,2.23,3.45,4.56,0,2.75-1.88,4.25-4.88,4.25A7,7,0,0,1,135,14.43Zm27.1-6.78c0-4.52,3.24-7.52,8.19-7.52a11.11,11.11,0,0,1,4.26.88c.18,0,.28-.2.37-.69H176V5h-1.37c-.56-2.31-2-3.47-4.14-3.47-3,0-4.78,2.34-4.78,6.15,0,4.08,1.65,6.28,4.72,6.28,2.59,0,4-1.22,4.61-4h1.37L176.26,14a13.33,13.33,0,0,1-5.92,1.33C165.18,15.31,162.07,12.46,162.07,7.65Zm35.67,5.21a3,3,0,0,0,1.43,1.2V15h-3.88l-4.8-7.08h-1.31v4.31c0,1.44.35,1.74,2,1.82V15h-7v-.95c1.78-.08,2-.27,2-1.8V3.17c0-1.52-.2-1.71-2-1.8V.43h8c3.22,0,4.76,1.2,4.76,3.49,0,1.8-1.11,3.11-3.15,3.69ZM189.18,1.54V6.82h1.25c2.14,0,3.3-1,3.3-2.79s-.66-2.49-2.62-2.49Zm30.25,9.12-.3,4.35H206.25v-.95c1.77-.08,2-.27,2-1.8V3.17c0-1.52-.2-1.71-2-1.8V.43h12.67l.19,3.69h-1.37c-.54-2.08-1.18-2.45-3.26-2.45H211.3V7h2.38c1.81,0,2.11-.2,2.28-2h1.2v5.19H216c-.17-1.78-.47-2-2.28-2H211.3v3.94c0,1.35.33,1.63,1.85,1.63h1.69c1.89,0,2.6-.58,3.22-3.1Zm21,1.3c.67,1.59,1,2.06,1.8,2.1V15h-6.45v-.95c1.16-.06,1.67-.32,1.67-.94a2.68,2.68,0,0,0-.25-1l-.6-1.48H231l-.64,1.61a2.74,2.74,0,0,0-.26,1c0,.6.52.77,1.72.83V15h-4.85v-.95c.92-.06,1.16-.36,1.8-1.86L233,2,232.33.24h3.24Zm-8.87-2.7H236l-2.23-5.51ZM261.19,0l.17,4.33H260c-.45-2.49-.67-2.7-2.71-2.7H256.1V12.24c0,1.52.26,1.72,2.43,1.82V15h-7.94v-.95c2.17-.1,2.43-.3,2.43-1.82V1.63h-1.18c-2,0-2.25.24-2.7,2.7h-1.38L247.94,0h1.13c.13.36.28.43,1,.43h9c.69,0,.84-.07,1-.43Zm7.35,15v-.95c1.77-.08,2-.27,2-1.8V3.17c0-1.52-.2-1.71-2-1.8V.43h7v.94c-1.78.09-2,.28-2,1.8v9.09c0,1.53.2,1.72,2,1.8V15ZM292.44.43h4.67v.94c-.6.11-.92.37-1.63,2.23L291.06,15h-1.93L284.4,3.73c-.82-1.95-1-2.23-1.76-2.36V.43h6.56v.94c-1.5.09-1.82.34-1.82.88A4.87,4.87,0,0,0,287.89,4l3,7.52L293.77,4a4.39,4.39,0,0,0,.4-1.61c0-.62-.4-.9-1.73-1Zm24.93,10.23-.3,4.35H304.18v-.95c1.78-.08,2-.27,2-1.8V3.17c0-1.52-.19-1.71-2-1.8V.43h12.67L317,4.12h-1.37c-.53-2.08-1.18-2.45-3.26-2.45h-3.17V7h2.38c1.8,0,2.1-.2,2.27-2h1.2v5.19h-1.2c-.17-1.78-.47-2-2.27-2h-2.38v3.94c0,1.35.32,1.63,1.84,1.63h1.7c1.89,0,2.59-.58,3.21-3.1Z"/></svg>