<svg xmlns="http://www.w3.org/2000/svg" viewBox="0 0 20 20"><title>icon--intermediate--solid</title><path d="M10,0A10,10,0,1,0,20,10,10,10,0,0,0,10,0ZM6.37,11.65a.33.33,0,0,1-.11.25A.37.37,0,0,1,6,12a.35.35,0,0,1-.28-.11.34.34,0,0,1-.1-.25V8.25A.34.34,0,0,1,5.73,8,.37.37,0,0,1,6,7.9a.35.35,0,0,1,.27.1.34.34,0,0,1,.1.26Zm4.32,0s0,0,0,0a.35.35,0,0,1-.36.34h-.16a.23.23,0,0,1-.11-.1L7.91,9.17v2.51a.32.32,0,0,1-.09.23.31.31,0,0,1-.24.09.3.3,0,0,1-.23-.09.33.33,0,0,1-.09-.23V8.27s0,0,0,0a.35.35,0,0,1,.36-.34.45.45,0,0,1,.17,0A.28.28,0,0,1,7.92,8L10,10.75V8.23A.32.32,0,0,1,10.14,8a.31.31,0,0,1,.23-.09A.3.3,0,0,1,10.6,8a.33.33,0,0,1,.09.23Zm3.88-3.16a.37.37,0,0,1-.26.09h-.92v3.08a.33.33,0,0,1-.11.25A.39.39,0,0,1,13,12a.37.37,0,0,1-.31-.11.34.34,0,0,1-.11-.25V8.57h-.92a.36.36,0,0,1-.26-.08.32.32,0,0,1-.1-.25A.31.31,0,0,1,11.4,8a.36.36,0,0,1,.31-.1h2.6a.36.36,0,0,1,.26.09.32.32,0,0,1,.1.25A.31.31,0,0,1,14.57,8.48Z" fill="#393939"/></svg>