<svg xmlns="http://www.w3.org/2000/svg" viewBox="0 0 20 20"><title>icon__advanced</title><path d="M10,20A10,10,0,1,0,0,10,10,10,0,0,0,10,20ZM10,.87A9.13,9.13,0,1,1,.87,10,9.14,9.14,0,0,1,10,.87Z" fill="#393939"/><path d="M4.45,12A.31.31,0,0,0,4.63,12a.36.36,0,0,0,.13-.17l.3-.71H6.81l.3.71a.41.41,0,0,0,.13.18.31.31,0,0,0,.19.06.32.32,0,0,0,.23-.1.33.33,0,0,0,.1-.25.4.4,0,0,0,0-.14L6.3,8.11a.35.35,0,0,0-.13-.17A.34.34,0,0,0,6,7.88a.31.31,0,0,0-.21.05.39.39,0,0,0-.14.18l-1.46,3.5a.38.38,0,0,0,0,.11.28.28,0,0,0,.31.3ZM5.93,9l.59,1.37H5.35Z" fill="#393939"/><path d="M8.62,12H10a1.63,1.63,0,0,0,.95-.27,1.73,1.73,0,0,0,.6-.74,2.7,2.7,0,0,0,0-2.08,1.73,1.73,0,0,0-.6-.74A1.63,1.63,0,0,0,10,7.9H8.62a.35.35,0,0,0-.36.36v3.39a.35.35,0,0,0,.36.36ZM9,8.57h1a.89.89,0,0,1,.79.39A1.71,1.71,0,0,1,11,10a1.72,1.72,0,0,1-.26,1,.89.89,0,0,1-.79.39H9Z" fill="#393939"/><path d="M13.6,11.78a.36.36,0,0,0,.13.16.34.34,0,0,0,.38,0,.39.39,0,0,0,.15-.17l1.45-3.39a.4.4,0,0,0,0-.16A.31.31,0,0,0,15.63,8a.36.36,0,0,0-.25-.1.33.33,0,0,0-.19.06.37.37,0,0,0-.13.16L14,10.88,12.8,8.11a.37.37,0,0,0-.14-.17.33.33,0,0,0-.19-.06.38.38,0,0,0-.24.1.32.32,0,0,0-.12.25.32.32,0,0,0,0,.15Z" fill="#393939"/></svg>