<svg xmlns="http://www.w3.org/2000/svg" fill="none" viewBox="0 0 39 28"><g clip-path="url(#a)"><path fill="red" d="M38.185 4.263A4.88 4.88 0 0 0 34.737.815C31.697 0 19.5 0 19.5 0S7.304 0 4.263.815A4.88 4.88 0 0 0 .815 4.263C0 7.303 0 13.651 0 13.651s0 6.347.815 9.387a4.88 4.88 0 0 0 3.448 3.448c3.04.815 15.237.815 15.237.815s12.197 0 15.237-.815a4.88 4.88 0 0 0 3.448-3.448c.815-3.04.815-9.387.815-9.387s-.003-6.347-.815-9.388"/><path fill="#fff" d="m15.596 19.5 10.132-5.849-10.132-5.85z"/></g><defs><clipPath id="a"><path fill="#fff" d="M0 0h39v27.301H0z"/></clipPath></defs></svg>