<svg id="sf-svg-checkbox-mixed" xmlns="http://www.w3.org/2000/svg" viewBox="0 0 24 24">
<path d="M0 0h24v24H0z" fill="none"/><path d="M19 5v14H5V5h14m0-2H5c-1.1 0-2 .9-2 2v14c0 1.1.9 2 2 2h14c1.1 0 2-.9 2-2V5c0-1.1-.9-2-2-2z"/><path d="M 8.5,16.5 C 8.225,16.5 7.9895833,16.402083 7.79375,16.20625 7.5979166,16.010416 7.5,15.775 7.5,15.5 v -7 C 7.5,8.225 7.5979166,7.9895833 7.79375,7.79375 7.9895833,7.5979166 8.225,7.5 8.5,7.5 h 7 c 0.275,0 0.510416,0.097917 0.70625,0.29375 C 16.402083,7.9895833 16.5,8.225 16.5,8.5 v 7 c 0,0.275 -0.09792,0.510416 -0.29375,0.70625 C 16.010416,16.402083 15.775,16.5 15.5,16.5 Z"/>
</svg>