<svg width="24" height="21" viewBox="0 0 24 21" fill="none" xmlns="http://www.w3.org/2000/svg">
<path d="M6.51562 3L6.98438 1.54688C7.3125 0.609375 8.15625 0 9.14062 0H14.8594C15.8438 0 16.6875 0.609375 17.0156 1.54688L17.4844 3H21C22.6406 3 24 4.35938 24 6V18C24 19.6406 22.6406 21 21 21H3C1.35938 21 0 19.6406 0 18V6C0 4.35938 1.35938 3 3 3H6.51562ZM4.5 12.8438C4.5 13.0312 4.54688 13.2188 4.6875 13.3594L6.9375 15.8906C7.21875 16.2188 7.78125 16.2188 8.0625 15.8906L10.3125 13.3594C10.4531 13.2188 10.5 13.0312 10.5 12.8438V12.75C10.5 12.3281 10.1719 12 9.75 12H8.625C8.625 10.125 10.125 8.625 12 8.625C12.1875 8.625 12.4219 8.625 12.6094 8.67188L14.25 6.84375C13.5469 6.5625 12.7969 6.375 12 6.375C8.90625 6.375 6.375 8.90625 6.375 12H5.25C4.82812 12 4.5 12.3281 4.5 12.75V12.8438ZM13.6875 10.6406C13.5469 10.7812 13.5 10.9688 13.5 11.1562V11.25C13.5 11.6719 13.8281 12 14.25 12H15.375C15.375 13.875 13.875 15.375 12 15.375C11.8125 15.375 11.5781 15.375 11.3906 15.3281L9.75 17.1562C10.4531 17.4375 11.2031 17.625 12 17.625C15.0938 17.625 17.625 15.0938 17.625 12H18.75C19.1719 12 19.5 11.6719 19.5 11.25V11.1562C19.5 10.9688 19.4531 10.7812 19.3125 10.6406L17.0625 8.10938C16.7812 7.78125 16.2188 7.78125 15.9375 8.10938L13.6875 10.6406Z" fill="#BBBBBB"/>
</svg>
