<svg width="24" height="22" viewBox="0 0 24 22" fill="none" xmlns="http://www.w3.org/2000/svg">
<path d="M6.98438 2.04688C7.3125 1.10938 8.15625 0.5 9.14062 0.5H14.8594C15.8438 0.5 16.6875 1.10938 17.0156 2.04688L17.4844 3.5H21C22.6406 3.5 24 4.85938 24 6.5V18.5C24 20.1406 22.6406 21.5 21 21.5H3C1.35938 21.5 0 20.1406 0 18.5V6.5C0 4.85938 1.35938 3.5 3 3.5H6.51562L6.98438 2.04688ZM12 8C9.51562 8 7.5 10.0156 7.5 12.5C7.5 14.9844 9.51562 17 12 17C14.4844 17 16.5 14.9844 16.5 12.5C16.5 10.0156 14.4844 8 12 8Z" fill="#BBBBBB"/>
</svg>
