<svg width="25" height="25" viewBox="0 0 25 25" fill="none" xmlns="http://www.w3.org/2000/svg">
<path d="M21 6.10938V19H22.5C23.3438 19 24 19.6562 24 20.5C24 21.3438 23.3438 22 22.5 22H21V23.5C21 24.3438 20.3438 25 19.5 25C18.6562 25 18 24.3438 18 23.5V9.10938L8.10938 19H15.75V22H6C4.35938 22 3 20.6406 3 19V7H1.5C0.65625 7 0 6.34375 0 5.5C0 4.65625 0.65625 4 1.5 4H3V2.5C3 1.65625 3.65625 1 4.5 1C5.34375 1 6 1.65625 6 2.5V16.8906L15.8906 7H8.25V4H18.8906L21.4219 1.42188C22.0312 0.859375 22.9688 0.859375 23.5781 1.42188C24.1406 2.03125 24.1406 2.96875 23.5781 3.57812L21 6.10938Z" fill="#BBBBBB"/>
</svg>
