<svg width="21" height="25" viewBox="0 0 21 25" fill="none" xmlns="http://www.w3.org/2000/svg">
<path d="M6.42188 1.28125C6.60938 0.671875 7.17188 0.25 7.82812 0.25H13.1719C13.8281 0.25 14.3906 0.671875 14.5781 1.28125L15 2.5H19.5C20.3438 2.5 21 3.15625 21 4C21 4.84375 20.3438 5.5 19.5 5.5H1.5C0.65625 5.5 0 4.84375 0 4C0 3.15625 0.65625 2.5 1.5 2.5H6L6.42188 1.28125ZM19.5 7.75L18.5156 22.8906C18.4219 24.0625 17.4375 25 16.2656 25H4.73438C3.5625 25 2.57812 24.0625 2.48438 22.8906L1.5 7.75H19.5Z" fill="#BBBBBB"/>
</svg>
