<svg width="18" height="14" fill="none" xmlns="http://www.w3.org/2000/svg"><path d="M4.522 3.094A1.14 1.14 0 0 1 3.38 4.237a1.14 1.14 0 0 1-1.142-1.143A1.14 1.14 0 0 1 3.379 1.95a1.14 1.14 0 0 1 1.143 1.143Zm9.527 5.143c0-.304-.125-.599-.33-.813L7.335 1.05C6.879.594 6.013.237 5.379.237H1.665A1.15 1.15 0 0 0 .522 1.379v3.715c0 .634.357 1.5.813 1.946l6.384 6.393a1.15 1.15 0 0 0 1.616 0l4.384-4.393c.205-.205.33-.5.33-.803Zm3.429 0c0-.304-.125-.599-.33-.813L10.762 1.05C10.308.594 9.442.237 8.808.237h-2c.634 0 1.5.357 1.955.812l6.384 6.375c.206.214.33.509.33.813 0 .303-.124.598-.33.803l-4.196 4.197c.303.312.536.526 1 .526.303 0 .598-.125.812-.33l4.384-4.393c.206-.205.33-.5.33-.803Z" fill="#50575e"/></svg>