<svg xmlns="http://www.w3.org/2000/svg" viewBox="0 0 20 18.6"><title>Like</title><path d="M20,5.54C19.67,2.33,17.4,0,14.55,0A5.38,5.38,0,0,0,9.94,2.66,5.18,5.18,0,0,0,5.45,0C2.6,0,.32,2.33,0,5.54A5.76,5.76,0,0,0,.2,7.65,9,9,0,0,0,3,12.27l7,6.32L17,12.27A9,9,0,0,0,19.8,7.65,5.71,5.71,0,0,0,20,5.54ZM19,7.48a8.27,8.27,0,0,1-2.54,4.22L9.94,17.56,3.49,11.7A8.28,8.28,0,0,1,1,7.48,5,5,0,0,1,.79,5.67v0C1,2.81,3,.77,5.45.77A4.51,4.51,0,0,1,9.59,3.66l.35.84.35-.84A4.65,4.65,0,0,1,14.55.77c2.44,0,4.4,2,4.65,4.89A5,5,0,0,1,19,7.48Z" fill="#393939"/><path d="M6.15,2.34A3.85,3.85,0,0,0,2.31,6.19a.38.38,0,0,0,.77,0A3.08,3.08,0,0,1,6.15,3.11a.38.38,0,1,0,0-.77Z" fill="#393939"/></svg>
