<svg xmlns="http://www.w3.org/2000/svg" viewBox="0 0 20 20"><title>icon__beginner--solid</title><path d="M6.86,9.39A.4.4,0,0,0,7,9.07a.49.49,0,0,0-.12-.36.46.46,0,0,0-.34-.12h-1v.91h1A.45.45,0,0,0,6.86,9.39Z" fill="#393939"/><path d="M6.58,10.2h-1v1.13H6.62a.6.6,0,0,0,.43-.15.56.56,0,0,0,.16-.43A.48.48,0,0,0,7,10.3.87.87,0,0,0,6.58,10.2Z" fill="#393939"/><path d="M10,0A10,10,0,1,0,20,10,10,10,0,0,0,10,0ZM7.57,11.73a1.63,1.63,0,0,1-.95.28H5.16a.35.35,0,0,1-.36-.36V8.26a.35.35,0,0,1,.36-.36H6.64q1.11,0,1.11,1a.84.84,0,0,1-.49.78,1.18,1.18,0,0,1,.51.38,1,1,0,0,1,.2.65A1.1,1.1,0,0,1,7.57,11.73ZM10.7,9.57a.36.36,0,0,1,.25.1.33.33,0,0,1,.1.25.31.31,0,0,1-.1.24.37.37,0,0,1-.26.09H9.38v1.08H11a.35.35,0,0,1,.25.1.33.33,0,0,1,.1.24.31.31,0,0,1-.1.24A.36.36,0,0,1,11,12H9a.35.35,0,0,1-.36-.36V8.26A.35.35,0,0,1,9,7.9h2a.36.36,0,0,1,.25.1.33.33,0,0,1,.1.25.31.31,0,0,1-.1.24.37.37,0,0,1-.26.09H9.38v1Zm4.67,1.82a.35.35,0,0,1-.18.32,2.34,2.34,0,0,1-1.26.36A2.15,2.15,0,0,1,12.08,11a2.09,2.09,0,0,1,0-2.11,2.15,2.15,0,0,1,1.85-1.05,2.06,2.06,0,0,1,1,.23.32.32,0,0,1,.18.29.37.37,0,0,1-.1.25.31.31,0,0,1-.24.11.48.48,0,0,1-.19,0,1.66,1.66,0,0,0-.66-.13,1.32,1.32,0,0,0-.69.19,1.42,1.42,0,0,0,0,2.43,1.32,1.32,0,0,0,.69.19l.35,0,.33-.08v-.76h-.55a.35.35,0,0,1-.25-.1.36.36,0,0,1,0-.5.35.35,0,0,1,.25-.1h1a.34.34,0,0,1,.25.1.35.35,0,0,1,.1.25Z" fill="#393939"/></svg>
