<svg xmlns="http://www.w3.org/2000/svg" viewBox="0 0 20 20"><title>icon__advanced--solid</title><path d="M10,8.57H9v2.82h1a.89.89,0,0,0,.79-.39A1.72,1.72,0,0,0,11,10a1.71,1.71,0,0,0-.21-1A.89.89,0,0,0,10,8.57Z" fill="#393939"/><polygon points="5.35 10.37 6.52 10.37 5.93 9 5.35 10.37" fill="#393939"/><path d="M10,0A10,10,0,1,0,20,10,10,10,0,0,0,10,0ZM7.76,11.72a.33.33,0,0,1-.1.25.32.32,0,0,1-.23.1A.31.31,0,0,1,7.24,12a.41.41,0,0,1-.13-.18l-.3-.71H5.06l-.3.71a.36.36,0,0,1-.13.17.31.31,0,0,1-.18,0l0,0H4.45a.28.28,0,0,1-.26-.3.38.38,0,0,1,0-.11l1.46-3.5a.39.39,0,0,1,.14-.18.31.31,0,0,1,.21,0,.34.34,0,0,1,.17.06.35.35,0,0,1,.13.17l1.46,3.47A.4.4,0,0,1,7.76,11.72ZM11.55,11a1.73,1.73,0,0,1-.6.74A1.63,1.63,0,0,1,10,12H8.6a.35.35,0,0,1-.34-.36V8.26s0,0,0,0a.35.35,0,0,1,.36-.34H10a1.63,1.63,0,0,1,1,.27,1.73,1.73,0,0,1,.6.74A2.7,2.7,0,0,1,11.55,11Zm4.16-2.61-1.45,3.39a.39.39,0,0,1-.15.17.34.34,0,0,1-.38,0,.36.36,0,0,1-.13-.16l-1.49-3.4a.48.48,0,0,1,.12-.4.38.38,0,0,1,.24-.1.33.33,0,0,1,.19.06.37.37,0,0,1,.14.17L14,10.88l1.06-2.76A.37.37,0,0,1,15.19,8a.33.33,0,0,1,.19-.06.36.36,0,0,1,.25.1.31.31,0,0,1,.08.22A.4.4,0,0,1,15.71,8.38Z" fill="#393939"/><path d="M5.35,10.37,5.93,9l.59,1.37Z" fill="#393939"/><path d="M10.74,11a.89.89,0,0,1-.79.39H9V8.57h1a.89.89,0,0,1,.79.39A1.71,1.71,0,0,1,11,10,1.72,1.72,0,0,1,10.74,11Z" fill="#393939"/></svg>