<svg xmlns="http://www.w3.org/2000/svg" viewBox="0 0 20 18.19"><title>icon--filter</title><path d="M13.48,4.35h.65a.43.43,0,0,0,0-.87h-.65a.43.43,0,1,0,0,.87Z" fill="#010101"/><path d="M19.91.48A.87.87,0,0,0,19.13,0H.87A.91.91,0,0,0,.09.48a.87.87,0,0,0,.09.91L7.85,11v6.28a.85.85,0,0,0,.46.76.9.9,0,0,0,.41.11.85.85,0,0,0,.5-.15l2.41-1.67a1.33,1.33,0,0,0,.54-1.06V11l7.65-9.63A.87.87,0,0,0,19.91.48ZM11.39,10.6a.47.47,0,0,0-.09.26v4.41a.46.46,0,0,1-.17.37L8.72,17.32V10.86a.39.39,0,0,0-.17-.35L3.63,4.35h7.89a.43.43,0,1,0,0-.87H3L.87.87H19.13Z" fill="#010101"/></svg>