<svg width="39" height="25" fill="none" xmlns="http://www.w3.org/2000/svg">
	<rect x=".6" y=".224" width="38" height="24" rx="2" fill="#fff"/>
	<rect x="1.1" y=".724" width="37" height="23" rx="1.5" stroke="#000" stroke-opacity=".07"/>
	<g clip-path="url(#a)">
		<path fill-rule="evenodd" clip-rule="evenodd" d="M8.652 15.785c-.311 0-.47-.153-.47-.405 0-.47.524-.629 1.481-.73 0 .626-.424 1.135-1.014 1.135h.003Zm.412-3.525c-.684 0-1.47.322-1.897.662l.39.823c.342-.313.895-.581 1.395-.581.474 0 .736.159.736.479 0 .214-.173.323-.501.366-1.227.159-2.188.497-2.188 1.442 0 .75.533 1.203 1.366 1.203.596 0 1.125-.33 1.376-.764v.646h1.11v-2.71c0-1.117-.776-1.568-1.786-1.568l-.001.002ZM20.195 12.382v4.149h1.186v-2c0-.949.576-1.228.976-1.228a.91.91 0 0 1 .508.15l.216-1.097a1.341 1.341 0 0 0-.529-.096c-.61 0-.993.27-1.246.82v-.698h-1.111ZM28.58 12.26c-.627 0-1.096.37-1.34.728-.226-.461-.706-.728-1.282-.728-.627 0-1.061.348-1.262.75v-.628h-1.144v4.15h1.188v-2.137c0-.765.401-1.134.776-1.134.34 0 .65.219.65.785v2.485h1.186v-2.136c0-.776.392-1.134.784-1.134.314 0 .647.228.647.777v2.493h1.185v-2.868c0-.932-.627-1.403-1.385-1.403M17.307 12.382h-1.075v-.421c0-.55.314-.706.583-.706.185.002.366.047.53.132l.365-.837s-.37-.242-1.045-.242c-.758 0-1.62.428-1.62 1.769v.305h-1.797v-.421c0-.55.313-.706.583-.706.185 0 .367.045.53.132l.365-.837c-.218-.127-.57-.242-1.045-.242-.758 0-1.62.428-1.62 1.769v.305h-.687v.915h.688v3.234h1.186v-3.234h1.799v3.234h1.185v-3.234h1.075v-.915Z" fill="#101820"/>
		<path d="M19.2 12.382h-1.185v4.147h1.184v-4.147Z" fill="#101820"/>
		<path fill-rule="evenodd" clip-rule="evenodd" d="M18.058 11.677h1.16c.677-2.128 2.974-3.999 5.704-3.999 3.322 0 6.192 2.529 6.192 6.465a8.09 8.09 0 0 1-.33 2.388h1.127l.01-.039c.19-.767.284-1.555.28-2.345 0-4.39-3.2-7.55-7.276-7.55-3.203 0-6.057 2.223-6.866 5.081v-.001Z" fill="#4A4AF4"/>
	</g>
	<defs>
		<clipPath id="a">
			<path fill="#fff" transform="translate(7 6.596)" d="M0 0h25.2v10.055H0z"/>
		</clipPath>
	</defs>
</svg>
