<svg width="39" height="25" fill="none" xmlns="http://www.w3.org/2000/svg">
	<g clip-path="url(#a)">
		<rect x=".6" y=".224" width="38" height="24" rx="2" fill="#fff"/>
		<path fill="#B2FCE4" d="M.6.224h38v24H.6z"/>
		<path d="m36.72 10.223-1.06-.61-1.06-.64a1.07 1.07 0 0 0-1.6.93v.13a.23.23 0 0 0 .1.19l.5.28a.201.201 0 0 0 .229-.017.2.2 0 0 0 .051-.063.19.19 0 0 0 0-.1v-.32a.211.211 0 0 1 .12-.2.21.21 0 0 1 .08-.02h.12l1 .57 1 .56a.22.22 0 0 1 .07.3l-.07.07-1 .56-1 .57a.21.21 0 0 1-.29-.07.241.241 0 0 1 0-.12v-.16a1.07 1.07 0 0 0-1.6-.93l-1.08.62-1.06.61a1.08 1.08 0 0 0-.4 1.46c.092.17.231.308.4.4l1.06.61 1.08.61a1.071 1.071 0 0 0 1.6-.93v-.13a.23.23 0 0 0-.1-.19l-.5-.29a.199.199 0 0 0-.28.08.23.23 0 0 0 0 .11v.32a.208.208 0 0 1-.12.2.21.21 0 0 1-.08.02.27.27 0 0 1-.12 0l-1-.57-1-.56a.22.22 0 0 1-.11-.28l.07-.07 1-.56 1-.57a.21.21 0 0 1 .29.07c.01.04.01.081 0 .12v.16a1.07 1.07 0 0 0 1.6.93l1.08-.62 1.06-.61a1.06 1.06 0 0 0 .34-1.47.999.999 0 0 0-.32-.38ZM29.74 10.404l-2.49 5.14h-1l.93-1.92-1.46-3.22h1.06l.94 2.15 1-2.15h1.02ZM4.85 12.223a1 1 0 1 0 0 .05v-.05Zm0 1.83v-.48a1.49 1.49 0 0 1-1.16.54 1.79 1.79 0 0 1-1.75-1.83v-.06a1.82 1.82 0 0 1 1.75-1.89 1.471 1.471 0 0 1 1.14.53v-.46h.89v3.65h-.87ZM10.12 13.224c-.32 0-.4-.12-.4-.42v-1.58h.57v-.79h-.57v-.92H8.8v.89H7.6v-.37c0-.3.12-.42.44-.42h.2v-.71h-.43c-.76 0-1.12.25-1.12 1v.49h-.51v.83h.51v2.86h.91v-2.86h1.2v1.79c0 .75.28 1.07 1 1.07h.5v-.86h-.18ZM13.42 11.893a.87.87 0 0 0-.91-.75.89.89 0 0 0-.92.75h1.83Zm-1.82.57a.91.91 0 0 0 .94.85 1 1 0 0 0 .86-.47h.94a1.79 1.79 0 0 1-1.82 1.27 1.8 1.8 0 0 1-1.92-1.67v-.22a1.89 1.89 0 1 1 3.78 0c.01.077.01.154 0 .23l-2.78.01ZM20.26 12.223a1 1 0 1 0 0 .05v-.05Zm-2.89 3.32v-5.14h.89v.47a1.49 1.49 0 0 1 1.16-.54 1.792 1.792 0 0 1 1.76 1.82v.07a1.82 1.82 0 0 1-1.75 1.89 1.439 1.439 0 0 1-1.11-.49v1.92h-.95ZM24.42 12.223a1 1 0 1 0-1.05 1.05h.05a1 1 0 0 0 1-1v-.05Zm0 1.83v-.48a1.459 1.459 0 0 1-1.15.54 1.792 1.792 0 0 1-1.76-1.82v-.07a1.82 1.82 0 0 1 1.75-1.89 1.45 1.45 0 0 1 1.13.53v-.46h.9v3.65h-.87ZM15.75 10.764a.909.909 0 0 1 .79-.43.88.88 0 0 1 .39.08v.94a1.15 1.15 0 0 0-.65-.17.64.64 0 0 0-.5.71v2.16h-.93v-3.65h.9v.36Z" fill="#000"/>
	</g>
	<defs>
		<clipPath id="a">
			<rect x=".6" y=".224" width="38" height="24" rx="2" fill="#fff"/>
		</clipPath>
	</defs>
</svg>
