<svg width="40" height="25" fill="none" xmlns="http://www.w3.org/2000/svg">
	<rect x="1.3" y=".724" width="37.4" height="23" rx="1.5" fill="#fff"/>
	<rect x="1.3" y=".724" width="37.4" height="23" rx="1.5" stroke="#DDD"/>
	<path fill-rule="evenodd" clip-rule="evenodd" d="M11.554 8.616c-.305.365-.793.653-1.281.611-.061-.493.178-1.017.457-1.34.305-.376.839-.643 1.27-.663.052.513-.147 1.017-.446 1.392Zm.442.709c-.43-.025-.822.13-1.139.257-.204.08-.377.149-.508.149-.147 0-.327-.072-.529-.153-.264-.107-.567-.228-.884-.222-.726.01-1.402.426-1.773 1.09-.762 1.325-.198 3.287.539 4.366.36.535.792 1.12 1.361 1.1.25-.01.431-.087.617-.167.215-.092.438-.188.786-.188.336 0 .55.094.754.183.194.085.381.167.659.162.59-.01.96-.535 1.321-1.069.39-.574.56-1.133.587-1.218l.002-.01a.13.13 0 0 0-.013-.007c-.13-.06-1.125-.52-1.135-1.755-.01-1.037.79-1.562.915-1.645l.015-.01c-.508-.76-1.3-.842-1.575-.863Zm4.08 6.52v-8.01h2.973c1.535 0 2.607 1.069 2.607 2.63 0 1.563-1.092 2.642-2.647 2.642h-1.703v2.738h-1.23Zm1.23-6.962h1.418c1.067 0 1.677.576 1.677 1.588s-.61 1.593-1.682 1.593h-1.413v-3.18Zm8.41 6.001c-.325.627-1.042 1.023-1.814 1.023-1.143 0-1.941-.689-1.941-1.727 0-1.027.772-1.618 2.2-1.705l1.535-.093v-.442c0-.652-.422-1.007-1.174-1.007-.62 0-1.072.324-1.164.817H22.25c.036-1.038 1.002-1.793 2.308-1.793 1.407 0 2.322.745 2.322 1.901v3.987h-1.138v-.96h-.026Zm-1.483.072c-.656 0-1.073-.318-1.073-.806 0-.504.402-.797 1.17-.843l1.366-.087v.452c0 .75-.63 1.284-1.463 1.284Zm6.423 1.203c-.493 1.402-1.057 1.865-2.256 1.865-.092 0-.397-.01-.468-.031v-.961c.076.01.264.02.36.02.545 0 .85-.23 1.037-.832l.112-.354-2.083-5.832h1.285l1.449 4.732h.025l1.448-4.732h1.25l-2.16 6.124Z" fill="#000"/>
</svg>
