<svg width="39" height="25" fill="none" xmlns="http://www.w3.org/2000/svg">
	<rect x=".7" y=".724" width="37.4" height="23" rx="1.5" fill="#fff"/>
	<rect x=".7" y=".724" width="37.4" height="23" rx="1.5" stroke="#DDD"/>
	<path fill-rule="evenodd" clip-rule="evenodd" d="M18.476 15.666V12.5h1.712c.706 0 1.3-.222 1.78-.666a2.135 2.135 0 0 0 .744-1.66 2.145 2.145 0 0 0-.744-1.65 2.53 2.53 0 0 0-1.78-.676h-2.75v7.818h1.038Zm0-4.127V8.81h1.738c.387-.011.76.14 1.025.414.267.251.417.596.417.956s-.15.704-.417.955c-.268.269-.64.415-1.025.404h-1.738ZM26.915 10.737c-.444-.396-1.049-.595-1.815-.595-.984 0-1.727.35-2.23 1.048l.914.557c.337-.473.795-.71 1.374-.71.37-.004.727.127 1 .366.274.22.431.546.429.89v.229c-.398-.219-.905-.328-1.52-.328-.722.001-1.298.165-1.73.492-.432.327-.648.767-.648 1.32-.01.505.216.986.614 1.31.41.35.919.524 1.527.524.713 0 1.283-.305 1.713-.916h.045v.742h.991v-3.297c0-.691-.221-1.235-.664-1.632Zm-2.812 3.946a.795.795 0 0 1-.344-.655c0-.291.141-.534.425-.733.281-.197.633-.295 1.053-.295.579 0 1.03.124 1.353.374 0 .422-.172.789-.515 1.102-.31.3-.729.469-1.166.47a1.292 1.292 0 0 1-.806-.263ZM33.27 10.317l-3.46 7.707h-1.07l1.284-2.697-2.276-5.01h1.127l1.645 3.842h.022l1.6-3.842h1.128Z" fill="#5F6368"/>
	<path fill-rule="evenodd" clip-rule="evenodd" d="M14.287 11.818a5.19 5.19 0 0 0-.08-.914H9.835v1.73h2.504A2.076 2.076 0 0 1 11.413 14v1.123h1.495c.875-.782 1.379-1.938 1.379-3.304Z" fill="#4285F4"/>
	<path fill-rule="evenodd" clip-rule="evenodd" d="M9.835 16.206c1.251 0 2.304-.398 3.073-1.084L11.413 14c-.416.274-.951.43-1.578.43-1.209 0-2.235-.79-2.602-1.854h-1.54v1.157c.787 1.517 2.39 2.474 4.142 2.474Z" fill="#34A853"/>
	<path fill-rule="evenodd" clip-rule="evenodd" d="M7.233 12.575a2.612 2.612 0 0 1 0-1.72V9.7h-1.54a4.367 4.367 0 0 0 0 4.033l1.54-1.157Z" fill="#FBBC04"/>
	<path fill-rule="evenodd" clip-rule="evenodd" d="M9.835 9.002c.661-.01 1.3.231 1.778.673l1.324-1.281a4.534 4.534 0 0 0-3.102-1.17c-1.752 0-3.355.957-4.141 2.475l1.539 1.157a2.764 2.764 0 0 1 2.602-1.854Z" fill="#EA4335"/>
</svg>
