<svg width="39" height="25" fill="none" xmlns="http://www.w3.org/2000/svg">
	<rect x=".6" y=".224" width="38" height="24" rx="2" fill="#FFB3C7"/>
	<path d="M29.92 11.208a2.17 2.17 0 0 0-3.102.685 2.227 2.227 0 0 0 0 2.28c.205.343.5.624.85.812a2.166 2.166 0 0 0 2.253-.127v.267h1.24V10.94h-1.24v.268Zm-1.127 2.902a1.06 1.06 0 0 1-.577-.21 1.077 1.077 0 0 1-.405-1.113 1.063 1.063 0 0 1 1.46-.745 1.086 1.086 0 0 1 .646.99c-.008.294-.131.572-.342.774a1.09 1.09 0 0 1-.782.304ZM12.916 9.075h-1.298v6.05h1.298v-6.05ZM24.303 10.827a1.493 1.493 0 0 0-1.277.585v-.472h-1.235v4.185h1.25v-2.2a.892.892 0 0 1 .25-.688.87.87 0 0 1 .68-.26c.546 0 .86.33.86.94v2.208h1.238v-2.661c0-.974-.767-1.637-1.766-1.637ZM16.838 11.208a2.17 2.17 0 0 0-3.102.685 2.226 2.226 0 0 0 0 2.28c.205.343.5.624.85.812a2.166 2.166 0 0 0 2.252-.127v.267h1.24V10.94h-1.24v.268Zm-1.127 2.902a1.06 1.06 0 0 1-.577-.21 1.077 1.077 0 0 1-.406-1.113c.048-.205.154-.392.305-.537a1.063 1.063 0 0 1 1.156-.208 1.086 1.086 0 0 1 .646.99c-.009.294-.131.572-.342.774a1.09 1.09 0 0 1-.782.304ZM19.998 11.486v-.545h-1.27v4.185h1.273v-1.954c0-.66.707-1.014 1.198-1.014l.014.001v-1.218a1.532 1.532 0 0 0-1.215.545ZM32.478 13.641a.773.773 0 0 0-.72.486.794.794 0 0 0 .17.857.775.775 0 0 0 1.328-.556.794.794 0 0 0-.228-.557.778.778 0 0 0-.55-.23ZM10.723 9.074H9.378a3.506 3.506 0 0 1-.364 1.57c-.242.487-.593.91-1.026 1.235l-.533.403 2.064 2.845h1.698l-1.9-2.618a4.858 4.858 0 0 0 1.406-3.436ZM7.291 9.074H5.944v6.053H7.29V9.074Z" fill="#000"/>
</svg>
