<svg width="39" height="25" fill="none" xmlns="http://www.w3.org/2000/svg">
	<rect x=".8" y=".224" width="38" height="24" rx="2" fill="#873EFF"/>
	<rect x="1.3" y=".724" width="37" height="23" rx="1.5" stroke="#000" stroke-opacity=".07"/>
	<path d="M29.33 16.279a.548.548 0 0 0 .179.057c.075.012.15.019.226.019a.7.7 0 0 0 .378-.095.607.607 0 0 0 .245-.302l.322-.746.075.633-2.04-5.034h1.049l1.34 3.438 1.341-3.438h1.048l-2.21 5.411c0 .007-.002.01-.009.01v.019c-.1.232-.226.421-.377.566a1.267 1.267 0 0 1-.5.312c-.183.063-.391.094-.624.094a2.742 2.742 0 0 1-.595-.066l.151-.878ZM25.825 15.486c-.39 0-.74-.094-1.049-.283a1.999 1.999 0 0 1-.727-.831c-.17-.359-.255-.784-.255-1.275 0-.484.085-.906.255-1.265.177-.365.419-.645.727-.84a1.919 1.919 0 0 1 1.049-.293c.314 0 .61.078.887.236.277.15.504.365.68.642l-.028.727c-.095-.195-.265-.365-.51-.51a1.454 1.454 0 0 0-.746-.217c-.258 0-.488.066-.69.198a1.235 1.235 0 0 0-.453.538c-.1.227-.15.488-.15.784 0 .454.115.822.348 1.105.233.277.548.415.945.415.258 0 .506-.069.746-.207.245-.139.415-.309.51-.51l.018.727c-.176.264-.4.475-.67.633a1.79 1.79 0 0 1-.887.226Zm1.473-.113v-4.561h.972v4.56h-.973ZM18.748 15.373V9.075h2.757c.428 0 .796.088 1.105.264.308.176.544.416.708.718.164.302.246.632.246.991 0 .36-.082.69-.246.992a1.808 1.808 0 0 1-.718.708c-.308.176-.673.264-1.095.264h-1.813v-.953h1.662c.214 0 .403-.041.567-.123a.944.944 0 0 0 .377-.359c.095-.157.142-.334.142-.529a.977.977 0 0 0-.142-.528.867.867 0 0 0-.377-.36 1.251 1.251 0 0 0-.567-.122h-1.51v5.335h-1.096ZM8.916 15.482c.733 0 1.322-.362 1.766-1.196l.987-1.848v1.567c0 .924.598 1.477 1.522 1.477.724 0 1.259-.317 1.775-1.196l2.274-3.84c.498-.843.145-1.477-.951-1.477-.59 0-.97.19-1.314.834l-1.567 2.943V10.13c0-.78-.371-1.16-1.06-1.16-.543 0-.978.236-1.313.888l-1.476 2.89v-2.591c0-.834-.345-1.187-1.178-1.187H6.678c-.643 0-.969.3-.969.852s.344.87.97.87h.697v3.305c0 .933.625 1.486 1.54 1.486Z" fill="#fff"/>
</svg>
