<svg xmlns="http://www.w3.org/2000/svg" xmlns:xlink="http://www.w3.org/1999/xlink" width="20px" height="20px" viewBox="0 0 20 20" version="1.1">
<g id="surface1">
<path style=" stroke:none;fill:#fff;fill-rule:nonzero;fill-opacity:1;" d="M 7.601562 7.601562 C 6.988281 8.214844 6.609375 9.0625 6.609375 10 C 6.609375 10.9375 6.988281 11.785156 7.601562 12.394531 C 8.214844 13.007812 9.0625 13.390625 10 13.390625 C 10.933594 13.390625 11.78125 13.007812 12.394531 12.394531 C 13.007812 11.785156 13.386719 10.9375 13.386719 10 C 13.386719 9.0625 13.007812 8.214844 12.394531 7.601562 C 11.78125 6.988281 10.933594 6.609375 10 6.609375 C 9.0625 6.609375 8.214844 6.988281 7.601562 7.601562 "/>
<path style=" stroke:none;fill:#fff;fill-rule:nonzero;fill-opacity:1;" d="M 9.097656 1.277344 L 5.996094 3.066406 L 2.898438 4.859375 C 2.324219 5.1875 1.996094 5.757812 1.996094 6.421875 L 1.996094 13.578125 C 1.996094 14.242188 2.324219 14.8125 2.898438 15.140625 L 5.996094 16.929688 L 9.097656 18.71875 C 9.671875 19.050781 10.328125 19.050781 10.902344 18.71875 L 14 16.929688 L 16.621094 15.417969 C 16.6875 15.378906 16.726562 15.3125 16.726562 15.234375 C 16.726562 15.160156 16.6875 15.09375 16.621094 15.054688 L 15.3125 14.304688 C 15.210938 14.246094 15.175781 14.117188 15.234375 14.015625 L 15.316406 13.871094 L 14.472656 13.386719 C 14.316406 13.59375 14.148438 13.785156 13.964844 13.964844 C 12.953125 14.984375 11.546875 15.609375 9.996094 15.609375 C 8.449219 15.609375 7.046875 14.984375 6.027344 13.964844 C 5.015625 12.949219 4.386719 11.546875 4.386719 9.996094 C 4.386719 8.449219 5.015625 7.046875 6.027344 6.027344 C 7.042969 5.011719 8.449219 4.382812 9.996094 4.382812 C 11.546875 4.382812 12.949219 5.011719 13.964844 6.03125 C 14.984375 7.042969 15.609375 8.449219 15.609375 9.996094 C 15.609375 10.746094 15.464844 11.460938 15.195312 12.117188 L 16.042969 12.597656 L 16.125 12.449219 C 16.183594 12.347656 16.3125 12.3125 16.414062 12.371094 C 16.839844 12.613281 17.261719 12.851562 17.6875 13.097656 C 17.753906 13.132812 17.828125 13.132812 17.898438 13.09375 C 17.964844 13.054688 18.003906 12.988281 18.003906 12.914062 L 18.003906 6.417969 C 18.003906 5.757812 17.675781 5.1875 17.097656 4.855469 L 10.902344 1.277344 C 10.617188 1.113281 10.308594 1.03125 10 1.03125 C 9.691406 1.03125 9.382812 1.113281 9.097656 1.277344 "/>
</g>
</svg>