<svg
	xmlns="http://www.w3.org/2000/svg"
	viewBox="0 0 24 24"
	width="24"
	height="24"
>
	<path
		style="fill-opacity: 1; fill: #fff"
		d="M 12,1.1901745 C 2.4471312,6.5950874 2.4471312,6.5950874 2.4471312,6.5950874 c 0,10.8098246 0,10.8098246 0,10.8098246 C 12,22.809825 12,22.809825 12,22.809825 c 9.552869,-5.404913 9.552869,-5.404913 9.552869,-5.404913 0,-10.8098246 0,-10.8098246 0,-10.8098246 z m 0,17.9744745 c -4.0222609,0 -7.1646508,-3.14239 -7.1646508,-7.16465 0,-4.0222602 3.1423899,-7.1646515 7.1646508,-7.1646515 4.022259,0 7.164652,3.1423913 7.164652,7.1646515 0,4.02226 -3.142393,7.16465 -7.164652,7.16465 z"
	/>
	<path
		style="fill-opacity: 1; fill: #fff"
		d="m 16.329516,12.000001 c 0,2.374253 -1.955265,4.329515 -4.329516,4.329515 -2.3742504,0 -4.3295163,-1.955262 -4.3295163,-4.329515 0,-2.3742516 1.9552659,-4.3295175 4.3295163,-4.3295175 2.374251,0 4.329516,1.9552659 4.329516,4.3295175 z"
	/>
</svg>