<?xml version="1.0" encoding="utf-8"?>
<!-- Generator: Adobe Illustrator 16.0.0, SVG Export Plug-In . SVG Version: 6.00 Build 0)  -->
<!DOCTYPE svg PUBLIC "-//W3C//DTD SVG 1.1//EN" "http://www.w3.org/Graphics/SVG/1.1/DTD/svg11.dtd">
<svg version="1.1" id="Layer_1" xmlns="http://www.w3.org/2000/svg" xmlns:xlink="http://www.w3.org/1999/xlink" x="0px" y="0px"
	 width="196.667px" height="40px" viewBox="0 0 196.667 40" enable-background="new 0 0 196.667 40" xml:space="preserve">
<g>
	<g>
		<defs>
			<path id="SVGID_1_" d="M15.595,15.685c-1.104,1.103-1.786,2.627-1.786,4.314s0.682,3.212,1.786,4.313
				c1.104,1.104,2.631,1.789,4.314,1.789c1.685,0,3.211-0.686,4.315-1.789c1.104-1.102,1.786-2.627,1.786-4.313
				s-0.682-3.211-1.786-4.314c-1.104-1.106-2.631-1.789-4.315-1.789C18.226,13.896,16.699,14.579,15.595,15.685"/>
		</defs>
		<defs>
			<path id="SVGID_2_" d="M18.283,4.301l-5.577,3.221l-5.577,3.221c-1.035,0.597-1.626,1.622-1.626,2.815v12.881
				c0,1.195,0.591,2.219,1.626,2.816l5.577,3.22l5.577,3.221c1.033,0.597,2.219,0.597,3.253,0l5.576-3.221l4.714-2.721
				c0.12-0.072,0.19-0.189,0.19-0.33c0-0.138-0.071-0.258-0.191-0.329l-2.35-1.349c-0.182-0.104-0.246-0.336-0.144-0.518
				l0.151-0.262l-1.521-0.866c-0.279,0.367-0.583,0.717-0.909,1.041c-1.827,1.829-4.354,2.959-7.144,2.959
				c-2.788,0-5.314-1.13-7.144-2.959c-1.827-1.828-2.959-4.354-2.959-7.144c0-2.79,1.132-5.315,2.959-7.144
				c1.829-1.829,4.355-2.961,7.144-2.961c2.789,0.002,5.316,1.132,7.144,2.963c1.829,1.827,2.959,4.352,2.959,7.142
				c0,1.349-0.263,2.636-0.744,3.813l1.519,0.866l0.151-0.265c0.104-0.183,0.336-0.245,0.518-0.143
				c0.768,0.437,1.528,0.867,2.292,1.307c0.121,0.068,0.258,0.068,0.38-0.004c0.12-0.068,0.188-0.188,0.188-0.326l0.002-5.248v-6.44
				c0-1.193-0.591-2.218-1.626-2.815l-5.578-3.221l-5.576-3.221c-0.519-0.298-1.074-0.445-1.627-0.445
				C19.355,3.856,18.801,4.003,18.283,4.301"/>
		</defs>
		<linearGradient id="SVGID_3_" gradientUnits="userSpaceOnUse" x1="27.7041" y1="12.2061" x2="19.0755" y2="20.8346">
			<stop  offset="0" style="stop-color:#8DC85B"/>
			<stop  offset="1" style="stop-color:#00AEEF"/>
		</linearGradient>
		<use xlink:href="#SVGID_1_"  overflow="visible" fill="url(#SVGID_3_)"/>
		<linearGradient id="SVGID_4_" gradientUnits="userSpaceOnUse" x1="35.875" y1="3.7783" x2="12.326" y2="27.3274">
			<stop  offset="0" style="stop-color:#8DC85B"/>
			<stop  offset="1" style="stop-color:#00AEEF"/>
		</linearGradient>
		<use xlink:href="#SVGID_2_"  overflow="visible" fill="url(#SVGID_4_)"/>
		<clipPath id="SVGID_5_">
			<use xlink:href="#SVGID_1_"  overflow="visible"/>
		</clipPath>
		<clipPath id="SVGID_6_" clip-path="url(#SVGID_5_)">
			<use xlink:href="#SVGID_2_"  overflow="visible"/>
		</clipPath>
		<g clip-path="url(#SVGID_6_)">
			<defs>
				<rect id="SVGID_7_" x="4.264" y="2.841" width="31.61" height="34.573"/>
			</defs>
			<linearGradient id="SVGID_8_" gradientUnits="userSpaceOnUse" x1="4.2637" y1="20.1279" x2="35.874" y2="20.1279">
				<stop  offset="0" style="stop-color:#8DC85B"/>
				<stop  offset="1" style="stop-color:#00AEEF"/>
			</linearGradient>
			<use xlink:href="#SVGID_7_"  overflow="visible" fill="url(#SVGID_8_)"/>
			<clipPath id="SVGID_9_">
				<use xlink:href="#SVGID_7_"  overflow="visible"/>
			</clipPath>
		</g>
	</g>
	<g>
		<path d="M63.786,16.555c-0.813-0.443-1.748-0.667-2.805-0.667c-0.804,0-1.559,0.136-2.263,0.402
			c-0.702,0.269-1.315,0.663-1.835,1.182c-0.52,0.521-0.931,1.164-1.232,1.924c-0.303,0.763-0.453,1.637-0.453,2.627
			c0,1.374,0.269,2.536,0.805,3.483c0.537,0.948,1.296,1.66,2.275,2.139c0.981,0.477,2.117,0.717,3.407,0.717
			c0.789,0,1.498-0.085,2.126-0.252c0.629-0.169,1.126-0.402,1.496-0.705c0.369-0.303,0.554-0.637,0.554-1.006
			c0-0.233-0.063-0.451-0.188-0.652c-0.127-0.204-0.289-0.362-0.49-0.479c-0.353,0.253-0.822,0.485-1.408,0.704
			c-0.588,0.218-1.233,0.326-1.938,0.326c-1.173,0-2.121-0.297-2.842-0.894c-0.57-0.47-0.949-1.138-1.152-1.98l7.364-1.047
			c0.369-0.033,0.654-0.154,0.855-0.354c0.199-0.2,0.302-0.512,0.302-0.93c0-1.006-0.227-1.903-0.68-2.69
			C65.232,17.616,64.598,16.998,63.786,16.555 M57.682,21.545c0.052-1.125,0.356-2.011,0.937-2.641
			c0.619-0.669,1.4-1.005,2.339-1.005c0.922,0,1.634,0.269,2.139,0.805c0.501,0.539,0.778,1.192,0.828,1.962L57.682,21.545z"/>
		<path fill="none" stroke="#231F20" stroke-width="0.231" stroke-miterlimit="2.613" d="M63.786,16.555
			c-0.813-0.443-1.748-0.667-2.805-0.667c-0.804,0-1.559,0.136-2.263,0.402c-0.702,0.269-1.315,0.663-1.835,1.182
			c-0.52,0.521-0.931,1.164-1.232,1.924c-0.303,0.763-0.453,1.637-0.453,2.627c0,1.374,0.269,2.536,0.805,3.483
			c0.537,0.948,1.296,1.66,2.275,2.139c0.981,0.477,2.117,0.717,3.407,0.717c0.789,0,1.498-0.085,2.126-0.252
			c0.629-0.169,1.126-0.402,1.496-0.705c0.369-0.303,0.554-0.637,0.554-1.006c0-0.233-0.063-0.451-0.188-0.652
			c-0.127-0.204-0.289-0.362-0.49-0.479c-0.353,0.253-0.822,0.485-1.408,0.704c-0.588,0.218-1.233,0.326-1.938,0.326
			c-1.173,0-2.121-0.297-2.842-0.894c-0.57-0.47-0.949-1.138-1.152-1.98l7.364-1.047c0.369-0.033,0.654-0.154,0.855-0.354
			c0.199-0.2,0.302-0.512,0.302-0.93c0-1.006-0.227-1.903-0.68-2.69C65.232,17.616,64.598,16.998,63.786,16.555z M57.682,21.545
			c0.052-1.125,0.356-2.011,0.937-2.641c0.619-0.669,1.4-1.005,2.339-1.005c0.922,0,1.634,0.269,2.139,0.805
			c0.501,0.539,0.778,1.192,0.828,1.962L57.682,21.545z"/>
		<path d="M49.353,19.131l-1.484-0.449c-0.787-0.236-1.365-0.51-1.734-0.819c-0.369-0.31-0.554-0.719-0.554-1.219
			c0-0.638,0.262-1.142,0.78-1.508c0.521-0.369,1.233-0.554,2.138-0.554c0.82,0,1.575,0.114,2.262,0.338
			c0.689,0.227,1.233,0.499,1.636,0.818c0.217-0.135,0.394-0.307,0.528-0.516c0.135-0.209,0.201-0.45,0.201-0.717
			c0-0.402-0.206-0.763-0.617-1.081c-0.41-0.318-0.98-0.574-1.709-0.768c-0.729-0.194-1.556-0.289-2.477-0.289
			c-1.66,0-2.98,0.382-3.962,1.146c-0.979,0.761-1.472,1.807-1.472,3.13c0,0.754,0.156,1.399,0.467,1.936
			c0.311,0.536,0.754,0.981,1.332,1.333c0.58,0.351,1.254,0.654,2.024,0.905l1.911,0.578c0.838,0.234,1.458,0.545,1.86,0.931
			c0.402,0.385,0.604,0.881,0.604,1.483c0,0.688-0.259,1.258-0.778,1.712c-0.52,0.451-1.308,0.678-2.364,0.678
			c-0.955,0-1.781-0.174-2.477-0.517c-0.695-0.342-1.254-0.7-1.672-1.067c-0.253,0.116-0.483,0.289-0.692,0.517
			c-0.209,0.224-0.314,0.505-0.314,0.841c0,0.417,0.222,0.813,0.666,1.182c0.445,0.369,1.057,0.663,1.837,0.881
			c0.778,0.215,1.68,0.327,2.703,0.327c1.844,0,3.27-0.421,4.274-1.26c1.006-0.839,1.509-1.936,1.509-3.293
			c0-1.257-0.39-2.251-1.169-2.981C51.83,20.102,50.744,19.536,49.353,19.131"/>
		<path fill="none" stroke="#231F20" stroke-width="0.231" stroke-miterlimit="2.613" d="M49.353,19.131l-1.484-0.449
			c-0.787-0.236-1.365-0.51-1.734-0.819c-0.369-0.31-0.554-0.719-0.554-1.219c0-0.638,0.262-1.142,0.78-1.508
			c0.521-0.369,1.233-0.554,2.138-0.554c0.82,0,1.575,0.114,2.262,0.338c0.689,0.227,1.233,0.499,1.636,0.818
			c0.217-0.135,0.394-0.307,0.528-0.516c0.135-0.209,0.201-0.45,0.201-0.717c0-0.402-0.206-0.763-0.617-1.081
			c-0.41-0.318-0.98-0.574-1.709-0.768c-0.729-0.194-1.556-0.289-2.477-0.289c-1.66,0-2.98,0.382-3.962,1.146
			c-0.979,0.761-1.472,1.807-1.472,3.13c0,0.754,0.156,1.399,0.467,1.936c0.311,0.536,0.754,0.981,1.332,1.333
			c0.58,0.351,1.254,0.654,2.024,0.905l1.911,0.578c0.838,0.234,1.458,0.545,1.86,0.931c0.402,0.385,0.604,0.881,0.604,1.483
			c0,0.688-0.259,1.258-0.778,1.712c-0.52,0.451-1.308,0.678-2.364,0.678c-0.955,0-1.781-0.174-2.477-0.517
			c-0.695-0.342-1.254-0.7-1.672-1.067c-0.253,0.116-0.483,0.289-0.692,0.517c-0.209,0.224-0.314,0.505-0.314,0.841
			c0,0.417,0.222,0.813,0.666,1.182c0.445,0.369,1.057,0.663,1.837,0.881c0.778,0.215,1.68,0.327,2.703,0.327
			c1.844,0,3.27-0.421,4.274-1.26c1.006-0.839,1.509-1.936,1.509-3.293c0-1.257-0.39-2.251-1.169-2.981
			C51.83,20.102,50.744,19.536,49.353,19.131z"/>
		<path d="M76.297,16.909c-0.915-0.681-2.151-1.021-3.711-1.021c-0.636,0-1.261,0.06-1.872,0.178
			c-0.613,0.115-1.152,0.284-1.621,0.502c-0.588,0.267-0.882,0.663-0.882,1.181c0,0.218,0.063,0.427,0.189,0.63
			c0.126,0.2,0.264,0.358,0.415,0.476c0.486-0.233,1.04-0.443,1.659-0.627c0.62-0.185,1.267-0.278,1.937-0.278
			c0.855,0,1.521,0.174,2,0.516c0.478,0.345,0.716,0.883,0.716,1.622v0.578l-3.495,0.354c-1.325,0.115-2.348,0.471-3.067,1.065
			c-0.723,0.597-1.082,1.446-1.082,2.555c0,1.223,0.457,2.153,1.371,2.791c0.913,0.637,2.183,0.955,3.81,0.955
			c0.871,0,1.655-0.095,2.352-0.276c0.694-0.185,1.26-0.402,1.696-0.654c0.303-0.167,0.537-0.36,0.704-0.578
			c0.168-0.219,0.251-0.521,0.251-0.905v-5.86C77.666,18.655,77.21,17.585,76.297,16.909 M75.152,25.797
			c-0.201,0.118-0.516,0.238-0.943,0.364c-0.427,0.125-0.942,0.189-1.546,0.189c-0.89,0-1.552-0.16-1.986-0.479
			c-0.437-0.317-0.654-0.755-0.654-1.308c0-0.537,0.197-0.943,0.59-1.222c0.395-0.273,0.977-0.438,1.749-0.49l2.791-0.3V25.797z"/>
		<path fill="none" stroke="#231F20" stroke-width="0.231" stroke-miterlimit="2.613" d="M76.297,16.909
			c-0.915-0.681-2.151-1.021-3.711-1.021c-0.636,0-1.261,0.06-1.872,0.178c-0.613,0.115-1.152,0.284-1.621,0.502
			c-0.588,0.267-0.882,0.663-0.882,1.181c0,0.218,0.063,0.427,0.189,0.63c0.126,0.2,0.264,0.358,0.415,0.476
			c0.486-0.233,1.04-0.443,1.659-0.627c0.62-0.185,1.267-0.278,1.937-0.278c0.855,0,1.521,0.174,2,0.516
			c0.478,0.345,0.716,0.883,0.716,1.622v0.578l-3.495,0.354c-1.325,0.115-2.348,0.471-3.067,1.065
			c-0.723,0.597-1.082,1.446-1.082,2.555c0,1.223,0.457,2.153,1.371,2.791c0.913,0.637,2.183,0.955,3.81,0.955
			c0.871,0,1.655-0.095,2.352-0.276c0.694-0.185,1.26-0.402,1.696-0.654c0.303-0.167,0.537-0.36,0.704-0.578
			c0.168-0.219,0.251-0.521,0.251-0.905v-5.86C77.666,18.655,77.21,17.585,76.297,16.909z M75.152,25.797
			c-0.201,0.118-0.516,0.238-0.943,0.364c-0.427,0.125-0.942,0.189-1.546,0.189c-0.89,0-1.552-0.16-1.986-0.479
			c-0.437-0.317-0.654-0.755-0.654-1.308c0-0.537,0.197-0.943,0.59-1.222c0.395-0.273,0.977-0.438,1.749-0.49l2.791-0.3V25.797z"/>
		<path d="M85.625,15.915c-0.903,0-1.738,0.1-2.502,0.3c-0.762,0.203-1.379,0.454-1.848,0.754c-0.352,0.236-0.617,0.482-0.792,0.743
			c-0.176,0.26-0.265,0.592-0.265,0.992v2.667v1.081v4.526c0,0.42,0.117,0.721,0.352,0.905s0.588,0.275,1.057,0.275
			c0.252,0,0.482-0.021,0.691-0.063c0.211-0.041,0.373-0.087,0.491-0.138v-5.507v-0.855v-2.841c0.369-0.201,0.834-0.376,1.396-0.527
			c0.563-0.151,1.186-0.227,1.873-0.227c0.268,0,0.531,0.016,0.793,0.049c0.258,0.036,0.473,0.069,0.641,0.103
			c0.084-0.118,0.154-0.265,0.215-0.44c0.057-0.176,0.088-0.365,0.088-0.567C87.814,16.326,87.086,15.915,85.625,15.915"/>
		<path fill="none" stroke="#231F20" stroke-width="0.231" stroke-miterlimit="2.613" d="M85.625,15.915
			c-0.903,0-1.738,0.1-2.502,0.3c-0.762,0.203-1.379,0.454-1.848,0.754c-0.352,0.236-0.617,0.482-0.792,0.743
			c-0.176,0.26-0.265,0.592-0.265,0.992v2.667v1.081v4.526c0,0.42,0.117,0.721,0.352,0.905s0.588,0.275,1.057,0.275
			c0.252,0,0.482-0.021,0.691-0.063c0.211-0.041,0.373-0.087,0.491-0.138v-5.507v-0.855v-2.841c0.369-0.201,0.834-0.376,1.396-0.527
			c0.563-0.151,1.186-0.227,1.873-0.227c0.268,0,0.531,0.016,0.793,0.049c0.258,0.036,0.473,0.069,0.641,0.103
			c0.084-0.118,0.154-0.265,0.215-0.44c0.057-0.176,0.088-0.365,0.088-0.567C87.814,16.326,87.086,15.915,85.625,15.915z"/>
		<path d="M97.457,25.395c-0.336,0.218-0.73,0.415-1.182,0.591c-0.453,0.176-1.006,0.263-1.66,0.263
			c-1.105,0-2.008-0.352-2.701-1.055c-0.697-0.704-1.045-1.72-1.045-3.043c0-1.341,0.361-2.367,1.082-3.082
			c0.721-0.712,1.607-1.068,2.664-1.068c0.637,0,1.174,0.089,1.609,0.265c0.436,0.176,0.832,0.374,1.184,0.59
			c0.184-0.116,0.338-0.267,0.465-0.452c0.125-0.184,0.188-0.396,0.188-0.627c0-0.505-0.338-0.943-1.018-1.322
			c-0.68-0.378-1.557-0.567-2.629-0.567c-1.125,0-2.154,0.235-3.094,0.705c-0.938,0.47-1.688,1.167-2.25,2.09
			c-0.561,0.921-0.842,2.075-0.842,3.468c0,1.375,0.268,2.523,0.805,3.443c0.537,0.924,1.273,1.616,2.211,2.076
			c0.941,0.46,2.021,0.692,3.246,0.692c1.09,0,1.977-0.176,2.666-0.53c0.686-0.351,1.029-0.787,1.029-1.306
			c0-0.251-0.066-0.47-0.201-0.654C97.852,25.688,97.674,25.527,97.457,25.395"/>
		<path fill="none" stroke="#231F20" stroke-width="0.231" stroke-miterlimit="2.613" d="M97.457,25.395
			c-0.336,0.218-0.73,0.415-1.182,0.591c-0.453,0.176-1.006,0.263-1.66,0.263c-1.105,0-2.008-0.352-2.701-1.055
			c-0.697-0.704-1.045-1.72-1.045-3.043c0-1.341,0.361-2.367,1.082-3.082c0.721-0.712,1.607-1.068,2.664-1.068
			c0.637,0,1.174,0.089,1.609,0.265c0.436,0.176,0.832,0.374,1.184,0.59c0.184-0.116,0.338-0.267,0.465-0.452
			c0.125-0.184,0.188-0.396,0.188-0.627c0-0.505-0.338-0.943-1.018-1.322c-0.68-0.378-1.557-0.567-2.629-0.567
			c-1.125,0-2.154,0.235-3.094,0.705c-0.938,0.47-1.688,1.167-2.25,2.09c-0.561,0.921-0.842,2.075-0.842,3.468
			c0,1.375,0.268,2.523,0.805,3.443c0.537,0.924,1.273,1.616,2.211,2.076c0.941,0.46,2.021,0.692,3.246,0.692
			c1.09,0,1.977-0.176,2.666-0.53c0.686-0.351,1.029-0.787,1.029-1.306c0-0.251-0.066-0.47-0.201-0.654
			C97.852,25.688,97.674,25.527,97.457,25.395z"/>
		<path d="M105.818,15.888c-0.805,0-1.525,0.131-2.162,0.389c-0.34,0.14-0.637,0.28-0.906,0.42v-4.002
			c0-0.436-0.113-0.746-0.338-0.93c-0.229-0.185-0.576-0.278-1.045-0.278c-0.25,0-0.486,0.026-0.705,0.076
			c-0.217,0.051-0.385,0.093-0.502,0.125v9.682v1.309v4.301c0,0.418,0.117,0.721,0.352,0.905c0.236,0.185,0.588,0.277,1.057,0.277
			c0.25,0,0.482-0.022,0.691-0.064c0.209-0.041,0.373-0.089,0.49-0.138v-5.281v-1.309v-2.478c0.281-0.205,0.592-0.398,0.957-0.565
			c0.52-0.233,1.088-0.349,1.709-0.349c0.787,0,1.434,0.218,1.936,0.652c0.504,0.438,0.754,1.117,0.754,2.038v0.729v1.561v4.022
			c0,0.418,0.115,0.721,0.342,0.905s0.58,0.277,1.068,0.277c0.25,0,0.486-0.022,0.705-0.064c0.217-0.041,0.375-0.089,0.477-0.138
			v-5.003v-1.561v-0.83c0-1.56-0.449-2.729-1.346-3.508C108.453,16.277,107.277,15.888,105.818,15.888"/>
		<path fill="none" stroke="#231F20" stroke-width="0.231" stroke-miterlimit="2.613" d="M105.818,15.888
			c-0.805,0-1.525,0.131-2.162,0.389c-0.34,0.14-0.637,0.28-0.906,0.42v-4.002c0-0.436-0.113-0.746-0.338-0.93
			c-0.229-0.185-0.576-0.278-1.045-0.278c-0.25,0-0.486,0.026-0.705,0.076c-0.217,0.051-0.385,0.093-0.502,0.125v9.682v1.309v4.301
			c0,0.418,0.117,0.721,0.352,0.905c0.236,0.185,0.588,0.277,1.057,0.277c0.25,0,0.482-0.022,0.691-0.064
			c0.209-0.041,0.373-0.089,0.49-0.138v-5.281v-1.309v-2.478c0.281-0.205,0.592-0.398,0.957-0.565
			c0.52-0.233,1.088-0.349,1.709-0.349c0.787,0,1.434,0.218,1.936,0.652c0.504,0.438,0.754,1.117,0.754,2.038v0.729v1.561v4.022
			c0,0.418,0.115,0.721,0.342,0.905s0.58,0.277,1.068,0.277c0.25,0,0.486-0.022,0.705-0.064c0.217-0.041,0.375-0.089,0.477-0.138
			v-5.003v-1.561v-0.83c0-1.56-0.449-2.729-1.346-3.508C108.453,16.277,107.277,15.888,105.818,15.888z"/>
		<path d="M130.033,22.88c0.27-0.939,0.402-1.854,0.402-2.741c0-0.454-0.098-0.805-0.289-1.057
			c-0.193-0.251-0.516-0.378-0.967-0.378c-0.184,0-0.369,0.027-0.555,0.076c-0.184,0.051-0.377,0.118-0.578,0.2
			c0,0.926-0.072,1.785-0.213,2.579c-0.098,0.543-0.232,1.008-0.391,1.439l-4.352-4.445c-0.469-0.467-0.828-0.883-1.08-1.244
			c-0.252-0.36-0.377-0.768-0.377-1.219c0-0.502,0.176-0.896,0.529-1.181c0.352-0.287,0.82-0.429,1.406-0.429
			c0.354,0,0.695,0.047,1.031,0.14c0.336,0.091,0.621,0.204,0.855,0.338c0.168-0.115,0.307-0.271,0.416-0.465
			c0.107-0.193,0.164-0.398,0.164-0.614c0-0.438-0.232-0.797-0.693-1.084c-0.461-0.285-1.152-0.427-2.074-0.427
			c-0.889,0-1.646,0.151-2.275,0.452c-0.629,0.302-1.104,0.72-1.42,1.259c-0.32,0.537-0.479,1.148-0.479,1.836
			c0,0.536,0.113,1.057,0.34,1.557c0.178,0.398,0.48,0.821,0.85,1.259c-0.504,0.185-0.988,0.42-1.43,0.754
			c-0.576,0.436-1.039,0.972-1.383,1.611c-0.344,0.636-0.516,1.382-0.516,2.235c0,0.99,0.238,1.867,0.717,2.628
			c0.479,0.763,1.156,1.359,2.037,1.786s1.916,0.642,3.105,0.642c1.09,0,2.063-0.181,2.918-0.541
			c0.752-0.318,1.393-0.762,1.949-1.293l1.094,1.128c0.402,0.454,0.811,0.682,1.23,0.682c0.385,0,0.695-0.127,0.932-0.379
			c0.234-0.251,0.379-0.578,0.428-0.979l-2.168-2.217C129.539,24.212,129.832,23.592,130.033,22.88 M124.678,25.948
			c-0.637,0.233-1.23,0.351-1.785,0.351c-1.072,0-1.908-0.28-2.502-0.84c-0.596-0.563-0.893-1.297-0.893-2.203
			c0-0.555,0.115-1.034,0.352-1.446c0.234-0.409,0.535-0.74,0.904-0.992c0.303-0.207,0.617-0.349,0.941-0.454l4.463,4.612
			C125.691,25.428,125.199,25.754,124.678,25.948"/>
		<path fill="none" stroke="#231F20" stroke-width="0.231" stroke-miterlimit="2.613" d="M130.033,22.88
			c0.27-0.939,0.402-1.854,0.402-2.741c0-0.454-0.098-0.805-0.289-1.057c-0.193-0.251-0.516-0.378-0.967-0.378
			c-0.184,0-0.369,0.027-0.555,0.076c-0.184,0.051-0.377,0.118-0.578,0.2c0,0.926-0.072,1.785-0.213,2.579
			c-0.098,0.543-0.232,1.008-0.391,1.439l-4.352-4.445c-0.469-0.467-0.828-0.883-1.08-1.244c-0.252-0.36-0.377-0.768-0.377-1.219
			c0-0.502,0.176-0.896,0.529-1.181c0.352-0.287,0.82-0.429,1.406-0.429c0.354,0,0.695,0.047,1.031,0.14
			c0.336,0.091,0.621,0.204,0.855,0.338c0.168-0.115,0.307-0.271,0.416-0.465c0.107-0.193,0.164-0.398,0.164-0.614
			c0-0.438-0.232-0.797-0.693-1.084c-0.461-0.285-1.152-0.427-2.074-0.427c-0.889,0-1.646,0.151-2.275,0.452
			c-0.629,0.302-1.104,0.72-1.42,1.259c-0.32,0.537-0.479,1.148-0.479,1.836c0,0.536,0.113,1.057,0.34,1.557
			c0.178,0.398,0.48,0.821,0.85,1.259c-0.504,0.185-0.988,0.42-1.43,0.754c-0.576,0.436-1.039,0.972-1.383,1.611
			c-0.344,0.636-0.516,1.382-0.516,2.235c0,0.99,0.238,1.867,0.717,2.628c0.479,0.763,1.156,1.359,2.037,1.786
			s1.916,0.642,3.105,0.642c1.09,0,2.063-0.181,2.918-0.541c0.752-0.318,1.393-0.762,1.949-1.293l1.094,1.128
			c0.402,0.454,0.811,0.682,1.23,0.682c0.385,0,0.695-0.127,0.932-0.379c0.234-0.251,0.379-0.578,0.428-0.979l-2.168-2.217
			C129.539,24.212,129.832,23.592,130.033,22.88z M124.678,25.948c-0.637,0.233-1.23,0.351-1.785,0.351
			c-1.072,0-1.908-0.28-2.502-0.84c-0.596-0.563-0.893-1.297-0.893-2.203c0-0.555,0.115-1.034,0.352-1.446
			c0.234-0.409,0.535-0.74,0.904-0.992c0.303-0.207,0.617-0.349,0.941-0.454l4.463,4.612
			C125.691,25.428,125.199,25.754,124.678,25.948z"/>
		<path d="M147.258,12.746h-8.373c-0.42,0-0.76,0.125-1.02,0.376s-0.387,0.596-0.387,1.03v5.306v2.316v5.179
			c0,0.419,0.115,0.726,0.35,0.916c0.234,0.194,0.594,0.29,1.08,0.29c0.254,0,0.492-0.021,0.719-0.063
			c0.225-0.041,0.389-0.08,0.49-0.113v-6.261h5.58c0.303,0,0.539-0.1,0.707-0.302c0.168-0.201,0.25-0.485,0.25-0.855
			c0-0.202-0.029-0.394-0.088-0.578s-0.121-0.336-0.188-0.452h-6.262v-0.078h-0.025v-4.549h6.463c0.318,0,0.561-0.103,0.729-0.303
			s0.252-0.479,0.252-0.83c0-0.216-0.031-0.423-0.088-0.617C147.389,12.969,147.326,12.828,147.258,12.746"/>
		<path fill="none" stroke="#231F20" stroke-width="0.231" stroke-miterlimit="2.613" d="M147.258,12.746h-8.373
			c-0.42,0-0.76,0.125-1.02,0.376s-0.387,0.596-0.387,1.03v5.306v2.316v5.179c0,0.419,0.115,0.726,0.35,0.916
			c0.234,0.194,0.594,0.29,1.08,0.29c0.254,0,0.492-0.021,0.719-0.063c0.225-0.041,0.389-0.08,0.49-0.113v-6.261h5.58
			c0.303,0,0.539-0.1,0.707-0.302c0.168-0.201,0.25-0.485,0.25-0.855c0-0.202-0.029-0.394-0.088-0.578s-0.121-0.336-0.188-0.452
			h-6.262v-0.078h-0.025v-4.549h6.463c0.318,0,0.561-0.103,0.729-0.303s0.252-0.479,0.252-0.83c0-0.216-0.031-0.423-0.088-0.617
			C147.389,12.969,147.326,12.828,147.258,12.746z"/>
		<path d="M150.59,11.487c-0.436,0-0.805,0.142-1.105,0.427c-0.301,0.287-0.453,0.647-0.453,1.081c0,0.42,0.152,0.777,0.453,1.07
			c0.301,0.294,0.67,0.44,1.105,0.44c0.469,0,0.846-0.146,1.133-0.44c0.283-0.293,0.426-0.65,0.426-1.07
			c0-0.434-0.143-0.794-0.426-1.081C151.436,11.629,151.059,11.487,150.59,11.487"/>
		<path fill="none" stroke="#231F20" stroke-width="0.231" stroke-miterlimit="2.613" d="M150.59,11.487
			c-0.436,0-0.805,0.142-1.105,0.427c-0.301,0.287-0.453,0.647-0.453,1.081c0,0.42,0.152,0.777,0.453,1.07
			c0.301,0.294,0.67,0.44,1.105,0.44c0.469,0,0.846-0.146,1.133-0.44c0.283-0.293,0.426-0.65,0.426-1.07
			c0-0.434-0.143-0.794-0.426-1.081C151.436,11.629,151.059,11.487,150.59,11.487z"/>
		<path d="M150.516,16.139c-0.252,0-0.49,0.022-0.717,0.065s-0.391,0.078-0.49,0.113v5.054v1.307v4.301
			c0,0.42,0.117,0.721,0.354,0.905c0.232,0.185,0.584,0.275,1.053,0.275c0.254,0,0.482-0.021,0.691-0.063
			c0.209-0.039,0.373-0.087,0.492-0.138v-5.281v-1.307v-4.024c0-0.451-0.113-0.767-0.34-0.943
			C151.332,16.228,150.984,16.139,150.516,16.139"/>
		<path fill="none" stroke="#231F20" stroke-width="0.231" stroke-miterlimit="2.613" d="M150.516,16.139
			c-0.252,0-0.49,0.022-0.717,0.065s-0.391,0.078-0.49,0.113v5.054v1.307v4.301c0,0.42,0.117,0.721,0.354,0.905
			c0.232,0.185,0.584,0.275,1.053,0.275c0.254,0,0.482-0.021,0.691-0.063c0.209-0.039,0.373-0.087,0.492-0.138v-5.281v-1.307v-4.024
			c0-0.451-0.113-0.767-0.34-0.943C151.332,16.228,150.984,16.139,150.516,16.139z"/>
		<path d="M156.035,11.487c-0.236,0-0.463,0.026-0.68,0.076c-0.219,0.051-0.387,0.093-0.504,0.126v9.682v1.307v4.301
			c0,0.418,0.117,0.721,0.352,0.905c0.236,0.185,0.588,0.277,1.059,0.277c0.252,0,0.484-0.022,0.701-0.064
			c0.219-0.041,0.379-0.089,0.48-0.138V22.88v-1.283v-8.901c0-0.436-0.115-0.746-0.34-0.93
			C156.877,11.581,156.521,11.487,156.035,11.487"/>
		<path fill="none" stroke="#231F20" stroke-width="0.231" stroke-miterlimit="2.613" d="M156.035,11.487
			c-0.236,0-0.463,0.026-0.68,0.076c-0.219,0.051-0.387,0.093-0.504,0.126v9.682v1.307v4.301c0,0.418,0.117,0.721,0.352,0.905
			c0.236,0.185,0.588,0.277,1.059,0.277c0.252,0,0.484-0.022,0.701-0.064c0.219-0.041,0.379-0.089,0.48-0.138V22.88v-1.283v-8.901
			c0-0.436-0.115-0.746-0.34-0.93C156.877,11.581,156.521,11.487,156.035,11.487z"/>
		<path d="M167.477,25.821c-0.219,0.118-0.494,0.218-0.83,0.303c-0.336,0.081-0.635,0.124-0.904,0.124
			c-0.637,0-1.133-0.124-1.482-0.376c-0.354-0.251-0.529-0.679-0.529-1.283v-2.514v-0.706v-2.816h1.092h2.176
			c0.285,0,0.506-0.087,0.668-0.262c0.158-0.176,0.238-0.44,0.238-0.792c0-0.202-0.029-0.396-0.088-0.578
			c-0.061-0.185-0.123-0.328-0.189-0.427h-2.805h-1.092v-2.49c0-0.436-0.113-0.747-0.34-0.932c-0.229-0.183-0.574-0.276-1.045-0.276
			c-0.25,0-0.484,0.025-0.705,0.076c-0.217,0.052-0.385,0.093-0.502,0.127v3.495h-0.693c-0.283,0-0.504,0.087-0.664,0.262
			c-0.16,0.176-0.238,0.44-0.238,0.792c0,0.202,0.029,0.394,0.086,0.578c0.061,0.185,0.123,0.328,0.189,0.427h1.32v2.816v0.706
			v2.665c0,1.29,0.373,2.218,1.119,2.778s1.748,0.844,3.006,0.844c0.887,0,1.555-0.143,1.998-0.428
			c0.447-0.285,0.668-0.647,0.668-1.081c0-0.22-0.047-0.416-0.139-0.592C167.699,26.085,167.594,25.939,167.477,25.821"/>
		<path fill="none" stroke="#231F20" stroke-width="0.231" stroke-miterlimit="2.613" d="M167.477,25.821
			c-0.219,0.118-0.494,0.218-0.83,0.303c-0.336,0.081-0.635,0.124-0.904,0.124c-0.637,0-1.133-0.124-1.482-0.376
			c-0.354-0.251-0.529-0.679-0.529-1.283v-2.514v-0.706v-2.816h1.092h2.176c0.285,0,0.506-0.087,0.668-0.262
			c0.158-0.176,0.238-0.44,0.238-0.792c0-0.202-0.029-0.396-0.088-0.578c-0.061-0.185-0.123-0.328-0.189-0.427h-2.805h-1.092v-2.49
			c0-0.436-0.113-0.747-0.34-0.932c-0.229-0.183-0.574-0.276-1.045-0.276c-0.25,0-0.484,0.025-0.705,0.076
			c-0.217,0.052-0.385,0.093-0.502,0.127v3.495h-0.693c-0.283,0-0.504,0.087-0.664,0.262c-0.16,0.176-0.238,0.44-0.238,0.792
			c0,0.202,0.029,0.394,0.086,0.578c0.061,0.185,0.123,0.328,0.189,0.427h1.32v2.816v0.706v2.665c0,1.29,0.373,2.218,1.119,2.778
			s1.748,0.844,3.006,0.844c0.887,0,1.555-0.143,1.998-0.428c0.447-0.285,0.668-0.647,0.668-1.081c0-0.22-0.047-0.416-0.139-0.592
			C167.699,26.085,167.594,25.939,167.477,25.821z"/>
		<path d="M178.277,16.555c-0.813-0.443-1.748-0.667-2.805-0.667c-0.807,0-1.559,0.136-2.262,0.402
			c-0.705,0.269-1.318,0.663-1.838,1.182c-0.52,0.521-0.93,1.164-1.232,1.924c-0.301,0.763-0.453,1.637-0.453,2.627
			c0,1.374,0.27,2.536,0.807,3.483c0.537,0.948,1.295,1.66,2.275,2.139c0.98,0.477,2.117,0.717,3.406,0.717
			c0.789,0,1.498-0.085,2.125-0.252c0.631-0.169,1.127-0.402,1.496-0.705s0.553-0.637,0.553-1.006c0-0.233-0.063-0.451-0.188-0.652
			c-0.125-0.204-0.289-0.362-0.488-0.479c-0.355,0.253-0.824,0.485-1.41,0.704c-0.586,0.218-1.232,0.326-1.936,0.326
			c-1.174,0-2.121-0.297-2.842-0.892c-0.57-0.472-0.949-1.137-1.152-1.982l7.363-1.047c0.369-0.033,0.652-0.151,0.857-0.354
			c0.199-0.2,0.301-0.51,0.301-0.93c0-1.006-0.229-1.903-0.68-2.69C179.723,17.616,179.09,16.998,178.277,16.555 M172.172,21.545
			c0.053-1.125,0.357-2.011,0.938-2.638c0.619-0.672,1.398-1.008,2.338-1.008c0.922,0,1.637,0.269,2.139,0.805
			c0.502,0.539,0.777,1.192,0.83,1.962L172.172,21.545z"/>
		<path fill="none" stroke="#231F20" stroke-width="0.231" stroke-miterlimit="2.613" d="M178.277,16.555
			c-0.813-0.443-1.748-0.667-2.805-0.667c-0.807,0-1.559,0.136-2.262,0.402c-0.705,0.269-1.318,0.663-1.838,1.182
			c-0.52,0.521-0.93,1.164-1.232,1.924c-0.301,0.763-0.453,1.637-0.453,2.627c0,1.374,0.27,2.536,0.807,3.483
			c0.537,0.948,1.295,1.66,2.275,2.139c0.98,0.477,2.117,0.717,3.406,0.717c0.789,0,1.498-0.085,2.125-0.252
			c0.631-0.169,1.127-0.402,1.496-0.705s0.553-0.637,0.553-1.006c0-0.233-0.063-0.451-0.188-0.652
			c-0.125-0.204-0.289-0.362-0.488-0.479c-0.355,0.253-0.824,0.485-1.41,0.704c-0.586,0.218-1.232,0.326-1.936,0.326
			c-1.174,0-2.121-0.297-2.842-0.892c-0.57-0.472-0.949-1.137-1.152-1.982l7.363-1.047c0.369-0.033,0.652-0.151,0.857-0.354
			c0.199-0.2,0.301-0.51,0.301-0.93c0-1.006-0.229-1.903-0.68-2.69C179.723,17.616,179.09,16.998,178.277,16.555z M172.172,21.545
			c0.053-1.125,0.357-2.011,0.938-2.638c0.619-0.672,1.398-1.008,2.338-1.008c0.922,0,1.637,0.269,2.139,0.805
			c0.502,0.539,0.777,1.192,0.83,1.962L172.172,21.545z"/>
		<path d="M188.977,15.915c-0.906,0-1.74,0.1-2.502,0.3c-0.764,0.203-1.381,0.454-1.85,0.754c-0.352,0.236-0.615,0.482-0.791,0.743
			c-0.176,0.26-0.266,0.592-0.266,0.992v2.667v1.081v4.526c0,0.42,0.119,0.721,0.354,0.905s0.586,0.275,1.055,0.275
			c0.254,0,0.482-0.021,0.691-0.063c0.211-0.041,0.375-0.087,0.49-0.138v-5.507v-0.855v-2.841c0.369-0.201,0.834-0.376,1.396-0.527
			s1.186-0.227,1.875-0.227c0.268,0,0.529,0.016,0.791,0.049c0.26,0.036,0.473,0.069,0.641,0.103
			c0.086-0.118,0.154-0.265,0.215-0.44c0.059-0.176,0.088-0.365,0.088-0.567C191.164,16.326,190.434,15.915,188.977,15.915"/>
		<path fill="none" stroke="#231F20" stroke-width="0.231" stroke-miterlimit="2.613" d="M188.977,15.915
			c-0.906,0-1.74,0.1-2.502,0.3c-0.764,0.203-1.381,0.454-1.85,0.754c-0.352,0.236-0.615,0.482-0.791,0.743
			c-0.176,0.26-0.266,0.592-0.266,0.992v2.667v1.081v4.526c0,0.42,0.119,0.721,0.354,0.905s0.586,0.275,1.055,0.275
			c0.254,0,0.482-0.021,0.691-0.063c0.211-0.041,0.375-0.087,0.49-0.138v-5.507v-0.855v-2.841c0.369-0.201,0.834-0.376,1.396-0.527
			s1.186-0.227,1.875-0.227c0.268,0,0.529,0.016,0.791,0.049c0.26,0.036,0.473,0.069,0.641,0.103
			c0.086-0.118,0.154-0.265,0.215-0.44c0.059-0.176,0.088-0.365,0.088-0.567C191.164,16.326,190.434,15.915,188.977,15.915z"/>
	</g>
</g>
</svg>
