<?xml version="1.0" encoding="utf-8"?>
<!-- Svg Vector Icons : http://www.onlinewebfonts.com/icon -->
<!DOCTYPE svg PUBLIC "-//W3C//DTD SVG 1.1//EN" "http://www.w3.org/Graphics/SVG/1.1/DTD/svg11.dtd">
<svg version="1.1" xmlns="http://www.w3.org/2000/svg" xmlns:xlink="http://www.w3.org/1999/xlink" x="0px" y="0px" viewBox="0 0 1000 1000" enable-background="new 0 0 1000 1000" xml:space="preserve">
<metadata> Svg Vector Icons : http://www.onlinewebfonts.com/icon </metadata>
    <g><g transform="translate(0.000000,512.000000) scale(0.100000,-0.100000)"><path d="M4854.3,5002.8c-111.2-42.2-184.1-103.6-226.3-191.8c-36.4-74.8-40.3-117-40.3-420v-335.6l-164.9-32.6c-241.6-47.9-431.5-115.1-688.5-239.7c-792.1-387.4-1350.1-1106.6-1545.8-1992.6c-38.4-174.5-42.2-260.8-55.6-1336.7c-13.4-1052.9-17.3-1166-53.7-1334.8c-124.7-590.7-397-1083.6-820.8-1495.9c-187.9-180.3-350.9-306.8-550.4-423.8l-130.4-74.8l46-80.5c24.9-44.1,82.5-151.5,128.5-237.8l84.4-159.2H5000h4163.5l84.4,159.2c46,86.3,103.6,193.7,128.5,237.8l46,80.5l-134.2,78.6c-218.6,126.6-421.9,289.6-625.2,502.5c-381.7,395.1-625.2,861.1-742.2,1413.4c-36.4,168.8-40.3,283.9-53.7,1325.2c-15.3,1144.9-19.2,1206.3-95.9,1501.6c-264.6,1037.5-1131.5,1856.4-2195.9,2075.1l-211,42.2l-9.6,352.9c-9.6,327.9-13.4,358.6-53.7,425.7C5212.9,4979.7,5001.9,5056.5,4854.3,5002.8z M4338.4,3219.2c76.7-38.4,140-145.8,126.6-222.5c-15.3-103.6-61.4-151.5-218.6-230.1c-358.6-180.3-613.7-437.3-797.8-803.6c-99.7-197.5-195.6-251.2-347.1-188c-72.9,30.7-124.7,115.1-124.7,201.4c0,138.1,218.6,502.5,441.1,738.4c172.6,180.3,358.6,320.3,584.9,437.3C4181.1,3246,4255.9,3261.4,4338.4,3219.2z"/><path d="M3926-3807.6c36.4-268.5,138.1-479.5,316.4-657.8c212.9-212.9,458.4-314.5,757.5-314.5s544.7,101.7,757.5,314.5c180.3,180.3,283.8,395.1,314.5,657.8l11.5,90.1H4998.1H3914.5L3926-3807.6z"/></g></g>
</svg>
