<svg width="64" height="40" viewBox="0 0 64 40" fill="none" xmlns="http://www.w3.org/2000/svg">
<rect width="64" height="40" rx="3" fill="#00A1E9"/>
<path d="M21.6578 6C19.0831 6 17 8.00771 17 10.4864V29.5144C17 31.9912 19.0831 34 21.6578 34H41.42C43.9926 34 46.0766 31.9913 46.0766 29.5144V29.3198C45.99 29.285 38.5199 26.2845 34.723 24.5264C32.1615 27.562 28.8575 29.4037 25.427 29.4037C19.6262 29.4037 17.6563 24.5148 20.403 21.2966C21.0019 20.5951 22.0207 19.9248 23.6019 19.5496C26.0754 18.9644 30.0119 19.915 33.7014 21.0875C34.365 19.9102 34.9233 18.6136 35.3392 17.2331H23.9693V16.1242H29.8321V14.1359H22.7312V13.026H29.8321V10.1897C29.8321 10.1897 29.8321 9.7119 30.3349 9.7119H33.2009V13.026H40.2208V14.1359H33.2009V16.1242H38.9309C38.3826 18.2873 37.5501 20.2784 36.505 22.0262C38.2441 22.632 39.8051 23.2065 40.9685 23.5817C44.849 24.8321 45.9365 24.9849 46.0769 25.0009V10.4865C46.0769 8.00781 43.9929 6.00009 41.4203 6.00009L21.6578 6ZM24.8464 21.1705C24.5974 21.1733 24.3473 21.1864 24.0953 21.2103C23.3689 21.2806 22.0051 21.5893 21.2595 22.2244C19.0247 24.1012 20.3623 27.5324 24.8854 27.5324C27.5148 27.5324 30.1419 25.9136 32.2057 23.3216C29.5451 22.0714 27.2533 21.1437 24.8464 21.1705Z" fill="white"/>
</svg>
