<svg width="64" height="40" viewBox="0 0 64 40" fill="none" xmlns="http://www.w3.org/2000/svg">
<rect width="64" height="40" rx="3" fill="white"/>
<path fill-rule="evenodd" clip-rule="evenodd" d="M40.8613 15.9999H42.6667V14.6666L41.3333 13.9999L32 9.33325L22.6667 13.9999L21.3333 14.6666V15.9999H40.8613ZM36.8613 13.9999L32 11.5693L27.1387 13.9999H36.8613ZM26.332 26.5866V17.9199H24.332V26.5866H26.332ZM32.9987 17.9199V26.5866H30.9987V17.9199H32.9987ZM39.6653 17.9199V26.5866H37.6653V17.9199H39.6653ZM42.668 29.6666C42.668 30.2186 42.2227 30.6666 41.6707 30.6666H22.336C22.0708 30.6666 21.8164 30.5612 21.6289 30.3737C21.4414 30.1862 21.336 29.9318 21.336 29.6666C21.336 29.4014 21.4414 29.147 21.6289 28.9595C21.8164 28.7719 22.0708 28.6666 22.336 28.6666H41.6693C41.9343 28.6669 42.1883 28.7724 42.3756 28.9599C42.5628 29.1474 42.668 29.4016 42.668 29.6666Z" fill="#1E1E1E"/>
</svg>

