<svg width="64" height="40" viewBox="0 0 64 40" fill="none" xmlns="http://www.w3.org/2000/svg">
<rect width="64" height="40" rx="3" fill="#010101"/>
<rect x="0.5" y="0.5" width="63" height="39" rx="2.5" stroke="black" stroke-opacity="0.07"/>
<path d="M24.4973 11.9789C24.5092 10.1492 23.0355 8.65619 21.2057 8.64431C19.3759 8.63243 17.8829 10.1061 17.8711 11.9359C17.8592 13.7657 19.3329 15.2587 21.1627 15.2705C22.9924 15.2824 24.4854 13.8087 24.4973 11.9789Z" fill="url(#paint0_linear_281_8109)"/>
<path d="M27.1015 9.70654H30.805V30.7206H27.1015V9.70654Z" fill="white"/>
<path d="M34.0916 16.957H37.795V30.7207H34.0916V16.957Z" fill="white"/>
<path d="M17.4728 16.8195C16.3133 16.8179 15.1715 17.1044 14.1502 17.6534V9.70703H10.4463V23.8432C10.4459 25.2328 10.8576 26.5912 11.6293 27.7468C12.401 28.9024 13.4981 29.8032 14.7818 30.3352C16.0654 30.8673 17.478 31.0067 18.841 30.7359C20.2039 30.4651 21.4559 29.7963 22.4387 28.8139C23.4214 27.8315 24.0908 26.5798 24.3622 25.217C24.6335 23.8541 24.4946 22.4415 23.9631 21.1576C23.4315 19.8737 22.5312 18.7763 21.3759 18.0041C20.2206 17.232 18.8623 16.8197 17.4728 16.8195ZM17.4728 27.2246C16.8041 27.2246 16.1505 27.0264 15.5945 26.6549C15.0385 26.2834 14.6051 25.7554 14.3492 25.1376C14.0933 24.5199 14.0263 23.8401 14.1567 23.1843C14.2872 22.5284 14.6091 21.926 15.0819 21.4531C15.5547 20.9803 16.1571 20.6582 16.8129 20.5277C17.4687 20.3972 18.1485 20.4641 18.7663 20.7199C19.3841 20.9758 19.9122 21.409 20.2837 21.965C20.6553 22.5209 20.8536 23.1745 20.8537 23.8432C20.8539 24.2873 20.7666 24.727 20.5968 25.1373C20.4269 25.5476 20.1779 25.9205 19.8639 26.2345C19.5499 26.5485 19.1772 26.7976 18.7669 26.9675C18.3566 27.1374 17.9168 27.2248 17.4728 27.2246Z" fill="white"/>
<path d="M49.9783 30.7216H54.7489L49.0172 23.3189L54.2146 16.958H49.8876L44.7836 23.3586V9.70947H41.0792V30.7216H44.7836L44.7808 23.3763L49.9783 30.7216Z" fill="white"/>
<defs>
<linearGradient id="paint0_linear_281_8109" x1="18.8233" y1="14.2812" x2="23.5451" y2="9.62697" gradientUnits="userSpaceOnUse">
<stop stop-color="#E52F08"/>
<stop offset="1" stop-color="#E94F96"/>
</linearGradient>
</defs>
</svg>
