<svg width="64" height="40" viewBox="0 0 64 40" fill="none" xmlns="http://www.w3.org/2000/svg">
<rect width="64" height="40" rx="3" fill="white"/>
<path fill-rule="evenodd" clip-rule="evenodd" d="M23.3333 16.6667V14H40.6667V16.6667H23.3333ZM23.3333 20.6667V26H40.6667V20.6667H23.3333ZM21.3333 13.3333C21.3333 12.9797 21.4738 12.6406 21.7239 12.3905C21.9739 12.1405 22.313 12 22.6667 12H41.3333C41.6869 12 42.0261 12.1405 42.2761 12.3905C42.5262 12.6406 42.6667 12.9797 42.6667 13.3333V26.6667C42.6667 27.0203 42.5262 27.3594 42.2761 27.6095C42.0261 27.8595 41.6869 28 41.3333 28H22.6667C22.313 28 21.9739 27.8595 21.7239 27.6095C21.4738 27.3594 21.3333 27.0203 21.3333 26.6667V13.3333Z" fill="#1E1E1E"/>
</svg>

